<svg xmlns="http://www.w3.org/2000/svg" xmlns:xlink="http://www.w3.org/1999/xlink" viewBox="0 0 322 271">
  <defs>
    <linearGradient id="a" data-name="未命名漸層 49" x1="163.04" y1="165.21" x2="197.55" y2="165.21" gradientUnits="userSpaceOnUse">
      <stop offset="0" stop-color="#96d3e9"/>
      <stop offset="0.99" stop-color="#c2e4ed"/>
    </linearGradient>
    <linearGradient id="b" x1="120.74" y1="168.97" x2="157.48" y2="168.97" xlink:href="#a"/>
    <linearGradient id="c" x1="154.97" y1="194.16" x2="201.45" y2="194.16" xlink:href="#a"/>
    <linearGradient id="d" x1="196.16" y1="174.54" x2="219.82" y2="174.54" xlink:href="#a"/>
    <linearGradient id="e" x1="225.66" y1="178.02" x2="234.85" y2="178.02" xlink:href="#a"/>
    <linearGradient id="f" x1="235.96" y1="186.92" x2="298.86" y2="186.92" xlink:href="#a"/>
    <linearGradient id="g" x1="197.55" y1="127.64" x2="222.04" y2="127.64" xlink:href="#a"/>
    <linearGradient id="h" x1="23.14" y1="104.24" x2="166.38" y2="104.24" xlink:href="#a"/>
  </defs>
  
  <g>
    <g>
      <path d="M217.38,173.73l6.59-5.07a6.81,6.81,0,0,0-3.12-12.12l-2.45-.38h0a6.81,6.81,0,0,0,5.47-2.76,6.81,6.81,0,0,0,4.95-6.55v-3.07a7,7,0,0,0-.55-2.7L223,128.84a6.81,6.81,0,0,0-6.25-4.11h-1.51l-3-4.17a6.64,6.64,0,0,0,1-1.74l1.95-4.73a6.83,6.83,0,0,0-.64-6.38,6.75,6.75,0,0,0-2-2,6.86,6.86,0,0,0-2.9-3,6.82,6.82,0,0,0-6-3.6h-3.9a6.81,6.81,0,0,0-6.81,6.81v1.65a6.77,6.77,0,0,0-2.23,5v2.79a6.78,6.78,0,0,0,1.35,4.06l12,16.09a6.78,6.78,0,0,0-2.73,5.45v1.67a6.8,6.8,0,0,0,6.33,6.79l1.25,2.73a6.78,6.78,0,0,0,5.67,3.93,6.91,6.91,0,0,0-2.46,1.14l-1.52,1.15h-5.8a6.94,6.94,0,0,0-1.77.25,6.76,6.76,0,0,0-1.63-1.57,6.81,6.81,0,0,0,.93-8.11l-3.9-6.68a6.8,6.8,0,0,0-10.24-1.8l-4.78,4h-2.27a6.81,6.81,0,0,0-4.3,1.53l-7.51,6.12a6.67,6.67,0,0,0-1.57,1.83l-.53,0a6.79,6.79,0,0,0-5,2.16l-2.77,2.95a6.82,6.82,0,0,0-1.4-1.73l-2.42-2.15v-3.05a6.83,6.83,0,0,0-1.6-4.38L152,145.31h1.57a6.82,6.82,0,0,0,4.47-1.68l12.8-11.13a6.8,6.8,0,0,0,2.34-5.14V115.67a6.81,6.81,0,0,0-6.81-6.81h-1.66L159,104l1.82-4.43a6.79,6.79,0,0,0-3.92-9l-10.89-4V77a6.81,6.81,0,0,0-6.81-6.81h-16L108.53,59.54a6.8,6.8,0,0,0-4-1.31h-11l3.82-8a6.81,6.81,0,0,0-4.75-9.59l-19.11-4a7.28,7.28,0,0,0-1.39-.14,6.84,6.84,0,0,0-3.49,1L37.21,56.16c-.22.11-.44.22-.65.35L26.84,62.3a6.8,6.8,0,0,0-2.72,3L16.94,81.22a6.8,6.8,0,0,0,1.63,7.85l8.81,8a6.67,6.67,0,0,0,1,.76,6.79,6.79,0,0,0,1.88,2.68l6.4,5.56a6.83,6.83,0,0,0,7.68.87l15.18,40.89a6.82,6.82,0,0,0,7.86,4.28l2.5-.56a6.8,6.8,0,0,0,5.2-8l-.4-2,2.16-2.16a6.8,6.8,0,0,0,2-4.81V119.86l23.31-20.6,8.72,13.18v4.9A6.81,6.81,0,0,0,122,122.62l1.39-1.13.25.42-.51,18.35a6.66,6.66,0,0,0,.31,2.13,7.23,7.23,0,0,0-1.29-.13,6.81,6.81,0,0,0-6.41,4.52l-1.39,3.9a6.8,6.8,0,0,0,2.42,7.81l10.49,7.58.06,1a6.75,6.75,0,0,0,1.74,4.1l3.26,3.63v1a6.8,6.8,0,0,0,2.14,5l13.92,13.08a6.39,6.39,0,0,0,1.71,1.14,6.67,6.67,0,0,0,1.49,1.19l10.57,6.12a6.85,6.85,0,0,0,3.42.92h5.66l1.58,1.93a6.8,6.8,0,0,0,5.28,2.52h23.38a6.81,6.81,0,0,0,6.81-6.81v-2.78a6.82,6.82,0,0,0-3.78-6.1,6.62,6.62,0,0,0,1.83-1.86l.43,0a6.74,6.74,0,0,0,3.5-1l2.78-1.67a6.81,6.81,0,0,0,2.26-9.47l-.44-.69.89-.88A6.72,6.72,0,0,0,217.38,173.73Zm-75.92-38.48.86.76v.61l-.89-1.24ZM189.28,191a6.63,6.63,0,0,0,2.24-1.48,7.14,7.14,0,0,0,1.31,1.76h-2.64Z" fill="#dff0fa"/>
      <path d="M304.37,199.62l-2.23-3.06a6.8,6.8,0,0,0-5-2.79l-1.95-2.42a6.8,6.8,0,0,0-2.06-6.71L285,177.4a6.73,6.73,0,0,0-2-1.23L260,166.71a6.63,6.63,0,0,0-2.58-.51,6.76,6.76,0,0,0-4.67,1.86,6.82,6.82,0,0,0-6.46-4.64h-6.68a6.73,6.73,0,0,0-3.23.81l-3.62,2a6.58,6.58,0,0,0-2.16,1.86,6.75,6.75,0,0,0-2.4-.45,6.82,6.82,0,0,0-6,3.62l-2.51,4.73a6.81,6.81,0,0,0,4.23,9.76l9.18,2.51a7,7,0,0,0,1.8.23,6.85,6.85,0,0,0,4.13-1.39l.15-.14a7,7,0,0,0,2,.8l11.18,2.63a3.05,3.05,0,0,0-.13.32l-.84,2.22a6.81,6.81,0,0,0,6.38,9.2h4.69l1.07,1.07a6.8,6.8,0,0,0,4.81,2H276a6.84,6.84,0,0,0,2.93-.66l.44.61a6.82,6.82,0,0,0,5.53,2.84h1.36l.51.51a6.84,6.84,0,0,0,4.81,2h7.24a6.81,6.81,0,0,0,5.51-10.81Z" fill="#dff0fa"/>
    </g>
    <g>
      <polygon points="168.89 171.34 168.89 177.74 175.01 177.74 175.01 181.91 182.25 181.91 182.25 184.7 186.7 184.7 193.1 166.61 197.55 166.61 197.55 162.71 192.82 159.93 192.82 154.64 196.44 152.41 192.54 145.73 185.86 151.3 181.13 151.3 173.62 157.42 173.62 163.27 170 163.27 167.22 160.76 163.04 165.22 168.89 171.34" fill="url(#a)"/>
      <polygon points="157.47 175.51 154.97 175.51 153.3 176.9 148.01 171.34 149.4 168.55 141.05 161.6 127.14 150.19 122.13 149.07 120.74 152.97 133.82 162.43 134.1 166.61 139.11 172.17 139.11 175.79 153.02 188.87 157.47 186.37 157.47 175.51" fill="url(#b)"/>
      <polygon points="178.91 194.99 178.91 192.21 171.67 188.87 171.67 191.1 166.1 191.1 158.87 187.48 154.97 190.26 165.55 196.39 174.45 196.39 178.07 200.84 201.45 200.84 201.45 198.06 189.2 198.06 178.91 194.99" fill="url(#c)"/>
      <path d="M212.86,165.21h-8.07l-5.57,4.46s-2.78,10.57-3.06,11.13l1.39,5.57h3.06v-8.63h2.23l3.9,5.57,2.78-1.67-3.34-5.29,4.73-4.73H207l-3.9,2.78-1.67-2.78,3.9-2.79h7.23l7.24-5.56-3.62-.56Z" fill="url(#d)"/>
      <polygon points="225.66 179.13 234.85 181.63 234.85 177.46 228.17 174.4 225.66 179.13" fill="url(#e)"/>
      <polygon points="296.63 200.56 293.85 200.56 286.89 191.93 288.56 189.71 280.49 182.47 257.39 173.01 251.27 178.85 246.26 178.85 246.26 170.22 239.58 170.22 235.96 172.17 238.47 174.4 238.47 178.02 242.64 178.02 242.64 181.08 256.83 184.42 261.84 192.77 258.5 193.05 257.67 195.27 265.18 195.27 268.25 198.33 276.04 198.33 276.04 195.83 272.42 195.83 278.54 192.21 284.94 201.12 289.12 201.12 291.62 203.62 298.86 203.62 296.63 200.56" fill="url(#f)"/>
      <polygon points="211.75 131.54 203.4 119.85 204.51 116.23 207.01 116.23 208.96 111.5 206.46 111.5 206.46 108.72 203.68 108.72 203.68 105.93 199.78 105.93 199.78 112.61 197.55 112.61 197.55 115.4 213.69 137.1 213.69 141 208.13 141 208.13 142.67 212.03 142.67 215.09 149.35 218.43 149.35 218.43 143.51 220.37 143.51 220.37 146.85 222.04 146.85 222.04 143.78 216.76 131.54 211.75 131.54" fill="url(#g)"/>
      <polygon points="125.19 111.22 125.4 111.58 130.48 120.13 129.92 140.44 133.16 144.34 139.38 151.85 139.38 155.47 153.02 165.22 153.58 162.43 148.85 158.26 148.85 152.13 143 145.18 141.05 146.57 136.83 140.65 134.1 136.83 137.44 122.63 143.12 127.64 149.13 132.93 149.13 138.5 153.58 138.5 166.38 127.36 166.38 115.67 163.19 115.67 163.16 115.68 163.16 115.67 162.21 115.67 150.8 105.93 154.5 96.94 139.17 91.25 139.17 77.03 120.96 77.03 104.52 65.04 82.75 65.04 91.19 47.27 72.09 43.27 40.1 62.37 40.05 62.35 30.32 68.15 23.14 84.03 31.95 92.02 37.52 92.02 37.52 95.36 34.74 95.36 41.14 100.92 45.31 98.42 45.31 93.69 46.71 93.69 65.91 145.45 68.41 144.9 67.3 139.33 72.03 134.6 72.03 116.79 100.7 91.46 105.15 91.46 117.68 110.39 117.68 117.34 125.19 111.22" fill="url(#h)"/>
    </g>
    <g>
      <rect x="38.82" y="230.89" width="107.41" height="3.65" rx="1.49" ry="1.49" fill="#7cbce8"/>
      <rect x="151.69" y="230.89" width="10.32" height="3.65" rx="1.49" ry="1.49" fill="#7cbce8"/>
      <g>
        <path d="M62.75,220.83l3,6.42a8.24,8.24,0,0,0,7.42,4.85h49.28a8.22,8.22,0,0,0,7.26-4.51l3.52-6.76Z" fill="#1b507b"/>
        <polyline points="70.58 220.83 75.97 210.69 111.8 210.69 120.9 220.83" fill="#7dc8c5"/>
        <path d="M76.09,203.17H95.18a5.68,5.68,0,0,1,5.68,5.68v1.83a0,0,0,0,1,0,0H76.09a0,0,0,0,1,0,0v-7.51A0,0,0,0,1,76.09,203.17Z" fill="#1b507b"/>
        <rect x="79.57" y="213.69" width="2.86" height="3.01" fill="#1f2b60"/>
        <rect x="85.29" y="213.69" width="2.86" height="3.01" fill="#1f2b60"/>
        <rect x="91.02" y="213.69" width="2.86" height="3.01" fill="#1f2b60"/>
        <rect x="96.74" y="213.69" width="2.86" height="3.01" fill="#1f2b60"/>
      </g>
      <rect x="84.45" y="116.03" width="4.17" height="87.49" fill="#1b507b"/>
      <rect x="88.17" y="116.03" width="93.48" height="55.82" fill="#1b507b"/>
      <circle cx="134.67" cy="143.88" r="22.14" fill="#ec7163"/>
      <g>
        <path d="M130,143.31a13.34,13.34,0,0,1-7.94-8.73,20.43,20.43,0,0,1-.36-2.6,2.38,2.38,0,0,1,0-.7c0-.11.18-.31.26-.3.67.09,2-.23,2,.06.17,1,.38,2.38.59,3.36a2.5,2.5,0,0,0,.16.43.47.47,0,0,0,.23-.59c-.2-.9-.38-1.8-.53-2.71-.09-.55,0-.6.52-.6s.91,0,1.37,0,.48.11.5.46a17.33,17.33,0,0,0,1.17,5,22.42,22.42,0,0,0,3.82,6.48.55.55,0,0,1,0,.86,22.33,22.33,0,0,0-4.45,8.4,28.59,28.59,0,0,0-.58,3.2c0,.27-.12.36-.38.35-.5,0-1,0-1.49,0-.33,0-.43-.11-.4-.43a14.93,14.93,0,0,1,1.4-5.24,19,19,0,0,1,4.88-6.27l.44-.38c-.66-.63-1.32-1.2-1.92-1.84a22.42,22.42,0,0,1-1.67-2,19.2,19.2,0,0,1-1.43-2.23,7.51,7.51,0,0,1-1-2.35c-.26.55-.26.56,0,1.1a18.07,18.07,0,0,0,4.22,5.87l1.5,1.38c-.53.48-1,.91-1.52,1.37a17.36,17.36,0,0,0-4.94,7.84,23.44,23.44,0,0,0-.54,2.75c0,.32-.15.43-.46.41s-.91,0-1.37,0-.44-.08-.42-.42a13.34,13.34,0,0,1,3.16-8.17,13.08,13.08,0,0,1,4.79-3.57Z" fill="#f5d376"/>
        <path d="M138.86,143.33c.52.48,1,.93,1.52,1.41a17.84,17.84,0,0,1,4.17,6.09,6.57,6.57,0,0,1,.39,1.13.84.84,0,0,0,.76.72,18.56,18.56,0,0,0-6.52-9.35l1.22-1.11A17.9,17.9,0,0,0,145,136c.08-.18.54-1.48.58-1.64.21-1,.41-2,.57-2.95,0-.32.16-.47.49-.45.51,0,1,.05,1.53,0,.25,0,.3.12.3.33a11.79,11.79,0,0,1-.88,4.62,13.08,13.08,0,0,1-4.33,5.63,27.91,27.91,0,0,1-2.7,1.57,4.76,4.76,0,0,1-.44.21l.46.23a13.16,13.16,0,0,1,7.54,9.07,23.3,23.3,0,0,1,.35,2.66c0,.3-.08.42-.39.41q-.71,0-1.41,0c-.3,0-.4-.09-.44-.39-.07-.62-.18-1.23-.29-1.84,0-.13-.34.21-.49.19l.21,2h-2.21c-.09-.62-.16-1.23-.27-1.84a22.27,22.27,0,0,0-4.75-10c-.43-.54-.44-.52,0-1.06a21.87,21.87,0,0,0,4.79-10.38c.06-.37.09-.74.13-1.11s.11-.37.38-.37c.55,0,1.1,0,1.65,0,.27,0,.37.08.35.36a16.15,16.15,0,0,1-3.62,8.81,17.72,17.72,0,0,1-3.05,3.07S138.92,143.27,138.86,143.33Z" fill="#f5d376"/>
        <path d="M134.87,137.12v5.58q0,6.2,0,12.4c0,.58,0,.58-.59.58-.4,0-.81,0-1.2,0s-.41-.09-.41-.4a47,47,0,0,1,.35-6.39,34.5,34.5,0,0,1,1-5.23,1.11,1.11,0,0,0,0-.6,44,44,0,0,1-1.38-11.58c0-.54,0-.54.55-.54s.83,0,1.24,0,.48.12.47.48c0,1.77,0,3.55,0,5.33v.37Z" fill="#f5d376"/>
        <path d="M135.23,150c0-1.7,0-3.39,0-5.09a4.9,4.9,0,0,0-.13-.62,1.35,1.35,0,0,1,0-.4c0-.36.12-.72.12-1.08,0-3.8,0-7.61,0-11.41,0-.37.11-.49.47-.47a10.44,10.44,0,0,0,1.37,0c.31,0,.42.11.41.41-.06,1.43,0,2.87-.18,4.29-.19,1.93-.5,3.85-.8,5.77-.09.59-.34,1.16-.44,1.76a2.63,2.63,0,0,0,.13,1c.23,1.07.53,2.12.7,3.19a45.44,45.44,0,0,1,.55,7.82c0,.55,0,.55-.58.55-.37,0-.75,0-1.12,0s-.5-.13-.49-.51c0-1.73,0-3.45,0-5.17Z" fill="#f5d376"/>
        <path d="M130.07,154.19a24,24,0,0,1,1.49-7.55,29.36,29.36,0,0,1,1.45-2.92.62.62,0,0,0,0-.74,17.58,17.58,0,0,1-2.5-6.81c-.24-1.58-.3-3.18-.47-4.77,0-.38.11-.48.46-.46a9,9,0,0,0,1.16,0c.3,0,.41.09.43.4.12,1.81.22,3.63.41,5.43a28.77,28.77,0,0,0,1.32,6.09,1.4,1.4,0,0,1,0,.86c-.43,1.71-.92,3.41-1.18,5.15-.31,2.09-.42,4.22-.59,6.33,0,.36-.1.52-.49.49a9,9,0,0,0-1.16,0c-.25,0-.34-.1-.33-.34S130.07,154.57,130.07,154.19Z" fill="#f5d376"/>
        <path d="M137,143.13c0,.15-.11.35,0,.45a18.17,18.17,0,0,1,2.54,6.89c.25,1.61.29,3.26.43,4.89,0,.26-.1.33-.34.33-.4,0-.8,0-1.2,0s-.4-.13-.42-.43c-.16-2-.26-4-.52-6-.23-1.64-.66-3.26-1-4.89a1.45,1.45,0,0,0-.12-.35,1.9,1.9,0,0,1-.08-1.39,29.51,29.51,0,0,0,1.37-6.58c.17-1.53.23-3.07.3-4.61,0-.42.13-.57.55-.53a6.86,6.86,0,0,0,1.11,0c.32,0,.42.12.4.41-.09,1.21-.11,2.43-.26,3.63a20.83,20.83,0,0,1-2,6.71c-.24.49-.51,1-.76,1.45Z" fill="#f5d376"/>
        <path d="M132.21,143.44c-.87-1.4-1.78-2.71-2.55-4.1a19.9,19.9,0,0,1-2.37-7.35c-.13-1.05-.14-1.05.91-1.05.3,0,.6,0,.91,0s.39.11.41.41a29.53,29.53,0,0,0,.61,5,19.69,19.69,0,0,0,2.78,6.71.45.45,0,0,1,0,.42,19.53,19.53,0,0,0-3,7.85c-.21,1.28-.31,2.57-.42,3.86,0,.36-.13.49-.49.46a9.11,9.11,0,0,0-1.28,0c-.35,0-.45-.09-.42-.45a19.14,19.14,0,0,1,1.11-5.11,23.82,23.82,0,0,1,3.65-6.48A1.53,1.53,0,0,0,132.21,143.44Z" fill="#f5d376"/>
        <path d="M137,143.14c.24-.34.52-.67.73-1a20.94,20.94,0,0,0,2.58-8.26c.09-.82.15-1.65.19-2.47,0-.34.14-.46.47-.44s.94,0,1.41,0,.42.1.4.43A20,20,0,0,1,141,138.2a23.17,23.17,0,0,1-3,4.84.42.42,0,0,0,0,.63,22.16,22.16,0,0,1,4.25,8.46c.26,1,.34,2.11.51,3.17,0,.29-.07.4-.36.39-.48,0-1,0-1.45,0-.26,0-.35-.08-.37-.35-.15-1.43-.26-2.86-.49-4.27a18.89,18.89,0,0,0-2.79-7.31,4.39,4.39,0,0,1-.26-.63Z" fill="#f5d376"/>
      </g>
    </g>
  </g>
</svg>
