<svg xmlns="http://www.w3.org/2000/svg" xmlns:xlink="http://www.w3.org/1999/xlink" viewBox="0 0 562.85 473.63" width="562.85" height="473.63">
  <defs>
    <linearGradient id="a" data-name="未命名漸層 97" x1="361.79" y1="52.11" x2="-111.15" y2="64.99" gradientUnits="userSpaceOnUse">
      <stop offset="0" stop-color="#efd380"/>
      <stop offset="0.98" stop-color="#fff193"/>
    </linearGradient>
    <clipPath id="b">
      <path d="M244.29,158.62H177.84a7.26,7.26,0,0,0-7.26,7.26v31.68a7.26,7.26,0,0,0,7.26,7.25h66.45a7.26,7.26,0,0,0,7.26-7.25V165.88A7.26,7.26,0,0,0,244.29,158.62Z" fill="none"/>
    </clipPath>
  </defs>

  <g style="isolation: isolate">
    <g>
      <text transform="translate(306.32 62.01)" font-size="25" fill="#1b507b"  letter-spacing="0.1em">前進新興市場<tspan x="0" y="38">東協中心</tspan></text>
      <polygon points="271.88 79.77 179.74 96.99 85.88 96.99 85.88 77.19 176.29 67.71 271.88 79.77" fill="#1b507b"/>
      <path d="M96.58,108.19H282.21L275,98.8a13.38,13.38,0,0,0-10.63-5.25H85.88v3.93A10.71,10.71,0,0,0,96.58,108.19Z" fill="#6186b6"/>
      <path d="M62.28,35.81q-5,3.66-10,7.26c3,1.71,4.52,2.55,7.53,4.22-3.08,2.26-4.63,3.38-7.71,5.61,3,1.71,4.52,2.55,7.53,4.23C56.59,59.39,55,60.51,52,62.74c3,1.7,4.52,2.54,7.54,4.22-3.09,2.26-4.64,3.38-7.72,5.61,3,1.7,4.52,2.55,7.54,4.22-3.09,2.26-4.63,3.38-7.72,5.61q4.84,2.75,9.74,5.44c98.58.21,111.5-9.94,210.12-8.49l.66-36.44a15.38,15.38,0,0,0-15.45-15.67C163.38,27.64,155.62,36,62.28,35.81Z" fill="url(#a)"/>
      <text transform="translate(81.38 67.5)" font-size="26.24" fill="#1b507b"  letter-spacing="0.1em">中國及東南亞</text>
      <g>
        <g>
          <polygon points="64.88 270.22 83.47 270.22 83.47 198.36 64.88 208.34 64.88 270.22" fill="#4990b3"/>
          <polygon points="83.47 198.36 83.47 205.76 64.88 215.74 64.88 208.34 83.47 198.36" fill="#1b507b"/>
          <g>
            <rect x="68.66" y="219.01" width="14.8" height="1.72" transform="translate(152.13 439.75) rotate(-180)" fill="#c2e4ed"/>
            <rect x="68.66" y="224.18" width="14.8" height="1.72" transform="translate(152.13 450.08) rotate(-180)" fill="#c2e4ed"/>
            <rect x="77.96" y="219.01" width="2.07" height="1.72" transform="translate(157.98 439.75) rotate(-180)" fill="#1b507b"/>
            <rect x="75.89" y="219.01" width="2.07" height="1.72" transform="translate(153.85 439.75) rotate(-180)" fill="#75c4b8"/>
            <rect x="72.8" y="224.18" width="2.07" height="1.72" transform="translate(147.66 450.08) rotate(-180)" fill="#75c4b8"/>
            <rect x="70.73" y="224.18" width="2.07" height="1.72" transform="translate(143.53 450.08) rotate(-180)" fill="#1b507b"/>
          </g>
          <g>
            <rect x="68.66" y="230.46" width="14.8" height="1.72" transform="translate(152.13 462.64) rotate(-180)" fill="#c2e4ed"/>
            <rect x="68.66" y="235.62" width="14.8" height="1.72" transform="translate(152.13 472.97) rotate(-180)" fill="#c2e4ed"/>
            <rect x="77.96" y="230.46" width="2.07" height="1.72" transform="translate(157.98 462.64) rotate(-180)" fill="#1b507b"/>
            <rect x="75.89" y="230.46" width="2.07" height="1.72" transform="translate(153.85 462.64) rotate(-180)" fill="#75c4b8"/>
            <rect x="72.8" y="235.62" width="2.07" height="1.72" transform="translate(147.66 472.97) rotate(-180)" fill="#75c4b8"/>
            <rect x="70.73" y="235.62" width="2.07" height="1.72" transform="translate(143.53 472.97) rotate(-180)" fill="#1b507b"/>
          </g>
        </g>
        <rect x="112.35" y="228.47" width="39.33" height="42.35" fill="#1b507b"/>
        <g>
          <polygon points="82.25 169.01 82.25 191.03 82.25 270.82 113.5 270.82 113.5 191.03 113.5 169.01 82.25 169.01" fill="#83bede"/>
          <path d="M97.87,169H82.25l3.48,9.81a26.2,26.2,0,0,0,7.16,10.38l1.33,1.22h7.31l1.33-1.22A26.17,26.17,0,0,0,110,178.82L113.5,169Z" fill="#1b507b"/>
          <g>
            <line x1="82.25" y1="194.46" x2="113.5" y2="194.46" fill="none" stroke="#1b507b" stroke-miterlimit="10" stroke-width="0.69"/>
            <line x1="82.52" y1="197.79" x2="113.22" y2="197.79" fill="none" stroke="#1b507b" stroke-miterlimit="10" stroke-width="0.69"/>
            <line x1="82.25" y1="201.13" x2="112.95" y2="201.13" fill="none" stroke="#1b507b" stroke-miterlimit="10" stroke-width="0.69"/>
            <line x1="82.52" y1="204.46" x2="113.22" y2="204.46" fill="none" stroke="#1b507b" stroke-miterlimit="10" stroke-width="0.69"/>
            <line x1="82.25" y1="207.79" x2="113.5" y2="207.79" fill="none" stroke="#1b507b" stroke-miterlimit="10" stroke-width="0.69"/>
            <line x1="82.52" y1="211.13" x2="113.22" y2="211.13" fill="none" stroke="#1b507b" stroke-miterlimit="10" stroke-width="0.69"/>
            <line x1="82.25" y1="214.46" x2="112.95" y2="214.46" fill="none" stroke="#1b507b" stroke-miterlimit="10" stroke-width="0.69"/>
            <line x1="82.52" y1="217.8" x2="113.22" y2="217.8" fill="none" stroke="#1b507b" stroke-miterlimit="10" stroke-width="0.69"/>
          </g>
          <g>
            <line x1="82.25" y1="221.83" x2="113.5" y2="221.83" fill="none" stroke="#1b507b" stroke-miterlimit="10" stroke-width="0.69"/>
            <line x1="82.52" y1="225.17" x2="113.22" y2="225.17" fill="none" stroke="#1b507b" stroke-miterlimit="10" stroke-width="0.69"/>
            <line x1="82.25" y1="228.5" x2="112.95" y2="228.5" fill="none" stroke="#1b507b" stroke-miterlimit="10" stroke-width="0.69"/>
            <line x1="82.52" y1="231.83" x2="113.22" y2="231.83" fill="none" stroke="#1b507b" stroke-miterlimit="10" stroke-width="0.69"/>
            <line x1="82.25" y1="235.17" x2="113.5" y2="235.17" fill="none" stroke="#1b507b" stroke-miterlimit="10" stroke-width="0.69"/>
            <line x1="82.52" y1="238.5" x2="113.22" y2="238.5" fill="none" stroke="#1b507b" stroke-miterlimit="10" stroke-width="0.69"/>
            <line x1="82.25" y1="241.84" x2="112.95" y2="241.84" fill="none" stroke="#1b507b" stroke-miterlimit="10" stroke-width="0.69"/>
            <line x1="82.52" y1="245.17" x2="113.22" y2="245.17" fill="none" stroke="#1b507b" stroke-miterlimit="10" stroke-width="0.69"/>
          </g>
          <path d="M96.52,171.25h2.71a6.6,6.6,0,0,1,6.6,6.6v.42a0,0,0,0,1,0,0H89.92a0,0,0,0,1,0,0v-.42A6.6,6.6,0,0,1,96.52,171.25Z" fill="#75c4b8"/>
        </g>
        <g>
          <polygon points="123.03 213.46 105.08 213.46 105.08 270.82 117.11 270.82 123.03 270.82 129.67 270.82 129.67 238.35 123.03 213.46" fill="#98d5f4"/>
          <line x1="105.08" y1="218.15" x2="124.46" y2="218.15" fill="none" stroke="#91a9ca" stroke-miterlimit="10" stroke-width="0.54" style="mix-blend-mode: multiply"/>
          <line x1="105.08" y1="222.48" x2="125.44" y2="222.48" fill="none" stroke="#91a9ca" stroke-miterlimit="10" stroke-width="0.54" style="mix-blend-mode: multiply"/>
          <line x1="105.08" y1="227.35" x2="126.73" y2="227.35" fill="none" stroke="#91a9ca" stroke-miterlimit="10" stroke-width="0.54" style="mix-blend-mode: multiply"/>
          <line x1="105.08" y1="232.64" x2="128.14" y2="232.64" fill="none" stroke="#91a9ca" stroke-miterlimit="10" stroke-width="0.54" style="mix-blend-mode: multiply"/>
          <line x1="105.08" y1="237.63" x2="129.47" y2="237.63" fill="none" stroke="#91a9ca" stroke-miterlimit="10" stroke-width="0.54" style="mix-blend-mode: multiply"/>
          <line x1="105.08" y1="243.04" x2="129.47" y2="243.04" fill="none" stroke="#91a9ca" stroke-miterlimit="10" stroke-width="0.54" style="mix-blend-mode: multiply"/>
          <line x1="105.08" y1="248.63" x2="129.67" y2="248.63" fill="none" stroke="#91a9ca" stroke-miterlimit="10" stroke-width="0.54" style="mix-blend-mode: multiply"/>
          <line x1="105.27" y1="253.87" x2="129.86" y2="253.87" fill="none" stroke="#91a9ca" stroke-miterlimit="10" stroke-width="0.54" style="mix-blend-mode: multiply"/>
          <line x1="105.08" y1="258.92" x2="129.67" y2="258.92" fill="none" stroke="#91a9ca" stroke-miterlimit="10" stroke-width="0.54" style="mix-blend-mode: multiply"/>
          <line x1="105.08" y1="264.51" x2="129.67" y2="264.51" fill="none" stroke="#91a9ca" stroke-miterlimit="10" stroke-width="0.54" style="mix-blend-mode: multiply"/>
          <g style="mix-blend-mode: multiply">
            <rect x="106.64" y="214.91" width="0.78" height="1.8" fill="#91a9ca"/>
            <rect x="108.59" y="214.91" width="0.78" height="1.8" fill="#91a9ca"/>
            <rect x="110.54" y="214.91" width="0.78" height="1.8" fill="#91a9ca"/>
          </g>
          <g>
            <rect x="106.64" y="219.24" width="0.78" height="1.8" fill="#91a9ca" style="mix-blend-mode: multiply"/>
            <rect x="108.59" y="219.24" width="0.78" height="1.8" fill="#91a9ca" style="mix-blend-mode: multiply"/>
            <rect x="110.54" y="219.24" width="0.78" height="1.8" fill="#91a9ca" style="mix-blend-mode: multiply"/>
          </g>
          <g>
            <rect x="106.64" y="223.92" width="0.78" height="1.8" fill="#91a9ca" style="mix-blend-mode: multiply"/>
            <rect x="108.59" y="223.92" width="0.78" height="1.8" fill="#91a9ca" style="mix-blend-mode: multiply"/>
            <rect x="110.54" y="223.92" width="0.78" height="1.8" fill="#91a9ca" style="mix-blend-mode: multiply"/>
          </g>
          <g style="mix-blend-mode: multiply">
            <rect x="106.64" y="228.97" width="0.78" height="1.8" fill="#91a9ca"/>
            <rect x="108.59" y="228.97" width="0.78" height="1.8" fill="#91a9ca"/>
            <rect x="110.54" y="228.97" width="0.78" height="1.8" fill="#91a9ca"/>
          </g>
          <g>
            <rect x="106.64" y="234.03" width="0.78" height="1.8" fill="#91a9ca" style="mix-blend-mode: multiply"/>
            <rect x="108.59" y="234.03" width="0.78" height="1.8" fill="#91a9ca" style="mix-blend-mode: multiply"/>
            <rect x="110.54" y="234.03" width="0.78" height="1.8" fill="#91a9ca" style="mix-blend-mode: multiply"/>
          </g>
          <rect x="105.08" y="211.3" width="17.95" height="2.16" fill="#1b507b"/>
        </g>
        <g>
          <polygon points="65.72 270.22 47.14 270.22 47.14 186.91 65.72 196.9 65.72 270.22" fill="#7dc8c5"/>
          <polygon points="47.14 186.91 47.14 194.31 65.72 204.3 65.72 196.9 47.14 186.91" fill="#1b507b"/>
          <g>
            <rect x="47.14" y="207.57" width="14.8" height="1.72" fill="#c2e4ed"/>
            <rect x="47.14" y="212.73" width="14.8" height="1.72" fill="#c2e4ed"/>
            <rect x="50.58" y="207.57" width="2.07" height="1.72" fill="#1b507b"/>
            <rect x="52.64" y="207.57" width="2.07" height="1.72" fill="#0094a8"/>
            <rect x="55.74" y="212.73" width="2.07" height="1.72" fill="#0094a8"/>
            <rect x="57.81" y="212.73" width="2.07" height="1.72" fill="#1b507b"/>
          </g>
          <g>
            <rect x="47.14" y="219.01" width="14.8" height="1.72" fill="#c2e4ed"/>
            <rect x="47.14" y="224.18" width="14.8" height="1.72" fill="#c2e4ed"/>
            <rect x="50.58" y="219.01" width="2.07" height="1.72" fill="#1b507b"/>
            <rect x="52.64" y="219.01" width="2.07" height="1.72" fill="#0094a8"/>
            <rect x="55.74" y="224.18" width="2.07" height="1.72" fill="#0094a8"/>
            <rect x="57.81" y="224.18" width="2.07" height="1.72" fill="#1b507b"/>
          </g>
          <g>
            <rect x="47.14" y="230.46" width="14.8" height="1.72" fill="#c2e4ed"/>
            <rect x="47.14" y="235.62" width="14.8" height="1.72" fill="#c2e4ed"/>
            <rect x="50.58" y="230.46" width="2.07" height="1.72" fill="#1b507b"/>
            <rect x="52.64" y="230.46" width="2.07" height="1.72" fill="#0094a8"/>
            <rect x="55.74" y="235.62" width="2.07" height="1.72" fill="#0094a8"/>
            <rect x="57.81" y="235.62" width="2.07" height="1.72" fill="#1b507b"/>
          </g>
        </g>
        <rect x="183.15" y="227.32" width="25.13" height="43.5" fill="#6186b6"/>
        <rect x="145.55" y="218.58" width="39.33" height="52.23" fill="#1b507b"/>
        <g>
          <rect x="92.89" y="248.5" width="21.18" height="21.18" fill="#d0ebf9"/>
          <rect x="96.9" y="252.13" width="1.14" height="2.49" fill="#83bede"/>
          <rect x="99.76" y="252.13" width="1.14" height="2.49" fill="#83bede"/>
          <rect x="96.9" y="255.69" width="1.14" height="2.49" fill="#83bede"/>
          <rect x="99.76" y="255.69" width="1.14" height="2.49" fill="#83bede"/>
        </g>
        <g>
          <path d="M159,235.11a15.34,15.34,0,0,0-.19,21.5l21.68-21.68A15.33,15.33,0,0,0,159,235.11Z" fill="#7dc8c5"/>
          <path d="M180.69,256.8a15.34,15.34,0,0,0,0-21.69l-.19-.18-21.68,21.68.19.19A15.32,15.32,0,0,0,180.69,256.8Z" fill="#50bbb7"/>
        </g>
        <g>
          <rect x="151.78" y="253.7" width="33.39" height="19.69" fill="#6186b6"/>
          <line x1="151.78" y1="256.74" x2="185.17" y2="256.74" fill="none" stroke="#1b507b" stroke-miterlimit="10" stroke-width="0.57"/>
          <line x1="151.95" y1="260.59" x2="185.34" y2="260.59" fill="none" stroke="#1b507b" stroke-miterlimit="10" stroke-width="0.57"/>
        </g>
        <g>
          <path d="M242,235.11a15.35,15.35,0,0,0-.18,21.5l21.68-21.68A15.35,15.35,0,0,0,242,235.11Z" fill="#7dc8c5"/>
          <path d="M263.68,256.8a15.34,15.34,0,0,0,0-21.69l-.19-.18-21.68,21.68.18.19A15.34,15.34,0,0,0,263.68,256.8Z" fill="#50bbb7"/>
        </g>
        <g>
          <rect x="234.76" y="253.7" width="33.39" height="19.69" fill="#6186b6"/>
          <line x1="234.76" y1="256.74" x2="268.15" y2="256.74" fill="none" stroke="#1b507b" stroke-miterlimit="10" stroke-width="0.57"/>
          <line x1="234.93" y1="260.59" x2="268.33" y2="260.59" fill="none" stroke="#1b507b" stroke-miterlimit="10" stroke-width="0.57"/>
        </g>
        <g>
          <rect x="179.32" y="242.2" width="67.82" height="3.13" fill="#6186b6"/>
          <rect x="180.69" y="245.34" width="64.2" height="24.34" fill="#b9c5d6"/>
          <path d="M185.35,248.26h.32a1.44,1.44,0,0,1,1.44,1.44v20a0,0,0,0,1,0,0H183.9a0,0,0,0,1,0,0v-20A1.44,1.44,0,0,1,185.35,248.26Z" fill="#006284"/>
          <path d="M192.12,248.26h.32a1.44,1.44,0,0,1,1.44,1.44v20a0,0,0,0,1,0,0h-3.21a0,0,0,0,1,0,0v-20A1.44,1.44,0,0,1,192.12,248.26Z" fill="#006284"/>
          <path d="M198.9,248.26h.32a1.44,1.44,0,0,1,1.44,1.44v20a0,0,0,0,1,0,0h-3.21a0,0,0,0,1,0,0v-20A1.44,1.44,0,0,1,198.9,248.26Z" fill="#006284"/>
          <path d="M205.68,248.26H206a1.44,1.44,0,0,1,1.44,1.44v20a0,0,0,0,1,0,0h-3.21a0,0,0,0,1,0,0v-20a1.44,1.44,0,0,1,1.44-1.44Z" fill="#006284"/>
          <path d="M212.46,248.26h.32a1.44,1.44,0,0,1,1.44,1.44v20a0,0,0,0,1,0,0H211a0,0,0,0,1,0,0v-20A1.44,1.44,0,0,1,212.46,248.26Z" fill="#006284"/>
          <path d="M219.23,248.26h.32A1.44,1.44,0,0,1,221,249.7v20a0,0,0,0,1,0,0h-3.21a0,0,0,0,1,0,0v-20A1.44,1.44,0,0,1,219.23,248.26Z" fill="#006284"/>
          <path d="M226,248.26h.32a1.44,1.44,0,0,1,1.44,1.44v20a0,0,0,0,1,0,0h-3.21a0,0,0,0,1,0,0v-20a1.44,1.44,0,0,1,1.44-1.44Z" fill="#006284"/>
          <path d="M232.79,248.26h.32a1.44,1.44,0,0,1,1.44,1.44v20a0,0,0,0,1,0,0h-3.21a0,0,0,0,1,0,0v-20A1.44,1.44,0,0,1,232.79,248.26Z" fill="#006284"/>
          <path d="M239.56,248.26h.32a1.44,1.44,0,0,1,1.44,1.44v20a0,0,0,0,1,0,0h-3.21a0,0,0,0,1,0,0v-20A1.44,1.44,0,0,1,239.56,248.26Z" fill="#006284"/>
        </g>
        <g>
          <rect x="122.56" y="264.37" width="37.29" height="6.16" fill="#b9c5d6"/>
          <g>
            <polygon points="141.12 264.94 131.77 256.85 133.15 255.25 141.11 262.14 149.43 254.83 150.82 256.42 141.12 264.94" fill="#6186b6"/>
            <rect x="139" y="246.55" width="4.22" height="19.84" fill="#b9c5d6"/>
            <rect x="119.89" y="253.94" width="24.71" height="4.22" transform="translate(-154.44 226.76) rotate(-56.85)" fill="#b9c5d6"/>
            <rect x="148.29" y="243.69" width="4.22" height="24.71" transform="matrix(0.84, -0.55, 0.55, 0.84, -115.53, 123.91)" fill="#b9c5d6"/>
            <rect x="140.27" y="138.04" width="2.11" height="16.89" fill="#6186b6"/>
            <line x1="141.33" y1="138.04" x2="141.33" y2="120.3" fill="none" stroke="#231815" stroke-miterlimit="10" stroke-width="0.77"/>
            <rect x="137.59" y="185.33" width="6.33" height="4.64" fill="#6186b6"/>
            <rect x="137.59" y="195.88" width="6.33" height="3.38" fill="#6186b6"/>
            <rect x="137.59" y="205.17" width="6.33" height="3.38" fill="#6186b6"/>
            <rect x="137.59" y="214.04" width="6.33" height="3.38" fill="#6186b6"/>
            <rect x="137.59" y="222.48" width="6.33" height="3.38" fill="#6186b6"/>
            <rect x="135.9" y="185.33" width="3.8" height="47.29" fill="#b9c5d6"/>
            <rect x="142.65" y="183.21" width="3.8" height="49.4" fill="#b9c5d6"/>
            <rect x="139.43" y="157.88" width="3.8" height="17.31" fill="#6186b6"/>
            <circle cx="141.33" cy="178.78" r="8.06" fill="#ec7163"/>
            <circle cx="141.33" cy="156.17" r="3.61" fill="#ec7163"/>
            <path d="M141.33,248.45a10,10,0,0,0,8.78-5.28H132.55A9.93,9.93,0,0,0,141.33,248.45Z" fill="#f1e9c7"/>
            <path d="M141.33,228.57a9.93,9.93,0,0,0-8.8,5.31h17.6A9.94,9.94,0,0,0,141.33,228.57Z" fill="#f1e9c7"/>
            <path d="M150.13,233.88h-17.6a9.88,9.88,0,0,0,0,9.29h17.56a9.9,9.9,0,0,0,1.16-4.66A10,10,0,0,0,150.13,233.88Z" fill="#ec7163"/>
          </g>
        </g>
        <rect x="47.38" y="269.67" width="220.64" height="20.47" fill="#1b507b"/>
        <g>
          <rect x="171.87" y="221.6" width="1.14" height="2.29" fill="#f1e9c7"/>
          <rect x="175.31" y="221.6" width="1.14" height="2.29" fill="#f1e9c7"/>
          <rect x="178.74" y="221.6" width="1.14" height="2.29" fill="#f1e9c7"/>
        </g>
        <g>
          <rect x="171.87" y="225.61" width="1.14" height="2.29" fill="#f1e9c7"/>
          <rect x="175.31" y="225.61" width="1.14" height="2.29" fill="#f1e9c7"/>
          <rect x="178.74" y="225.61" width="1.14" height="2.29" fill="#f1e9c7"/>
        </g>
        <polygon points="176.04 202.11 176.04 211.17 185.1 203.32 176.04 202.11" fill="#9dcfef"/>
        <g clip-path="url(#b)">
          <path d="M244.29,158.62H197.67L231,204.81h13.28a7.26,7.26,0,0,0,7.26-7.25V165.88A7.26,7.26,0,0,0,244.29,158.62Z" fill="#6186b6"/>
          <path d="M177.84,158.62a7.26,7.26,0,0,0-7.26,7.26v31.68a7.26,7.26,0,0,0,7.26,7.25h54.38l-28.39-46.19Z" fill="#7cbce8"/>
          <g>
            <path d="M177.62,178.21h13.64a0,0,0,0,1,0,0V189a2.36,2.36,0,0,1-2.36,2.36H180a2.36,2.36,0,0,1-2.36-2.36V178.21A0,0,0,0,1,177.62,178.21Z" fill="#6186b6"/>
            <line x1="179.76" y1="181.56" x2="179.76" y2="191.4" fill="none" stroke="#1b507b" stroke-miterlimit="10" stroke-width="0.21"/>
            <line x1="182.01" y1="181.56" x2="182.01" y2="191.4" fill="none" stroke="#1b507b" stroke-miterlimit="10" stroke-width="0.21"/>
            <line x1="184.25" y1="181.56" x2="184.25" y2="191.4" fill="none" stroke="#1b507b" stroke-miterlimit="10" stroke-width="0.21"/>
            <line x1="186.5" y1="181.56" x2="186.5" y2="191.4" fill="none" stroke="#1b507b" stroke-miterlimit="10" stroke-width="0.21"/>
            <line x1="188.75" y1="181.56" x2="188.75" y2="191.4" fill="none" stroke="#1b507b" stroke-miterlimit="10" stroke-width="0.21"/>
            <circle cx="184.45" cy="178.49" r="6.89" fill="#c2e4ed"/>
          </g>
          <g>
            <line x1="199.41" y1="180.49" x2="194.96" y2="192.16" fill="none" stroke="#1b507b" stroke-miterlimit="10" stroke-width="0.56"/>
            <line x1="206.63" y1="180.49" x2="211.08" y2="192.16" fill="none" stroke="#1b507b" stroke-miterlimit="10" stroke-width="0.56"/>
            <line x1="203.02" y1="179.1" x2="203.02" y2="192.44" fill="none" stroke="#1b507b" stroke-miterlimit="10" stroke-width="0.56"/>
            <line x1="196.91" y1="187.05" x2="208.85" y2="187.05" fill="none" stroke="#1b507b" stroke-miterlimit="10" stroke-width="0.56"/>
            <circle cx="203.16" cy="177.85" r="6.25" fill="#6186b6"/>
          </g>
          <polyline points="236.48 169.28 238.19 172.4 239.37 169.86 236.76 169.28" fill="#1f2b60"/>
          <rect x="203.22" y="190.64" width="3.62" height="1.81" fill="#fff"/>
          <path d="M234.16,169l-1.45,2.63h1.23v1a1.52,1.52,0,0,0,1.47,1.58h0l.49,5.52h2.94l-1-10.78Z" fill="#7cbce8"/>
          <path d="M235.77,179.15h-3.39A7.2,7.2,0,0,0,227.6,181l-10.7,9.46h-11l-.53,2.21h15.21l8.6-7.36.64,9.59h12.06l5.4-11.18a3,3,0,0,0-2.56-4.53Z" fill="#ec7163"/>
          <path d="M241.66,194.83l.8,4.37a5.22,5.22,0,0,1-1,4.08h0a5.25,5.25,0,0,1-4.18,2.09H214.94v34.8h-3.18l-2-30.15-8.33,30.15h-3.93l8.33-37.34a5.2,5.2,0,0,1,4.11-4l20.89-4Z" fill="#1f2b60"/>
          <circle cx="239.51" cy="168.56" r="2.25" fill="#1f2b60"/>
          <path d="M238,167.56h-2.12a.85.85,0,0,0-.85.85h-.59a.85.85,0,0,0-.86.85v.31h4.34Z" fill="#1f2b60"/>
          <polyline points="247.69 182.2 248.53 200.9 246.11 208.76 243.09 207.55 245.51 200.3 243.13 183.31 238.72 190.42 231.01 190.42 231.01 192.63 241.9 192.63" fill="#ec7163"/>
          <path d="M244.29,158.62H177.84a7.26,7.26,0,0,0-7.26,7.26v31.68a7.26,7.26,0,0,0,7.26,7.25h66.45a7.26,7.26,0,0,0,7.26-7.25V165.88A7.26,7.26,0,0,0,244.29,158.62Z" fill="none"/>
        </g>
        <line x1="104.52" y1="270.33" x2="104.52" y2="289.13" fill="none" stroke="#e7f0f2" stroke-miterlimit="10" stroke-width="0.47"/>
        <line x1="161.01" y1="270.33" x2="161.01" y2="289.13" fill="none" stroke="#e7f0f2" stroke-miterlimit="10" stroke-width="0.47"/>
        <line x1="214.79" y1="270.33" x2="214.79" y2="289.13" fill="none" stroke="#e7f0f2" stroke-miterlimit="10" stroke-width="0.47"/>
        <text transform="translate(53.78 284.32) scale(0.83 1)" font-size="12.55" fill="#fff"  font-weight="700">2012</text>
        <text transform="translate(108.65 284.32) scale(0.83 1)" font-size="12.55" fill="#fff"  font-weight="700">2013</text>
        <text transform="translate(163.51 284.32) scale(0.83 1)" font-size="12.55" fill="#fff"  font-weight="700">2014</text>
        <text transform="translate(218.38 284.32) scale(0.83 1)" font-size="12.55" fill="#fff"  font-weight="700">2015</text>
        <path d="M47.2,289.1H268a0,0,0,0,1,0,0V304a9.44,9.44,0,0,1-9.44,9.44H56.64A9.44,9.44,0,0,1,47.2,304V289.1A0,0,0,0,1,47.2,289.1Z" fill="#6186b6"/>
        <text transform="translate(86.13 304.39)" font-size="11.73" fill="#e7f0f4"  letter-spacing="0.1em">上海國際時尚家居用品展</text>
      </g>
      <g>
        <rect x="285.68" y="243.73" width="220.82" height="28.36" fill="#9ed7f5"/>
        <g>
          <path d="M503.76,205.82c.81-2.66-1.85-5.83-5.95-7.09s-8.09-.13-8.91,2.53Z" fill="#008262"/>
          <path d="M503.54,204.64c2.56-1.07,3.3-5.15,1.64-9.11s-5.08-6.3-7.64-5.22Z" fill="#44ac9e"/>
          <path d="M504.17,204c1.52-2.33,5.66-2.32,9.26,0s5.28,6.13,3.76,8.46Z" fill="#44ac9e"/>
          <path d="M505.22,203.37c-.82-2.66,1.84-5.83,5.94-7.1s8.09-.13,8.91,2.53Z" fill="#008262"/>
          <rect x="503.55" y="208.59" width="3.47" height="35.31" fill="#699299"/>
          <circle cx="503.84" cy="202.52" r="2.87" fill="#131d3c"/>
          <circle cx="507.89" cy="205.41" r="2.87" fill="#1b507b"/>
          <circle cx="504.42" cy="207.73" r="2.87" fill="#1b507b"/>
        </g>
        <g>
          <path d="M490.22,216.22c.6-1.93-1.34-4.24-4.32-5.15s-5.88-.09-6.47,1.84Z" fill="#008262"/>
          <path d="M490.06,215.37c1.87-.78,2.4-3.75,1.2-6.62s-3.7-4.58-5.56-3.8Z" fill="#44ac9e"/>
          <path d="M490.52,214.87c1.1-1.69,4.12-1.69,6.73,0s3.84,4.45,2.73,6.15Z" fill="#44ac9e"/>
          <path d="M491.28,214.45c-.59-1.94,1.34-4.25,4.32-5.16s5.88-.1,6.47,1.83Z" fill="#008262"/>
          <rect x="490.07" y="218.24" width="2.52" height="25.66" fill="#699299"/>
          <circle cx="490.28" cy="213.82" r="2.08" fill="#131d3c"/>
          <circle cx="493.22" cy="215.93" r="2.08" fill="#1b507b"/>
          <circle cx="490.7" cy="217.61" r="2.08" fill="#1b507b"/>
        </g>
        <rect x="303.73" y="243.68" width="61.81" height="11.45" fill="#91a9ca"/>
        <g>
          <rect x="286.87" y="184.87" width="40.67" height="59.04" transform="translate(614.42 428.78) rotate(-180)" fill="#b9c5d6"/>
          <rect x="327.54" y="195.87" width="25.61" height="48.04" transform="translate(680.69 439.78) rotate(-180)" fill="#ec7163"/>
          <line x1="353.15" y1="200.4" x2="327.54" y2="200.4" fill="none" stroke="#1b507b" stroke-miterlimit="10" stroke-width="0.61"/>
          <line x1="353.52" y1="205.13" x2="327.92" y2="205.13" fill="none" stroke="#1b507b" stroke-miterlimit="10" stroke-width="0.61"/>
          <line x1="352.77" y1="209.76" x2="327.17" y2="209.76" fill="none" stroke="#1b507b" stroke-miterlimit="10" stroke-width="0.61"/>
          <line x1="353.52" y1="214.58" x2="327.92" y2="214.58" fill="none" stroke="#1b507b" stroke-miterlimit="10" stroke-width="0.61"/>
          <line x1="353.52" y1="219.31" x2="327.92" y2="219.31" fill="none" stroke="#1b507b" stroke-miterlimit="10" stroke-width="0.61"/>
          <line x1="352.77" y1="224.04" x2="327.17" y2="224.04" fill="none" stroke="#1b507b" stroke-miterlimit="10" stroke-width="0.61"/>
          <line x1="353.15" y1="228.76" x2="327.54" y2="228.76" fill="none" stroke="#1b507b" stroke-miterlimit="10" stroke-width="0.61"/>
          <line x1="353.52" y1="233.49" x2="327.92" y2="233.49" fill="none" stroke="#1b507b" stroke-miterlimit="10" stroke-width="0.61"/>
          <line x1="353.52" y1="238.12" x2="327.92" y2="238.12" fill="none" stroke="#1b507b" stroke-miterlimit="10" stroke-width="0.61"/>
          <rect x="321.52" y="188.34" width="2.26" height="3.47" transform="translate(645.29 380.16) rotate(-180)" fill="#1b507b"/>
          <rect x="321.52" y="195.29" width="2.26" height="3.47" transform="translate(645.29 394.05) rotate(-180)" fill="#1b507b"/>
          <rect x="321.52" y="202.23" width="2.26" height="3.47" transform="translate(645.29 407.94) rotate(-180)" fill="#1b507b"/>
          <rect x="321.52" y="209.18" width="2.26" height="3.47" transform="translate(645.29 421.83) rotate(-180)" fill="#1b507b"/>
          <rect x="321.52" y="216.13" width="2.26" height="3.47" transform="translate(645.29 435.72) rotate(-180)" fill="#1b507b"/>
          <rect x="321.52" y="223.07" width="2.26" height="3.47" transform="translate(645.29 449.62) rotate(-180)" fill="#1b507b"/>
          <rect x="315.49" y="188.34" width="2.26" height="3.47" transform="translate(633.24 380.16) rotate(-180)" fill="#1b507b"/>
          <rect x="315.49" y="195.29" width="2.26" height="3.47" transform="translate(633.24 394.05) rotate(-180)" fill="#1b507b"/>
          <rect x="315.49" y="202.23" width="2.26" height="3.47" transform="translate(633.24 407.94) rotate(-180)" fill="#1b507b"/>
          <rect x="315.49" y="209.18" width="2.26" height="3.47" transform="translate(633.24 421.83) rotate(-180)" fill="#1b507b"/>
          <rect x="315.49" y="216.13" width="2.26" height="3.47" transform="translate(633.24 435.72) rotate(-180)" fill="#1b507b"/>
          <rect x="315.49" y="223.07" width="2.26" height="3.47" transform="translate(633.24 449.62) rotate(-180)" fill="#1b507b"/>
          <rect x="309.47" y="188.34" width="2.26" height="3.47" transform="translate(621.2 380.16) rotate(-180)" fill="#1b507b"/>
          <rect x="309.47" y="195.29" width="2.26" height="3.47" transform="translate(621.2 394.05) rotate(-180)" fill="#1b507b"/>
          <rect x="309.47" y="202.23" width="2.26" height="3.47" transform="translate(621.2 407.94) rotate(-180)" fill="#1b507b"/>
          <rect x="309.47" y="209.18" width="2.26" height="3.47" transform="translate(621.2 421.83) rotate(-180)" fill="#1b507b"/>
          <rect x="309.47" y="216.13" width="2.26" height="3.47" transform="translate(621.2 435.72) rotate(-180)" fill="#1b507b"/>
          <rect x="309.47" y="223.07" width="2.26" height="3.47" transform="translate(621.2 449.62) rotate(-180)" fill="#1b507b"/>
          <rect x="303.44" y="188.34" width="2.26" height="3.47" transform="translate(609.15 380.16) rotate(-180)" fill="#1b507b"/>
          <rect x="303.44" y="195.29" width="2.26" height="3.47" transform="translate(609.15 394.05) rotate(-180)" fill="#1b507b"/>
          <rect x="303.44" y="202.23" width="2.26" height="3.47" transform="translate(609.15 407.94) rotate(-180)" fill="#1b507b"/>
          <rect x="303.44" y="209.18" width="2.26" height="3.47" transform="translate(609.15 421.83) rotate(-180)" fill="#1b507b"/>
          <rect x="303.44" y="216.13" width="2.26" height="3.47" transform="translate(609.15 435.72) rotate(-180)" fill="#1b507b"/>
          <rect x="303.44" y="223.07" width="2.26" height="3.47" transform="translate(609.15 449.62) rotate(-180)" fill="#1b507b"/>
          <rect x="290.64" y="179.01" width="28.7" height="5.86" transform="translate(609.98 363.88) rotate(-180)" fill="#1b507b"/>
          <rect x="291.39" y="228.86" width="9.04" height="15.05" transform="translate(591.82 472.77) rotate(-180)" fill="#1b507b"/>
          <line x1="300.43" y1="231.9" x2="291.39" y2="231.9" fill="none" stroke="#231815" stroke-miterlimit="10" stroke-width="0.84"/>
          <line x1="295.91" y1="231.9" x2="295.91" y2="243.91" fill="none" stroke="#231815" stroke-miterlimit="10" stroke-width="0.84"/>
        </g>
        <g>
          <polygon points="360.59 226.94 359.62 226.94 345.06 226.94 345.06 232.76 359.62 232.76 360.59 232.76 375.15 232.76 375.15 226.94 360.59 226.94" fill="#f7e197"/>
          <rect x="354.29" y="204.58" width="11.43" height="5.71" fill="#f7e197"/>
          <rect x="350.89" y="204.61" width="3.88" height="5.82" fill="#f4cd74"/>
          <rect x="354.31" y="204.61" width="11.4" height="2.26" fill="#f4cd74"/>
          <path d="M348.94,228.88h0a1,1,0,0,1,1,1v2.91a0,0,0,0,1,0,0H348a0,0,0,0,1,0,0v-2.91A1,1,0,0,1,348.94,228.88Z" fill="#f4cd74"/>
          <path d="M353.8,228.88h0a1,1,0,0,1,1,1v2.91a0,0,0,0,1,0,0h-1.94a0,0,0,0,1,0,0v-2.91A1,1,0,0,1,353.8,228.88Z" fill="#f4cd74"/>
          <path d="M360.11,175a4.86,4.86,0,0,0-4.86,4.85v13.59H365V179.85A4.85,4.85,0,0,0,360.11,175Z" fill="#f7e197"/>
          <path d="M363.64,193h-7.07a3.74,3.74,0,0,0-3.74,3.75v4h14.56v-4A3.75,3.75,0,0,0,363.64,193Z" fill="#f4cd74"/>
          <path d="M367.46,200.73H352.75a1.86,1.86,0,0,0-1.86,1.86v2h18.44v-2A1.87,1.87,0,0,0,367.46,200.73Z" fill="#f7e197"/>
          <rect x="365.45" y="204.61" width="3.88" height="5.82" transform="translate(734.78 415.04) rotate(-180)" fill="#f4cd74"/>
          <polygon points="360.59 210.29 359.62 210.29 350.88 210.29 350.88 215.29 359.62 215.29 360.59 215.29 369.33 215.29 369.33 210.29 360.59 210.29" fill="#f7e197"/>
          <path d="M360.59,215.29H348.94v.44a2.48,2.48,0,0,0,2.48,2.47H368.8a2.48,2.48,0,0,0,2.47-2.47v-.44Z" fill="#f7e197"/>
          <path d="M360.59,218.2H347v.24a2.67,2.67,0,0,0,2.67,2.67h20.87a2.66,2.66,0,0,0,2.67-2.67v-.24Z" fill="#f4cd74"/>
          <path d="M360.59,221.11H345.06v.06a2.85,2.85,0,0,0,2.86,2.85H372.3a2.84,2.84,0,0,0,2.85-2.85v-.06Z" fill="#f7e197"/>
          <polygon points="360.59 224.02 359.62 224.02 347.97 224.02 347.97 226.94 359.62 226.94 360.59 226.94 372.24 226.94 372.24 224.02 360.59 224.02" fill="#f4cd74"/>
          <path d="M370.3,228.88h1.94a0,0,0,0,1,0,0v2.91a1,1,0,0,1-1,1h0a1,1,0,0,1-1-1v-2.91A0,0,0,0,1,370.3,228.88Z" transform="translate(742.54 461.64) rotate(-180)" fill="#f4cd74"/>
          <path d="M365.45,228.88h1.94a0,0,0,0,1,0,0v2.91a1,1,0,0,1-1,1h0a1,1,0,0,1-1-1v-2.91A0,0,0,0,1,365.45,228.88Z" transform="translate(732.83 461.64) rotate(-180)" fill="#f4cd74"/>
          <polygon points="374.89 231.97 359.93 231.97 359.25 231.97 344.29 231.97 341.56 235.85 341.56 241.68 359.25 241.68 359.93 241.68 377.61 241.68 377.61 235.85 374.89 231.97" fill="#f4cd74"/>
          <rect x="337.48" y="238.77" width="43.52" height="4.85" transform="translate(718.49 482.39) rotate(-180)" fill="#f2bc62"/>
          <rect x="350.86" y="213.15" width="18.28" height="2.29" fill="#f4cd74"/>
        </g>
        <g>
          <polygon points="449.87 226.94 448.9 226.94 434.34 226.94 434.34 232.76 448.9 232.76 449.87 232.76 464.43 232.76 464.43 226.94 449.87 226.94" fill="#f7e197"/>
          <rect x="443.57" y="204.58" width="11.43" height="5.71" fill="#f7e197"/>
          <rect x="440.17" y="204.61" width="3.88" height="5.82" fill="#f4cd74"/>
          <rect x="443.59" y="204.61" width="11.4" height="2.26" fill="#f4cd74"/>
          <path d="M438.22,228.88h0a1,1,0,0,1,1,1v2.91a0,0,0,0,1,0,0h-1.94a0,0,0,0,1,0,0v-2.91a1,1,0,0,1,1-1Z" fill="#f4cd74"/>
          <path d="M443.08,228.88h0a1,1,0,0,1,1,1v2.91a0,0,0,0,1,0,0h-1.94a0,0,0,0,1,0,0v-2.91A1,1,0,0,1,443.08,228.88Z" fill="#f4cd74"/>
          <path d="M449.39,175a4.86,4.86,0,0,0-4.86,4.85v13.59h9.71V179.85A4.85,4.85,0,0,0,449.39,175Z" fill="#f7e197"/>
          <path d="M452.92,193h-7.07a3.74,3.74,0,0,0-3.74,3.75v4h14.56v-4A3.75,3.75,0,0,0,452.92,193Z" fill="#f4cd74"/>
          <path d="M456.74,200.73H442a1.86,1.86,0,0,0-1.86,1.86v2h18.44v-2A1.87,1.87,0,0,0,456.74,200.73Z" fill="#f7e197"/>
          <rect x="454.73" y="204.61" width="3.88" height="5.82" transform="translate(913.34 415.04) rotate(-180)" fill="#f4cd74"/>
          <polygon points="449.87 210.29 448.9 210.29 440.17 210.29 440.17 215.29 448.9 215.29 449.87 215.29 458.61 215.29 458.61 210.29 449.87 210.29" fill="#f7e197"/>
          <path d="M449.87,215.29H438.22v.44a2.48,2.48,0,0,0,2.48,2.47h17.38a2.48,2.48,0,0,0,2.47-2.47v-.44Z" fill="#f7e197"/>
          <path d="M449.87,218.2H436.28v.24a2.67,2.67,0,0,0,2.67,2.67h20.87a2.66,2.66,0,0,0,2.67-2.67v-.24Z" fill="#f4cd74"/>
          <path d="M449.87,221.11H434.34v.06A2.85,2.85,0,0,0,437.2,224h24.38a2.84,2.84,0,0,0,2.85-2.85v-.06Z" fill="#f7e197"/>
          <polygon points="449.87 224.02 448.9 224.02 437.25 224.02 437.25 226.94 448.9 226.94 449.87 226.94 461.52 226.94 461.52 224.02 449.87 224.02" fill="#f4cd74"/>
          <path d="M459.58,228.88h1.94a0,0,0,0,1,0,0v2.91a1,1,0,0,1-1,1h0a1,1,0,0,1-1-1v-2.91A0,0,0,0,1,459.58,228.88Z" transform="translate(921.1 461.64) rotate(-180)" fill="#f4cd74"/>
          <path d="M454.73,228.88h1.94a0,0,0,0,1,0,0v2.91a1,1,0,0,1-1,1h0a1,1,0,0,1-1-1v-2.91A0,0,0,0,1,454.73,228.88Z" transform="translate(911.39 461.64) rotate(-180)" fill="#f4cd74"/>
          <polygon points="464.17 231.97 449.21 231.97 448.53 231.97 433.57 231.97 430.85 235.85 430.85 241.68 448.53 241.68 449.21 241.68 466.89 241.68 466.89 235.85 464.17 231.97" fill="#f4cd74"/>
          <rect x="426.76" y="238.77" width="43.52" height="4.85" transform="translate(897.05 482.39) rotate(-180)" fill="#f2bc62"/>
          <rect x="440.14" y="213.15" width="18.28" height="2.29" fill="#f4cd74"/>
        </g>
        <rect x="310.27" y="239.86" width="10.42" height="10.42" fill="#f7e197"/>
        <path d="M323.58,243.91h13.89a0,0,0,0,1,0,0v2.45a3.92,3.92,0,0,1-3.92,3.92h-6a3.92,3.92,0,0,1-3.92-3.92v-2.45A0,0,0,0,1,323.58,243.91Z" fill="#f7e197"/>
        <path d="M313.16,241.88v-4.34a2.31,2.31,0,0,1,2.32-2.31h0a2.31,2.31,0,0,1,2.31,2.31v4.05" fill="none" stroke="#231815" stroke-miterlimit="10" stroke-width="0.67"/>
        <path d="M326.18,243.91h0a3.28,3.28,0,0,1,3.28-3.28h1.84a3.28,3.28,0,0,1,3.28,3.28v.1" fill="none" stroke="#231815" stroke-miterlimit="10" stroke-width="0.67"/>
        <circle cx="344.71" cy="247.09" r="3.68" fill="#f7e197"/>
        <circle cx="354.55" cy="247.09" r="3.68" fill="#f7e197"/>
        <g>
          <rect x="468.38" y="228.15" width="9.09" height="11.58" fill="#c3a463"/>
          <line x1="468.38" y1="239.73" x2="468.38" y2="243.71" fill="none" stroke="#231815" stroke-miterlimit="10" stroke-width="0.41"/>
          <line x1="477.47" y1="239.91" x2="477.47" y2="243.89" fill="none" stroke="#c3a463" stroke-miterlimit="10" stroke-width="0.57"/>
          <rect x="471.88" y="233.94" width="1.83" height="3.26" fill="#f5d280"/>
          <rect x="491.45" y="228.15" width="9.09" height="11.58" fill="#f5d280"/>
          <line x1="491.45" y1="239.73" x2="491.45" y2="243.71" fill="none" stroke="#231815" stroke-miterlimit="10" stroke-width="0.41"/>
          <line x1="500.53" y1="239.91" x2="500.53" y2="243.89" fill="none" stroke="#c3a463" stroke-miterlimit="10" stroke-width="0.57"/>
          <rect x="494.94" y="233.94" width="2.1" height="3.26" fill="#c3a463"/>
          <polygon points="491.45 239.73 477.47 239.73 477.47 228.16 491.45 225.26 491.45 239.73" fill="#f3c86b"/>
          <rect x="479.57" y="229.96" width="2.1" height="2.89" fill="#f0b15f"/>
          <rect x="485.16" y="234.67" width="2.8" height="5.07" fill="#f0b15f"/>
          <line x1="491.45" y1="239.73" x2="491.45" y2="243.71" fill="none" stroke="#c3a463" stroke-miterlimit="10" stroke-width="0.57"/>
        </g>
        <g>
          <polygon points="422.63 218.68 403.92 218.68 402.88 218.68 384.17 218.68 378.98 221.79 378.98 226.99 402.88 226.99 403.92 226.99 427.82 226.99 427.82 221.79 422.63 218.68" fill="#f4cd74"/>
          <polygon points="403.92 208.28 402.88 208.28 387.29 208.28 387.29 214.52 402.88 214.52 403.92 214.52 419.51 214.52 419.51 208.28 403.92 208.28" fill="#f7e197"/>
          <rect x="397.17" y="184.35" width="12.23" height="6.12" fill="#f7e197"/>
          <rect x="393.53" y="184.38" width="4.16" height="6.24" fill="#f4cd74"/>
          <rect x="397.2" y="184.38" width="12.21" height="2.42" fill="#f4cd74"/>
          <path d="M391.45,210.36h0a1,1,0,0,1,1,1v3.12a0,0,0,0,1,0,0h-2.08a0,0,0,0,1,0,0V211.4A1,1,0,0,1,391.45,210.36Z" fill="#f4cd74"/>
          <path d="M396.64,210.36h0a1,1,0,0,1,1,1v3.12a0,0,0,0,1,0,0H395.6a0,0,0,0,1,0,0V211.4A1,1,0,0,1,396.64,210.36Z" fill="#f4cd74"/>
          <line x1="378.97" y1="221.79" x2="403.92" y2="221.79" fill="none" stroke="#f2bc62" stroke-miterlimit="10" stroke-width="0.61"/>
          <path d="M383.13,223.87h0a1,1,0,0,1,1,1V227a0,0,0,0,1,0,0h-2.08a0,0,0,0,1,0,0v-2.08A1,1,0,0,1,383.13,223.87Z" fill="#f2bc62"/>
          <path d="M388.33,223.87h0a1,1,0,0,1,1,1V227a0,0,0,0,1,0,0h-2.08a0,0,0,0,1,0,0v-2.08a1,1,0,0,1,1-1Z" fill="#f2bc62"/>
          <path d="M393.53,223.87h0a1,1,0,0,1,1,1V227a0,0,0,0,1,0,0h-2.08a0,0,0,0,1,0,0v-2.08A1,1,0,0,1,393.53,223.87Z" fill="#f2bc62"/>
          <path d="M398.72,223.87h0a1,1,0,0,1,1,1V227a0,0,0,0,1,0,0h-2.08a0,0,0,0,1,0,0v-2.08A1,1,0,0,1,398.72,223.87Z" fill="#f2bc62"/>
          <path d="M403.4,152.68a5.2,5.2,0,0,0-5.2,5.2v14.55h10.39V157.88A5.19,5.19,0,0,0,403.4,152.68Z" fill="#f7e197"/>
          <path d="M407.18,171.91h-7.57a4,4,0,0,0-4,4v4.3h15.59v-4.3A4,4,0,0,0,407.18,171.91Z" fill="#f4cd74"/>
          <path d="M411.27,180.22H395.53a2,2,0,0,0-2,2v2.16h19.74v-2.16A2,2,0,0,0,411.27,180.22Z" fill="#f7e197"/>
          <rect x="409.11" y="184.38" width="4.16" height="6.24" transform="translate(822.39 374.99) rotate(-180)" fill="#f4cd74"/>
          <polygon points="403.92 190.47 402.88 190.47 393.52 190.47 393.52 195.81 402.88 195.81 403.92 195.81 413.27 195.81 413.27 190.47 403.92 190.47" fill="#f7e197"/>
          <path d="M403.92,195.81H391.45v.47a2.65,2.65,0,0,0,2.64,2.65H412.7a2.65,2.65,0,0,0,2.65-2.65v-.47Z" fill="#f7e197"/>
          <path d="M403.92,198.93H389.37v.26a2.86,2.86,0,0,0,2.86,2.86h22.34a2.86,2.86,0,0,0,2.86-2.86v-.26Z" fill="#f4cd74"/>
          <path d="M403.92,202.05H387.29v.06a3.06,3.06,0,0,0,3.06,3.06h26.1a3.06,3.06,0,0,0,3.06-3.06v-.06Z" fill="#f7e197"/>
          <polygon points="403.92 205.16 402.88 205.16 390.41 205.16 390.41 208.28 402.88 208.28 403.92 208.28 416.39 208.28 416.39 205.16 403.92 205.16" fill="#f4cd74"/>
          <path d="M403.92,214.52H380a4.17,4.17,0,0,0,4.16,4.16h38.46a4.16,4.16,0,0,0,4.15-4.16Z" fill="#f4cd74"/>
          <path d="M414.31,210.36h2.08a0,0,0,0,1,0,0v3.12a1,1,0,0,1-1,1h0a1,1,0,0,1-1-1v-3.12A0,0,0,0,1,414.31,210.36Z" transform="translate(830.7 424.88) rotate(-180)" fill="#f4cd74"/>
          <path d="M409.11,210.36h2.08a0,0,0,0,1,0,0v3.12a1,1,0,0,1-1,1h0a1,1,0,0,1-1-1v-3.12A0,0,0,0,1,409.11,210.36Z" transform="translate(820.31 424.88) rotate(-180)" fill="#f4cd74"/>
          <line x1="427.82" y1="221.79" x2="402.88" y2="221.79" fill="none" stroke="#f2bc62" stroke-miterlimit="10" stroke-width="0.61"/>
          <path d="M422.63,223.87h2.08a0,0,0,0,1,0,0V226a1,1,0,0,1-1,1h0a1,1,0,0,1-1-1v-2.08a0,0,0,0,1,0,0Z" transform="translate(847.33 450.86) rotate(-180)" fill="#f2bc62"/>
          <path d="M417.43,223.87h2.08a0,0,0,0,1,0,0V226a1,1,0,0,1-1,1h0a1,1,0,0,1-1-1v-2.08A0,0,0,0,1,417.43,223.87Z" transform="translate(836.94 450.86) rotate(-180)" fill="#f2bc62"/>
          <path d="M412.23,223.87h2.08a0,0,0,0,1,0,0V226a1,1,0,0,1-1,1h0a1,1,0,0,1-1-1v-2.08A0,0,0,0,1,412.23,223.87Z" transform="translate(826.54 450.86) rotate(-180)" fill="#f2bc62"/>
          <path d="M407,223.87h2.08a0,0,0,0,1,0,0V226a1,1,0,0,1-1,1h0a1,1,0,0,1-1-1v-2.08A0,0,0,0,1,407,223.87Z" transform="translate(816.15 450.86) rotate(-180)" fill="#f2bc62"/>
          <path d="M403.92,227H375.86a4.15,4.15,0,0,0,4.15,4.16h46.77a4.16,4.16,0,0,0,4.16-4.16Z" fill="#f7e197"/>
          <polygon points="426.78 231.15 403.92 231.15 402.88 231.15 380.01 231.15 375.86 235.31 375.86 241.54 402.88 241.54 403.92 241.54 430.94 241.54 430.94 235.31 426.78 231.15" fill="#f4cd74"/>
          <rect x="370.26" y="238.42" width="66.92" height="5.2" transform="translate(807.43 482.04) rotate(-180)" fill="#f2bc62"/>
          <rect x="393.5" y="193.53" width="19.57" height="2.45" fill="#f4cd74"/>
          <line x1="384.02" y1="218.91" x2="423.17" y2="218.91" fill="none" stroke="#f2bc62" stroke-miterlimit="10" stroke-width="0.61"/>
        </g>
        <circle cx="344.7" cy="246.87" r="1.95" fill="#f4cd74"/>
        <circle cx="354.43" cy="246.87" r="1.95" fill="#f4cd74"/>
        <line x1="370.12" y1="243.68" x2="365.83" y2="249.11" fill="none" stroke="#231815" stroke-miterlimit="10" stroke-width="0.67"/>
        <line x1="304.02" y1="249.11" x2="299.15" y2="243.68" fill="none" stroke="#231815" stroke-miterlimit="10" stroke-width="0.67"/>
        <rect x="285.86" y="272.13" width="220.64" height="20.47" fill="#1b507b"/>
        <path d="M285.68,291.55H506.5a0,0,0,0,1,0,0v14.91a9.44,9.44,0,0,1-9.44,9.44H295.12a9.44,9.44,0,0,1-9.44-9.44V291.55A0,0,0,0,1,285.68,291.55Z" fill="#6186b6"/>
        <text transform="translate(337.28 307.44)" font-size="11.73" fill="#e7f0f4"  letter-spacing="0.1em">曼谷國際禮品家飾展</text>
        <g>
          <path d="M437.31,251.21h-3a4.88,4.88,0,0,0-4.41,2.79l-.24.53h7.81Z" fill="#fff"/>
          <path d="M450,260H416.71l2.89,4.47A17.16,17.16,0,0,0,434,272.3h32a17.17,17.17,0,0,0,14.41-7.84l2.89-4.47Z" fill="#e3b276"/>
          <g>
            <path d="M463.78,229.34l-1.89,3.5h1.35v1a1.43,1.43,0,0,0,1.42,1.43h.2l.54,6.19h3.23L467,229.34Z" fill="#fff"/>
            <path d="M465.13,239.31h-3.39a7.46,7.46,0,0,0-4.56,1.55l-9.84,10.31H435.75v3.77h15.09l8.09-8.89L460,256.83h11.58l4.32-11.32,2.23,9.16-.81,15.09h2.42l1.89-16.71-3.07-10.74a5.62,5.62,0,0,0-5-3Z" fill="#ec7163"/>
            <path d="M464.32,230.14,467.5,233h.86v-4.75h-4.52a.66.66,0,0,0-.41,1.19Z" fill="#1f2b60"/>
            <circle cx="467.69" cy="228.93" r="2.1" fill="#1f2b60"/>
          </g>
          <path d="M471.56,256.73l-.09,3.26h-37l4.93-4.83A10.48,10.48,0,0,1,450.9,253l8.53,3.71Z" fill="#1f2b60"/>
          <path d="M477.28,269.76l-.19,2.93.53-.09a2.53,2.53,0,0,0,2.09-2.12l.11-.72Z" fill="#fff"/>
          <line x1="419.87" y1="264.49" x2="449.95" y2="264.49" fill="none" stroke="#e3b276" stroke-miterlimit="10" stroke-width="0.39" style="mix-blend-mode: multiply"/>
          <line x1="423" y1="268.2" x2="453.07" y2="268.2" fill="none" stroke="#e3b276" stroke-miterlimit="10" stroke-width="0.39" style="mix-blend-mode: multiply"/>
        </g>
        <g>
          <line x1="330.8" y1="272.27" x2="330.8" y2="291.07" fill="none" stroke="#e7f0f2" stroke-miterlimit="10" stroke-width="0.47"/>
          <line x1="373.71" y1="272.27" x2="373.71" y2="291.07" fill="none" stroke="#e7f0f2" stroke-miterlimit="10" stroke-width="0.47"/>
          <line x1="418.26" y1="272.27" x2="418.26" y2="291.07" fill="none" stroke="#e7f0f2" stroke-miterlimit="10" stroke-width="0.47"/>
          <line x1="462.26" y1="272.27" x2="462.26" y2="291.07" fill="none" stroke="#e7f0f2" stroke-miterlimit="10" stroke-width="0.47"/>
          <text transform="translate(291.47 286.26) scale(0.83 1)" font-size="12.55" fill="#fff"  font-weight="700">2014</text>
          <text transform="translate(334.93 286.26) scale(0.83 1)" font-size="12.55" fill="#fff"  font-weight="700">2015</text>
          <text transform="translate(378.38 286.26) scale(0.83 1)" font-size="12.55" fill="#fff"  font-weight="700">2016</text>
          <text transform="translate(421.84 286.26) scale(0.83 1)" font-size="12.55" fill="#fff"  font-weight="700">2017</text>
          <text transform="translate(465.3 286.26) scale(0.83 1)" font-size="12.55" fill="#fff"  font-weight="700">2018</text>
        </g>
      </g>
      <g>
        <g>
          <path d="M97.51,345.51H261.86a14.54,14.54,0,0,1,14.54,14.54v0a14.54,14.54,0,0,1-14.54,14.54H97.51a0,0,0,0,1,0,0V345.51a0,0,0,0,1,0,0Z" fill="#6186b6"/>
          <rect x="43.64" y="345.39" width="53.75" height="29.08" fill="#1b507b"/>
          <text transform="translate(113.85 365.28)" font-size="14.6" fill="#e7f0f4"  letter-spacing="0.1em">青島臺灣名品博覽會</text>
        </g>
        <text transform="translate(54.53 365.97) scale(0.83 1)" font-size="17.73" fill="#fff"  font-weight="700">2012</text>
      </g>
      <g>
        <path d="M346.86,345.57h151.9a14,14,0,0,1,14,14v1.08a14,14,0,0,1-14,14H346.86a0,0,0,0,1,0,0V345.57A0,0,0,0,1,346.86,345.57Z" fill="#6186b6"/>
        <rect x="293" y="345.45" width="53.75" height="29.08" fill="#1b507b"/>
        <text transform="translate(363.21 365.35)" font-size="14.6" fill="#e7f0f4"  letter-spacing="0.1em">香港禮品及贈品展</text>
        <text transform="translate(303.09 366.03) scale(0.83 1)" font-size="17.73" fill="#fff"  font-weight="700">2013</text>
      </g>
      <g>
        <path d="M347.67,384.89H487.41A26.15,26.15,0,0,1,513.56,411v0a26.15,26.15,0,0,1-26.15,26.15H347.67a0,0,0,0,1,0,0V384.89A0,0,0,0,1,347.67,384.89Z" fill="#6186b6"/>
        <rect x="293.8" y="384.77" width="53.75" height="52.43" fill="#1b507b"/>
        <text transform="translate(364.01 406.66)" font-size="14.6" fill="#e7f0f4"  letter-spacing="0.1em">深圳國際文化<tspan x="0" y="19">產業博覽交易會</tspan></text>
        <text transform="translate(303.89 416.35) scale(0.83 1)" font-size="17.73" fill="#fff"  font-weight="700">2013</text>
      </g>
      <g>
        <path d="M98.39,386.15H249.06a26.08,26.08,0,0,1,26.08,26.08v0a26.08,26.08,0,0,1-26.08,26.08H98.39a0,0,0,0,1,0,0V386.15A0,0,0,0,1,98.39,386.15Z" fill="#6186b6"/>
        <rect x="44.67" y="386.03" width="53.6" height="52.29" fill="#1b507b"/>
        <text transform="translate(114.69 407.86)" font-size="14.56" fill="#e7f0f4"  letter-spacing="0.1em">香港設計及<tspan x="0" y="18.95">創新科技博覽會</tspan></text>
        <text transform="translate(55.53 417.52) scale(0.83 1)" font-size="17.73" fill="#fff"  font-weight="700">2012</text>
      </g>
    </g>
  </g>
</svg>
