<svg xmlns="http://www.w3.org/2000/svg" viewBox="0 0 158.5 284">
  <defs>
    <style>
      .a {
        isolation: isolate;
      }

      .b {
        fill: #9fcde4;
        opacity: 0.58;
        mix-blend-mode: multiply;
      }

      .c {
        fill: #6186b6;
      }

      .d {
        fill: #1f2b60;
      }

      .e {
        fill: #d1ecfb;
      }

      .f {
        fill: none;
        stroke: #1f2b60;
        stroke-miterlimit: 10;
        stroke-width: 1.92px;
      }

      .g {
        fill: #9ed7f5;
      }
    </style>
  </defs>
  
  <g class="a">
    <g>
      <path class="b" d="M34,7.78h0C12.66,14.05,0,33.86,4.55,53.73l1.36,5.92a151.4,151.4,0,0,1-3.4,80.4l-1.28,4a26.17,26.17,0,0,0,6.4,26.3h0a26.65,26.65,0,0,1,7.62,18.46v16.42c0,11.83,8.18,22.4,20.46,26.44L44.78,235Z"/>
      <path class="b" d="M124.51,7.78h0c21.33,6.27,34,26.08,29.44,45.95l-1.36,5.92a151.51,151.51,0,0,0,3.41,80.4l1.27,4a26.19,26.19,0,0,1-6.39,26.3h0a26.62,26.62,0,0,0-7.63,18.46v16.42c0,11.83-8.18,22.4-20.46,26.44L110.7,235Z"/>
      <g>
        <path class="c" d="M131.78,18.94C131.85,8.5,122.73,0,111.44,0H46.29C35,0,25.88,8.49,26,18.93l.4,61.55h105Z"/>
        <path class="d" d="M53.66,12.68h52.61a12.57,12.57,0,0,1,12.57,12.57V79.69a0,0,0,0,1,0,0H41.09a0,0,0,0,1,0,0V25.25A12.57,12.57,0,0,1,53.66,12.68Z"/>
        <path class="e" d="M31.86,237.42l9.27,22.3a37.8,37.8,0,0,0,8.59,12.78c18,17.3,49.05,15.08,63.75-6.67a23.35,23.35,0,0,0,2.14-4.08c1.91-4.61,6.57-15.81,10.12-24.36a60,60,0,0,0,4.62-22.6l1-134.31h-105l.89,134.29A59.85,59.85,0,0,0,31.86,237.42Z"/>
        <path class="c" d="M58.38,42.55h41.91A18.55,18.55,0,0,1,118.83,61.1v123a0,0,0,0,1,0,0h-79a0,0,0,0,1,0,0V61.1A18.55,18.55,0,0,1,58.38,42.55Z"/>
        <path class="d" d="M40,164.24h78.84a0,0,0,0,1,0,0v21A16.75,16.75,0,0,1,102.08,202H56.73A16.75,16.75,0,0,1,40,185.24v-21A0,0,0,0,1,40,164.24Z"/>
        <path class="f" d="M54.51,202v27.28a20.21,20.21,0,0,0,4.16,12.2h0c9.17,12.13,28.72,12.49,38.43.72l.4-.49a20.3,20.3,0,0,0,4.73-12.92V202"/>
        <path class="g" d="M61.4,54.77h36a13.12,13.12,0,0,1,13.12,13.12v73.7a0,0,0,0,1,0,0H48.28a0,0,0,0,1,0,0V67.89A13.12,13.12,0,0,1,61.4,54.77Z"/>
        <rect class="d" x="48.28" y="141.59" width="62.25" height="18.87"/>
        <path class="g" d="M48.28,160.46h62.25a0,0,0,0,1,0,0v5.9a16.75,16.75,0,0,1-16.75,16.75H65a16.75,16.75,0,0,1-16.75-16.75v-5.9A0,0,0,0,1,48.28,160.46Z"/>
      </g>
    </g>
  </g>
</svg>
