<svg xmlns="http://www.w3.org/2000/svg" viewBox="0 0 176 255">
  <title>chain</title>
  <g>
    <g>
      <g>
        <rect x="8.32" y="20.47" width="99.08" height="85.32" fill="#b9c5d6"/>
        <line x1="8.32" y1="49.55" x2="107.4" y2="49.55" fill="none" stroke="#1b507b" stroke-miterlimit="10" stroke-width="0.73"/>
        <line x1="8.32" y1="35.18" x2="107.4" y2="35.18" fill="none" stroke="#1b507b" stroke-miterlimit="10" stroke-width="0.73"/>
        <rect x="16.48" y="59.01" width="83.52" height="46.99" fill="#6186b6"/>
        <rect x="16.48" y="72.2" width="8.04" height="33.8" fill="#7cbce8"/>
        <rect x="48.19" y="72.2" width="18.76" height="33.8" fill="#1b507b"/>
        <rect x="90.18" y="72.2" width="9.83" height="33.8" fill="#7cbce8"/>
        <line x1="57.91" y1="72.2" x2="57.91" y2="106.68" fill="none" stroke="#7cbce8" stroke-miterlimit="10" stroke-width="0.43"/>
        <rect x="30.33" y="72.2" width="12.51" height="33.39" fill="#7cbce8"/>
        <rect x="72.31" y="72.2" width="12.51" height="33.39" fill="#7cbce8"/>
        <rect x="8.05" y="20.12" width="99.23" height="6.16" fill="#1b507b"/>
        <rect x="16.48" y="98.58" width="83.52" height="7.42" fill="#1b507b"/>
      </g>
      <rect x="107.4" y="41.3" width="62.01" height="64.43" fill="#6186b6"/>
      <line x1="118.56" y1="41.68" x2="118.56" y2="105.73" fill="none" stroke="#1b507b" stroke-miterlimit="10" stroke-width="0.73"/>
      <line x1="128.48" y1="41.68" x2="128.48" y2="105.73" fill="none" stroke="#1b507b" stroke-miterlimit="10" stroke-width="0.73"/>
      <line x1="138.41" y1="41.68" x2="138.41" y2="105.73" fill="none" stroke="#1b507b" stroke-miterlimit="10" stroke-width="0.73"/>
      <line x1="148.33" y1="41.68" x2="148.33" y2="105.73" fill="none" stroke="#1b507b" stroke-miterlimit="10" stroke-width="0.73"/>
      <line x1="158.25" y1="41.68" x2="158.25" y2="105.73" fill="none" stroke="#1b507b" stroke-miterlimit="10" stroke-width="0.73"/>
      <rect x="107.51" y="98.63" width="62.01" height="7.1" fill="#1b507b"/>
    </g>
    <polygon points="54.73 139.51 30.61 139.51 6.48 139.51 6.48 255 30.61 255 54.73 255 78.86 255 78.86 139.51 54.73 139.51" fill="#6186b6"/>
    <rect x="104.3" y="139.51" width="32.61" height="115.49" fill="#7dc8c5"/>
    <rect x="136.91" y="139.51" width="32.61" height="115.49" fill="#7dc8c5"/>
    <rect x="97.62" y="120.84" width="53.22" height="90.58" transform="translate(-41.9 290.36) rotate(-90)" fill="#9ed7f5"/>
    <text transform="translate(16.74 163.34) scale(0.83 1)" font-size="20.58" fill="#ecf6fc" font-family="Helvetica-Bold, Helvetica Bold" font-weight="700" letter-spacing="0.03em">46%</text>
    <rect x="93.1" y="178.58" width="62.27" height="90.58" transform="translate(-99.63 348.1) rotate(-90)" fill="#52bdbe"/>
    <text transform="translate(84.67 210.9) scale(0.83 1)" font-size="14.35" fill="#fff" font-family="Helvetica-Bold, Helvetica Bold" font-weight="700" letter-spacing="0.02em">28%</text>
    <text transform="translate(84.67 157.68) scale(0.83 1)" font-size="14.35" fill="#1b507b" font-family="Helvetica-Bold, Helvetica Bold" font-weight="700" letter-spacing="0.02em">26%</text>
  </g>
</svg>
