<svg xmlns="http://www.w3.org/2000/svg" xmlns:xlink="http://www.w3.org/1999/xlink" viewBox="0 0 322 271">
  <defs>
    <linearGradient id="a" data-name="未命名漸層 49" x1="25.61" y1="135.5" x2="296.39" y2="135.5" gradientUnits="userSpaceOnUse">
      <stop offset="0" stop-color="#96d3e9"/>
      <stop offset="0.99" stop-color="#c2e4ed"/>
    </linearGradient>
  </defs>
  
  <g>
    <g>
      <path d="M242,244a7,7,0,0,1-7-7v-4.25a6.88,6.88,0,0,1-2.55.48,7,7,0,0,1-2.45-.44l-18.4-6.83a7,7,0,0,1-4.59-6.6v-10H192.08a7,7,0,0,1-4.15-1.35l-17.89-13H146.19l-.43,0-51.23-3.2a7.18,7.18,0,0,1-1.58-.28L23.59,170.55a7,7,0,0,1-4-10.36L26,149.52a7,7,0,0,1,6-3.42H45.7l2.75-4.46-3.8-3.8a7,7,0,0,1-2.07-5V119a7,7,0,0,1,7-7H75.67V94.24A23.56,23.56,0,0,1,99.2,70.7h.51l82.68,2L205,53.59a7.05,7.05,0,0,1,4.54-1.66h16.74L249.1,29.09a7,7,0,0,1,5-2.06q.36,0,.72,0l34.07,3.52a7,7,0,0,1,5.07,11L276,67.46l5.81,6.43.67-.79a7.05,7.05,0,0,1,9.66-1l6.94,5.34A7,7,0,0,1,301.16,86l-2.33,5,3.91,8.21a7,7,0,0,1-.63,7.11l-8,11.21A7,7,0,0,1,289,120.4l-13.7,1.24-8.62,17.24v1.22l1.95,2a7.59,7.59,0,0,1,1.07-.08H270a7.1,7.1,0,0,1,5.06,2.4l4.29,4.91a7.05,7.05,0,0,1,0,9.31l-2.21,2.47v.19l12.68,11.27a7,7,0,0,1,2.36,5.26v17.38a7,7,0,0,1-1.05,3.7l-10.36,16.72a7.09,7.09,0,0,1-2.74,2.53l-19.2,10a7,7,0,0,1-.81,8.13l-4.68,5.35A7,7,0,0,1,248,244Z" fill="#dff0fa"/>
      <path d="M270.78,115l17.61-1.6,8-11.2L291.05,91l3.74-8-6.94-5.34L282,84.58,267,68l21.11-30.46-34.07-3.52L229.16,59H209.51L184.89,79.78l-85.33-2A16.5,16.5,0,0,0,82.7,94.24V119H49.62v13.87l7.74,7.74-7.74,12.54H32l-6.4,10.67L95,184.62l51.22,3.2h26.15l19.74,14.41H214V219.3l18.4,6.84.23-.57h11l2.34,6h-4v5.35h6l4.68-5.35L249,225.24l25.74-13.37,10.36-16.71V177.78l-15-13.37v-6l4-4.48L269.72,149l-2,2-8-8v-5.5l-.1-.11Z" fill="url(#a)"/>
    </g>
    <g>
      <rect x="66.8" y="222.19" width="163.29" height="5.44" rx="2.24" ry="2.24" fill="#7cbce8"/>
      <rect x="238.4" y="222.19" width="15.68" height="5.44" rx="2.24" ry="2.24" fill="#7cbce8"/>
      <polygon points="71.63 223.14 223.49 223.14 228.62 215.27 67.53 215.27 71.63 223.14" fill="#6186b6"/>
      <polygon points="161.27 108.86 124.45 108.86 124.45 134.88 124.45 138.57 124.44 138.57 124.44 142.36 124.45 142.36 124.45 146.06 124.44 146.06 124.44 149.85 124.45 149.85 124.45 153.55 124.44 153.55 124.44 157.34 124.45 157.34 202.95 157.34 202.95 153.55 202.95 149.85 202.95 146.06 202.95 142.36 202.95 138.57 202.95 134.98 202.95 131.19 202.95 127.59 202.95 123.8 202.95 120.19 202.95 116.4 202.95 112.65 202.95 108.86 161.27 108.86" fill="#ec7163"/>
      <g>
        <g>
          <rect x="89.73" y="194.81" width="9.44" height="5.51" fill="#f5d376"/>
          <rect x="89.73" y="200.32" width="9.44" height="5.51" fill="#7dc8c5"/>
          <rect x="99.17" y="194.81" width="9.44" height="5.51" fill="#7dc8c5"/>
          <rect x="99.17" y="189.31" width="9.44" height="5.51" fill="#6186b6"/>
          <rect x="99.17" y="200.32" width="9.44" height="5.51" fill="#f5d376"/>
          <rect x="108.61" y="194.81" width="9.44" height="5.51" fill="#6186b6"/>
          <rect x="108.61" y="200.32" width="9.44" height="5.51" fill="#7dc8c5"/>
          <rect x="118.05" y="194.81" width="9.44" height="5.51" fill="#7dc8c5"/>
          <rect x="118.05" y="189.31" width="9.44" height="5.51" fill="#6186b6"/>
          <rect x="118.05" y="200.32" width="9.44" height="5.51" fill="#f5d376"/>
          <rect x="127.5" y="194.81" width="9.44" height="5.51" fill="#6186b6"/>
          <rect x="127.5" y="200.32" width="9.44" height="5.51" fill="#7dc8c5"/>
          <rect x="155.82" y="194.81" width="9.44" height="5.51" fill="#6186b6"/>
          <rect x="155.82" y="200.32" width="9.44" height="5.51" fill="#7dc8c5"/>
          <rect x="136.94" y="194.81" width="9.44" height="5.51" fill="#f5d376"/>
          <rect x="136.94" y="189.31" width="9.44" height="5.51" fill="#7dc8c5"/>
          <rect x="136.94" y="200.32" width="9.44" height="5.51" fill="#6186b6"/>
          <rect x="146.38" y="194.81" width="9.44" height="5.51" fill="#7dc8c5"/>
          <rect x="146.38" y="189.31" width="9.44" height="5.51" fill="#6186b6"/>
          <rect x="146.38" y="200.32" width="9.44" height="5.51" fill="#f5d376"/>
        </g>
        <rect x="173.13" y="188.13" width="27.15" height="16.52" fill="#fff"/>
        <rect x="173.13" y="182.62" width="27.15" height="5.51" fill="#6186b6"/>
        <rect x="205" y="191.27" width="11.8" height="3.15" fill="#6186b6"/>
        <rect x="205" y="194.42" width="11.8" height="10.23" fill="#fff"/>
        <circle cx="213.92" cy="183.03" r="3.96" fill="#fff"/>
        <circle cx="234.05" cy="149.47" r="11.87" fill="#fff"/>
        <circle cx="238.53" cy="166.25" r="11.87" fill="#fff"/>
        <circle cx="227.34" cy="169.61" r="11.87" fill="#fff"/>
        <polygon points="235.29 205.04 62.19 205.04 65.88 212.12 230.67 212.12 235.29 205.04" fill="#6186b6"/>
        <polygon points="65.88 212.12 67.53 215.27 228.62 215.27 230.67 212.12 65.88 212.12" fill="#1b507b"/>
        <rect x="190.43" y="191.67" width="1.85" height="5.54" fill="#6186b6"/>
        <rect x="195.04" y="191.67" width="1.85" height="5.54" fill="#6186b6"/>
      </g>
      <g>
        <path d="M134.34,123l-3.76-2.73v0H135c.33,0,.26,0,.36-.26.44-1.34.87-2.69,1.31-4a.55.55,0,0,1,.08-.15l.07.19,1.32,4.05c.06.21,0,.2.27.2h4.26a.44.44,0,0,1,.19,0c-.19.17-.4.31-.6.46l-.64.46-.62.45-.62.46-.64.46-.63.46c.47,1.48,1,3,1.42,4.45-.44-.28-.85-.59-1.26-.89l-1.26-.91-1.27-.93-3.78,2.75,0,0Z" fill="#fff"/>
        <path d="M152.79,128.15l-1.2-.81-1.14.88,0,0a.83.83,0,0,0,0-.15c.1-.36.21-.71.31-1.06,0-.18,0-.18-.1-.27l-.92-.63-.16-.12h.16l1.17,0c.15,0,.16,0,.2-.17.11-.36.21-.72.32-1.09a1.2,1.2,0,0,1,.06-.17l.07.17c.12.35.25.7.38,1,.06.17.06.17.25.16l1.2,0h.07a.93.93,0,0,1-.1.1l-.93.72c-.12.09-.12.1-.06.24l.39,1.08s0,.09,0,.14Z" fill="#fff"/>
        <path d="M145.7,129.46l.18.06,1.06.41c.14,0,.14,0,.24-.07l.72-.88.13-.15c0,.23,0,.43,0,.64s0,.47,0,.71,0,.13.11.18l1.06.41.19.08-.11.05-1.13.3c-.18.05-.18.05-.19.24l-.06,1.15a1,1,0,0,0,0,.12l-.09-.11-.63-1c-.09-.13-.09-.13-.24-.09l-1.08.28a.35.35,0,0,1-.18,0l.1-.14.7-.86c.11-.13.11-.13,0-.27-.2-.32-.4-.63-.61-.94A1.46,1.46,0,0,0,145.7,129.46Z" fill="#fff"/>
        <path d="M149.32,116.12l-.23.06-1.05.23c-.16,0-.17,0-.18.2,0,.38-.07.75-.11,1.12a1.49,1.49,0,0,1,0,.17l-.08-.1c-.2-.34-.4-.69-.61-1-.07-.13-.07-.13-.21-.1l-1.21.27h-.09l.09-.12.77-.87c.11-.12.11-.12,0-.27l-.55-.94a1.88,1.88,0,0,0-.1-.19l.19.07,1,.46c.13.06.13,0,.23,0l.76-.87a.44.44,0,0,0,.08-.11l.05,0c0,.17,0,.34-.05.5s-.05.52-.08.78,0,.16.13.22l1,.46Z" fill="#fff"/>
        <path d="M152.33,120.07l1,1,0,0h-.14l-1.11-.19c-.15,0-.15,0-.23.12l-.51,1a.53.53,0,0,1-.12.15l0-.24c-.06-.35-.11-.7-.16-1.05,0-.15,0-.15-.17-.17l-1.17-.2-.14,0,.16-.09,1-.49c.18-.09.18-.09.15-.28-.06-.38-.11-.77-.17-1.15v-.12l1,1.05,1.32-.64a2.26,2.26,0,0,1-.22.44c-.07.15-.14.29-.22.43Z" fill="#fff"/>
      </g>
      <rect x="121.34" y="108.86" width="3.44" height="83" fill="#6186b6"/>
    </g>
  </g>
</svg>
