<svg xmlns="http://www.w3.org/2000/svg" xmlns:xlink="http://www.w3.org/1999/xlink" viewBox="0 0 322 271">
  <defs>
    <linearGradient id="a" data-name="未命名漸層 49" x1="85.31" y1="109.95" x2="89.11" y2="109.95" gradientUnits="userSpaceOnUse">
      <stop offset="0" stop-color="#96d3e9"/>
      <stop offset="0.99" stop-color="#c2e4ed"/>
    </linearGradient>
    <linearGradient id="b" x1="75.78" y1="130.73" x2="275.6" y2="130.73" xlink:href="#a"/>
    <linearGradient id="c" x1="89.11" y1="122.93" x2="106.17" y2="122.93" xlink:href="#a"/>
    <linearGradient id="d" x1="78.02" y1="126.28" x2="89.11" y2="126.28" xlink:href="#a"/>
    <linearGradient id="e" x1="8683.62" y1="155.38" x2="8683.62" y2="143.51" gradientTransform="matrix(-1, -0.02, -0.02, 1, 8909.29, 80.03)" xlink:href="#a"/>
    <linearGradient id="f" x1="8704.68" y1="155.38" x2="8704.68" y2="143.51" gradientTransform="matrix(-1, -0.02, -0.02, 1, 8909.29, 80.03)" xlink:href="#a"/>
    <linearGradient id="g" x1="8670.75" y1="181.21" x2="8670.75" y2="172.34" gradientTransform="matrix(-1, -0.02, -0.02, 1, 8909.29, 80.03)" xlink:href="#a"/>
    <linearGradient id="h" x1="8686.5" y1="181.21" x2="8686.5" y2="172.34" gradientTransform="matrix(-1, -0.02, -0.02, 1, 8909.29, 80.03)" xlink:href="#a"/>
    <linearGradient id="i" x1="8704.16" y1="224.16" x2="8704.16" y2="217.23" gradientTransform="matrix(-1, -0.02, -0.02, 1, 8909.29, 80.03)" xlink:href="#a"/>
    <linearGradient id="j" x1="8716.47" y1="224.16" x2="8716.47" y2="217.23" gradientTransform="matrix(-1, -0.02, -0.02, 1, 8909.29, 80.03)" xlink:href="#a"/>
    <linearGradient id="k" x1="8676.25" y1="223.65" x2="8676.25" y2="216.72" gradientTransform="matrix(-1, -0.02, -0.02, 1, 8909.29, 80.03)" xlink:href="#a"/>
    <linearGradient id="l" x1="8688.56" y1="223.65" x2="8688.56" y2="216.72" gradientTransform="matrix(-1, -0.02, -0.02, 1, 8909.29, 80.03)" xlink:href="#a"/>
    <linearGradient id="m" data-name="未命名漸層 33" x1="21.85" y1="184.66" x2="272.73" y2="184.66" gradientUnits="userSpaceOnUse">
      <stop offset="0" stop-color="#e7f0f2"/>
      <stop offset="0.99" stop-color="#fff"/>
    </linearGradient>
    <linearGradient id="n" x1="159.74" y1="154.31" x2="189.6" y2="154.31" xlink:href="#m"/>
    <linearGradient id="o" x1="171.68" y1="147.84" x2="177.66" y2="147.84" gradientTransform="translate(349.34 295.67) rotate(180)" xlink:href="#m"/>
    <clipPath id="p">
      <rect x="102.18" y="69.85" width="92.01" height="56.06" fill="#1f2b60"/>
    </clipPath>
  </defs>
  
  <g>
    <g>
      <g>
        <path d="M173.15,220a5.6,5.6,0,0,1-3.82-1.5l-4.23-3.95a5.59,5.59,0,0,1-.77-7.29l-1.54-1a6.14,6.14,0,0,1-1.19.39,5.74,5.74,0,0,1-.88,1.79l-3.95,5.37a5.61,5.61,0,0,1-4.51,2.27,5.52,5.52,0,0,1-2.49-.59l-1.7-.85a5.59,5.59,0,0,1-2.64-7.2l1-2.36a5.61,5.61,0,0,1-3.08-4.12L137,199.21a5.66,5.66,0,0,1-3.52-2.84l-3.52-6.85h-2l-4.11,3.29a5.65,5.65,0,0,1-3.5,1.23h-1a5.64,5.64,0,0,1-2,3.54l-6.52,5.31A5.49,5.49,0,0,1,111,204v4.51a5.6,5.6,0,0,1-5.6,5.59H105a5.58,5.58,0,0,1-5.25,3.67H95A5.59,5.59,0,0,1,90.46,220H85.38a5.57,5.57,0,0,1-4.52-2.3l-.59-.8h-2a5.59,5.59,0,0,1-5.59-5.59v-2.09a5.6,5.6,0,0,1-2.54-4.69V200.3a5.57,5.57,0,0,1,1.47-3.78l1.63-1.78v-3.46l-1-1.85a5.59,5.59,0,0,1,2.84-7.87l7-2.82a5.59,5.59,0,0,1,4.71.26,5.91,5.91,0,0,1,1-.1h4a5.59,5.59,0,0,1,4.44,2.2l.58-1.26-2.13-1.79a5.67,5.67,0,0,1-1.26-1.51H92.15A5.59,5.59,0,0,1,86.56,171v-5.36a5.6,5.6,0,0,1,5.59-5.6h3.46a5.58,5.58,0,0,1,5-3.1h2a5.47,5.47,0,0,1,2,.38l5.93-6.09v-3.66a5.58,5.58,0,0,1,3.6-5.22l5.93-2.26a5.62,5.62,0,0,1,2-.37h.69l-.38-1.18a5.68,5.68,0,0,1-.26-1.69v-5.93c0-.11,0-.22,0-.34h-.06a5.61,5.61,0,0,1-3.69-1.38l-4.51-4A5.61,5.61,0,0,1,112,121V110.83a5.65,5.65,0,0,1,.55-2.42,5.61,5.61,0,0,1,1.41-7.42L129.46,89.4V80.07a5.59,5.59,0,0,1,1.87-4.17l8.57-7.65v0a5.62,5.62,0,0,1,.69-2.7,5.81,5.81,0,0,1-.41-2.23,5.63,5.63,0,0,1,1.83-4l3.11-2.82a5.58,5.58,0,0,1,2.4-1.29,5.58,5.58,0,0,1,5.31-3.83h1.72l1.71-2.28a5.6,5.6,0,0,1,3.49-2.15,5.54,5.54,0,0,1,3.8-1.5h3.11a5.36,5.36,0,0,1,1,.09,5.33,5.33,0,0,1,1-.09h4.8a5.55,5.55,0,0,1,2.65.67l7.34,4a5.38,5.38,0,0,1,1.22.89l1.72.16a5.69,5.69,0,0,1,.81.13l18,4.39.35-.31a5.6,5.6,0,0,1,6.5-.67l11.29,6.49a5.59,5.59,0,0,1,2,2l5.06-5.07a5.57,5.57,0,0,1,2.76-1.5,5.55,5.55,0,0,1,4.58-2.39,5.73,5.73,0,0,1,1.91.33l3.11,1.13.42.18,2.5-1.49-.23-.12a5.6,5.6,0,0,1-2.5-6.85l.84-2.25a5.61,5.61,0,0,1,7.38-3.21l26.53,11a5.61,5.61,0,0,1,3.32,6.37L274.7,88v36.64a5.63,5.63,0,0,1-.68,2.67l-13.15,24.16v16.07a5.59,5.59,0,0,1-5.39,5.59,5.56,5.56,0,0,1-2.87,4.39l-2.75,1.51v1l11.79,12.79a5.59,5.59,0,0,1,1,6l-2.54,5.93a5.58,5.58,0,0,1-3.32,3.08,5.38,5.38,0,0,1-1.81.31,5.64,5.64,0,0,1-2.71-.7l-9.46-5.23h-6.18a5.52,5.52,0,0,1-2.91-.82l-5.09-3.1a5.61,5.61,0,0,1-2.67-4.78v-2.43L213.39,186a5.6,5.6,0,0,1-3.46-5.81l-4.2,1.2a5.36,5.36,0,0,1-1.54.22H197.7a4.91,4.91,0,0,1-.86-.07l-3.7,7.77.11.15a5.58,5.58,0,0,1-1.06,7.55l-5.93,4.8a5.57,5.57,0,0,1-3.51,1.25,5.69,5.69,0,0,1-2.61-.64l1.46,1.26a5.59,5.59,0,0,1,.84,7.55l-4.79,6.49a5.59,5.59,0,0,1-4,2.25Z" fill="#dff0fa"/>
        <path d="M91.58,143.54a5.6,5.6,0,0,1-5.21-7.6l.56-1.45a5.6,5.6,0,0,1-1.66-4v-4.08a5.52,5.52,0,0,1,1-3.23l-1.81-2.68a5.6,5.6,0,0,1-.93-3.73l1-9.48a5.58,5.58,0,0,1,5.56-5h6.12a5.59,5.59,0,0,1,5.55,4.91,5.58,5.58,0,0,1,2.67,4.76v8.26l1.81,2.78a5.59,5.59,0,0,1,5.48,5.59v3.5a5.55,5.55,0,0,1-2.18,4.42,5.58,5.58,0,0,1-5.45,4.37H98.18l-.67.75a5.57,5.57,0,0,1-4.18,1.88Z" fill="#ddecf3"/>
        <path d="M85.31,117.73a5.6,5.6,0,0,1-5.54-6.33l.59-4.38a5.6,5.6,0,0,1,5.54-4.85h3.21a5.59,5.59,0,0,1,5.19,7.67l-1.75,4.37a5.59,5.59,0,0,1-5.19,3.52Z" fill="#ddecf3"/>
        <polygon points="89.11 107.76 87.36 112.14 85.31 112.14 85.9 107.76 89.11 107.76" fill="url(#a)"/>
        <path d="M81.52,138.14l-.55,0-2.92-.3a5.57,5.57,0,0,1-4.7-7.45,5.63,5.63,0,0,1-.9-3.53l.29-3.5a5.6,5.6,0,0,1,5.5-5.13l.25-.54a5.58,5.58,0,0,1,5.07-3.25h5.55A5.59,5.59,0,0,1,94.7,120v8.17a5.58,5.58,0,0,1-5,5.56,5.6,5.6,0,0,1-3.55,2A5.6,5.6,0,0,1,81.52,138.14Z" fill="#ddecf3"/>
        <g>
          <polygon points="255.28 167.56 249.91 167.56 249.91 172.64 244.27 175.75 244.27 182.24 257.54 196.63 255 202.56 244.27 196.63 236.65 196.63 231.57 193.53 231.57 187.32 215.48 180.82 219.15 174.33 216.61 171.51 218.87 169.54 212.1 169.54 212.1 173.77 204.19 176.03 197.7 176.03 197.7 172.08 195.16 172.08 186.7 189.86 188.67 192.68 182.75 197.48 180.21 195.22 175.41 195.22 175.41 199.45 173.15 199.45 173.15 196.35 171.74 196.35 171.74 202.56 177.95 207.92 173.15 214.41 168.92 210.46 171.17 207.35 171.17 205.1 163.55 200.02 163.55 192.68 149.16 184.78 149.16 178.57 140.41 178.57 140.41 185.91 160.45 199.17 160.45 201.15 157.91 201.15 157.34 198.89 154.52 198.32 154.52 202.56 156.22 205.1 152.26 210.46 150.57 209.61 152.26 205.66 152.26 200.02 148.88 200.02 148.88 196.63 138.44 193.81 133.35 183.93 126.02 183.93 120.37 188.44 113.88 188.44 113.88 193.24 103.16 201.99 103.16 203.97 105.42 203.97 105.42 208.48 99.77 208.48 99.77 212.15 90.46 212.15 90.46 214.41 85.38 214.41 83.12 211.31 78.32 211.31 78.32 204.53 75.78 204.53 75.78 200.3 78.89 196.91 78.89 189.86 77.19 186.75 84.25 183.93 85.94 186.75 87.92 186.75 87.92 184.49 91.87 184.49 91.87 187.03 99.77 187.03 103.72 178.28 98.36 173.77 98.36 170.95 92.15 170.95 92.15 165.59 100.62 165.59 100.62 162.48 102.59 162.48 102.59 164.17 105.7 164.17 116.14 153.45 116.14 147.52 122.07 145.26 127.99 145.26 127.99 143.01 129.69 143.01 127.71 136.8 127.71 130.87 131.94 126.92 133.07 129.18 131.94 130.59 131.94 132 134.2 132 134.2 133.97 132.51 133.97 131.66 136.8 134.77 139.9 137.31 138.21 135.05 135.1 140.41 131.15 133.92 119.02 128.84 119.02 122.07 124.94 117.55 120.99 117.55 110.83 120.09 109.99 119.81 107.45 117.27 105.47 135.05 92.2 135.05 80.07 145.49 70.76 145.49 68.22 147.47 65.11 145.77 63.42 148.88 60.6 151.14 62.57 152.83 61.73 152.83 56.93 157.34 56.93 160.73 52.41 162.43 52.41 162.43 54.39 163.55 54.39 163.55 51 166.66 51 166.66 55.52 168.63 55.52 168.63 51 173.43 51 180.77 54.95 180.77 56.36 175.69 56.36 175.69 59.47 182.75 59.47 182.75 56.36 185.85 56.65 206.74 61.73 209.28 59.47 220.56 65.96 217.74 69.63 223.1 73.3 234.39 62.01 237.78 63.7 237.78 59.75 240.88 60.88 240.88 63.7 252.74 56.65 252.74 60.03 257.82 57.21 257.82 54.67 248.22 49.31 249.07 47.05 275.6 58.06 269.11 87.41 269.11 124.66 255.28 150.06 255.28 167.56" fill="url(#b)"/>
          <polygon points="90.13 107.91 96.25 107.91 95.08 111.99 98.88 111.99 98.88 121.91 103.25 128.62 106.17 128.62 106.17 132.12 104.13 132.12 104.13 135.32 95.67 135.32 93.33 137.95 91.58 137.95 93.04 134.16 96.98 131.97 94.79 129.78 90.86 130.51 90.86 126.43 95.23 126.43 89.11 117.39 90.13 107.91" fill="url(#c)"/>
          <polygon points="83.56 120.01 81.81 123.8 78.31 123.8 78.02 127.3 80.65 127.3 78.61 132.26 81.52 132.55 82.69 130.51 85.31 130.22 86.48 128.18 89.11 128.18 89.11 120.01 83.56 120.01" fill="url(#d)"/>
        </g>
      </g>
      <g>
        <path d="M238.93,105.44l-9.32-9.29a9,9,0,0,0-12.85.16l-8.18,8.57" fill="url(#e)"/>
        <path d="M213,105l-4.25-4.24a9,9,0,0,0-12.85.16l-3.53,3.7" fill="url(#f)"/>
      </g>
      <g>
        <path d="M247.63,124.16l-7-6.94a6.71,6.71,0,0,0-9.61.12l-6.12,6.41" fill="url(#g)"/>
        <path d="M228.24,123.81l-3.17-3.17a6.73,6.73,0,0,0-9.62.12l-2.64,2.77" fill="url(#h)"/>
      </g>
      <g>
        <path d="M211,161.74l-5.45-5.43a5.26,5.26,0,0,0-7.51.09l-4.78,5" fill="url(#i)"/>
        <path d="M195.89,161.46,193.41,159a5.27,5.27,0,0,0-7.52.09l-2.06,2.17" fill="url(#j)"/>
      </g>
      <g>
        <path d="M239,161.74l-5.44-5.43a5.27,5.27,0,0,0-7.52.09l-4.78,5" fill="url(#k)"/>
        <path d="M223.81,161.46,221.33,159a5.26,5.26,0,0,0-7.51.09l-2.07,2.17" fill="url(#l)"/>
      </g>
    </g>
    <g>
      <g>
        <polygon points="179.3 200.05 145.03 175.47 38.49 175.47 5.7 216.44 182.28 216.44 193.46 200.05 179.3 200.05" fill="#1b507b"/>
        <polygon points="152 180.46 126.77 180.46 133.48 186.27 160.09 186.27 152 180.46" fill="#1b507b"/>
        <polygon points="165.65 190.26 135.72 190.26 143.17 197.45 175.67 197.45 165.65 190.26" fill="#1b507b"/>
        <polygon points="116.34 180.31 111.13 186.27 83.56 186.27 77.6 180.31 116.34 180.31" fill="#1b507b"/>
        <polygon points="132.74 190 125.28 197.45 73.88 197.45 67.17 190 132.74 190" fill="#1b507b"/>
        <polygon points="169.99 201.17 149.13 201.17 149.13 207.13 159.56 207.13 169.99 201.17" fill="#1b507b"/>
        <rect x="143.17" y="201.17" width="2.24" height="5.96" transform="translate(288.57 408.3) rotate(-180)" fill="#1b507b"/>
        <rect x="138.7" y="201.17" width="2.24" height="5.96" transform="translate(279.63 408.3) rotate(-180)" fill="#1b507b"/>
        <rect x="85.8" y="201.17" width="48.43" height="5.96" transform="translate(220.02 408.3) rotate(-180)" fill="#1b507b"/>
        <polygon points="65.68 207.13 80.58 207.13 80.58 201.17 61.21 201.17 65.68 207.13" fill="#1b507b"/>
        <polygon points="34.61 180.31 49.29 180.31 44.82 185.53 30.28 185.53 34.61 180.31" fill="#1b507b"/>
        <polygon points="26.42 190.74 41.09 190.74 36.62 195.96 22.08 195.96 26.42 190.74" fill="#1b507b"/>
        <polygon points="17.48 201.92 32.15 201.92 27.68 207.13 13.14 207.13 17.48 201.92" fill="#1b507b"/>
        <polygon points="108.89 175.47 131.25 175.47 128.26 171 111.87 171 108.89 175.47" fill="#1b507b"/>
        <rect x="117.83" y="164.3" width="4.47" height="8.2" transform="translate(240.14 336.79) rotate(-180)" fill="#1b507b"/>
      </g>
      <polygon points="6.04 216.49 6.04 224.8 176.86 224.8 182.79 216.49 6.04 216.49" fill="#1b507b"/>
    </g>
    <line x1="62.83" y1="175.47" x2="31.59" y2="216.49" fill="none" stroke="#1b507b" stroke-miterlimit="10" stroke-width="1.19"/>
    <rect x="0.11" y="223.2" width="280.56" height="6.34" rx="3.17" ry="3.17" fill="#7cbce8"/>
    <rect x="294.94" y="223.2" width="26.95" height="6.34" rx="3.17" ry="3.17" fill="#7cbce8"/>
    <g>
      <g>
        <polygon points="253.82 190.14 208.02 157.28 65.65 157.28 21.85 212.04 257.8 212.04 272.73 190.14 253.82 190.14" fill="url(#m)"/>
        <polygon points="217.33 163.96 183.63 163.96 192.59 171.72 228.14 171.72 217.33 163.96" fill="#1b507b"/>
        <polygon points="235.57 177.05 195.57 177.05 205.53 186.65 248.96 186.65 235.57 177.05" fill="#1b507b"/>
        <polygon points="169.69 163.75 162.72 171.72 125.89 171.72 117.92 163.75 169.69 163.75" fill="#1b507b"/>
        <polygon points="191.59 176.7 181.64 186.65 112.94 186.65 103.98 176.7 191.59 176.7" fill="#1b507b"/>
        <polygon points="241.37 191.63 213.5 191.63 213.5 199.6 227.43 199.6 241.37 191.63" fill="#1b507b"/>
        <rect x="205.53" y="191.63" width="2.99" height="7.96" transform="translate(414.05 391.23) rotate(-180)" fill="#1b507b"/>
        <rect x="199.56" y="191.63" width="2.99" height="7.96" transform="translate(402.1 391.23) rotate(-180)" fill="#1b507b"/>
        <rect x="128.87" y="191.63" width="64.71" height="7.96" transform="translate(322.46 391.23) rotate(-180)" fill="#1b507b"/>
        <polygon points="101.99 199.6 121.9 199.6 121.9 191.63 96.02 191.63 101.99 199.6" fill="#1b507b"/>
        <polygon points="60.48 163.75 80.09 163.75 74.12 170.72 54.69 170.72 60.48 163.75" fill="#1b507b"/>
        <polygon points="49.53 177.69 69.14 177.69 63.16 184.66 43.73 184.66 49.53 177.69" fill="#1b507b"/>
        <polygon points="37.58 192.63 57.19 192.63 51.22 199.6 31.79 199.6 37.58 192.63" fill="#1b507b"/>
        <polygon points="159.74 157.29 189.6 157.29 185.62 151.32 163.72 151.32 159.74 157.29" fill="url(#n)"/>
        <rect x="171.68" y="142.36" width="5.97" height="10.95" transform="translate(349.34 295.67) rotate(-180)" fill="url(#o)"/>
      </g>
      <polygon points="22.3 212.11 22.3 223.2 250.56 223.2 258.48 212.11 22.3 212.11" fill="#6186b6"/>
    </g>
    <g>
      <g>
        <g>
          <rect x="102.18" y="69.85" width="92.01" height="56.06" fill="#1f2b60"/>
          <g clip-path="url(#p)">
            <polygon points="194.19 125.91 102.19 125.91 102.19 69.84 194.19 69.84 194.19 125.91 194.19 125.91" fill="#2f3e8d"/>
          </g>
        </g>
        <polygon points="148.77 113.83 149.51 116.01 151.76 116.01 150.16 117.22 150.6 119.56 148.77 118.23 146.94 119.52 147.38 117.22 145.81 116 148.05 116 148.77 113.83 148.77 113.83" fill="#ede237"/>
        <polygon points="148.77 75.9 149.51 78.09 151.76 78.08 150.16 79.29 150.6 81.64 148.77 80.31 146.94 81.6 147.38 79.29 145.81 78.08 148.05 78.08 148.77 75.9 148.77 75.9" fill="#ede237"/>
        <polygon points="157.91 78.34 158.65 80.53 160.89 80.52 159.3 81.73 159.74 84.07 157.91 82.75 156.07 84.04 156.52 81.73 154.94 80.52 157.19 80.52 157.91 78.34 157.91 78.34" fill="#ede237"/>
        <polygon points="139.2 78.34 139.94 80.53 142.18 80.52 140.59 81.73 141.03 84.07 139.2 82.75 137.36 84.04 137.81 81.73 136.23 80.52 138.47 80.52 139.2 78.34 139.2 78.34" fill="#ede237"/>
        <polygon points="157.91 111.27 158.65 113.45 160.89 113.45 159.3 114.65 159.74 117 157.91 115.67 156.07 116.96 156.52 114.65 154.94 113.44 157.19 113.44 157.91 111.27 157.91 111.27" fill="#ede237"/>
        <polygon points="139.2 111.27 139.94 113.45 142.18 113.45 140.59 114.65 141.03 117 139.2 115.67 137.36 116.96 137.81 114.65 136.23 113.44 138.47 113.44 139.2 111.27 139.2 111.27" fill="#ede237"/>
        <polygon points="132.2 85.5 132.94 87.68 135.19 87.68 133.59 88.89 134.03 91.23 132.2 89.9 130.37 91.2 130.81 88.89 129.23 87.67 131.48 87.67 132.2 85.5 132.2 85.5" fill="#ede237"/>
        <polygon points="165.13 85.5 165.87 87.68 168.12 87.68 166.52 88.89 166.96 91.23 165.13 89.9 163.3 91.2 163.74 88.89 162.16 87.67 164.41 87.67 165.13 85.5 165.13 85.5" fill="#ede237"/>
        <polygon points="132.2 104.43 132.94 106.61 135.19 106.61 133.59 107.82 134.03 110.16 132.2 108.83 130.37 110.12 130.81 107.82 129.23 106.6 131.48 106.6 132.2 104.43 132.2 104.43" fill="#ede237"/>
        <polygon points="165.13 104.43 165.87 106.61 168.12 106.61 166.52 107.82 166.96 110.16 165.13 108.83 163.3 110.12 163.74 107.82 162.16 106.6 164.41 106.6 165.13 104.43 165.13 104.43" fill="#ede237"/>
        <polygon points="130.03 94.89 130.76 97.08 133.01 97.07 131.42 98.28 131.86 100.62 130.03 99.3 128.19 100.59 128.64 98.28 127.06 97.07 129.31 97.07 130.03 94.89 130.03 94.89" fill="#ede237"/>
        <polygon points="167.54 94.89 168.28 97.08 170.53 97.07 168.93 98.28 169.37 100.62 167.54 99.3 165.71 100.59 166.15 98.28 164.57 97.07 166.82 97.07 167.54 94.89 167.54 94.89" fill="#ede237"/>
      </g>
      <rect x="99.97" y="69.14" width="4.04" height="87.49" fill="#6186b6"/>
    </g>
  </g>
</svg>
