<svg xmlns="http://www.w3.org/2000/svg" viewBox="0 0 159.25 161.48">
  
  <g>
    <circle cx="79.65" cy="81.42" r="65.8" fill="#6186b6"/>
    <circle cx="79.65" cy="81.42" r="52.59" fill="#b9c5d6"/>
    <polygon points="63.49 72.94 43.5 44.61 73.49 64.61 73.49 76.28 63.49 72.94" fill="#1b507b"/>
    <polygon points="97.99 72.94 117.98 44.61 87.99 64.61 87.99 76.28 97.99 72.94" fill="#1b507b"/>
    <polygon points="97.99 92.12 117.98 120.45 87.99 100.45 87.99 88.79 97.99 92.12" fill="#1b507b"/>
    <polygon points="63.49 92.12 43.5 120.45 73.49 100.45 73.49 88.79 63.49 92.12" fill="#1b507b"/>
    <g>
      <polygon points="69.88 76.57 80.74 0 80.74 70.05 69.88 76.57" fill="#e7f0f2"/>
      <polygon points="91.6 76.57 80.74 0 80.74 70.05 91.6 76.57" fill="#6186b6"/>
      <polygon points="91.6 84.92 80.74 161.48 80.74 91.43 91.6 84.92" fill="#e7f0f2"/>
      <polygon points="69.88 84.92 80.74 161.48 80.74 91.43 69.88 84.92" fill="#6186b6"/>
    </g>
    <g>
      <polygon points="82.69 71.67 159.25 82.53 89.2 82.53 82.69 71.67" fill="#e7f0f2"/>
      <polygon points="82.69 93.39 159.25 82.53 89.2 82.53 82.69 93.39" fill="#6186b6"/>
      <polygon points="76.57 93.39 0 82.53 70.05 82.53 76.57 93.39" fill="#e7f0f2"/>
      <polygon points="76.57 71.67 0 82.53 70.05 82.53 76.57 71.67" fill="#6186b6"/>
    </g>
    <circle cx="80.74" cy="81.11" r="12.81" fill="#1b507b"/>
    <circle cx="80.74" cy="81.65" r="7.31" fill="#ec7163"/>
  </g>
</svg>
