<svg xmlns="http://www.w3.org/2000/svg" viewBox="0 0 126.41 71.95">
  
  <g>
    <polygon points="10.45 0.24 27.47 0.24 27.47 3.64 24.06 7.04 13.85 7.04 13.85 13.85 17.26 13.85 20.66 17.26 20.66 20.66 13.85 20.66 13.85 30.87 10.45 30.87 7.04 27.47 7.04 3.64 10.45 0.24" fill="#fff"/>
    <path d="M53.94,25.3V20.49l-8-1.61,5.61-5.61L41.91,3.64H37.09l-9.62,9.63v4.81L44.31,34.93l2.41-2.41V27.71l-1.2-1.2,6,1.2ZM39.5,15.67l-2.41-2.4,2.41-2.41,2.41,2.41Z" fill="#fff"/>
    <polygon points="58.1 3.64 71.71 3.64 75.12 7.04 75.12 10.45 68.31 10.45 71.71 13.85 71.71 17.26 64.91 17.26 64.91 20.66 75.12 20.66 75.12 24.06 71.71 27.47 58.1 27.47 58.1 3.64" fill="#fff"/>
    <g>
      <polygon points="95.54 24.06 92.14 27.47 78.52 30.87 78.52 27.47 81.92 24.06 95.54 20.66 95.54 24.06" fill="#fff"/>
      <polygon points="98.94 17.26 95.54 20.66 85.33 13.85 85.33 10.45 81.92 7.04 81.92 3.64 92.14 0.24 95.54 3.64 95.54 7.04 91.02 8.57 98.94 13.85 98.94 17.26" fill="#fff"/>
    </g>
    <polygon points="115.96 27.47 112.56 27.47 112.56 13.85 109.15 13.85 109.15 24.06 105.75 24.06 102.35 20.66 102.35 0.24 105.75 0.24 109.15 3.64 109.15 7.04 112.56 7.04 112.56 3.64 115.96 0.24 119.36 0.24 119.36 24.06 115.96 27.47" fill="#fff"/>
    <g>
      <polygon points="24.13 7.04 24.13 3.64 10.51 3.64 7.11 3.64 7.11 7.04 7.11 13.85 7.11 17.26 7.11 27.47 10.51 27.47 10.51 17.26 17.32 17.26 17.32 13.85 10.51 13.85 10.51 7.04 24.13 7.04" fill="#231815"/>
      <path d="M34.75,6.05l-4.81,4.81-2.41,2.41,2.41,2.4,4.81,4.82,2.41,2.41,7.22,7.22,2.41-2.41-7.22-7.22,12,2.41L54,20.49,42,18.08l2.41-2.41,2.41-2.4-2.41-2.41L39.57,6.05,37.16,3.64ZM42,13.27l-4.81,4.81-4.81-4.81,4.81-4.82Z" fill="#231815"/>
      <polygon points="75.18 10.45 75.18 7.04 64.97 7.04 61.57 7.04 61.57 10.45 61.57 13.85 61.57 13.85 61.57 17.26 61.57 17.26 61.57 20.66 61.57 20.66 61.57 24.06 61.57 24.06 64.97 24.06 75.18 24.06 75.18 20.66 64.97 20.66 64.97 17.26 71.78 17.26 71.78 13.85 64.97 13.85 64.97 10.45 75.18 10.45" fill="#231815"/>
      <g>
        <polygon points="81.86 27.47 95.47 24.06 95.47 20.66 81.86 24.06 81.86 27.47" fill="#231815"/>
        <polygon points="95.47 20.66 95.47 17.26 85.26 10.45 85.26 13.85 95.47 20.66" fill="#231815"/>
        <polygon points="95.47 3.64 85.26 7.04 85.26 10.45 95.47 7.04 95.47 3.64" fill="#231815"/>
      </g>
      <polygon points="109.09 24.06 109.09 13.85 115.9 13.85 115.9 24.06 119.3 24.06 119.3 13.85 119.3 10.45 119.3 0.24 115.9 0.24 115.9 10.45 109.09 10.45 109.09 3.64 105.69 3.64 105.69 10.45 105.69 13.85 105.69 24.06 109.09 24.06" fill="#231815"/>
    </g>
    <path d="M34.27,37.67h-6.8l-10.21,17,3.4,3.41h3.4l2.05-3.41h4.76l3.4,3.41h3.41v-17Zm-3.4,10.21h-.68l.68-1.13Z" fill="#fff"/>
    <polygon points="105.75 41.08 109.15 41.08 119.36 51.29 119.36 41.08 122.77 41.08 126.17 44.48 126.17 58.1 122.77 61.5 119.36 61.5 109.15 51.29 109.15 58.1 105.75 61.5 102.35 58.1 102.35 44.48 105.75 41.08" fill="#fff"/>
    <path d="M92.14,44.48H88.73l-10.21,17,3.41,3.4h3.4l2-3.4h4.77v6.81l3.4,3.4,3.4-3.4v-17ZM89.41,58.1l2.73-4.54V58.1Z" fill="#fff"/>
    <polygon points="3.64 37.67 20.66 37.67 20.66 41.08 17.26 44.48 13.85 44.48 13.85 64.9 10.45 68.31 7.04 68.31 7.04 44.48 0.24 44.48 0.24 41.08 3.64 37.67" fill="#fff"/>
    <polygon points="41.08 43.36 43.49 40.96 55.52 52.99 55.52 57.8 53.12 60.21 41.08 48.18 41.08 43.36" fill="#fff"/>
    <polygon points="61.5 44.48 64.91 44.48 66.61 51.29 68.31 44.48 71.71 41.08 75.12 41.08 75.8 43.8 78.52 41.08 81.92 41.08 78.52 54.69 75.12 58.1 71.71 58.1 70.01 51.29 68.31 58.1 64.91 61.5 61.5 61.5 58.1 47.88 61.5 44.48" fill="#fff"/>
    <polygon points="0.3 44.48 3.71 41.08 20.73 41.08 17.32 44.48 10.51 44.48 10.51 64.9 7.11 68.31 7.11 44.48 0.3 44.48" fill="#231815"/>
    <polygon points="27.53 37.67 30.94 37.67 24.81 47.88 30.94 47.88 30.94 37.67 34.34 41.08 34.27 58.1 30.94 54.69 30.94 51.29 22.77 51.29 20.73 54.69 17.32 54.69 27.53 37.67" fill="#231815"/>
    <polygon points="53.18 55.4 53.18 60.21 41.15 48.18 43.55 45.77 53.18 55.4" fill="#231815"/>
    <polygon points="92.2 47.88 81.99 64.9 85.39 64.9 87.44 61.5 95.61 61.5 95.61 71.71 99.01 68.31 99.01 51.29 95.61 47.88 95.61 58.1 89.48 58.1 95.61 47.88 92.2 47.88" fill="#231815"/>
    <polygon points="105.82 41.08 109.22 41.08 122.83 54.69 122.83 44.48 126.24 44.48 126.24 58.1 122.83 58.1 109.22 44.48 109.22 58.1 105.82 61.5 105.82 41.08" fill="#231815"/>
    <polygon points="61.5 44.48 64.91 44.48 66.61 51.29 68.31 44.48 71.71 44.48 73.42 51.29 75.12 44.48 78.52 44.48 75.12 58.1 71.71 58.1 70.01 51.29 68.31 58.1 64.91 58.1 61.5 44.48" fill="#231815"/>
    <g>
      <line x1="61.5" y1="44.48" x2="64.91" y2="44.48" fill="none" stroke="#231815" stroke-linecap="round" stroke-linejoin="round" stroke-width="0.47"/>
      <line x1="64.91" y1="44.48" x2="66.61" y2="51.29" fill="none" stroke="#231815" stroke-linecap="round" stroke-linejoin="round" stroke-width="0.47"/>
      <line x1="68.31" y1="58.1" x2="64.91" y2="58.1" fill="none" stroke="#231815" stroke-linecap="round" stroke-linejoin="round" stroke-width="0.47"/>
      <line x1="64.91" y1="58.1" x2="61.5" y2="44.48" fill="none" stroke="#231815" stroke-linecap="round" stroke-linejoin="round" stroke-width="0.47"/>
      <line x1="71.71" y1="58.1" x2="70.01" y2="51.29" fill="none" stroke="#231815" stroke-linecap="round" stroke-linejoin="round" stroke-width="0.47"/>
      <line x1="71.71" y1="58.1" x2="75.12" y2="58.1" fill="none" stroke="#231815" stroke-linecap="round" stroke-linejoin="round" stroke-width="0.47"/>
      <line x1="75.12" y1="58.1" x2="78.52" y2="44.48" fill="none" stroke="#231815" stroke-linecap="round" stroke-linejoin="round" stroke-width="0.47"/>
      <line x1="78.52" y1="44.48" x2="75.12" y2="44.48" fill="none" stroke="#231815" stroke-linecap="round" stroke-linejoin="round" stroke-width="0.47"/>
      <line x1="64.91" y1="58.1" x2="68.31" y2="58.1" fill="none" stroke="#231815" stroke-linecap="round" stroke-linejoin="round" stroke-width="0.47"/>
      <line x1="68.31" y1="58.1" x2="70.01" y2="51.29" fill="none" stroke="#231815" stroke-linecap="round" stroke-linejoin="round" stroke-width="0.47"/>
      <line x1="71.71" y1="44.48" x2="68.31" y2="44.48" fill="none" stroke="#231815" stroke-linecap="round" stroke-linejoin="round" stroke-width="0.47"/>
      <line x1="68.31" y1="44.48" x2="66.61" y2="51.29" fill="none" stroke="#231815" stroke-linecap="round" stroke-linejoin="round" stroke-width="0.47"/>
      <line x1="71.71" y1="44.48" x2="73.42" y2="51.29" fill="none" stroke="#231815" stroke-linecap="round" stroke-linejoin="round" stroke-width="0.47"/>
      <line x1="75.12" y1="41.08" x2="75.8" y2="43.8" fill="none" stroke="#231815" stroke-linecap="round" stroke-linejoin="round" stroke-width="0.47"/>
      <line x1="75.12" y1="44.48" x2="73.42" y2="51.29" fill="none" stroke="#231815" stroke-linecap="round" stroke-linejoin="round" stroke-width="0.47"/>
      <line x1="68.31" y1="44.48" x2="71.71" y2="41.08" fill="none" stroke="#231815" stroke-linecap="round" stroke-linejoin="round" stroke-width="0.47"/>
      <line x1="71.71" y1="41.08" x2="75.12" y2="41.08" fill="none" stroke="#231815" stroke-linecap="round" stroke-linejoin="round" stroke-width="0.47"/>
      <line x1="75.12" y1="41.08" x2="71.71" y2="44.48" fill="none" stroke="#231815" stroke-linecap="round" stroke-linejoin="round" stroke-width="0.47"/>
      <line x1="75.12" y1="44.48" x2="78.52" y2="41.08" fill="none" stroke="#231815" stroke-linecap="round" stroke-linejoin="round" stroke-width="0.47"/>
      <line x1="78.52" y1="41.08" x2="81.93" y2="41.08" fill="none" stroke="#231815" stroke-linecap="round" stroke-linejoin="round" stroke-width="0.47"/>
      <line x1="81.93" y1="41.08" x2="78.52" y2="44.48" fill="none" stroke="#231815" stroke-linecap="round" stroke-linejoin="round" stroke-width="0.47"/>
      <line x1="78.52" y1="54.69" x2="81.93" y2="41.08" fill="none" stroke="#231815" stroke-linecap="round" stroke-linejoin="round" stroke-width="0.47"/>
      <line x1="78.52" y1="54.69" x2="75.12" y2="58.1" fill="none" stroke="#231815" stroke-linecap="round" stroke-linejoin="round" stroke-width="0.47"/>
      <line x1="61.5" y1="44.48" x2="58.1" y2="47.88" fill="none" stroke="#231815" stroke-linecap="round" stroke-linejoin="round" stroke-width="0.47"/>
      <line x1="58.1" y1="47.88" x2="61.5" y2="61.5" fill="none" stroke="#231815" stroke-linecap="round" stroke-linejoin="round" stroke-width="0.47"/>
      <line x1="61.5" y1="61.5" x2="64.91" y2="58.1" fill="none" stroke="#231815" stroke-linecap="round" stroke-linejoin="round" stroke-width="0.47"/>
      <line x1="68.31" y1="58.1" x2="64.91" y2="61.5" fill="none" stroke="#231815" stroke-linecap="round" stroke-linejoin="round" stroke-width="0.47"/>
      <line x1="64.91" y1="61.5" x2="61.5" y2="61.5" fill="none" stroke="#231815" stroke-linecap="round" stroke-linejoin="round" stroke-width="0.47"/>
    </g>
    <g>
      <line x1="3.64" y1="37.67" x2="20.66" y2="37.67" fill="none" stroke="#231815" stroke-linecap="round" stroke-linejoin="round" stroke-width="0.47"/>
      <line x1="3.64" y1="41.08" x2="0.24" y2="44.48" fill="none" stroke="#231815" stroke-linecap="round" stroke-linejoin="round" stroke-width="0.47"/>
      <line x1="3.64" y1="37.67" x2="0.24" y2="41.08" fill="none" stroke="#231815" stroke-linecap="round" stroke-linejoin="round" stroke-width="0.47"/>
      <line x1="3.64" y1="41.08" x2="20.66" y2="41.08" fill="none" stroke="#231815" stroke-linecap="round" stroke-linejoin="round" stroke-width="0.47"/>
      <line x1="7.04" y1="44.48" x2="7.04" y2="68.31" fill="none" stroke="#231815" stroke-linecap="round" stroke-linejoin="round" stroke-width="0.47"/>
      <line x1="10.45" y1="44.48" x2="10.45" y2="64.9" fill="none" stroke="#231815" stroke-linecap="round" stroke-linejoin="round" stroke-width="0.47"/>
      <line x1="13.85" y1="44.48" x2="13.85" y2="64.9" fill="none" stroke="#231815" stroke-linecap="round" stroke-linejoin="round" stroke-width="0.47"/>
      <line x1="10.45" y1="68.31" x2="13.85" y2="64.9" fill="none" stroke="#231815" stroke-linecap="round" stroke-linejoin="round" stroke-width="0.47"/>
      <line x1="0.24" y1="41.08" x2="0.24" y2="44.48" fill="none" stroke="#231815" stroke-linecap="round" stroke-linejoin="round" stroke-width="0.47"/>
      <line x1="3.64" y1="41.08" x2="3.64" y2="37.67" fill="none" stroke="#231815" stroke-linecap="round" stroke-linejoin="round" stroke-width="0.47"/>
      <line x1="20.66" y1="37.67" x2="20.66" y2="41.08" fill="none" stroke="#231815" stroke-linecap="round" stroke-linejoin="round" stroke-width="0.47"/>
      <line x1="20.66" y1="41.08" x2="17.26" y2="44.48" fill="none" stroke="#231815" stroke-linecap="round" stroke-linejoin="round" stroke-width="0.47"/>
      <line x1="7.04" y1="68.31" x2="10.45" y2="64.9" fill="none" stroke="#231815" stroke-linecap="round" stroke-linejoin="round" stroke-width="0.47"/>
      <line x1="10.45" y1="64.9" x2="13.85" y2="64.9" fill="none" stroke="#231815" stroke-linecap="round" stroke-linejoin="round" stroke-width="0.47"/>
      <line x1="0.24" y1="44.48" x2="7.04" y2="44.48" fill="none" stroke="#231815" stroke-linecap="round" stroke-linejoin="round" stroke-width="0.47"/>
      <line x1="10.45" y1="44.48" x2="17.26" y2="44.48" fill="none" stroke="#231815" stroke-linecap="round" stroke-linejoin="round" stroke-width="0.47"/>
      <line x1="10.45" y1="68.31" x2="7.04" y2="68.31" fill="none" stroke="#231815" stroke-linecap="round" stroke-linejoin="round" stroke-width="0.47"/>
    </g>
    <g>
      <line x1="27.47" y1="37.67" x2="17.26" y2="54.69" fill="none" stroke="#231815" stroke-linecap="round" stroke-linejoin="round" stroke-width="0.47"/>
      <line x1="17.26" y1="54.69" x2="20.66" y2="54.69" fill="none" stroke="#231815" stroke-linecap="round" stroke-linejoin="round" stroke-width="0.47"/>
      <line x1="27.47" y1="37.67" x2="30.87" y2="37.67" fill="none" stroke="#231815" stroke-linecap="round" stroke-linejoin="round" stroke-width="0.47"/>
      <line x1="30.87" y1="37.67" x2="24.74" y2="47.88" fill="none" stroke="#231815" stroke-linecap="round" stroke-linejoin="round" stroke-width="0.47"/>
      <line x1="22.7" y1="51.29" x2="20.66" y2="54.69" fill="none" stroke="#231815" stroke-linecap="round" stroke-linejoin="round" stroke-width="0.47"/>
      <line x1="24.74" y1="47.88" x2="30.87" y2="47.88" fill="none" stroke="#231815" stroke-linecap="round" stroke-linejoin="round" stroke-width="0.47"/>
      <line x1="30.87" y1="51.29" x2="22.7" y2="51.29" fill="none" stroke="#231815" stroke-linecap="round" stroke-linejoin="round" stroke-width="0.47"/>
      <line x1="17.26" y1="54.69" x2="20.66" y2="58.1" fill="none" stroke="#231815" stroke-linecap="round" stroke-linejoin="round" stroke-width="0.47"/>
      <line x1="20.66" y1="58.1" x2="24.06" y2="58.1" fill="none" stroke="#231815" stroke-linecap="round" stroke-linejoin="round" stroke-width="0.47"/>
      <line x1="24.06" y1="58.1" x2="20.66" y2="54.69" fill="none" stroke="#231815" stroke-linecap="round" stroke-linejoin="round" stroke-width="0.47"/>
      <line x1="30.87" y1="54.69" x2="34.27" y2="58.1" fill="none" stroke="#231815" stroke-linecap="round" stroke-linejoin="round" stroke-width="0.47"/>
      <line x1="34.27" y1="58.1" x2="37.68" y2="58.1" fill="none" stroke="#231815" stroke-linecap="round" stroke-linejoin="round" stroke-width="0.47"/>
      <line x1="37.68" y1="41.08" x2="34.27" y2="37.67" fill="none" stroke="#231815" stroke-linecap="round" stroke-linejoin="round" stroke-width="0.47"/>
      <line x1="34.27" y1="41.08" x2="30.87" y2="37.67" fill="none" stroke="#231815" stroke-linecap="round" stroke-linejoin="round" stroke-width="0.47"/>
      <line x1="34.27" y1="51.29" x2="34.27" y2="54.69" fill="none" stroke="#231815" stroke-linecap="round" stroke-linejoin="round" stroke-width="0.47"/>
      <line x1="22.93" y1="51.29" x2="26.11" y2="54.69" fill="none" stroke="#231815" stroke-linecap="round" stroke-linejoin="round" stroke-width="0.47"/>
      <line x1="26.11" y1="54.69" x2="30.87" y2="54.69" fill="none" stroke="#231815" stroke-linecap="round" stroke-linejoin="round" stroke-width="0.47"/>
      <line x1="30.87" y1="37.67" x2="34.27" y2="37.67" fill="none" stroke="#231815" stroke-linecap="round" stroke-linejoin="round" stroke-width="0.47"/>
      <line x1="34.27" y1="41.08" x2="37.68" y2="41.08" fill="none" stroke="#231815" stroke-linecap="round" stroke-linejoin="round" stroke-width="0.47"/>
      <line x1="34.27" y1="41.08" x2="34.27" y2="58.1" fill="none" stroke="#231815" stroke-linecap="round" stroke-linejoin="round" stroke-width="0.47"/>
      <line x1="37.68" y1="41.08" x2="37.68" y2="58.1" fill="none" stroke="#231815" stroke-linecap="round" stroke-linejoin="round" stroke-width="0.47"/>
      <line x1="30.87" y1="54.69" x2="30.87" y2="51.29" fill="none" stroke="#231815" stroke-linecap="round" stroke-linejoin="round" stroke-width="0.47"/>
      <line x1="30.87" y1="47.88" x2="30.87" y2="37.67" fill="none" stroke="#231815" stroke-linecap="round" stroke-linejoin="round" stroke-width="0.47"/>
      <line x1="30.87" y1="46.75" x2="30.19" y2="47.88" fill="none" stroke="#231815" stroke-linecap="round" stroke-linejoin="round" stroke-width="0.47"/>
      <line x1="26.11" y1="54.69" x2="24.06" y2="58.1" fill="none" stroke="#231815" stroke-linecap="round" stroke-linejoin="round" stroke-width="0.47"/>
    </g>
    <g>
      <line x1="41.08" y1="43.36" x2="41.08" y2="48.18" fill="none" stroke="#231815" stroke-linecap="round" stroke-linejoin="round" stroke-width="0.47"/>
      <line x1="41.08" y1="48.18" x2="53.11" y2="60.21" fill="none" stroke="#231815" stroke-linecap="round" stroke-linejoin="round" stroke-width="0.47"/>
      <line x1="53.11" y1="60.21" x2="53.11" y2="55.4" fill="none" stroke="#231815" stroke-linecap="round" stroke-linejoin="round" stroke-width="0.47"/>
      <line x1="53.11" y1="55.4" x2="43.49" y2="45.77" fill="none" stroke="#231815" stroke-linecap="round" stroke-linejoin="round" stroke-width="0.47"/>
      <line x1="41.08" y1="43.36" x2="43.49" y2="40.96" fill="none" stroke="#231815" stroke-linecap="round" stroke-linejoin="round" stroke-width="0.47"/>
      <line x1="43.49" y1="40.96" x2="55.52" y2="52.99" fill="none" stroke="#231815" stroke-linecap="round" stroke-linejoin="round" stroke-width="0.47"/>
      <line x1="55.52" y1="52.99" x2="53.11" y2="55.4" fill="none" stroke="#231815" stroke-linecap="round" stroke-linejoin="round" stroke-width="0.47"/>
      <line x1="55.52" y1="52.99" x2="55.52" y2="57.8" fill="none" stroke="#231815" stroke-linecap="round" stroke-linejoin="round" stroke-width="0.47"/>
      <line x1="55.52" y1="57.8" x2="53.11" y2="60.21" fill="none" stroke="#231815" stroke-linecap="round" stroke-linejoin="round" stroke-width="0.47"/>
      <line x1="41.08" y1="48.18" x2="43.49" y2="45.77" fill="none" stroke="#231815" stroke-linecap="round" stroke-linejoin="round" stroke-width="0.47"/>
      <line x1="43.49" y1="45.77" x2="43.49" y2="40.96" fill="none" stroke="#231815" stroke-linecap="round" stroke-linejoin="round" stroke-width="0.47"/>
    </g>
    <g>
      <line x1="92.14" y1="47.88" x2="81.93" y2="64.9" fill="none" stroke="#231815" stroke-linecap="round" stroke-linejoin="round" stroke-width="0.47"/>
      <line x1="81.93" y1="64.9" x2="85.33" y2="64.9" fill="none" stroke="#231815" stroke-linecap="round" stroke-linejoin="round" stroke-width="0.47"/>
      <line x1="92.14" y1="47.88" x2="95.54" y2="47.88" fill="none" stroke="#231815" stroke-linecap="round" stroke-linejoin="round" stroke-width="0.47"/>
      <line x1="95.54" y1="47.88" x2="89.41" y2="58.1" fill="none" stroke="#231815" stroke-linecap="round" stroke-linejoin="round" stroke-width="0.47"/>
      <line x1="87.37" y1="61.5" x2="85.33" y2="64.9" fill="none" stroke="#231815" stroke-linecap="round" stroke-linejoin="round" stroke-width="0.47"/>
      <line x1="89.41" y1="58.1" x2="95.54" y2="58.1" fill="none" stroke="#231815" stroke-linecap="round" stroke-linejoin="round" stroke-width="0.47"/>
      <line x1="95.54" y1="61.5" x2="87.37" y2="61.5" fill="none" stroke="#231815" stroke-linecap="round" stroke-linejoin="round" stroke-width="0.47"/>
      <line x1="98.94" y1="51.29" x2="95.54" y2="47.88" fill="none" stroke="#231815" stroke-linecap="round" stroke-linejoin="round" stroke-width="0.47"/>
      <line x1="98.94" y1="61.5" x2="98.94" y2="64.9" fill="none" stroke="#231815" stroke-linecap="round" stroke-linejoin="round" stroke-width="0.47"/>
      <line x1="98.94" y1="51.29" x2="98.94" y2="68.31" fill="none" stroke="#231815" stroke-linecap="round" stroke-linejoin="round" stroke-width="0.47"/>
      <line x1="95.54" y1="71.71" x2="95.54" y2="61.5" fill="none" stroke="#231815" stroke-linecap="round" stroke-linejoin="round" stroke-width="0.47"/>
      <line x1="95.54" y1="58.1" x2="95.54" y2="47.88" fill="none" stroke="#231815" stroke-linecap="round" stroke-linejoin="round" stroke-width="0.47"/>
      <line x1="81.93" y1="64.9" x2="78.52" y2="61.5" fill="none" stroke="#231815" stroke-linecap="round" stroke-linejoin="round" stroke-width="0.47"/>
      <line x1="78.52" y1="61.5" x2="88.73" y2="44.48" fill="none" stroke="#231815" stroke-linecap="round" stroke-linejoin="round" stroke-width="0.47"/>
      <line x1="88.73" y1="44.48" x2="92.14" y2="47.88" fill="none" stroke="#231815" stroke-linecap="round" stroke-linejoin="round" stroke-width="0.47"/>
      <line x1="88.73" y1="44.48" x2="92.14" y2="44.48" fill="none" stroke="#231815" stroke-linecap="round" stroke-linejoin="round" stroke-width="0.47"/>
      <line x1="92.14" y1="44.48" x2="95.54" y2="47.88" fill="none" stroke="#231815" stroke-linecap="round" stroke-linejoin="round" stroke-width="0.47"/>
      <line x1="98.94" y1="68.31" x2="95.54" y2="71.71" fill="none" stroke="#231815" stroke-linecap="round" stroke-linejoin="round" stroke-width="0.47"/>
      <line x1="92.14" y1="68.31" x2="95.54" y2="71.71" fill="none" stroke="#231815" stroke-linecap="round" stroke-linejoin="round" stroke-width="0.47"/>
      <line x1="92.14" y1="68.31" x2="92.14" y2="61.5" fill="none" stroke="#231815" stroke-linecap="round" stroke-linejoin="round" stroke-width="0.47"/>
      <line x1="92.14" y1="58.1" x2="92.14" y2="53.56" fill="none" stroke="#231815" stroke-linecap="round" stroke-linejoin="round" stroke-width="0.47"/>
    </g>
    <g>
      <line x1="126.17" y1="58.1" x2="126.17" y2="44.48" fill="none" stroke="#231815" stroke-linecap="round" stroke-linejoin="round" stroke-width="0.47"/>
      <line x1="126.17" y1="44.48" x2="122.77" y2="44.48" fill="none" stroke="#231815" stroke-linecap="round" stroke-linejoin="round" stroke-width="0.47"/>
      <line x1="122.77" y1="54.69" x2="122.77" y2="44.48" fill="none" stroke="#231815" stroke-linecap="round" stroke-linejoin="round" stroke-width="0.47"/>
      <line x1="126.17" y1="58.1" x2="122.77" y2="58.1" fill="none" stroke="#231815" stroke-linecap="round" stroke-linejoin="round" stroke-width="0.47"/>
      <line x1="122.77" y1="61.5" x2="119.37" y2="61.5" fill="none" stroke="#231815" stroke-linecap="round" stroke-linejoin="round" stroke-width="0.47"/>
      <line x1="109.15" y1="58.1" x2="109.15" y2="44.48" fill="none" stroke="#231815" stroke-linecap="round" stroke-linejoin="round" stroke-width="0.47"/>
      <line x1="109.15" y1="41.08" x2="105.75" y2="41.08" fill="none" stroke="#231815" stroke-linecap="round" stroke-linejoin="round" stroke-width="0.47"/>
      <line x1="105.75" y1="61.5" x2="105.75" y2="41.08" fill="none" stroke="#231815" stroke-linecap="round" stroke-linejoin="round" stroke-width="0.47"/>
      <line x1="109.15" y1="58.1" x2="105.75" y2="61.5" fill="none" stroke="#231815" stroke-linecap="round" stroke-linejoin="round" stroke-width="0.47"/>
      <line x1="122.77" y1="54.69" x2="109.15" y2="41.08" fill="none" stroke="#231815" stroke-linecap="round" stroke-linejoin="round" stroke-width="0.47"/>
      <line x1="122.77" y1="58.1" x2="109.15" y2="44.48" fill="none" stroke="#231815" stroke-linecap="round" stroke-linejoin="round" stroke-width="0.47"/>
      <line x1="126.17" y1="44.48" x2="122.77" y2="41.08" fill="none" stroke="#231815" stroke-linecap="round" stroke-linejoin="round" stroke-width="0.47"/>
      <line x1="122.77" y1="44.48" x2="119.37" y2="41.08" fill="none" stroke="#231815" stroke-linecap="round" stroke-linejoin="round" stroke-width="0.47"/>
      <line x1="122.77" y1="41.08" x2="119.37" y2="41.08" fill="none" stroke="#231815" stroke-linecap="round" stroke-linejoin="round" stroke-width="0.47"/>
      <line x1="119.37" y1="51.29" x2="119.37" y2="41.08" fill="none" stroke="#231815" stroke-linecap="round" stroke-linejoin="round" stroke-width="0.47"/>
      <line x1="102.35" y1="47.88" x2="102.35" y2="44.48" fill="none" stroke="#231815" stroke-linecap="round" stroke-linejoin="round" stroke-width="0.47"/>
      <line x1="102.35" y1="58.1" x2="102.35" y2="44.48" fill="none" stroke="#231815" stroke-linecap="round" stroke-linejoin="round" stroke-width="0.47"/>
      <line x1="122.77" y1="58.1" x2="119.37" y2="61.5" fill="none" stroke="#231815" stroke-linecap="round" stroke-linejoin="round" stroke-width="0.47"/>
      <line x1="126.17" y1="58.1" x2="122.77" y2="61.5" fill="none" stroke="#231815" stroke-linecap="round" stroke-linejoin="round" stroke-width="0.47"/>
      <line x1="119.37" y1="61.5" x2="109.15" y2="51.29" fill="none" stroke="#231815" stroke-linecap="round" stroke-linejoin="round" stroke-width="0.47"/>
      <line x1="105.75" y1="61.5" x2="102.35" y2="58.1" fill="none" stroke="#231815" stroke-linecap="round" stroke-linejoin="round" stroke-width="0.47"/>
      <line x1="102.35" y1="44.48" x2="105.75" y2="41.08" fill="none" stroke="#231815" stroke-linecap="round" stroke-linejoin="round" stroke-width="0.47"/>
    </g>
    <g>
      <line x1="7.04" y1="3.64" x2="24.06" y2="3.64" fill="none" stroke="#231815" stroke-linecap="round" stroke-linejoin="round" stroke-width="0.47"/>
      <line x1="24.06" y1="3.64" x2="24.06" y2="7.04" fill="none" stroke="#231815" stroke-linecap="round" stroke-linejoin="round" stroke-width="0.47"/>
      <line x1="24.06" y1="7.04" x2="10.45" y2="7.04" fill="none" stroke="#231815" stroke-linecap="round" stroke-linejoin="round" stroke-width="0.47"/>
      <line x1="10.45" y1="7.04" x2="10.45" y2="13.85" fill="none" stroke="#231815" stroke-linecap="round" stroke-linejoin="round" stroke-width="0.47"/>
      <line x1="10.45" y1="13.85" x2="17.26" y2="13.85" fill="none" stroke="#231815" stroke-linecap="round" stroke-linejoin="round" stroke-width="0.47"/>
      <line x1="17.26" y1="13.85" x2="17.26" y2="17.26" fill="none" stroke="#231815" stroke-linecap="round" stroke-linejoin="round" stroke-width="0.47"/>
      <line x1="17.26" y1="17.26" x2="10.45" y2="17.26" fill="none" stroke="#231815" stroke-linecap="round" stroke-linejoin="round" stroke-width="0.47"/>
      <line x1="10.45" y1="17.26" x2="10.45" y2="27.47" fill="none" stroke="#231815" stroke-linecap="round" stroke-linejoin="round" stroke-width="0.47"/>
      <line x1="10.45" y1="27.47" x2="7.04" y2="27.47" fill="none" stroke="#231815" stroke-linecap="round" stroke-linejoin="round" stroke-width="0.47"/>
      <line x1="7.04" y1="27.47" x2="7.04" y2="3.64" fill="none" stroke="#231815" stroke-linecap="round" stroke-linejoin="round" stroke-width="0.47"/>
      <line x1="7.04" y1="3.64" x2="10.45" y2="0.24" fill="none" stroke="#231815" stroke-linecap="round" stroke-linejoin="round" stroke-width="0.47"/>
      <line x1="10.45" y1="0.24" x2="27.47" y2="0.24" fill="none" stroke="#231815" stroke-linecap="round" stroke-linejoin="round" stroke-width="0.47"/>
      <line x1="27.47" y1="0.24" x2="24.06" y2="3.64" fill="none" stroke="#231815" stroke-linecap="round" stroke-linejoin="round" stroke-width="0.47"/>
      <line x1="27.47" y1="0.24" x2="27.47" y2="3.64" fill="none" stroke="#231815" stroke-linecap="round" stroke-linejoin="round" stroke-width="0.47"/>
      <line x1="27.47" y1="3.64" x2="24.06" y2="7.04" fill="none" stroke="#231815" stroke-linecap="round" stroke-linejoin="round" stroke-width="0.47"/>
      <line x1="10.45" y1="17.26" x2="13.85" y2="20.66" fill="none" stroke="#231815" stroke-linecap="round" stroke-linejoin="round" stroke-width="0.47"/>
      <line x1="13.85" y1="20.66" x2="13.85" y2="30.87" fill="none" stroke="#231815" stroke-linecap="round" stroke-linejoin="round" stroke-width="0.47"/>
      <line x1="13.85" y1="30.87" x2="10.45" y2="27.47" fill="none" stroke="#231815" stroke-linecap="round" stroke-linejoin="round" stroke-width="0.47"/>
      <line x1="7.04" y1="27.47" x2="10.45" y2="30.87" fill="none" stroke="#231815" stroke-linecap="round" stroke-linejoin="round" stroke-width="0.47"/>
      <line x1="10.45" y1="30.87" x2="13.85" y2="30.87" fill="none" stroke="#231815" stroke-linecap="round" stroke-linejoin="round" stroke-width="0.47"/>
      <line x1="13.85" y1="20.66" x2="20.66" y2="20.66" fill="none" stroke="#231815" stroke-linecap="round" stroke-linejoin="round" stroke-width="0.47"/>
      <line x1="17.26" y1="17.26" x2="20.66" y2="20.66" fill="none" stroke="#231815" stroke-linecap="round" stroke-linejoin="round" stroke-width="0.47"/>
      <line x1="17.26" y1="13.85" x2="20.66" y2="17.26" fill="none" stroke="#231815" stroke-linecap="round" stroke-linejoin="round" stroke-width="0.47"/>
      <line x1="20.66" y1="17.26" x2="20.66" y2="20.66" fill="none" stroke="#231815" stroke-linecap="round" stroke-linejoin="round" stroke-width="0.47"/>
      <line x1="13.85" y1="7.04" x2="13.85" y2="13.85" fill="none" stroke="#231815" stroke-linecap="round" stroke-linejoin="round" stroke-width="0.47"/>
    </g>
    <g>
      <line x1="27.47" y1="13.27" x2="44.31" y2="30.12" fill="none" stroke="#231815" stroke-linecap="round" stroke-linejoin="round" stroke-width="0.47"/>
      <line x1="27.47" y1="13.27" x2="37.09" y2="3.64" fill="none" stroke="#231815" stroke-linecap="round" stroke-linejoin="round" stroke-width="0.47"/>
      <line x1="37.09" y1="3.64" x2="46.72" y2="13.27" fill="none" stroke="#231815" stroke-linecap="round" stroke-linejoin="round" stroke-width="0.47"/>
      <line x1="46.72" y1="13.27" x2="41.91" y2="18.08" fill="none" stroke="#231815" stroke-linecap="round" stroke-linejoin="round" stroke-width="0.47"/>
      <line x1="41.91" y1="18.08" x2="53.94" y2="20.49" fill="none" stroke="#231815" stroke-linecap="round" stroke-linejoin="round" stroke-width="0.47"/>
      <line x1="53.94" y1="20.49" x2="51.53" y2="22.9" fill="none" stroke="#231815" stroke-linecap="round" stroke-linejoin="round" stroke-width="0.47"/>
      <line x1="51.53" y1="22.9" x2="39.5" y2="20.49" fill="none" stroke="#231815" stroke-linecap="round" stroke-linejoin="round" stroke-width="0.47"/>
      <line x1="39.5" y1="20.49" x2="46.72" y2="27.71" fill="none" stroke="#231815" stroke-linecap="round" stroke-linejoin="round" stroke-width="0.47"/>
      <line x1="46.72" y1="27.71" x2="44.31" y2="30.12" fill="none" stroke="#231815" stroke-linecap="round" stroke-linejoin="round" stroke-width="0.47"/>
      <line x1="32.28" y1="13.27" x2="37.09" y2="18.08" fill="none" stroke="#231815" stroke-linecap="round" stroke-linejoin="round" stroke-width="0.47"/>
      <line x1="32.28" y1="13.27" x2="37.09" y2="8.45" fill="none" stroke="#231815" stroke-linecap="round" stroke-linejoin="round" stroke-width="0.47"/>
      <line x1="37.09" y1="8.45" x2="41.91" y2="13.27" fill="none" stroke="#231815" stroke-linecap="round" stroke-linejoin="round" stroke-width="0.47"/>
      <line x1="41.91" y1="13.27" x2="37.09" y2="18.08" fill="none" stroke="#231815" stroke-linecap="round" stroke-linejoin="round" stroke-width="0.47"/>
      <line x1="27.47" y1="13.27" x2="27.47" y2="18.08" fill="none" stroke="#231815" stroke-linecap="round" stroke-linejoin="round" stroke-width="0.47"/>
      <line x1="27.47" y1="18.08" x2="44.31" y2="34.93" fill="none" stroke="#231815" stroke-linecap="round" stroke-linejoin="round" stroke-width="0.47"/>
      <line x1="44.31" y1="34.93" x2="44.31" y2="30.12" fill="none" stroke="#231815" stroke-linecap="round" stroke-linejoin="round" stroke-width="0.47"/>
      <line x1="46.72" y1="27.71" x2="46.72" y2="32.52" fill="none" stroke="#231815" stroke-linecap="round" stroke-linejoin="round" stroke-width="0.47"/>
      <line x1="46.72" y1="32.52" x2="44.31" y2="34.93" fill="none" stroke="#231815" stroke-linecap="round" stroke-linejoin="round" stroke-width="0.47"/>
      <line x1="32.28" y1="13.27" x2="37.09" y2="13.27" fill="none" stroke="#231815" stroke-linecap="round" stroke-linejoin="round" stroke-width="0.47"/>
      <line x1="37.09" y1="13.27" x2="39.5" y2="10.86" fill="none" stroke="#231815" stroke-linecap="round" stroke-linejoin="round" stroke-width="0.47"/>
      <line x1="37.09" y1="3.64" x2="41.91" y2="3.64" fill="none" stroke="#231815" stroke-linecap="round" stroke-linejoin="round" stroke-width="0.47"/>
      <line x1="41.91" y1="3.64" x2="51.53" y2="13.27" fill="none" stroke="#231815" stroke-linecap="round" stroke-linejoin="round" stroke-width="0.47"/>
      <line x1="51.53" y1="13.27" x2="46.72" y2="13.27" fill="none" stroke="#231815" stroke-linecap="round" stroke-linejoin="round" stroke-width="0.47"/>
      <line x1="51.53" y1="13.27" x2="45.92" y2="18.88" fill="none" stroke="#231815" stroke-linecap="round" stroke-linejoin="round" stroke-width="0.47"/>
      <line x1="37.09" y1="13.27" x2="39.5" y2="15.67" fill="none" stroke="#231815" stroke-linecap="round" stroke-linejoin="round" stroke-width="0.47"/>
      <line x1="53.94" y1="20.49" x2="53.94" y2="25.3" fill="none" stroke="#231815" stroke-linecap="round" stroke-linejoin="round" stroke-width="0.47"/>
      <line x1="51.53" y1="22.9" x2="51.53" y2="27.71" fill="none" stroke="#231815" stroke-linecap="round" stroke-linejoin="round" stroke-width="0.47"/>
      <line x1="51.53" y1="27.71" x2="53.94" y2="25.3" fill="none" stroke="#231815" stroke-linecap="round" stroke-linejoin="round" stroke-width="0.47"/>
      <line x1="51.53" y1="27.71" x2="45.52" y2="26.51" fill="none" stroke="#231815" stroke-linecap="round" stroke-linejoin="round" stroke-width="0.47"/>
    </g>
    <g>
      <line x1="61.5" y1="24.06" x2="75.12" y2="24.06" fill="none" stroke="#231815" stroke-linecap="round" stroke-linejoin="round" stroke-width="0.47"/>
      <line x1="75.12" y1="24.06" x2="75.12" y2="20.66" fill="none" stroke="#231815" stroke-linecap="round" stroke-linejoin="round" stroke-width="0.47"/>
      <line x1="75.12" y1="20.66" x2="64.91" y2="20.66" fill="none" stroke="#231815" stroke-linecap="round" stroke-linejoin="round" stroke-width="0.47"/>
      <line x1="64.91" y1="20.66" x2="64.91" y2="17.26" fill="none" stroke="#231815" stroke-linecap="round" stroke-linejoin="round" stroke-width="0.47"/>
      <line x1="64.91" y1="17.26" x2="71.71" y2="17.26" fill="none" stroke="#231815" stroke-linecap="round" stroke-linejoin="round" stroke-width="0.47"/>
      <line x1="71.71" y1="17.26" x2="71.71" y2="13.85" fill="none" stroke="#231815" stroke-linecap="round" stroke-linejoin="round" stroke-width="0.47"/>
      <line x1="71.71" y1="13.85" x2="64.91" y2="13.85" fill="none" stroke="#231815" stroke-linecap="round" stroke-linejoin="round" stroke-width="0.47"/>
      <line x1="64.91" y1="13.85" x2="64.91" y2="10.45" fill="none" stroke="#231815" stroke-linecap="round" stroke-linejoin="round" stroke-width="0.47"/>
      <line x1="64.91" y1="10.45" x2="75.12" y2="10.45" fill="none" stroke="#231815" stroke-linecap="round" stroke-linejoin="round" stroke-width="0.47"/>
      <line x1="75.12" y1="10.45" x2="75.12" y2="7.04" fill="none" stroke="#231815" stroke-linecap="round" stroke-linejoin="round" stroke-width="0.47"/>
      <line x1="75.12" y1="7.04" x2="61.5" y2="7.04" fill="none" stroke="#231815" stroke-linecap="round" stroke-linejoin="round" stroke-width="0.47"/>
      <line x1="61.5" y1="7.04" x2="61.5" y2="24.06" fill="none" stroke="#231815" stroke-linecap="round" stroke-linejoin="round" stroke-width="0.47"/>
      <line x1="61.5" y1="24.06" x2="58.1" y2="27.47" fill="none" stroke="#231815" stroke-linecap="round" stroke-linejoin="round" stroke-width="0.47"/>
      <line x1="58.1" y1="27.47" x2="71.71" y2="27.47" fill="none" stroke="#231815" stroke-linecap="round" stroke-linejoin="round" stroke-width="0.47"/>
      <line x1="71.71" y1="27.47" x2="75.12" y2="24.06" fill="none" stroke="#231815" stroke-linecap="round" stroke-linejoin="round" stroke-width="0.47"/>
      <line x1="58.1" y1="27.47" x2="58.1" y2="3.64" fill="none" stroke="#231815" stroke-linecap="round" stroke-linejoin="round" stroke-width="0.47"/>
      <line x1="58.1" y1="3.64" x2="61.5" y2="7.04" fill="none" stroke="#231815" stroke-linecap="round" stroke-linejoin="round" stroke-width="0.47"/>
      <line x1="58.1" y1="3.64" x2="71.71" y2="3.64" fill="none" stroke="#231815" stroke-linecap="round" stroke-linejoin="round" stroke-width="0.47"/>
      <line x1="71.71" y1="3.64" x2="75.12" y2="7.04" fill="none" stroke="#231815" stroke-linecap="round" stroke-linejoin="round" stroke-width="0.47"/>
      <line x1="64.91" y1="10.45" x2="68.31" y2="10.45" fill="none" stroke="#231815" stroke-linecap="round" stroke-linejoin="round" stroke-width="0.47"/>
      <line x1="68.31" y1="10.45" x2="71.71" y2="13.85" fill="none" stroke="#231815" stroke-linecap="round" stroke-linejoin="round" stroke-width="0.47"/>
    </g>
    <g>
      <line x1="81.92" y1="27.47" x2="95.54" y2="24.06" fill="none" stroke="#231815" stroke-linecap="round" stroke-linejoin="round" stroke-width="0.47"/>
      <line x1="95.54" y1="24.06" x2="95.54" y2="20.66" fill="none" stroke="#231815" stroke-linecap="round" stroke-linejoin="round" stroke-width="0.47"/>
      <line x1="95.54" y1="17.26" x2="85.33" y2="10.45" fill="none" stroke="#231815" stroke-linecap="round" stroke-linejoin="round" stroke-width="0.47"/>
      <line x1="95.54" y1="7.04" x2="95.54" y2="3.64" fill="none" stroke="#231815" stroke-linecap="round" stroke-linejoin="round" stroke-width="0.47"/>
      <line x1="95.54" y1="20.66" x2="95.54" y2="17.26" fill="none" stroke="#231815" stroke-linecap="round" stroke-linejoin="round" stroke-width="0.47"/>
      <line x1="81.92" y1="27.47" x2="81.92" y2="24.06" fill="none" stroke="#231815" stroke-linecap="round" stroke-linejoin="round" stroke-width="0.47"/>
      <line x1="95.54" y1="20.66" x2="81.92" y2="24.06" fill="none" stroke="#231815" stroke-linecap="round" stroke-linejoin="round" stroke-width="0.47"/>
      <line x1="95.54" y1="20.66" x2="85.33" y2="13.85" fill="none" stroke="#231815" stroke-linecap="round" stroke-linejoin="round" stroke-width="0.47"/>
      <line x1="85.33" y1="13.85" x2="85.33" y2="7.04" fill="none" stroke="#231815" stroke-linecap="round" stroke-linejoin="round" stroke-width="0.47"/>
      <line x1="85.33" y1="10.45" x2="81.93" y2="7.04" fill="none" stroke="#231815" stroke-linecap="round" stroke-linejoin="round" stroke-width="0.47"/>
      <line x1="85.33" y1="7.04" x2="95.54" y2="3.64" fill="none" stroke="#231815" stroke-linecap="round" stroke-linejoin="round" stroke-width="0.47"/>
      <line x1="95.54" y1="24.06" x2="92.14" y2="27.47" fill="none" stroke="#231815" stroke-linecap="round" stroke-linejoin="round" stroke-width="0.47"/>
      <line x1="92.14" y1="27.47" x2="78.52" y2="30.87" fill="none" stroke="#231815" stroke-linecap="round" stroke-linejoin="round" stroke-width="0.47"/>
      <line x1="78.52" y1="30.87" x2="78.52" y2="27.47" fill="none" stroke="#231815" stroke-linecap="round" stroke-linejoin="round" stroke-width="0.47"/>
      <line x1="78.52" y1="27.47" x2="81.92" y2="24.06" fill="none" stroke="#231815" stroke-linecap="round" stroke-linejoin="round" stroke-width="0.47"/>
      <line x1="78.52" y1="30.87" x2="81.92" y2="27.47" fill="none" stroke="#231815" stroke-linecap="round" stroke-linejoin="round" stroke-width="0.47"/>
      <line x1="95.54" y1="3.64" x2="92.14" y2="0.24" fill="none" stroke="#231815" stroke-linecap="round" stroke-linejoin="round" stroke-width="0.47"/>
      <line x1="92.14" y1="0.24" x2="81.92" y2="3.64" fill="none" stroke="#231815" stroke-linecap="round" stroke-linejoin="round" stroke-width="0.47"/>
      <line x1="81.92" y1="3.64" x2="85.33" y2="7.04" fill="none" stroke="#231815" stroke-linecap="round" stroke-linejoin="round" stroke-width="0.47"/>
      <line x1="81.92" y1="7.04" x2="81.92" y2="3.64" fill="none" stroke="#231815" stroke-linecap="round" stroke-linejoin="round" stroke-width="0.47"/>
      <line x1="95.54" y1="20.66" x2="98.94" y2="17.26" fill="none" stroke="#231815" stroke-linecap="round" stroke-linejoin="round" stroke-width="0.47"/>
      <line x1="98.94" y1="17.26" x2="98.94" y2="13.85" fill="none" stroke="#231815" stroke-linecap="round" stroke-linejoin="round" stroke-width="0.47"/>
      <line x1="98.94" y1="13.85" x2="95.54" y2="17.26" fill="none" stroke="#231815" stroke-linecap="round" stroke-linejoin="round" stroke-width="0.47"/>
      <line x1="98.94" y1="13.85" x2="91.02" y2="8.57" fill="none" stroke="#231815" stroke-linecap="round" stroke-linejoin="round" stroke-width="0.47"/>
    </g>
    <line x1="85.33" y1="10.45" x2="95.54" y2="7.04" fill="none" stroke="#231815" stroke-linecap="round" stroke-linejoin="round" stroke-width="0.34"/>
    <g>
      <line x1="119.37" y1="24.06" x2="119.37" y2="0.24" fill="none" stroke="#231815" stroke-linecap="round" stroke-linejoin="round" stroke-width="0.47"/>
      <line x1="119.37" y1="0.24" x2="115.96" y2="0.24" fill="none" stroke="#231815" stroke-linecap="round" stroke-linejoin="round" stroke-width="0.47"/>
      <line x1="115.96" y1="0.24" x2="115.96" y2="10.45" fill="none" stroke="#231815" stroke-linecap="round" stroke-linejoin="round" stroke-width="0.47"/>
      <line x1="115.96" y1="10.45" x2="109.15" y2="10.45" fill="none" stroke="#231815" stroke-linecap="round" stroke-linejoin="round" stroke-width="0.47"/>
      <line x1="109.15" y1="10.45" x2="109.15" y2="3.64" fill="none" stroke="#231815" stroke-linecap="round" stroke-linejoin="round" stroke-width="0.47"/>
      <line x1="109.15" y1="3.64" x2="105.75" y2="3.64" fill="none" stroke="#231815" stroke-linecap="round" stroke-linejoin="round" stroke-width="0.47"/>
      <line x1="105.75" y1="3.64" x2="105.75" y2="24.06" fill="none" stroke="#231815" stroke-linecap="round" stroke-linejoin="round" stroke-width="0.47"/>
      <line x1="105.75" y1="24.06" x2="109.15" y2="24.06" fill="none" stroke="#231815" stroke-linecap="round" stroke-linejoin="round" stroke-width="0.47"/>
      <line x1="109.15" y1="24.06" x2="109.15" y2="13.85" fill="none" stroke="#231815" stroke-linecap="round" stroke-linejoin="round" stroke-width="0.47"/>
      <line x1="109.15" y1="13.85" x2="115.96" y2="13.85" fill="none" stroke="#231815" stroke-linecap="round" stroke-linejoin="round" stroke-width="0.47"/>
      <line x1="115.96" y1="13.85" x2="115.96" y2="24.06" fill="none" stroke="#231815" stroke-linecap="round" stroke-linejoin="round" stroke-width="0.47"/>
      <line x1="115.96" y1="24.06" x2="119.37" y2="24.06" fill="none" stroke="#231815" stroke-linecap="round" stroke-linejoin="round" stroke-width="0.47"/>
      <line x1="119.37" y1="24.06" x2="115.96" y2="27.47" fill="none" stroke="#231815" stroke-linecap="round" stroke-linejoin="round" stroke-width="0.47"/>
      <line x1="115.96" y1="27.47" x2="112.64" y2="27.47" fill="none" stroke="#231815" stroke-linecap="round" stroke-linejoin="round" stroke-width="0.47"/>
      <line x1="112.56" y1="27.47" x2="115.96" y2="24.06" fill="none" stroke="#231815" stroke-linecap="round" stroke-linejoin="round" stroke-width="0.47"/>
      <line x1="112.56" y1="27.47" x2="112.56" y2="13.85" fill="none" stroke="#231815" stroke-linecap="round" stroke-linejoin="round" stroke-width="0.47"/>
      <line x1="115.96" y1="10.14" x2="112.56" y2="7.04" fill="none" stroke="#231815" stroke-linecap="round" stroke-linejoin="round" stroke-width="0.47"/>
      <line x1="112.56" y1="7.04" x2="109.15" y2="7.04" fill="none" stroke="#231815" stroke-linecap="round" stroke-linejoin="round" stroke-width="0.47"/>
      <line x1="115.96" y1="0.24" x2="112.56" y2="3.64" fill="none" stroke="#231815" stroke-linecap="round" stroke-linejoin="round" stroke-width="0.47"/>
      <line x1="112.56" y1="3.64" x2="112.56" y2="7.04" fill="none" stroke="#231815" stroke-linecap="round" stroke-linejoin="round" stroke-width="0.47"/>
      <line x1="105.75" y1="24.06" x2="102.35" y2="20.66" fill="none" stroke="#231815" stroke-linecap="round" stroke-linejoin="round" stroke-width="0.47"/>
      <line x1="102.35" y1="20.66" x2="102.35" y2="0.24" fill="none" stroke="#231815" stroke-linecap="round" stroke-linejoin="round" stroke-width="0.47"/>
      <line x1="102.35" y1="0.24" x2="105.75" y2="3.64" fill="none" stroke="#231815" stroke-linecap="round" stroke-linejoin="round" stroke-width="0.47"/>
      <line x1="109.15" y1="3.64" x2="105.75" y2="0.24" fill="none" stroke="#231815" stroke-linecap="round" stroke-linejoin="round" stroke-width="0.47"/>
      <line x1="105.75" y1="0.24" x2="102.35" y2="0.24" fill="none" stroke="#231815" stroke-linecap="round" stroke-linejoin="round" stroke-width="0.47"/>
    </g>
  </g>
</svg>
