<svg xmlns="http://www.w3.org/2000/svg" xmlns:xlink="http://www.w3.org/1999/xlink" viewBox="0 0 1924 1083">
  <defs>
    <style>
      .a {
        isolation: isolate;
      }

      .b {
        fill: #fbf6d2;
      }

      .c {
        fill: #fffbed;
      }

      .d {
        fill: url(#a);
      }

      .e {
        fill: #cde5ed;
      }

      .f {
        fill: #84caeb;
      }

      .g, .u {
        fill: #50bbb7;
      }

      .h {
        fill: #6186b6;
      }

      .ao, .i, .t {
        fill: #c2e4ed;
      }

      .i {
        opacity: 0.5;
      }

      .ab, .ac, .ae, .ao, .i, .u {
        mix-blend-mode: multiply;
      }

      .j {
        fill: #8ebde0;
      }

      .ab, .ai, .am, .an, .ar, .k, .l, .m, .o, .q, .r, .s, .v, .z {
        fill: none;
      }

      .k, .l, .m {
        stroke: #58789e;
      }

      .ab, .ai, .am, .an, .k, .l, .m, .o, .q, .r, .s, .v, .z {
        stroke-miterlimit: 10;
      }

      .k, .o, .s {
        stroke-width: 2px;
      }

      .m {
        stroke-width: 3px;
      }

      .n {
        fill: #1b507b;
      }

      .ai, .am, .o, .r, .z {
        stroke: #1b507b;
      }

      .p {
        fill: #fee195;
      }

      .an, .q, .s {
        stroke: #6186b6;
      }

      .u {
        opacity: 0.2;
      }

      .v {
        stroke: #50bbb7;
        stroke-width: 1.19px;
      }

      .w {
        fill: #4990b3;
      }

      .x {
        fill: #75c4b8;
      }

      .y {
        fill: #83bede;
      }

      .z {
        stroke-width: 1.05px;
      }

      .aa {
        fill: #98d5f4;
      }

      .ab {
        stroke: #91a9ca;
        stroke-width: 0.82px;
      }

      .ad, .ae {
        fill: #91a9ca;
      }

      .af {
        fill: #7dc8c5;
      }

      .ag {
        fill: #0094a8;
      }

      .ah {
        fill: #d0ebf9;
      }

      .ai {
        stroke-width: 0.87px;
      }

      .aj {
        fill: #b9c5d6;
      }

      .ak {
        fill: #006284;
      }

      .al {
        fill: #f1e9c7;
      }

      .am {
        stroke-width: 1.06px;
      }

      .an {
        stroke-width: 1.06px;
      }

      .ap {
        fill: url(#b);
      }

      .aq {
        fill: url(#c);
      }
    </style>
    <linearGradient id="a" data-name="未命名漸層 92" x1="1406.57" y1="908.22" x2="1406.57" y2="-24.56" gradientUnits="userSpaceOnUse">
      <stop offset="0" stop-color="#efd380"/>
      <stop offset="0.98" stop-color="#fff198"/>
    </linearGradient>
    <linearGradient id="b" x1="1852.89" y1="551.41" x2="1042.2" y2="618.14" xlink:href="#a"/>
    <linearGradient id="c" x1="1871.32" y1="720.96" x2="904.91" y2="713.55" xlink:href="#a"/>
  </defs>

  <g class="a">
    <g>
      <rect class="b" width="1930" height="517"/>
      <circle class="c" cx="48.46" cy="370.05" r="110.46"/>
      <circle class="c" cx="176.47" cy="397.26" r="95.26"/>
      <circle class="c" cx="304.47" cy="414.76" r="77.76"/>
      <circle class="c" cx="1120.01" cy="423.3" r="170.7"/>
      <circle class="c" cx="920.81" cy="395.33" r="90.19"/>
      <circle class="c" cx="799.62" cy="411.9" r="73.62"/>
      <circle class="c" cx="1955.8" cy="342.3" r="95.26"/>
      <circle class="c" cx="1827.84" cy="360.06" r="77.76"/>
      <circle class="d" cx="1406.57" cy="531.53" r="298.51"/>
      <rect class="e" y="383.54" width="1930" height="701.46"/>
      <path class="f" d="M1310.9,283.25a1.5,1.5,0,0,0,0-3,1.5,1.5,0,0,0,0,3Z"/>
      <path class="g" d="M1464.85,344a9.85,9.85,0,0,0-9.85,9.85h0a9.15,9.15,0,0,1-9.15,9.15h-75.46a10.26,10.26,0,0,0-10.37,9.38A10,10,0,0,0,1370,383h215V344Z"/>
      <path class="h" d="M1016.39,432.5H1124.5a33,33,0,0,1,33,33v0a0,0,0,0,1,0,0h-165a0,0,0,0,1,0,0v-9.11A23.89,23.89,0,0,1,1016.39,432.5Z"/>
      <path class="i" d="M992.65,731.69H523.27C512,731.69,503,722.2,503,711l-.07.38A20.36,20.36,0,0,1,523.27,691H625.52a10,10,0,0,0,10-10h0a10,10,0,0,0-10-10H572.4a14.83,14.83,0,0,1-14.83-14.84h0a14.83,14.83,0,0,1,14.83-14.83H780.76a16.9,16.9,0,0,1,16.9,16.9h0a10,10,0,0,0,10,10h62.79A12.76,12.76,0,0,1,883.21,681h0a10,10,0,0,0,10,10h99.43A20.36,20.36,0,0,1,1013,711.34h0A20.35,20.35,0,0,1,992.65,731.69Z"/>
      <path class="i" d="M2018.63,1014H1733.37a12.53,12.53,0,0,1-12.33-12.59l0,.22a12.36,12.36,0,0,1,12.37-12.36h62.14a6.08,6.08,0,0,0,6.08-6.08h0a6.08,6.08,0,0,0-6.08-6.08h-32.28a9,9,0,0,1-9-9h0a9,9,0,0,1,9-9h126.63a10.27,10.27,0,0,1,10.27,10.27h0a6.08,6.08,0,0,0,6.08,6.08h38.15a7.75,7.75,0,0,1,7.76,7.76h0a6.08,6.08,0,0,0,6.08,6.08h60.43a12.36,12.36,0,0,1,12.37,12.36h0A12.37,12.37,0,0,1,2018.63,1014Z"/>
      <path class="h" d="M-280,1083.5v-80.29L467.37,512.68l703.27,446.44A147.33,147.33,0,0,1,1239,1083.5H-280Z"/>
      <path class="j" d="M468,596l-678,445v41H1169a74.59,74.59,0,0,0-34.61-63Z"/>
      <line class="k" x1="331.7" y1="685.46" x2="608.92" y2="685.46"/>
      <line class="k" x1="262.45" y1="730.91" x2="679.16" y2="730.91"/>
      <line class="k" x1="182.8" y1="783.19" x2="762.88" y2="783.19"/>
      <line class="k" x1="97.77" y1="839" x2="845.71" y2="839"/>
      <line class="l" y1="903.17" x2="951.88" y2="903.17"/>
      <line class="m" x1="-108.87" y1="974.63" x2="1063.82" y2="974.63"/>
      <path class="g" d="M1614.66,352.5V345h-75.18c-22.36,0-40.48,20-40.48,35.5v3h386v-31h0c0-15.46-18.12-28-40.48-28H1655.13C1632.78,324.5,1614.66,337,1614.66,352.5Z"/>
      <path class="h" d="M465,174H603.15a8.75,8.75,0,0,1,8.75,8.75v13.13a8.75,8.75,0,0,0,8.75,8.75H644V271H568.14a8.75,8.75,0,0,1-8.75-8.75h0a8.75,8.75,0,0,0-8.75-8.75H464.11Z"/>
      <rect class="n" x="464.5" y="174" width="7" height="496"/>
      <line class="o" x1="1088" y1="906.99" x2="1088" y2="989.9"/>
      <line class="o" x1="1157.61" y1="950.85" x2="1157.61" y2="1042.39"/>
      <line class="o" x1="835.76" y1="749.89" x2="835.76" y2="802.16"/>
      <line class="o" x1="399.21" y1="557.42" x2="399.21" y2="640"/>
      <line class="o" x1="332" y1="680" x2="332" y2="599"/>
      <g>
        <polygon class="h" points="631 480 704.94 423.32 751.59 469.36 660.2 535.84 636.65 520.89 631 480"/>
        <circle class="n" cx="733.36" cy="441.18" r="33.57"/>
        <path class="h" d="M606,358.51,616.39,376l-5.15.24.25,6.5a5.63,5.63,0,0,1-5.81,5.85h0L604,422l-14.78-.25,4.7-63.64Z"/>
        <path class="g" d="M555.09,415l85.62,7.63a17.37,17.37,0,0,1,14.06,9.67L665,455l-25,18s-17.46,46.3,62,100c0,0,50,26,72,80L656.49,730.6s-1.42-47.47-39.68-84.31L545.25,571.9l-9.14-142.73A17.75,17.75,0,0,1,555.09,415Z"/>
        <path class="g" d="M527,447l9.69,53.87,42.9-83.72-28.1-2.73a33.74,33.74,0,0,0-22.91,6.18L473.75,460A9.15,9.15,0,0,0,472,473.15l52.75,65.45,10.48-14-41.4-55.89Z"/>
        <circle class="n" cx="607" cy="354" r="8.49"/>
        <path class="n" d="M606,349l-10.81,3.41A11.73,11.73,0,0,0,587,363.59v6a7.31,7.31,0,0,0,2.63,5.62L593,378l.75-11.5L606,358Z"/>
        <polygon class="p" points="618.23 420.28 626.02 514.51 536.75 501.05 579.26 417.45 618.23 420.28"/>
        <path class="n" d="M536.75,501.05l-5.61,10.84c-9.8,18.91-10.61,40-10,61.3L530.83,839h20.55l18.83-291.69a4.78,4.78,0,0,1,4.76-4.46h0a4.78,4.78,0,0,1,4.74,4.27l30,292.88h19.12L626,514.51Z"/>
        <polygon class="h" points="589.49 418.19 595 432 604.14 419.26 589.49 418.19"/>
      </g>
      <g>
        <path class="n" d="M916.3,695.91l-29,30.26,8.41,3.82L889,745a9.76,9.76,0,0,0,4.85,12.91h0L880.2,805.24l29.44,13.37,31.05-109.37Z"/>
        <path class="p" d="M896.21,802.16H734l-51.85-75.47L651.6,737.47l50.07,84.82a36,36,0,0,0,31,17.71h74.14l21.62,132.6H965.52L999.91,814l-71.36-11.81Z"/>
        <path class="n" d="M689,736.06l-6.72-9.62a97.78,97.78,0,0,0-52.43-37.79l-17.67-5.22-7.83,23.47h0A97.73,97.73,0,0,1,656.45,745l4.1,6Z"/>
        <path class="h" d="M910,684V673l25.21,11.64A28.71,28.71,0,0,1,951.5,706h0a28.69,28.69,0,0,1-15.61,30.45l-3.39,1.67L940,712l-22.35-14.16A16.45,16.45,0,0,1,910,684Z"/>
        <g>
          <circle class="n" cx="826" cy="922" r="38.18"/>
          <circle class="q" cx="826.24" cy="922.28" r="20.51"/>
        </g>
        <g>
          <circle class="h" cx="780" cy="934" r="38.18"/>
          <circle class="r" cx="780.24" cy="934.28" r="20.51"/>
        </g>
        <g>
          <rect class="h" x="568" y="678" width="40" height="64"/>
          <circle class="s" cx="617" cy="698" r="12.73"/>
        </g>
        <g>
          <path class="h" d="M891.21,880.69l9.28-26.53-7.67-2.68L883.54,878a3,3,0,0,1-3.88,1.87h0a3,3,0,0,0-3.88,1.87l-26.25,75.11,19.17,6.7L895,888.45a3.05,3.05,0,0,0-1.88-3.88h0A3.05,3.05,0,0,1,891.21,880.69Z"/>
          <circle class="n" cx="896.37" cy="853.31" r="4.29"/>
        </g>
        <g>
          <path class="h" d="M920.11,897.46l12.51-25.16-7.28-3.62-12.5,25.16a3.05,3.05,0,0,1-4.09,1.38h0a3,3,0,0,0-4.08,1.37l-35.41,71.25,18.19,9,35.41-71.25a3,3,0,0,0-1.37-4.08h0A3.05,3.05,0,0,1,920.11,897.46Z"/>
          <circle class="n" cx="928.64" cy="870.94" r="4.29"/>
        </g>
        <rect class="t" x="736.22" y="929.99" width="180.16" height="153.01"/>
        <rect class="n" x="916.38" y="929.99" width="58.64" height="153.01"/>
        <rect class="n" x="855.65" y="972.6" width="63.14" height="28.75"/>
        <path class="p" d="M928.55,802.16l60.81,6.68a47.47,47.47,0,0,1,41.91,41.28l14.48,115.54a31.74,31.74,0,0,1-31.49,35.69H918.8V972.6h87.27L993.75,866.33h-65.2Z"/>
      </g>
      <path class="h" d="M972.76,402s-1.43,12.17-10.74,11.45-28.64-2.86-33.65,9.31c-5-12.17-24.34-10-33.64-9.31S884,402,884,402c-3.59,6.46-2.32,13.45-.17,18.83a23.76,23.76,0,0,0,11.3,12.22l11.27,5.75A24.11,24.11,0,0,1,919.07,465h18.61a24.1,24.1,0,0,1,12.68-26.2l11.27-5.75a23.78,23.78,0,0,0,11.29-12.22C975.08,415.45,976.35,408.46,972.76,402Z"/>
      <path class="u" d="M1372.28,383.24A12.28,12.28,0,0,0,1360,395.52v10.86a15.58,15.58,0,0,0,15.73,15.43h125.84a15.58,15.58,0,0,1,15.73,15.43h0A15.58,15.58,0,0,0,1533,452.67h320.51c17.37,0,31.46-13.81,31.46-30.86h0V383.24Z"/>
      <line class="r" x1="599" y1="223" x2="568" y2="271"/>
      <line class="r" x1="471.5" y1="194" x2="561.5" y2="194"/>
      <circle class="v" cx="735" cy="439.7" r="22.8"/>
      <circle class="v" cx="735" cy="439.2" r="12.3"/>
      <line class="r" x1="127.5" y1="553.5" x2="267.5" y2="450.5"/>
      <line class="r" x1="287.63" y1="439.2" x2="326.5" y2="411.5"/>
      <line class="o" x1="747.3" y1="773.3" x2="747.3" y2="690.39"/>
      <line class="o" x1="995.97" y1="443.98" x2="1081" y2="443.98"/>
      <line class="o" x1="928" y1="423" x2="928" y2="439"/>
      <g>
        <polygon class="w" points="1557.11 350.23 1585.51 350.23 1585.51 240.44 1557.11 255.69 1557.11 350.23"/>
        <polygon class="n" points="1585.51 240.44 1585.51 251.74 1557.11 267 1557.11 255.69 1585.51 240.44"/>
        <g>
          <rect class="t" x="1562.89" y="271.99" width="22.62" height="2.63" transform="translate(3148.4 546.61) rotate(-180)"/>
          <rect class="t" x="1562.89" y="279.88" width="22.62" height="2.63" transform="translate(3148.4 562.39) rotate(-180)"/>
          <rect class="n" x="1577.09" y="271.99" width="3.16" height="2.63" transform="translate(3157.34 546.61) rotate(-180)"/>
          <rect class="x" x="1573.94" y="271.99" width="3.16" height="2.63" transform="translate(3151.03 546.61) rotate(-180)"/>
          <rect class="x" x="1569.2" y="279.88" width="3.16" height="2.63" transform="translate(3141.56 562.39) rotate(-180)"/>
          <rect class="n" x="1566.05" y="279.88" width="3.16" height="2.63" transform="translate(3135.25 562.39) rotate(-180)"/>
        </g>
        <g>
          <rect class="t" x="1562.89" y="289.48" width="22.62" height="2.63" transform="translate(3148.4 581.59) rotate(-180)"/>
          <rect class="t" x="1562.89" y="297.37" width="22.62" height="2.63" transform="translate(3148.4 597.37) rotate(-180)"/>
          <rect class="n" x="1577.09" y="289.48" width="3.16" height="2.63" transform="translate(3157.34 581.59) rotate(-180)"/>
          <rect class="x" x="1573.94" y="289.48" width="3.16" height="2.63" transform="translate(3151.03 581.59) rotate(-180)"/>
          <rect class="x" x="1569.2" y="297.37" width="3.16" height="2.63" transform="translate(3141.56 597.37) rotate(-180)"/>
          <rect class="n" x="1566.05" y="297.37" width="3.16" height="2.63" transform="translate(3135.25 597.37) rotate(-180)"/>
        </g>
      </g>
      <rect class="n" x="1629.64" y="286.44" width="60.08" height="64.7"/>
      <g>
        <polygon class="y" points="1583.65 195.6 1583.65 229.24 1583.65 351.14 1631.39 351.14 1631.39 229.24 1631.39 195.6 1583.65 195.6"/>
        <path class="n" d="M1607.52,195.6h-23.87l5.32,15a40,40,0,0,0,10.93,15.84l2,1.88h11.17l2-1.88a40,40,0,0,0,10.93-15.84l5.32-15Z"/>
        <g>
          <line class="z" x1="1583.65" y1="234.47" x2="1631.39" y2="234.47"/>
          <line class="z" x1="1584.07" y1="239.57" x2="1630.97" y2="239.57"/>
          <line class="z" x1="1583.65" y1="244.66" x2="1630.56" y2="244.66"/>
          <line class="z" x1="1584.06" y1="249.76" x2="1630.97" y2="249.76"/>
          <line class="z" x1="1583.65" y1="254.85" x2="1631.39" y2="254.85"/>
          <line class="z" x1="1584.07" y1="259.94" x2="1630.97" y2="259.94"/>
          <line class="z" x1="1583.65" y1="265.04" x2="1630.56" y2="265.04"/>
          <line class="z" x1="1584.06" y1="270.13" x2="1630.97" y2="270.13"/>
        </g>
        <g>
          <line class="z" x1="1583.65" y1="276.3" x2="1631.39" y2="276.3"/>
          <line class="z" x1="1584.07" y1="281.39" x2="1630.97" y2="281.39"/>
          <line class="z" x1="1583.65" y1="286.49" x2="1630.56" y2="286.49"/>
          <line class="z" x1="1584.06" y1="291.58" x2="1630.97" y2="291.58"/>
          <line class="z" x1="1583.65" y1="296.67" x2="1631.39" y2="296.67"/>
          <line class="z" x1="1584.07" y1="301.77" x2="1630.97" y2="301.77"/>
          <line class="z" x1="1583.65" y1="306.86" x2="1630.56" y2="306.86"/>
          <line class="z" x1="1584.06" y1="311.96" x2="1630.97" y2="311.96"/>
        </g>
        <path class="x" d="M1605.45,199h4.14a10.08,10.08,0,0,1,10.08,10.08v.65a0,0,0,0,1,0,0h-24.29a0,0,0,0,1,0,0v-.65A10.08,10.08,0,0,1,1605.45,199Z"/>
      </g>
      <g>
        <polygon class="aa" points="1645.96 263.51 1618.53 263.51 1618.53 351.14 1636.91 351.14 1645.96 351.14 1656.09 351.14 1656.09 301.54 1645.96 263.51"/>
        <line class="ab" x1="1618.53" y1="270.68" x2="1648.14" y2="270.68"/>
        <line class="ab" x1="1618.53" y1="277.29" x2="1649.63" y2="277.29"/>
        <line class="ab" x1="1618.53" y1="284.73" x2="1651.61" y2="284.73"/>
        <line class="ab" x1="1618.53" y1="292.81" x2="1653.77" y2="292.81"/>
        <line class="ab" x1="1618.53" y1="300.44" x2="1655.8" y2="300.44"/>
        <line class="ab" x1="1618.53" y1="308.7" x2="1655.8" y2="308.7"/>
        <line class="ab" x1="1618.53" y1="317.25" x2="1656.09" y2="317.25"/>
        <line class="ab" x1="1618.83" y1="325.24" x2="1656.39" y2="325.24"/>
        <line class="ab" x1="1618.53" y1="332.95" x2="1656.09" y2="332.95"/>
        <line class="ab" x1="1618.53" y1="341.5" x2="1656.09" y2="341.5"/>
        <g class="ac">
          <rect class="ad" x="1620.91" y="265.72" width="1.19" height="2.76"/>
          <rect class="ad" x="1623.89" y="265.72" width="1.19" height="2.76"/>
          <rect class="ad" x="1626.88" y="265.72" width="1.19" height="2.76"/>
        </g>
        <g>
          <rect class="ae" x="1620.91" y="272.33" width="1.19" height="2.76"/>
          <rect class="ae" x="1623.89" y="272.33" width="1.19" height="2.76"/>
          <rect class="ae" x="1626.88" y="272.33" width="1.19" height="2.76"/>
        </g>
        <g>
          <rect class="ae" x="1620.91" y="279.49" width="1.19" height="2.76"/>
          <rect class="ae" x="1623.89" y="279.49" width="1.19" height="2.76"/>
          <rect class="ae" x="1626.88" y="279.49" width="1.19" height="2.76"/>
        </g>
        <g class="ac">
          <rect class="ad" x="1620.91" y="287.21" width="1.19" height="2.76"/>
          <rect class="ad" x="1623.89" y="287.21" width="1.19" height="2.76"/>
          <rect class="ad" x="1626.88" y="287.21" width="1.19" height="2.76"/>
        </g>
        <g>
          <rect class="ae" x="1620.91" y="294.93" width="1.19" height="2.76"/>
          <rect class="ae" x="1623.89" y="294.93" width="1.19" height="2.76"/>
          <rect class="ae" x="1626.88" y="294.93" width="1.19" height="2.76"/>
        </g>
        <rect class="n" x="1618.53" y="260.2" width="27.43" height="3.31"/>
      </g>
      <g>
        <polygon class="af" points="1558.4 350.23 1530 350.23 1530 222.95 1558.4 238.2 1558.4 350.23"/>
        <polygon class="n" points="1530 222.95 1530 234.25 1558.4 249.51 1558.4 238.2 1530 222.95"/>
        <g>
          <rect class="t" x="1530" y="254.5" width="22.62" height="2.63"/>
          <rect class="t" x="1530" y="262.39" width="22.62" height="2.63"/>
          <rect class="n" x="1535.26" y="254.5" width="3.16" height="2.63"/>
          <rect class="ag" x="1538.42" y="254.5" width="3.16" height="2.63"/>
          <rect class="ag" x="1543.15" y="262.39" width="3.16" height="2.63"/>
          <rect class="n" x="1546.3" y="262.39" width="3.16" height="2.63"/>
        </g>
        <g>
          <rect class="t" x="1530" y="271.99" width="22.62" height="2.63"/>
          <rect class="t" x="1530" y="279.88" width="22.62" height="2.63"/>
          <rect class="n" x="1535.26" y="271.99" width="3.16" height="2.63"/>
          <rect class="ag" x="1538.42" y="271.99" width="3.16" height="2.63"/>
          <rect class="ag" x="1543.15" y="279.88" width="3.16" height="2.63"/>
          <rect class="n" x="1546.3" y="279.88" width="3.16" height="2.63"/>
        </g>
        <g>
          <rect class="t" x="1530" y="289.48" width="22.62" height="2.63"/>
          <rect class="t" x="1530" y="297.37" width="22.62" height="2.63"/>
          <rect class="n" x="1535.26" y="289.48" width="3.16" height="2.63"/>
          <rect class="ag" x="1538.42" y="289.48" width="3.16" height="2.63"/>
          <rect class="ag" x="1543.15" y="297.37" width="3.16" height="2.63"/>
          <rect class="n" x="1546.3" y="297.37" width="3.16" height="2.63"/>
        </g>
      </g>
      <rect class="h" x="1737.81" y="284.68" width="42.19" height="66.46"/>
      <rect class="n" x="1776.81" y="248" width="45.19" height="92.14"/>
      <rect class="n" x="1680.36" y="271.33" width="60.08" height="79.81"/>
      <g>
        <rect class="ah" x="1599.91" y="317.04" width="32.35" height="33.96"/>
        <rect class="y" x="1606.03" y="322.59" width="1.75" height="3.81"/>
        <rect class="y" x="1610.4" y="322.59" width="1.75" height="3.81"/>
        <rect class="y" x="1606.03" y="328.02" width="1.75" height="3.81"/>
        <rect class="y" x="1610.4" y="328.02" width="1.75" height="3.81"/>
      </g>
      <g>
        <path class="af" d="M1700.92,296.59a23.43,23.43,0,0,0-.28,32.84l33.12-33.12A23.41,23.41,0,0,0,1700.92,296.59Z"/>
        <path class="g" d="M1734.06,329.72a23.42,23.42,0,0,0,0-33.13l-.3-.28-33.12,33.12c.09.09.18.2.28.29A23.44,23.44,0,0,0,1734.06,329.72Z"/>
      </g>
      <g>
        <rect class="h" x="1689.88" y="324.99" width="51.02" height="26.01"/>
        <line class="ai" x1="1689.88" y1="329.63" x2="1740.89" y2="329.63"/>
        <line class="ai" x1="1690.14" y1="335.51" x2="1741.16" y2="335.51"/>
      </g>
      <g>
        <path class="af" d="M1827.71,296.59a23.41,23.41,0,0,0-.28,32.84l33.12-33.12A23.41,23.41,0,0,0,1827.71,296.59Z"/>
        <path class="g" d="M1860.84,329.72a23.42,23.42,0,0,0,0-33.13c-.09-.1-.2-.19-.29-.28l-33.12,33.12c.09.09.18.2.28.29A23.42,23.42,0,0,0,1860.84,329.72Z"/>
      </g>
      <g>
        <rect class="h" x="1816.66" y="324.99" width="51.02" height="26.01"/>
        <line class="ai" x1="1816.66" y1="329.63" x2="1867.68" y2="329.63"/>
        <line class="ai" x1="1816.92" y1="335.51" x2="1867.94" y2="335.51"/>
      </g>
      <g>
        <rect class="h" x="1731.95" y="307.42" width="103.61" height="4.79"/>
        <rect class="aj" x="1734.06" y="312.21" width="98.09" height="38.79"/>
        <path class="ak" d="M1741.16,318.67h.5a2.2,2.2,0,0,1,2.2,2.2v30.52a0,0,0,0,1,0,0H1739a0,0,0,0,1,0,0V320.87a2.2,2.2,0,0,1,2.2-2.2Z"/>
        <path class="ak" d="M1751.52,318.67h.5a2.2,2.2,0,0,1,2.2,2.2v30.52a0,0,0,0,1,0,0h-4.9a0,0,0,0,1,0,0V320.87A2.2,2.2,0,0,1,1751.52,318.67Z"/>
        <path class="ak" d="M1761.87,318.67h.5a2.2,2.2,0,0,1,2.2,2.2v30.52a0,0,0,0,1,0,0h-4.9a0,0,0,0,1,0,0V320.87a2.2,2.2,0,0,1,2.2-2.2Z"/>
        <path class="ak" d="M1772.23,318.67h.5a2.2,2.2,0,0,1,2.2,2.2v30.52a0,0,0,0,1,0,0H1770a0,0,0,0,1,0,0V320.87A2.2,2.2,0,0,1,1772.23,318.67Z"/>
        <path class="ak" d="M1782.58,318.67h.5a2.2,2.2,0,0,1,2.2,2.2v30.52a0,0,0,0,1,0,0h-4.9a0,0,0,0,1,0,0V320.87A2.2,2.2,0,0,1,1782.58,318.67Z"/>
        <path class="ak" d="M1792.93,318.67h.5a2.2,2.2,0,0,1,2.2,2.2v30.52a0,0,0,0,1,0,0h-4.9a0,0,0,0,1,0,0V320.87a2.2,2.2,0,0,1,2.2-2.2Z"/>
        <path class="ak" d="M1803.29,318.67h.5a2.2,2.2,0,0,1,2.2,2.2v30.52a0,0,0,0,1,0,0h-4.9a0,0,0,0,1,0,0V320.87a2.2,2.2,0,0,1,2.2-2.2Z"/>
        <path class="ak" d="M1813.64,318.67h.5a2.2,2.2,0,0,1,2.2,2.2v30.52a0,0,0,0,1,0,0h-4.9a0,0,0,0,1,0,0V320.87a2.2,2.2,0,0,1,2.2-2.2Z"/>
        <path class="ak" d="M1824,318.67h.5a2.2,2.2,0,0,1,2.2,2.2v30.52a0,0,0,0,1,0,0h-4.9a0,0,0,0,1,0,0V320.87A2.2,2.2,0,0,1,1824,318.67Z"/>
      </g>
      <g>
        <rect class="al" x="1720.58" y="275.94" width="1.75" height="3.5"/>
        <rect class="al" x="1725.82" y="275.94" width="1.75" height="3.5"/>
        <rect class="al" x="1731.07" y="275.94" width="1.75" height="3.5"/>
      </g>
      <g>
        <rect class="al" x="1720.58" y="282.06" width="1.75" height="3.5"/>
        <rect class="al" x="1725.82" y="282.06" width="1.75" height="3.5"/>
        <rect class="al" x="1731.07" y="282.06" width="1.75" height="3.5"/>
      </g>
      <rect class="g" x="674.63" y="973.38" width="94.42" height="109.62"/>
      <circle class="n" cx="722.08" cy="973.38" r="47.16"/>
      <rect class="h" x="-8" y="903" width="521" height="182"/>
      <g>
        <path class="h" d="M82.23,526.66l31.16,21.92-9.23,6.93,7,12.6a10.94,10.94,0,0,1-2.81,13.94l-.73.58,20.78,61.74L93.2,656.48,56.27,539.35Z"/>
        <path class="g" d="M92,656.48l-41.78,19.7A66.78,66.78,0,0,0,15.4,757.79L64.35,904,246.68,889.6V656.48l112.11-41.83a34.47,34.47,0,0,0,15.83-52.58l-51.77-71.19-22.51,13.85,46.74,76.74L128.4,644.37Z"/>
        <polygon class="g" points="171.01 632.11 164.75 571.09 187.83 565.32 198.79 628.21 171.01 632.11"/>
        <path class="h" d="M164.75,571.09l-.61-5.56a158.57,158.57,0,0,1,8.48-71.16l2.51-6.95,23.66-5.77-5,16.4a158.81,158.81,0,0,0-6.57,58.45l.66,8.82Z"/>
        <path class="n" d="M64.35,904,32.73,1142.91H101l31.92-177.13a14.56,14.56,0,0,1,13.82-12l8.87-.3a9,9,0,0,1,10,8.14l16.48,181.26h64.61V889.6Z"/>
        <path class="n" d="M81,527l3.77-2.38a23.8,23.8,0,0,0,10.11-26.89L92,488l-13.45,3.77A13.36,13.36,0,0,0,69,506.83h0a8.22,8.22,0,0,1-4.65,8.81l-6.46,3A27.39,27.39,0,0,0,42,543.49h0A27.4,27.4,0,0,0,55.3,567L67,574l-9-35Z"/>
        <path class="g" d="M128.8,540,320.68,383.24,346,424.71,140.31,555.88a9.85,9.85,0,0,1-12.82-2h0A9.84,9.84,0,0,1,128.8,540Z"/>
        <circle class="n" cx="338.74" cy="400.37" r="24.89"/>
      </g>
      <g>
        <g>
          <path class="n" d="M268.11,606.08l26.55,42.24H281.38l-1.22,17.52a9.06,9.06,0,0,1-9,8.43h0l-8.45,60.35H225.86L244,604.27Z"/>
          <path class="p" d="M281.83,721.92l175.71-42.83,88.11-128.55L568,566.84,489.19,695.25a74,74,0,0,1-39.86,31.55l-96.8,32L332,968.17H241.48V726.46l5-.06A158.25,158.25,0,0,0,281.83,721.92Z"/>
          <path class="h" d="M545.65,550.54,555,539.4a74.5,74.5,0,0,1,40.2-24.66l9.58-2.22L610.22,533h0A74.5,74.5,0,0,0,571,562.41l-3,4.43Z"/>
          <path class="p" d="M201.12,721.92,25.42,679.09-62.69,550.54-85,566.84-6.23,695.25A74,74,0,0,0,33.62,726.8l96.81,32L151,968.17h90.53V726.46l-5-.06A158.42,158.42,0,0,1,201.12,721.92Z"/>
          <polygon class="n" points="332.01 968.17 332.01 1317 277.09 1317 243.89 1038.18 228.2 1038.18 181.13 1317 101.47 1317 150.95 968.17 332.01 968.17"/>
        </g>
        <circle class="h" cx="254" cy="601" r="21.21"/>
        <circle class="h" cx="239" cy="622" r="21.21"/>
        <line class="o" x1="197.5" y1="721.5" x2="337.5" y2="903.5"/>
      </g>
      <g>
        <path class="h" d="M459.55,715.38l-22.29,51.46h15.43v15.43a15.44,15.44,0,0,0,15.44,15.44h0l6,66.89h36L494.82,731.24A17.91,17.91,0,0,0,477,715.38Z"/>
        <path class="h" d="M542.59,858.6H727.12V775.29a84.08,84.08,0,0,1,12.56-44.21l16.59-26.85L782,715.38l-12.36,22a84.07,84.07,0,0,0-10.79,41.22v94.5a36.13,36.13,0,0,1-36.13,36.12H579.46Z"/>
        <path class="h" d="M383,878.11l-76.9,112.55-87.62-73.44a104.1,104.1,0,0,0-66.87-24.32H137.11v33.45h2.79a104.1,104.1,0,0,1,74.09,31L284.78,1029a36.13,36.13,0,0,0,54.89-4.09l62.41-85.53Z"/>
        <path class="n" d="M416.14,858.6H558.62a43.38,43.38,0,0,1,34.86,17.55l23.87,32.19L573.2,1082H421.41L373.74,941.13a74.59,74.59,0,0,1,6.8-62.44h0A41.57,41.57,0,0,1,416.14,858.6Z"/>
        <rect class="n" x="542.9" y="859.02" width="127.73" height="49.79"/>
        <polyline class="n" points="379.7 883.52 305.1 990.18 341.44 1022.76 398.94 944.53 379.45 883.92"/>
        <circle class="n" cx="456.31" cy="706.4" r="26.02"/>
        <path class="n" d="M456.31,732.38H495v-7.17a16.66,16.66,0,0,0-16.65-16.65h-18.8Z"/>
      </g>
      <line class="r" x1="691" y1="994" x2="691" y2="1083"/>
      <g>
        <rect class="p" x="581" y="1006.38" width="94.42" height="75.62"/>
        <circle class="n" cx="628.45" cy="1006.38" r="47.16"/>
        <line class="am" x1="599.5" y1="994" x2="599.5" y2="1083"/>
        <line class="am" x1="619.67" y1="994" x2="619.67" y2="1083"/>
        <line class="am" x1="639.83" y1="994" x2="639.83" y2="1083"/>
        <line class="am" x1="660" y1="994" x2="660" y2="1083"/>
      </g>
      <line class="r" x1="711.5" y1="994" x2="711.5" y2="1083"/>
      <line class="r" x1="732" y1="994" x2="732" y2="1083"/>
      <line class="r" x1="752.5" y1="994" x2="752.5" y2="1083"/>
      <circle class="an" cx="721.5" cy="972.15" r="31.35"/>
      <path class="h" d="M737,966.5h7a0,0,0,0,1,0,0v9a0,0,0,0,1,0,0h-7a4.5,4.5,0,0,1-4.5-4.5v0A4.5,4.5,0,0,1,737,966.5Z"/>
      <circle class="an" cx="628.5" cy="1003.15" r="31.35"/>
      <path class="h" d="M644,997.5h7a0,0,0,0,1,0,0v9a0,0,0,0,1,0,0h-7a4.5,4.5,0,0,1-4.5-4.5v0A4.5,4.5,0,0,1,644,997.5Z"/>
      <line class="r" x1="127" y1="553" x2="319.68" y2="416.36"/>
      <polygon class="h" points="300.34 506.24 264.07 444.28 281.13 434.59 322.47 491.8 300.34 506.24"/>
      <line class="s" x1="558.62" y1="858.6" x2="421" y2="1082"/>
      <circle class="j" cx="27.5" cy="927.5" r="7.78"/>
      <circle class="j" cx="27.5" cy="959.5" r="7.78"/>
      <circle class="j" cx="27.5" cy="991.5" r="7.78"/>
      <line class="r" x1="32.73" y1="921.76" x2="21.91" y2="932.9"/>
      <line class="r" x1="20.84" y1="955.5" x2="33.98" y2="963.79"/>
      <line class="r" x1="32.73" y1="985.76" x2="22.65" y2="997.58"/>
      <g>
        <path class="ao" d="M1801.54,758H1072.46a24.55,24.55,0,0,0-24.54,24.55h0a24.54,24.54,0,0,0,24.54,24.54h286.32a12.06,12.06,0,0,1,12.07,12.07h0a12.06,12.06,0,0,1-12.07,12.06h-64.07a17.89,17.89,0,0,0-17.89,17.89h0A17.89,17.89,0,0,0,1294.71,867h259.61a12.06,12.06,0,0,0,12.06-12.06v-8.33a12.06,12.06,0,0,1,12.07-12.06h79a12.06,12.06,0,0,0,12.07-12.07v-3.32a12.06,12.06,0,0,1,12.06-12.07h119.92a24.54,24.54,0,0,0,24.54-24.54h0A24.55,24.55,0,0,0,1801.54,758Z"/>
        <g>
          <path class="n" d="M1088.83,552.88q-11.24,8.25-22.56,16.42c6.83,3.86,10.24,5.77,17.06,9.56-7,5.11-10.48,7.65-17.46,12.69,6.82,3.86,10.23,5.77,17.06,9.55-7,5.12-10.48,7.65-17.47,12.7,6.83,3.85,10.24,5.76,17.06,9.55-7,5.11-10.48,7.65-17.46,12.69,6.82,3.86,10.23,5.77,17,9.56-7,5.11-10.47,7.65-17.46,12.69q11,6.23,22,12.31c223.07.47,443.8-52.18,667-48.91l1.92-68.35a34.83,34.83,0,0,0-35-35.45C1509.49,518.79,1300,553.32,1088.83,552.88Z"/>
          <path class="n" d="M1778.9,682.92q11.08,6.23,22.1,12.54c-6.92,2.68-10.39,4-17.31,6.77,6.84,3.86,10.26,5.81,17.1,9.72-6.92,2.68-10.38,4-17.31,6.77,6.84,3.86,10.27,5.81,17.11,9.72-6.93,2.69-10.39,4-17.31,6.77,6.84,3.86,10.26,5.81,17.1,9.73-6.92,2.68-10.39,4-17.31,6.76,6.84,3.87,10.26,5.81,17.11,9.73-9,3.46-13.42,5.21-22.37,8.76-222.68-.12-456.37,17.64-679.1,15.44.37-29.09,1.3-47.15,1.66-76.23C1323.1,711.59,1556.22,682.8,1778.9,682.92Z"/>
          <polygon class="n" points="1116.84 687.6 1321.14 630.75 1754.55 624.49 1535.36 678.83 1104.95 700.97 1116.84 687.6"/>
          <path class="ap" d="M1088.83,545.46q-11.24,8.26-22.56,16.43c6.83,3.85,10.24,5.76,17.06,9.55-7,5.11-10.48,7.65-17.46,12.69,6.82,3.86,10.23,5.77,17.06,9.56-7,5.11-10.48,7.65-17.47,12.69,6.83,3.86,10.24,5.77,17.06,9.56-7,5.11-10.48,7.65-17.46,12.69,6.82,3.86,10.23,5.77,17,9.56-7,5.11-10.47,7.65-17.46,12.69q11,6.21,22,12.31c223.07.47,444.21-38.08,667.36-34.8l1.51-82.46a34.82,34.82,0,0,0-35-35.45C1509.49,511.38,1300,545.9,1088.83,545.46Z"/>
          <path class="aq" d="M1778.9,660.77Q1790,667,1801,673.31c-6.92,2.68-10.39,4-17.31,6.77,6.84,3.86,10.26,5.81,17.1,9.72-6.92,2.68-10.38,4-17.31,6.77,6.84,3.86,10.27,5.81,17.11,9.72-6.93,2.68-10.39,4-17.31,6.77,6.84,3.86,10.26,5.81,17.1,9.73-6.92,2.68-10.39,4-17.31,6.76,6.84,3.87,10.26,5.81,17.11,9.73-9,3.46-13.42,5.21-22.37,8.76-222.68-.12-455.8,28.67-678.53,26.47q.45-35.29.88-70.59A16.78,16.78,0,0,1,1117,687.35C1334.13,688,1561.76,660.66,1778.9,660.77Z"/>
          <g>
            <path class="n" d="M1166.3,712.35v1.77c6.5-.07,9.75-.12,16.26-.23v3.26q-21.07.32-42.15.39v-3.27c6.42,0,9.63,0,16-.06v-1.77c-7.45.06-11.17.07-18.61.07v-3.9c7.44,0,11.16,0,18.61-.07V706.4l9.84-.09v2.08c7.49-.08,11.23-.13,18.72-.26v4C1177.53,712.22,1173.79,712.27,1166.3,712.35ZM1181.65,735v2.14c-8.13.13-12.2.18-20.32.26l-4.55,2.39c5,0,7.44-.06,12.41-.12l-1.5-1.43c4.43-.05,6.64-.08,11.07-.15l5.13,4.73c-4.4.08-6.61.11-11,.17l-2.25-2-1.07,2-3,0v1.66c6.49-.07,9.73-.12,16.21-.23v3.16c-6.48.11-9.72.15-16.21.22v1.61c7.47-.08,11.2-.14,18.67-.27V753q-23.48.42-47,.42v-3.79c7.38,0,11.07,0,18.45-.07V748c-6.5,0-9.75.06-16.26.07v-3.15c6.51,0,9.76,0,16.26-.07v-1.66c-6.14,0-9.21.06-15.35.07V740l5.14-2.53h-4.92v-2h-3.48v-6.84q23.6,0,47.17-.43v6.74Zm-41.18-7.92v-7.92q21-.07,42.09-.38v7.92Q1161.51,727,1140.47,727.06Zm34.92,5c-11,.16-16.56.21-27.6.25v1.82c11,0,16.56-.09,27.6-.25ZM1172.82,722c-9.11.12-13.67.17-22.78.21V724c9.11,0,13.67-.08,22.78-.2Z"/>
            <path class="n" d="M1194.43,717l-2.25-11.24,8.56-.18c.9,4.49,1.35,6.74,2.24,11.23Zm8.55,13.07.06.32-8.51.19-2.3-11.93,8.4-.18,2.25,10.91V724l3.26-.08v6Zm-2,23.05-8.66.18c.75-8.29,1.12-12.44,1.87-20.73l8.5-.19C1202,740.67,1201.64,744.81,1201,753.11Zm9.63-42.75,4.06-.11v3.58l-4.38,4.61,2.51-.07v-2.19l2.09,0v6.15l-11.93.3V718.3l3.9-3.95-3.9.1v-4.17l4.6-4.88c3.14-.07,4.72-.11,7.86-.2C1213.47,707.26,1212.5,708.29,1210.58,710.36Zm-.91,42.54-1.82-4c9-.22,13.54-.35,22.57-.63v-2.25c-10.5.33-15.76.48-26.26.73v-9.52c10-.24,15-.38,25.08-.69V734.8c-10.39.32-15.59.47-26,.71v-3.85q17.76-.42,35.51-1v9.41c-10,.34-15,.49-25,.76v2c10.31-.27,15.46-.43,25.78-.78v10Q1224.61,752.52,1209.67,752.9ZM1207.32,730v-6l3-.08v6Zm4.22-.11v-6l3-.08v6Zm3.69-19v-3.64l2.84-.07-.75-2,7.7-.22c.28.78.42,1.17.69,2l1.88,0v3.63C1222.64,710.62,1220.17,710.69,1215.23,710.82Zm.59,18.92v-8.88l11.07-.32v8.88Zm0-14.77v-2.78c4.45-.12,6.68-.18,11.13-.32v2.78C1222.55,714.79,1220.32,714.85,1215.87,715Zm0,4.39v-2.89c4.45-.12,6.68-.18,11.13-.32V719Zm6.47,4.74-2,.06v2l2-.06Zm5.73,5.28v-6l3.1-.1v6Zm7.7-19.77,4.06-.13v3.37l-4.38,4.85,2.19-.07v-2.09l2.3-.07v6c-4.73.16-7.09.24-11.82.38v-4l3.85-4.24-3.85.12v-4l4.87-5.07,7.54-.25Zm-3.42,19.64v-6l3-.09v6Zm4.17-.14v-6l3.21-.11v6Z"/>
            <path class="n" d="M1264,742.65v8.24l-7,.27v-7.32l-9.79,1.54V740.3l1.66-.28V709.86l-1.18,0v-5.08c7-.25,10.46-.39,17.44-.67v5.08l-1.18,0v28.29l1.44-.22v5Zm-7-33.1-1.66.07v6.31l1.66-.07Zm0,11.39-1.66.07v6.31l1.66-.06Zm0,11.45-1.66.06V739l1.66-.23Zm33.42,1.48.7,10.82,4.6-.21-2,5.12-10.32.47c-.18-2.2-.26-3.3-.43-5.49-1.61,2.27-2.41,3.41-4,5.68l-5.35.23,1.66-2.42-9,.37V727c5.65-.23,8.47-.35,14.12-.6v14.44l2.24-3.2c-.36-5.5-.54-8.25-.91-13.76-6.71.3-10.07.44-16.79.71v-4.92l2.3-.09c-.58-2.38-.87-3.56-1.44-5.93l6.2-.26c.51,2.38.77,3.56,1.28,5.94l.7,0,.7-6,5.66-.25-.8,6,1.77-.08c-.39-6.38-.58-9.57-1-16l8-.35c.43,6.38.64,9.56,1.07,15.94l5.67-.26v4.92l-5.24.24c.06,1.45.1,2.18.16,3.63.34-.48.51-.73.86-1.21l5.35-.25Zm-24.28-21.63v-4.92l2.68-.11c-.35-1.46-.52-2.19-.86-3.65l8.56-.36c.36,1.46.54,2.19.91,3.65l2.56-.11v4.92C1274.45,711.9,1271.68,712,1266.14,712.24Zm8.4,19.23-2.41.1v3.26l2.41-.1Zm0,8-2.41.1v3.8l2.41-.1Zm16.1-22.85c-.43-4.69-.65-7-1.07-11.72l4.33-.2c.41,4.69.61,7,1,11.72Z"/>
            <path class="n" d="M1339.09,747.38l-13.32-28q-6.49,14.68-13,29.38l-11.6.57q10.89-24.28,21.77-48.58l11.28-.59-7.43,17,9.36-.5,14.38,30.09Z"/>
            <path class="n" d="M1387.54,744.65c-.88-2.11-1.32-3.16-2.19-5.27l9.09-.54v-30.7l-4.39.26c-.66,2.27-1,3.4-1.66,5.66l-9.09.53v30.54c-8.64.5-13,.75-21.61,1.23V705l4.39-.24c.68-2.42,1-3.62,1.71-6l10-.56-1.77,6,7.33-.42v8.72c1.8-6,2.7-9,4.49-15l9.58-.56-1.77,6.15,12.41-.73v41.34Zm-17-35.12-4.38.25v12.41l4.38-.25Zm0,17.59-4.38.25v13l4.38-.25Zm13.75,7.4c-1.71-7.35-2.57-11-4.28-18.37l9.36-.54,4.33,18.35Z"/>
            <path class="n" d="M1454.81,713.05v2.19l-14,.83v7l16.16-1v5.25l-16.16,1v7.76l18.08-1.08v5.24L1412.35,743v-5.24l18-1.07V729l-16.1,1v-5.24l16.1-1v-7l-14,.84v-2.19l-5.18.3c4.15-5.78,6.22-8.68,10.37-14.47l-5.51.33v-5.4l30.43-1.82c5.44,7.37,8.15,11.06,13.59,18.44Zm-16.31-12.88-4.81.29-8.08,11.34,20.49-1.23Z"/>
            <path class="n" d="M1479.68,698.09v14.07l2.78-.16v4.92l-2.78.16v14.44l2.73-.59v5.14l-15.78,3.66v-5.14l3.48-.85V717.65l-2.95.17V712.9l2.95-.18V698.66l-3.64.21v-5.13l16.47-1v5.13Zm24,4.71.06,34.87-12.68.73c-.34-.92-.51-1.38-.86-2.31l-7.32.43,2.3-17.62,8.18-.48c-.75,6-1.12,9-1.87,14.93l2.62-.15V703.35l-11.39.66v-5.13l11.39-.66v-7.28l9.52-.54v7.27l2-.11-.7-5.9,7.22-.41.75,5.9,2-.11v5.13Zm-18.56,13.91c-.7-4.35-1.05-6.52-1.76-10.86l8.18-.48c.66,4.35,1,6.52,1.66,10.87Zm27.49-1.58-8.23.47c.66-4.42,1-6.64,1.66-11.06l8.23-.46C1513.62,708.5,1513.29,710.71,1512.62,715.13Zm-6,20c-.88-6.95-1.32-10.42-2.19-17.37l8.18-.46c.86,6.95,1.28,10.42,2.14,17.37Z"/>
            <path class="n" d="M1556.64,693.59l-4.55,12c6.29-.32,9.43-.48,15.72-.78v29.41c-10.86.53-16.3.8-27.17,1.37V718.48l-4,.21,2.08-5.19-3.58,2.06v20.32l-12,.65c-1-2.1-1.48-3.16-2.46-5.26l4.81-.27v-9.84l-4.17,2.37v-6l4.17-2.42V701.91l-4.23.23v-5.3l4.23-.23v-7.38l9.68-.52v7.38l4-.21v5.29l-4,.22v8.07l4.06-2.35v5.18l7.17-18.18-7.17.37v-5.4q15-.8,29.9-1.51V693Zm1.28,17.1-7.44.38v18.77l7.44-.37Z"/>
            <path class="n" d="M1600.11,717.63V727.9l6.1-.25c-.71,2-1.06,3-1.77,5l-13.9.59V718l-2.89.13v8.5c-.53,2.72-.8,4.08-1.34,6.8l-10.21.47,1.55-9.17V687.28q22.45-1,44.92-1.87v13.53q-17.46.66-34.92,1.42V713.3l5.62-.25V709.2l-4.12.18v-4.86l4.12-.18v-2.68l9.3-.39v2.67l5.4-.22v-2.67l9.58-.37v2.67l4.6-.17v4.87l-4.6.17v3.85l5.77-.21v4.86C1614,717.06,1609.4,717.24,1600.11,717.63Zm12.14-26.7c-9.84.39-14.76.59-24.6,1v3.42c9.84-.43,14.76-.64,24.6-1Zm.16,41.45c-4.88-5.2-7.31-7.8-12.19-13,4.7-.2,7.06-.29,11.76-.47.84.86,1.26,1.29,2.09,2.16l1.23-2.29,8.5-.32-4.38,8.24,4.92,5.22C1619.57,732.1,1617.18,732.19,1612.41,732.38ZM1608,708.59l-5.4.22v3.85l5.4-.22Z"/>
            <path class="n" d="M1676.43,730.27c-10.4.22-15.6.35-26,.65l-6.2-8.53c-1,3.52-1.48,5.27-2.46,8.79l-10.91.36,5.13-17.45,9.79-.31,2.3,3.25c6.59-8.62,9.88-12.93,16.47-21.52q-16.23.43-32.46,1l0-5.3c7-.24,10.55-.35,17.59-.55l-1.5-6.64c4.45-.14,6.68-.2,11.13-.31l1.55,6.64c6.63-.17,10-.25,16.58-.38v5.13q-11.6,15.16-23.16,30.35c9.91-.27,14.86-.39,24.76-.59Z"/>
            <path class="n" d="M1716,692.81l-1.66,4.08-9.89.09c.57-1.44.86-2.16,1.44-3.6l-9.79.12v6.42l9.9-.12v30l-8.24.1c-.9-2-1.35-3-2.24-4.94l2.67,0V705.19l-2.09,0v17.27c-.89,3-1.34,4.48-2.24,7.47l-8.67.14c1-3.7,1.58-5.55,2.62-9.24V693.63l-1.76,0v-5.13l5.29-.09-1.6-5.21c4.11-.07,6.16-.1,10.27-.15l1.71,5.21,4.71,0v3.69c1.41-3.63,2.11-5.44,3.53-9.07,4,0,5.93-.05,9.89-.07-.73,1.92-1.09,2.89-1.82,4.82,6.06,0,9.08-.05,15.14-.05v5.19C1726.3,692.75,1722.87,692.76,1716,692.81Zm8.66,36.86c-3-8.33-4.55-12.5-7.59-20.82v15.94l4.81,0c-.87,2-1.31,3-2.19,4.93l-11.71.09V698.07c5.77-.06,8.66-.08,14.44-.11l.75-2.52,9.52,0c-.77,3-1.16,4.46-1.93,7.44-5.48,0-8.21,0-13.69,0v2.36l8,0c.79,2.23,1.18,3.34,2,5.56.6-2.46.9-3.69,1.49-6.15h5.14l-2.25,9.79h-3.05c2.21,6.1,3.31,9.14,5.51,15.24Z"/>
          </g>
          <g>
            <path class="n" d="M1689.75,605.34c1.67-6.24,2.51-9.35,4.19-15.59,6.34,1.63,9.52,2.45,15.86,4.13-1.68,6.22-2.52,9.33-4.19,15.56C1699.26,607.77,1696.09,607,1689.75,605.34Zm5.1-19,11.91-44.23c6.34,1.66,9.52,2.51,15.86,4.22l-11.91,44.14C1704.37,588.81,1701.2,588,1694.85,586.35Z"/>
            <g>
              <path class="n" d="M1189.17,634q-8.13-9-16.23-18.1-7.9,9.32-15.84,18.62c-7.4.06-11.1.08-18.5.08q12.84-14.27,25.62-28.59-8.88-10.14-17.74-20.33c7,0,10.46,0,17.44-.14,3.58,4.06,5.37,6.08,8.95,10.11,4.64-5.25,7-7.89,11.6-13.17q-22.29.42-44.58.49v-7.73q12.54,0,25.09-.17c-.57-3.06-.86-4.58-1.44-7.64,6.37-.08,9.55-.12,15.92-.24l1.52,7.62q12.39-.22,24.79-.6v7.73l-4.17.12q-9.94,11.82-19.94,23.6,12.6,13.95,25.25,27.88C1199.81,633.72,1196.27,633.81,1189.17,634Z"/>
              <path class="n" d="M1260.21,617.18V583.44l-2.58.12v25.09q-12.51.6-25,1.08V625.5l-2.42,6.91c-5.49.21-8.24.31-13.73.49,1.31-3.68,2-5.52,3.26-9.21V585.11l-3.41.11c2.94-7.41,4.41-11.11,7.36-18.52q15.24-.56,30.47-1.25l6.07,17.15V569.94c3.28-.15,4.91-.23,8.19-.4v47.24Zm-16.76-44.06-9.55.39c-1.52,3.73-2.27,5.6-3.79,9.32l4-.15c-.34-2.41-.5-3.62-.84-6l9.71-.4c.55,2.4.82,3.6,1.36,6l2.28-.1C1245.36,578.55,1244.73,576.74,1243.45,573.12Zm.91,15.81c-4.7.2-7,.3-11.75.48v3.49l11.75-.48Zm0,9.93c-4.7.2-7,.3-11.75.48v3.49c4.7-.18,7.05-.28,11.75-.48Zm-9.4,33.37V612.59c9.1-.36,13.65-.56,22.75-1v19.63C1248.61,631.67,1244.06,631.87,1235,632.23Zm12.51-13.49-2.42.11v6.21l2.42-.1ZM1263.93,631l-3.57-7,10.62-.52V563.65l12.51-.65v66.94C1275.66,630.37,1271.75,630.57,1263.93,631Z"/>
              <path class="n" d="M1296.07,629.25V563.14q32.28-1.86,64.52-4.06v66.11Q1328.34,627.37,1296.07,629.25Zm51.86-16.78-2.27,4.55-11.53.75c-.54-4.12-.82-6.18-1.36-10.3l-1,1.28-9.63.6c.79-1,1.19-1.48,2-2.47-5.12.32-7.68.48-12.81.78V586.13c6.86-.41,10.28-.62,17.14-1V601.6l3.18-3.91-2.2-15.71c-7.7.49-11.55.73-19.26,1.19v-6.9c7.37-.44,11.06-.67,18.43-1.13-.28-2.11-.41-3.16-.68-5.27l10.53-.67c.31,2.1.46,3.15.76,5.25l1.59-.1-.6-4.51,4.85-.32c.18,1.81.27,2.72.46,4.52l1.21-.08v6.9l-6.67.44c.27,2.07.41,3.11.68,5.19l1.67-2,5.53-.36V567.29q-19.48,1.28-39,2.46v51.7q19.49-1.19,39-2.46Zm-37.23,6.83v-6.75c7.71-.94,11.56-1.43,19.26-2.4v6.75C1322.26,617.87,1318.41,618.35,1310.7,619.3Zm10.62-26.8-2.88.17v7.66l2.88-.18Zm26.61-3.76c-2.39,3-3.59,4.52-6,7.52.73,5.69,1.09,8.53,1.82,14.21l4.17-.27Z"/>
              <path class="n" d="M1433.76,573.47v4.4l-31.32,2.25-2.65,3.22,17-1.21V621.4l-18.13,1.29-3.18-6.9,7-.5V590.2l-9,.63c-1.51,1.84-2.27,2.76-3.79,4.59l11.45-.81L1391,607.24l11-.78-13.34,16.94-15.93,1.11c5-6.26,7.56-9.39,12.59-15.66l-11.75.82,10.54-13.09-11.53.8c5.16-6.42,7.74-9.63,12.89-16.06l-7.13.5v-4.4l-5.38.38V563l26-1.82-2-5.09,15.16-1.08,2.2,5.07,24.57-1.77v14.79Zm-9.48-7q-18.32,1.32-36.62,2.61v4.7q18.31-1.29,36.62-2.61Zm8,28.61-14.18,1,7.13-14.69,14.18-1Zm-6.06,25.54c-3-8.79-4.55-13.19-7.59-22l13.73-1c3.12,8.78,4.68,13.17,7.81,21.95Z"/>
              <path class="n" d="M1497.37,564.35l-2.65,5,10.38-.7v46.47l-15.62,1.06-2.65-5.88-2.2,4-13.27.93,3.57-6.55-12,.85V618l-11.83.84v-66l24.34-1.73v24.49l-5.08,4,5.08,3.44v10.91l6.37-11.59,11.07-.76v-5.16l-2.2.15-1.59,2.84c-5.71.4-8.56.59-14.26,1,3.28-6,4.91-9,8.19-15.06l-6.29.44v-7.12l5.83-.41-2.8-8.07,13.65-.95,2.73,8.08,3-.21c1.24-3.39,1.86-5.08,3.11-8.47l13.34-.89c-1.24,3.38-1.86,5.08-3.11,8.47l4.71-.31V563C1509.29,563.54,1505.32,563.81,1497.37,564.35ZM1465.75,559l-2.8.2v17.58l2.8-.19Zm0,24.86-2.8.2v17.89l2.8-.19Zm27.15,1.74-5.23,9.61-12.21.86v11.52c2.18-4.07,3.27-6.1,5.46-10.16l12-.83Zm0,13.57c-2.13,3.94-3.19,5.91-5.31,9.85l5.31-.37Zm22.29-12.26c-3.61.23-5.42.36-9,.6,1.39-7.22,2.09-10.83,3.48-18l8.8-.58C1517.14,576.07,1516.49,579.67,1515.19,586.89Zm-5.54,25.53c-1.3-8.95-2-13.42-3.26-22.37l9.25-.62c1.34,9,2,13.43,3.34,22.38Z"/>
              <path class="n" d="M1529.67,613.62V584.51c5.88-.38,8.82-.56,14.71-.92V605l9.78-.58V579.29c-9.28.54-13.92.83-23.2,1.42V551.6l14.55-.91V572l8.65-.52V544.94c5.91-.35,8.87-.52,14.78-.85v26.54l8.72-.48v-21.3c5.7-.31,8.55-.46,14.26-.74v29.11c-9.19.46-13.79.7-23,1.22v25.17l9.86-.54V581.61c5.85-.31,8.78-.46,14.63-.75V610Q1561.54,611.59,1529.67,613.62Z"/>
              <path class="n" d="M1627.63,549.61l-3.42,10.07c6.71-.27,10.06-.39,16.76-.63v30.18q-8.88,9.67-17.74,19.39c-7.4.3-11.1.46-18.5.81,5.49-6,8.23-9,13.72-14.94-4.82-6.38-7.23-9.56-12-15.92,6.06-.28,9.09-.41,15.16-.66,2.18,2.94,3.28,4.41,5.46,7.36l.38-.7V566.76l-5.69.23-3.18,8.7c-5.55.23-8.33.35-13.88.61q4.51-13,9-26.11l-7.88.36v-7.36q18.07-.8,36.17-1.46v7.36C1636.22,549.28,1633.36,549.39,1627.63,549.61Zm19.63,58.13c-1.42-3-2.14-4.43-3.56-7.39,5.91-.19,8.87-.29,14.78-.45V540.53c5.43-.15,8.15-.22,13.58-.34v66.87Q1659.66,607.33,1647.26,607.74Zm-3.56-13.68V546.53c4.7-.16,7-.24,11.75-.37v47.53C1650.75,593.83,1648.4,593.9,1643.7,594.06Z"/>
            </g>
          </g>
        </g>
      </g>
      <path class="ao" d="M1173.51,465.17h-282a9.49,9.49,0,0,0-9.49,9.5h0a9.49,9.49,0,0,0,9.49,9.49h110.75a4.67,4.67,0,0,1,4.67,4.67h0a4.67,4.67,0,0,1-4.67,4.66H977.46a6.92,6.92,0,0,0-6.92,6.92h0a6.92,6.92,0,0,0,6.92,6.92h100.42a4.67,4.67,0,0,0,4.67-4.66v-3.22a4.66,4.66,0,0,1,4.66-4.67h30.58a4.66,4.66,0,0,0,4.66-4.67v-1.28a4.67,4.67,0,0,1,4.67-4.67h46.39a9.49,9.49,0,0,0,9.49-9.49h0A9.49,9.49,0,0,0,1173.51,465.17Z"/>
      <rect class="ar" width="1924" height="1083"/>
    </g>
  </g>
</svg>
