<svg xmlns="http://www.w3.org/2000/svg" xmlns:xlink="http://www.w3.org/1999/xlink" viewBox="0 0 322 271">
  <defs>
    <linearGradient id="a" data-name="未命名漸層 49" x1="187" y1="65.02" x2="230.83" y2="65.02" gradientUnits="userSpaceOnUse">
      <stop offset="0" stop-color="#96d3e9"/>
      <stop offset="0.99" stop-color="#c2e4ed"/>
    </linearGradient>
    <linearGradient id="b" x1="146.22" y1="142.93" x2="212.57" y2="142.93" xlink:href="#a"/>
  </defs>
  
  <g>
    <g>
      <path d="M194.92,93.74a6.42,6.42,0,0,1-1.51-.17,6.54,6.54,0,0,1-4.16-3.13l-7.91-14a6.54,6.54,0,0,1-.84-3.2v-6.7a6.5,6.5,0,0,1,6.18-6.5l6-.3V42.8a6.5,6.5,0,0,1,4-6,6.36,6.36,0,0,1,2.49-.5,6.5,6.5,0,0,1,4.6,1.91L211.61,46h13.13a6.52,6.52,0,0,1,5.93,3.82l6.08,13.39a6.5,6.5,0,0,1-5.92,9.2H219.08v3.84a6.52,6.52,0,0,1-6.51,6.51h-3.85a6.51,6.51,0,0,1-2.89,5l-7.3,4.87A6.51,6.51,0,0,1,194.92,93.74Z" fill="#dff0fa"/>
      <polygon points="199.18 65.93 199.18 42.8 208.92 52.54 224.74 52.54 230.83 65.93 212.57 65.93 212.57 76.28 199.18 76.28 202.22 82.37 194.92 87.24 187 73.24 187 66.54 199.18 65.93" fill="url(#a)"/>
      <path d="M151.09,202.7a6.51,6.51,0,0,1-5.26-2.68l-4.87-6.7a6.5,6.5,0,0,1,.06-7.73l2.93-3.91-3.4-6a6.51,6.51,0,0,1,.17-6.67l18.87-29.82a6.5,6.5,0,0,1,5.5-3h10.54V133.5a6.5,6.5,0,0,1,6.5-6.51h6.56l4.59-3.06V104.08l-4.11-7.7A6.52,6.52,0,0,1,192,87.5l7.3-3.65a6.45,6.45,0,0,1,2.91-.69,6.52,6.52,0,0,1,5.71,3.38l10.34,18.87a6.49,6.49,0,0,1,.81,3.13v48.09a6.51,6.51,0,0,1-6.51,6.5h-3.65a6.42,6.42,0,0,1-2.74-.6,6.46,6.46,0,0,1-2.74.6h-6a6.51,6.51,0,0,1-2,7l-7.3,6.08a6.52,6.52,0,0,1-4.17,1.51,6.5,6.5,0,0,1-6.44-5.54l-.74-4.95-7.6,2.05,1.66,3.15a6.49,6.49,0,0,1-.36,6.69l-14,20.7a6.54,6.54,0,0,1-5.28,2.86Z" fill="#dff0fa"/>
      <polygon points="199.79 127.41 199.79 102.45 194.92 93.32 202.22 89.67 212.57 108.54 212.57 156.63 208.92 156.63 208.92 147.5 203.44 147.5 203.44 156.63 187 156.63 191.26 165.15 183.96 171.23 182.13 159.06 159.61 165.15 165.09 175.5 151.09 196.19 146.22 189.5 151.7 182.19 146.22 172.45 165.09 142.63 182.13 142.63 182.13 133.5 190.66 133.5 199.79 127.41" fill="url(#b)"/>
    </g>
    <g>
      <rect x="69.67" y="229.27" width="163.29" height="5.44" rx="2.24" ry="2.24" fill="#7cbce8"/>
      <rect x="241.26" y="229.27" width="15.68" height="5.44" rx="2.24" ry="2.24" fill="#7cbce8"/>
      <polygon points="74.5 230.22 226.35 230.22 231.48 222.35 70.39 222.35 74.5 230.22" fill="#6186b6"/>
      <polygon points="164.13 115.94 127.32 115.94 127.32 141.96 127.32 145.65 127.3 145.65 127.3 149.44 127.32 149.44 127.32 153.14 127.3 153.14 127.3 156.93 127.32 156.93 127.32 160.63 127.3 160.63 127.3 164.42 127.32 164.42 205.81 164.42 205.81 160.63 205.81 156.93 205.81 153.14 205.81 149.44 205.81 145.65 205.81 142.06 205.81 138.27 205.81 134.67 205.81 130.88 205.81 127.27 205.81 123.48 205.81 119.73 205.81 115.94 164.13 115.94" fill="#fff"/>
      <g>
        <g>
          <rect x="92.59" y="201.89" width="9.44" height="5.51" fill="#f5d376"/>
          <rect x="92.59" y="207.4" width="9.44" height="5.51" fill="#7dc8c5"/>
          <rect x="102.03" y="201.89" width="9.44" height="5.51" fill="#7dc8c5"/>
          <rect x="102.03" y="196.39" width="9.44" height="5.51" fill="#6186b6"/>
          <rect x="102.03" y="207.4" width="9.44" height="5.51" fill="#f5d376"/>
          <rect x="111.48" y="201.89" width="9.44" height="5.51" fill="#6186b6"/>
          <rect x="111.48" y="207.4" width="9.44" height="5.51" fill="#7dc8c5"/>
          <rect x="120.92" y="201.89" width="9.44" height="5.51" fill="#7dc8c5"/>
          <rect x="120.92" y="196.39" width="9.44" height="5.51" fill="#6186b6"/>
          <rect x="120.92" y="207.4" width="9.44" height="5.51" fill="#f5d376"/>
          <rect x="130.36" y="201.89" width="9.44" height="5.51" fill="#6186b6"/>
          <rect x="130.36" y="207.4" width="9.44" height="5.51" fill="#7dc8c5"/>
          <rect x="158.68" y="201.89" width="9.44" height="5.51" fill="#6186b6"/>
          <rect x="158.68" y="207.4" width="9.44" height="5.51" fill="#7dc8c5"/>
          <rect x="139.8" y="201.89" width="9.44" height="5.51" fill="#f5d376"/>
          <rect x="139.8" y="196.39" width="9.44" height="5.51" fill="#7dc8c5"/>
          <rect x="139.8" y="207.4" width="9.44" height="5.51" fill="#6186b6"/>
          <rect x="149.24" y="201.89" width="9.44" height="5.51" fill="#7dc8c5"/>
          <rect x="149.24" y="196.39" width="9.44" height="5.51" fill="#6186b6"/>
          <rect x="149.24" y="207.4" width="9.44" height="5.51" fill="#f5d376"/>
        </g>
        <rect x="175.99" y="195.21" width="27.15" height="16.52" fill="#fff"/>
        <rect x="175.99" y="189.7" width="27.15" height="5.51" fill="#6186b6"/>
        <rect x="207.86" y="198.35" width="11.8" height="3.15" fill="#6186b6"/>
        <rect x="207.86" y="201.5" width="11.8" height="10.23" fill="#fff"/>
        <circle cx="216.78" cy="190.11" r="3.96" fill="#fff"/>
        <circle cx="236.92" cy="156.55" r="11.87" fill="#fff"/>
        <circle cx="241.39" cy="173.33" r="11.87" fill="#fff"/>
        <circle cx="230.2" cy="176.69" r="11.87" fill="#fff"/>
        <polygon points="238.15 212.12 65.05 212.12 68.75 219.2 233.53 219.2 238.15 212.12" fill="#6186b6"/>
        <polygon points="68.75 219.2 70.39 222.35 231.48 222.35 233.53 219.2 68.75 219.2" fill="#1b507b"/>
        <rect x="193.29" y="198.75" width="1.85" height="5.54" fill="#6186b6"/>
        <rect x="197.9" y="198.75" width="1.85" height="5.54" fill="#6186b6"/>
      </g>
      <g>
        <path d="M137.21,130.1l-3.76-2.73v0h4.38c.33,0,.27,0,.36-.26.44-1.34.88-2.69,1.31-4a.4.4,0,0,1,.09-.15l.06.19,1.32,4.05c.07.2,0,.2.27.2h4.26a.68.68,0,0,1,.2,0c-.2.18-.41.32-.61.47l-.63.46-.63.45-.62.46-.63.46-.64.46c.47,1.48,1,3,1.42,4.45-.43-.28-.84-.59-1.26-.89l-1.26-.91-1.27-.93-3.78,2.75,0,0Z" fill="#fff"/>
        <path d="M155.65,135.23l-1.2-.81-1.13.88,0,0a.83.83,0,0,1,0-.15l.3-1.06c.05-.18.05-.18-.09-.27l-.93-.63-.15-.12h.15l1.17,0c.16,0,.16,0,.21-.17l.31-1.09c0-.05,0-.1.06-.17l.07.17.38,1.05c.06.17.07.17.26.16l1.2,0h.07l-.11.1-.92.72c-.12.09-.12.1-.07.24l.39,1.08a.74.74,0,0,1,0,.14Z" fill="#fff"/>
        <path d="M148.56,136.53l.18.07,1.07.4c.14.06.14.06.23-.06l.72-.88.13-.15c0,.23,0,.43,0,.63s0,.48,0,.72,0,.13.12.18l1.06.41.18.08-.11,0-1.13.3c-.18.05-.18.05-.19.24l-.06,1.15a1,1,0,0,1,0,.12l-.08-.11c-.22-.33-.43-.66-.64-1-.08-.12-.08-.12-.23-.08l-1.08.28a.36.36,0,0,1-.18,0,.71.71,0,0,1,.1-.14l.7-.86c.1-.13.1-.13,0-.27l-.61-.94Z" fill="#fff"/>
        <path d="M152.19,123.2l-.24.06-1,.23c-.17,0-.17,0-.19.2,0,.38-.07.75-.11,1.12a1.49,1.49,0,0,1,0,.17l-.08-.1-.6-1c-.08-.12-.08-.12-.22-.09l-1.2.26-.1,0,.1-.12.76-.87c.11-.12.11-.12,0-.27-.19-.31-.37-.63-.55-.94l-.11-.19.19.07,1,.46c.13,0,.13,0,.23,0l.77-.87a1,1,0,0,0,.08-.11l0,0c0,.17,0,.34,0,.5s-.06.52-.08.78,0,.16.12.22l1,.46Z" fill="#fff"/>
        <path d="M155.2,127.15l1,1v0H156l-1.11-.19c-.15,0-.15,0-.23.12l-.51,1a.72.72,0,0,1-.11.15c0-.08,0-.16,0-.24l-.15-1c0-.15,0-.15-.18-.17l-1.17-.2-.13,0,.16-.09,1-.49c.18-.09.17-.09.15-.28-.06-.38-.12-.77-.17-1.15,0,0,0,0,0-.12l1,1,1.32-.64a2.25,2.25,0,0,1-.21.44c-.07.15-.15.29-.23.43Z" fill="#fff"/>
      </g>
      <rect x="124.21" y="115.94" width="3.44" height="82" fill="#6186b6"/>
    </g>
    <circle cx="166.37" cy="139.44" r="14.85" fill="#ec7163"/>
  </g>
</svg>
