<svg xmlns="http://www.w3.org/2000/svg" xmlns:xlink="http://www.w3.org/1999/xlink" viewBox="0 0 562.85 793.02" width="562.85" height="793.02">
  <defs>
    <linearGradient id="a" data-name="未命名漸層 97" x1="356.06" y1="58.8" x2="-86.55" y2="70.85" gradientUnits="userSpaceOnUse">
      <stop offset="0" stop-color="#efd380"/>
      <stop offset="0.98" stop-color="#fff193"/>
    </linearGradient>
  </defs>

  <g style="isolation: isolate">
    <g>
      <g>
        <polygon points="271.88 86.11 179.74 103.33 85.88 103.33 85.88 83.53 176.29 74.06 271.88 86.11" fill="#1b507b"/>
        <path d="M96.58,114.53H282.21L275,105.14a13.38,13.38,0,0,0-10.63-5.25H85.88v3.93A10.71,10.71,0,0,0,96.58,114.53Z" fill="#6186b6"/>
        <path d="M76.49,42.15q-5,3.66-10,7.26c3,1.71,4.52,2.55,7.53,4.23C71,55.89,69.43,57,66.35,59.24c3,1.71,4.52,2.55,7.54,4.23-3.09,2.26-4.63,3.38-7.72,5.61,3,1.7,4.52,2.55,7.54,4.22-3.09,2.26-4.63,3.38-7.72,5.61,3,1.7,4.52,2.55,7.54,4.22-3.09,2.26-4.63,3.38-7.72,5.61q4.86,2.74,9.74,5.44c98.58.21,97.29-9.94,195.91-8.49l.66-36.44a15.4,15.4,0,0,0-15.45-15.67C163.38,34,169.83,42.35,76.49,42.15Z" fill="url(#a)"/>
        <text transform="translate(141.15 73.84)" font-size="26.24" fill="#1b507b"  letter-spacing="0.1em">日本</text>
      </g>
      <text transform="translate(306.32 64.06)" font-size="25" fill="#1b507b"  letter-spacing="0.1em">內需市場強大<tspan x="0" y="38">友好交流夥伴</tspan></text>
      <g>
        <rect x="81.78" y="413.04" width="389.31" height="37.68" fill="#f0e1ba"/>
        <circle cx="260.1" cy="256.5" r="98.97" fill="#ec7163"/>
        <path d="M291.34,239.28a9.32,9.32,0,0,0-7.72-4.1H240.19a9.34,9.34,0,0,0-7.72,4.1L114,414.07H409.83Z" fill="#6ec7e6"/>
        <path d="M208.88,274.08h8.79a13.55,13.55,0,0,0,11.63-6.59l9-15a2.9,2.9,0,0,1,2.49-1.42h0a2.91,2.91,0,0,1,2.68,4l-2.68,6.36a4.28,4.28,0,0,0,4,5.94h0a4.29,4.29,0,0,0,4-2.83l6-16.58a3.15,3.15,0,0,1,3-2.09h0a3.16,3.16,0,0,1,3.11,3.74l-.93,4.93a4.3,4.3,0,0,0,4.23,5.09H270a6.31,6.31,0,0,1,5.93,4.16L277,266.8a3.6,3.6,0,0,0,3.37,2.36h0a3.58,3.58,0,0,0,3.33-4.88l-2.55-6.56a3,3,0,0,1,2.77-4.05h0a3,3,0,0,1,2.54,1.45l8.16,13.58A13.31,13.31,0,0,0,306,275.18h9L290.92,239a9.39,9.39,0,0,0-7.82-4.2H239.87A9.4,9.4,0,0,0,232,239Z" fill="#fffaf7"/>
        <path d="M191.16,401.11l43.53-27.6a77.87,77.87,0,0,1,85.46,1.35L343.94,391l30.24-40,31.22,63.87H197.23Z" fill="#1b507b"/>
        <rect x="82.49" y="323.41" width="71.26" height="89.67" fill="#1b507b"/>
        <g>
          <rect x="264.85" y="363.43" width="48.07" height="5.58" fill="#ea633a"/>
          <rect x="264.85" y="375.7" width="48.07" height="6.14" fill="#ea633a"/>
          <rect x="272.96" y="366.77" width="7.02" height="46.87" fill="#ea633a"/>
          <rect x="298.34" y="366.77" width="7.02" height="46.87" fill="#ea633a"/>
          <polygon points="290.78 357.85 287 357.85 262.33 357.85 264.85 363.43 287 363.43 290.78 363.43 312.93 363.43 317.13 357.85 290.78 357.85" fill="#131d3c"/>
        </g>
        <path d="M254.33,389.51a6.06,6.06,0,1,0-8.68,0,7.57,7.57,0,1,0,8.68,0Z" fill="#ec798b"/>
        <path d="M235.72,394.37a4.86,4.86,0,1,0-7,0,6.07,6.07,0,1,0,7,0Z" fill="#ec798b"/>
        <path d="M471.44,413.67H81.9V426a12,12,0,0,0,12,12h1.58a12,12,0,0,0,12-12v-.17H133V426a12,12,0,0,0,12,12h2.85a12,12,0,0,0,12-12v-.17h25.62V426a12,12,0,0,0,12,12h2.85a12,12,0,0,0,12-12v-.17h25.62V426a12,12,0,0,0,12,12h2.85a12,12,0,0,0,12-12v-.17h25.62V426a12,12,0,0,0,12,12h2.86a12,12,0,0,0,12-12v-.17h25.63V426a12,12,0,0,0,12,12h2.86a12,12,0,0,0,12-12v-.17H395.1V426a12,12,0,0,0,12,12h2.86a12,12,0,0,0,12-12v-.17h25.63V426a12,12,0,0,0,12,12h0a12,12,0,0,0,12-12Z" fill="#40b7a6"/>
        <rect x="248.27" y="395.22" width="3.77" height="18.85" fill="#131d3c"/>
        <rect x="230.87" y="398.96" width="3.02" height="15.12" fill="#131d3c"/>
        <g>
          <polygon points="365.84 366.64 323.93 366.64 323.93 387.22 365.84 387.22 407.75 387.22 407.75 366.64 365.84 366.64" fill="#fffaf7"/>
          <polygon points="407.75 387.22 365.84 387.22 323.93 387.22 317.84 414.6 365.84 414.6 413.85 414.6 407.75 387.22" fill="#f0e1ba"/>
          <polygon points="406.23 348.36 396.32 348.36 365.84 348.36 335.36 348.36 325.46 348.36 312.5 366.64 365.84 366.64 419.18 366.64 406.23 348.36" fill="#1b507b"/>
          <polygon points="365.08 318.64 346.03 318.64 346.03 328.54 365.08 328.54 384.13 328.54 384.13 318.64 365.08 318.64" fill="#fffaf7"/>
          <polygon points="365.84 341.5 330.79 341.5 330.79 359.79 365.84 359.79 400.89 359.79 400.89 341.5 365.84 341.5" fill="#fffaf7"/>
          <rect x="351.37" y="321.69" width="3.81" height="3.81" fill="#4ebce1"/>
          <rect x="374.99" y="321.69" width="3.81" height="3.81" transform="translate(753.78 647.18) rotate(-180)" fill="#4ebce1"/>
          <rect x="346.03" y="298.83" width="3.05" height="6.86" fill="#1b507b"/>
          <polygon points="384.89 305.68 365.08 305.68 345.27 305.68 340.7 318.51 365.08 318.51 389.46 318.51 384.89 305.68" fill="#1b507b"/>
          <rect x="381.08" y="298.83" width="3.05" height="6.86" transform="translate(765.21 604.51) rotate(-180)" fill="#1b507b"/>
          <rect x="337.65" y="346.07" width="3.05" height="9.14" fill="#4ebce1"/>
          <rect x="348.32" y="346.07" width="3.05" height="9.14" fill="#4ebce1"/>
          <rect x="358.99" y="346.07" width="3.05" height="9.14" fill="#4ebce1"/>
          <rect x="337.65" y="370.45" width="3.05" height="9.14" fill="#4ebce1"/>
          <rect x="348.32" y="370.45" width="3.05" height="9.14" fill="#4ebce1"/>
          <rect x="358.99" y="370.45" width="3.05" height="9.14" fill="#4ebce1"/>
          <polygon points="397.08 328.54 385.65 328.54 365.84 328.54 346.03 328.54 334.6 328.54 323.17 341.5 365.84 341.5 408.51 341.5 397.08 328.54" fill="#1b507b"/>
          <rect x="390.99" y="346.07" width="3.05" height="9.14" transform="translate(785.03 701.28) rotate(-180)" fill="#4ebce1"/>
          <rect x="380.32" y="346.07" width="3.05" height="9.14" transform="translate(763.69 701.28) rotate(-180)" fill="#4ebce1"/>
          <rect x="369.65" y="346.07" width="3.05" height="9.14" transform="translate(742.35 701.28) rotate(-180)" fill="#4ebce1"/>
          <rect x="390.99" y="370.45" width="3.05" height="9.14" transform="translate(785.03 750.05) rotate(-180)" fill="#4ebce1"/>
          <rect x="380.32" y="370.45" width="3.05" height="9.14" transform="translate(763.69 750.05) rotate(-180)" fill="#4ebce1"/>
          <rect x="369.65" y="370.45" width="3.05" height="9.14" transform="translate(742.35 750.05) rotate(-180)" fill="#4ebce1"/>
          <polygon points="365.84 321.69 352.13 336.16 378.8 336.16 365.84 321.69" fill="#1b507b"/>
          <polygon points="365.84 327.02 360.51 333.12 371.18 333.12 365.84 327.02" fill="#fffaf7"/>
        </g>
        <g>
          <rect x="431.08" y="266.57" width="14.51" height="85.31" fill="#fffaf7"/>
          <polygon points="438.62 351.89 418.89 351.89 422.95 369.3 438.62 369.3 454.29 369.3 458.36 351.89 438.62 351.89" fill="#ea633a"/>
          <path d="M451.38,382.73V369.3H425.87v13.43L407,414.28h11.23l10.26-19a11.69,11.69,0,0,1,10.14-6.5h0a11.71,11.71,0,0,1,10.15,6.5l10.26,19h11.22Z" fill="#ea633a"/>
          <rect x="433.98" y="257.87" width="8.71" height="8.71" fill="#ea633a"/>
          <rect x="437.46" y="224.21" width="2.32" height="33.66" fill="#ea633a"/>
          <line x1="425.87" y1="377.13" x2="451.38" y2="377.13" fill="none" stroke="#fffaf7" stroke-miterlimit="10" stroke-width="1.19"/>
          <line x1="425.87" y1="382.36" x2="451.38" y2="382.36" fill="none" stroke="#fffaf7" stroke-miterlimit="10" stroke-width="1.19"/>
          <g>
            <rect x="427.02" y="355.95" width="2.9" height="2.9" fill="#d95534"/>
            <rect x="427.02" y="361.17" width="2.9" height="2.9" fill="#d95534"/>
          </g>
          <g>
            <rect x="432.24" y="355.95" width="2.9" height="2.9" fill="#d95534"/>
            <rect x="432.24" y="361.17" width="2.9" height="2.9" fill="#d95534"/>
          </g>
          <g>
            <rect x="437.46" y="355.95" width="2.9" height="2.9" fill="#d95534"/>
            <rect x="437.46" y="361.17" width="2.9" height="2.9" fill="#d95534"/>
          </g>
          <g>
            <rect x="442.69" y="355.95" width="2.9" height="2.9" fill="#d95534"/>
            <rect x="442.69" y="361.17" width="2.9" height="2.9" fill="#d95534"/>
          </g>
          <g>
            <rect x="447.91" y="355.95" width="2.9" height="2.9" fill="#d95534"/>
            <rect x="447.91" y="361.17" width="2.9" height="2.9" fill="#d95534"/>
          </g>
          <rect x="431.06" y="280.06" width="14.25" height="20.19" fill="#ea633a"/>
          <rect x="431.06" y="315.09" width="14.25" height="20.19" fill="#ea633a"/>
          <rect x="426.31" y="369.72" width="24.94" height="2.38" fill="#d95534"/>
          <rect x="431.06" y="286.59" width="14.25" height="4.75" fill="#d95534"/>
          <rect x="431.06" y="323.41" width="14.25" height="4.75" fill="#d95534"/>
        </g>
        <line x1="323.17" y1="395.22" x2="409.05" y2="395.22" fill="none" stroke="#f0e1ba" stroke-miterlimit="10" stroke-width="1.19" style="mix-blend-mode: multiply"/>
        <line x1="320.61" y1="402.35" x2="410.87" y2="402.35" fill="none" stroke="#f0e1ba" stroke-miterlimit="10" stroke-width="1.19" style="mix-blend-mode: multiply"/>
        <g>
          <rect x="142.29" y="336.24" width="53.32" height="77.4" fill="#7ec9f0"/>
          <rect x="150.38" y="347.42" width="3.61" height="6.02" fill="#4990b3"/>
          <rect x="150.38" y="358.6" width="3.61" height="6.02" fill="#4990b3"/>
          <rect x="150.38" y="369.78" width="3.61" height="6.02" fill="#4990b3"/>
          <rect x="150.38" y="380.96" width="3.61" height="6.02" fill="#4990b3"/>
          <rect x="159.84" y="347.42" width="3.61" height="6.02" fill="#4990b3"/>
          <rect x="159.84" y="358.6" width="3.61" height="6.02" fill="#4990b3"/>
          <rect x="159.84" y="369.78" width="3.61" height="6.02" fill="#4990b3"/>
          <rect x="159.84" y="380.96" width="3.61" height="6.02" fill="#4990b3"/>
          <rect x="169.3" y="347.42" width="3.61" height="6.02" fill="#4990b3"/>
          <rect x="169.3" y="358.6" width="3.61" height="6.02" fill="#4990b3"/>
          <rect x="169.3" y="369.78" width="3.61" height="6.02" fill="#4990b3"/>
          <rect x="169.3" y="380.96" width="3.61" height="6.02" fill="#4990b3"/>
        </g>
        <line x1="113.85" y1="360.82" x2="131.18" y2="360.82" fill="none" stroke="#1b507b" stroke-miterlimit="10" stroke-width="1.19"/>
        <line x1="113.57" y1="366.6" x2="131.48" y2="366.6" fill="none" stroke="#1b507b" stroke-miterlimit="10" stroke-width="1.19"/>
        <path d="M217,400.82l-1.43,1a1.22,1.22,0,0,0-.11,1.93l1,.86a1.22,1.22,0,0,0,2-.65l.43-1.81A1.21,1.21,0,0,0,217,400.82Z" fill="#ec798b"/>
        <path d="M218.65,407.38l.08,1.25a.88.88,0,0,0,1.16.78l.9-.31a.88.88,0,0,0,.32-1.47l-1-.94A.88.88,0,0,0,218.65,407.38Z" fill="#ec798b"/>
        <path d="M221.68,402.84l.08,1.24a.88.88,0,0,0,1.16.78l.9-.31a.88.88,0,0,0,.32-1.47l-1-.94A.88.88,0,0,0,221.68,402.84Z" fill="#ec798b"/>
        <path d="M259.77,386.56l-1.42,1a1.21,1.21,0,0,0-.11,1.93l1,.85a1.22,1.22,0,0,0,2-.64l.43-1.82A1.22,1.22,0,0,0,259.77,386.56Z" fill="#ec798b"/>
        <path d="M261.4,393.13l.08,1.24a.88.88,0,0,0,1.16.78l.9-.3a.88.88,0,0,0,.33-1.47l-1-.94A.88.88,0,0,0,261.4,393.13Z" fill="#ec798b"/>
        <path d="M264.43,388.58l.08,1.25a.89.89,0,0,0,1.17.78l.89-.31a.88.88,0,0,0,.33-1.47l-1-.94A.89.89,0,0,0,264.43,388.58Z" fill="#ec798b"/>
        <polygon points="81.9 413.99 81.9 401.54 102.31 401.54 102.31 393.48 193.54 393.48 193.54 414.52 81.9 413.99" fill="#4990b3"/>
        <g>
          <polygon points="129.39 323.34 122.51 323.34 115.63 323.34 111.33 413.64 122.51 413.64 133.69 413.64 129.39 323.34" fill="#7ec9f0"/>
          <rect x="115.63" y="285.5" width="13.76" height="30.1" fill="#7ec9f0"/>
          <rect x="120.79" y="242.49" width="3.44" height="36.98" fill="#1b507b"/>
          <polygon points="122.51 311.73 108 311.73 112.35 323.34 122.51 323.34 132.67 323.34 137.03 311.73 122.51 311.73" fill="#4ebce1"/>
          <polygon points="122.51 276.46 111.22 276.46 114.61 285.5 122.51 285.5 130.41 285.5 133.8 276.46 122.51 276.46" fill="#4ebce1"/>
        </g>
        <g>
          <line x1="115.63" y1="296.44" x2="129.39" y2="296.44" fill="none" stroke="#1b507b" stroke-miterlimit="10" stroke-width="1.19"/>
          <line x1="115.63" y1="302.38" x2="129.39" y2="302.38" fill="none" stroke="#1b507b" stroke-miterlimit="10" stroke-width="1.19"/>
        </g>
        <line x1="114.95" y1="337.65" x2="129.39" y2="337.65" fill="none" stroke="#1b507b" stroke-miterlimit="10" stroke-width="1.19"/>
        <line x1="114.67" y1="343.6" x2="130.33" y2="343.6" fill="none" stroke="#1b507b" stroke-miterlimit="10" stroke-width="1.19"/>
        <g>
          <polygon points="218.65 340.13 241.55 340.13 232.73 369.36 223.62 369.36 218.65 340.13" fill="#c1e1f6"/>
          <polygon points="213.25 320.39 225.47 326.29 225.47 329.41 213.02 324.74 213.25 320.39" fill="#ec7163"/>
          <path d="M213,319.55l12.74,42.3v51.82h-7.27V366.52l-12.74-27.25h-4.67v74.4h-5.71l-7.48-69.37a34.21,34.21,0,0,1,4.67-20l2.81-4.74Z" fill="#131d3c"/>
          <path d="M208.87,277.52l2.59,6.23h-2.59v2.33a2.08,2.08,0,0,1-2.08,2.08h0l-.52,8.56h-5.71l1-20.24Z" fill="#fff"/>
          <path d="M200.56,296.72h-13a4.41,4.41,0,0,0-4.14,2.88l-7.48,20.2a4.62,4.62,0,0,0,3.3,6.11L199,330.45l1.55-3.64-18.68-5.7,5.71-15.57,7.78,14H213l3.2-17.63a4.41,4.41,0,0,0-4.34-5.2Z" fill="#ec7163"/>
          <polygon points="200.56 326.81 203.16 330.44 203.16 335.12 200.04 335.12 200.04 332.52 199.01 330.44 200.56 326.81" fill="#fff"/>
          <polygon points="225.47 326.29 228.58 328.37 228.58 334.6 226.51 334.6 225.47 329.41 225.47 326.29" fill="#fff"/>
          <path d="M223.09,340.13v-2.9a5,5,0,0,1,5-5h0a5,5,0,0,1,5,5v2.9" fill="none" stroke="#131d3c" stroke-miterlimit="10" stroke-width="0.52"/>
          <circle cx="200.04" cy="277" r="5.87" fill="#131d3c"/>
          <path d="M200.3,275.19H208a3.16,3.16,0,0,1,3.16,3.16v1a0,0,0,0,1,0,0H200.3a0,0,0,0,1,0,0v-4.15A0,0,0,0,1,200.3,275.19Z" fill="#131d3c"/>
        </g>
        <path d="M81.78,546.78H471.09a0,0,0,0,1,0,0v65.9a24.78,24.78,0,0,1-24.78,24.78H106.56a24.78,24.78,0,0,1-24.78-24.78v-65.9A0,0,0,0,1,81.78,546.78Z" fill="#1b507b"/>
        <line x1="274.41" y1="548.8" x2="274.41" y2="595.61" fill="none" stroke="#e7f0f2" stroke-miterlimit="10" stroke-width="0.98"/>
        <text transform="translate(291.46 580.11) scale(0.83 1)" font-size="25.81" fill="#fff"  font-weight="700">2014</text>
        <text transform="translate(100.78 580.11) scale(0.83 1)" font-size="25.81" fill="#fff"  font-weight="700">2013</text>
        <path d="M81.78,644.74H471.09a0,0,0,0,1,0,0v65.9a24.78,24.78,0,0,1-24.78,24.78H106.56a24.78,24.78,0,0,1-24.78-24.78v-65.9A0,0,0,0,1,81.78,644.74Z" fill="#1b507b"/>
        <line x1="274.41" y1="646.76" x2="274.41" y2="693.56" fill="none" stroke="#e7f0f2" stroke-miterlimit="10" stroke-width="0.98"/>
        <text transform="translate(291.46 678.07) scale(0.83 1)" font-size="25.81" fill="#fff"  font-weight="700">2017</text>
        <text transform="translate(100.78 678.07) scale(0.83 1)" font-size="25.81" fill="#fff"  font-weight="700">2016</text>
        <rect x="81.78" y="591.8" width="389.31" height="53.26" fill="#6186b6"/>
        <text transform="translate(122.81 627.07)" font-size="25.66" fill="#e7f0f4"  letter-spacing="0.1em">東京國際家居生活設計展</text>
        <path d="M81.78,451.34H471.09a0,0,0,0,1,0,0v65.9A24.78,24.78,0,0,1,446.31,542H106.56a24.78,24.78,0,0,1-24.78-24.78v-65.9A0,0,0,0,1,81.78,451.34Z" fill="#1b507b"/>
        <text transform="translate(100.78 484.67) scale(0.83 1)" font-size="25.81" fill="#fff"  font-weight="700">2012</text>
        <rect x="81.78" y="496.36" width="389.31" height="53.26" fill="#6186b6"/>
        <text transform="translate(150.44 531.63)" font-size="25.66" fill="#e7f0f4"  letter-spacing="0.1em">東京國際禮品採購展</text>
        <path d="M81.78,690.58H471.09a0,0,0,0,1,0,0v32.93a23.28,23.28,0,0,1-23.28,23.28H105.06a23.28,23.28,0,0,1-23.28-23.28V690.58a0,0,0,0,1,0,0Z" fill="#6186b6"/>
        <text transform="translate(200.68 728.79)" font-size="25.66" fill="#e7f0f4"  letter-spacing="0.1em">東京禮品展</text>
      </g>
    </g>
  </g>
</svg>
