<svg xmlns="http://www.w3.org/2000/svg" xmlns:xlink="http://www.w3.org/1999/xlink" viewBox="0 0 1920 950" width="1920" height="950">
  <defs>
    <linearGradient id="a" data-name="未命名漸層 49" x1="1309.15" y1="476.32" x2="1339.68" y2="508.96" gradientUnits="userSpaceOnUse">
      <stop offset="0" stop-color="#96d3e9"/>
      <stop offset="0.99" stop-color="#c2e4ed"/>
    </linearGradient>
    <linearGradient id="b" x1="1497.71" y1="523.96" x2="1520.62" y2="611.03" xlink:href="#a"/>
    <linearGradient id="c" x1="1673.96" y1="714.31" x2="1573.15" y2="761.66" xlink:href="#a"/>
    <linearGradient id="d" x1="974.56" y1="658.75" x2="974.56" y2="680.61" xlink:href="#a"/>
    <linearGradient id="e" x1="931" y1="712.5" x2="931" y2="764.47" xlink:href="#a"/>
    <linearGradient id="f" x1="1752.38" y1="14.44" x2="1691.28" y2="116.27" xlink:href="#a"/>
    <linearGradient id="g" x1="1576.94" y1="49.28" x2="1576.94" y2="104.67" xlink:href="#a"/>
    <linearGradient id="h" x1="1348.85" y1="53.14" x2="1348.85" y2="162.63" xlink:href="#a"/>
    <linearGradient id="i" data-name="未命名漸層 55" x1="1397.55" y1="472.48" x2="1397.55" y2="375.39" gradientUnits="userSpaceOnUse">
      <stop offset="0" stop-color="#71b7d9"/>
      <stop offset="0.99" stop-color="#a3d6e8"/>
    </linearGradient>
    <linearGradient id="j" x1="737.56" y1="490.26" x2="710.19" y2="372.34" xlink:href="#i"/>
    <linearGradient id="k" x1="858.47" y1="62.01" x2="788.2" y2="226.99" xlink:href="#a"/>
    <linearGradient id="l" x1="418.64" y1="463.98" x2="418.64" y2="335.97" gradientTransform="translate(-2.31 0.8) rotate(0.03)" xlink:href="#i"/>
    <linearGradient id="m" x1="437.97" y1="461.15" x2="437.97" y2="539.11" gradientTransform="translate(-2.31 0.8) rotate(0.03)" xlink:href="#a"/>
    <linearGradient id="n" data-name="未命名漸層 25" x1="733.7" y1="188.03" x2="733.7" y2="197.89" gradientUnits="userSpaceOnUse">
      <stop offset="0.01" stop-color="#a3d0ea"/>
      <stop offset="1" stop-color="#c2e4ed"/>
    </linearGradient>
    <linearGradient id="o" x1="-1577.94" y1="280.34" x2="-1577.94" y2="290.21" gradientTransform="matrix(-1, 0, 0, 1, -276.84, 0)" xlink:href="#a"/>
    <linearGradient id="p" x1="-1555.64" y1="280.34" x2="-1555.64" y2="290.21" gradientTransform="matrix(-1, 0, 0, 1, -276.84, 0)" xlink:href="#a"/>
    <linearGradient id="q" x1="669.41" y1="207.71" x2="669.41" y2="217.57" xlink:href="#n"/>
    <linearGradient id="r" x1="1241.7" y1="201.15" x2="1241.7" y2="211.01" xlink:href="#a"/>
    <linearGradient id="s" x1="1264" y1="201.15" x2="1264" y2="211.01" xlink:href="#a"/>
    <linearGradient id="t" data-name="未命名漸層 26" x1="954.79" y1="470.23" x2="954.79" y2="485.12" gradientUnits="userSpaceOnUse">
      <stop offset="0.01" stop-color="#a3d0ea"/>
      <stop offset="1" stop-color="#e7f0f2"/>
    </linearGradient>
    <linearGradient id="u" x1="910.83" y1="781.75" x2="910.83" y2="791.61" xlink:href="#n"/>
    <linearGradient id="v" x1="933.14" y1="781.75" x2="933.14" y2="791.61" xlink:href="#n"/>
    <linearGradient id="w" x1="897.92" y1="756.27" x2="897.92" y2="763.63" xlink:href="#n"/>
    <linearGradient id="x" x1="914.56" y1="756.27" x2="914.56" y2="763.63" xlink:href="#n"/>
    <linearGradient id="y" x1="879.61" y1="802.55" x2="879.61" y2="810.16" xlink:href="#n"/>
    <linearGradient id="z" x1="896.82" y1="802.55" x2="896.82" y2="810.16" xlink:href="#n"/>
    <linearGradient id="aa" x1="1272.53" y1="239.2" x2="1272.53" y2="249.06" xlink:href="#a"/>
    <linearGradient id="ab" x1="1294.83" y1="239.2" x2="1294.83" y2="249.06" xlink:href="#a"/>
    <linearGradient id="ac" x1="-3207.67" y1="670.22" x2="-3207.67" y2="680.08" gradientTransform="matrix(-1, 0, 0, 1, -2742.84, 0)" xlink:href="#n"/>
    <linearGradient id="ad" x1="-3185.36" y1="670.22" x2="-3185.36" y2="680.08" gradientTransform="matrix(-1, 0, 0, 1, -2742.84, 0)" xlink:href="#n"/>
    <linearGradient id="ae" x1="-3216.2" y1="704.99" x2="-3216.2" y2="714.85" gradientTransform="matrix(-1, 0, 0, 1, -2742.84, 0)" xlink:href="#n"/>
    <linearGradient id="af" x1="-3193.89" y1="704.99" x2="-3193.89" y2="714.85" gradientTransform="matrix(-1, 0, 0, 1, -2742.84, 0)" xlink:href="#n"/>
    <linearGradient id="ag" x1="493.59" y1="617.74" x2="493.59" y2="627.6" xlink:href="#n"/>
    <linearGradient id="ah" x1="515.9" y1="617.74" x2="515.9" y2="627.6" xlink:href="#n"/>
    <linearGradient id="ai" x1="468.66" y1="644.63" x2="468.66" y2="654.5" xlink:href="#n"/>
    <linearGradient id="aj" x1="490.97" y1="644.63" x2="490.97" y2="654.5" xlink:href="#n"/>
    <linearGradient id="ak" x1="1513.76" y1="749.96" x2="1513.76" y2="758.04" xlink:href="#a"/>
    <linearGradient id="al" x1="1532.04" y1="749.96" x2="1532.04" y2="758.04" xlink:href="#a"/>
    <linearGradient id="am" x1="-1793.7" y1="780.67" x2="-1793.7" y2="788.75" gradientTransform="matrix(-1, 0, 0, 1, -276.84, 0)" xlink:href="#a"/>
    <linearGradient id="an" x1="-1775.42" y1="780.67" x2="-1775.42" y2="788.75" gradientTransform="matrix(-1, 0, 0, 1, -276.84, 0)" xlink:href="#a"/>
    <linearGradient id="ao" x1="1505.8" y1="723.2" x2="1505.8" y2="731.29" xlink:href="#a"/>
    <linearGradient id="ap" x1="1524.08" y1="723.2" x2="1524.08" y2="731.29" xlink:href="#a"/>
    <linearGradient id="aq" x1="1478.43" y1="677.58" x2="1478.43" y2="685.67" xlink:href="#a"/>
    <linearGradient id="ar" x1="1496.71" y1="677.58" x2="1496.71" y2="685.67" xlink:href="#a"/>
    <linearGradient id="as" x1="1498.78" y1="700.75" x2="1498.78" y2="708.83" xlink:href="#a"/>
    <linearGradient id="at" x1="1517.06" y1="700.75" x2="1517.06" y2="708.83" xlink:href="#a"/>
    <linearGradient id="au" data-name="未命名漸層 33" x1="-3143.23" y1="263.86" x2="-3143.23" y2="239.49" gradientTransform="matrix(-1, 0, 0, 1, -1684.78, 0)" gradientUnits="userSpaceOnUse">
      <stop offset="0" stop-color="#e7f0f2"/>
      <stop offset="0.99" stop-color="#fff"/>
    </linearGradient>
    <linearGradient id="av" x1="1727.36" y1="125.91" x2="1707.51" y2="173.26" xlink:href="#a"/>
    <linearGradient id="aw" x1="-1682.6" y1="278.42" x2="-1682.6" y2="288.28" gradientTransform="matrix(-1, -0.02, -0.02, 1, -355.02, -4.83)" xlink:href="#a"/>
    <linearGradient id="ax" x1="-1660.29" y1="278.42" x2="-1660.29" y2="288.28" gradientTransform="matrix(-1, -0.02, -0.02, 1, -355.02, -4.83)" xlink:href="#a"/>
    <linearGradient id="ay" x1="-2005.45" y1="122.28" x2="-2005.45" y2="132.15" gradientTransform="matrix(-1, -0.02, -0.02, 1, -355.02, -4.83)" xlink:href="#a"/>
    <linearGradient id="az" x1="-1983.15" y1="122.28" x2="-1983.15" y2="132.15" gradientTransform="matrix(-1, -0.02, -0.02, 1, -355.02, -4.83)" xlink:href="#a"/>
    <linearGradient id="ba" x1="-2014.32" y1="146.69" x2="-2014.32" y2="156.55" gradientTransform="matrix(-1, -0.02, -0.02, 1, -355.02, -4.83)" xlink:href="#a"/>
    <linearGradient id="bb" x1="-1992.02" y1="146.69" x2="-1992.02" y2="156.55" gradientTransform="matrix(-1, -0.02, -0.02, 1, -355.02, -4.83)" xlink:href="#a"/>
    <linearGradient id="bc" x1="633.45" y1="223.98" x2="633.45" y2="233.84" gradientTransform="translate(1004.18 -4.83) rotate(-1.05)" xlink:href="#a"/>
    <linearGradient id="bd" x1="655.75" y1="223.98" x2="655.75" y2="233.84" gradientTransform="translate(1004.18 -4.83) rotate(-1.05)" xlink:href="#a"/>
    <linearGradient id="be" x1="1407.84" y1="316.98" x2="1430.77" y2="335.23" xlink:href="#a"/>
    <linearGradient id="bf" x1="1444.57" y1="331.73" x2="1443.63" y2="337.81" xlink:href="#a"/>
    <linearGradient id="bg" data-name="未命名漸層 126" x1="-1684.79" y1="438.37" x2="-1684.79" y2="454.53" gradientTransform="matrix(-1, 0, 0, 1, -276.84, 0)" gradientUnits="userSpaceOnUse">
      <stop offset="0" stop-color="#5ba8d1"/>
      <stop offset="0.99" stop-color="#a3d6e8"/>
    </linearGradient>
    <linearGradient id="bh" x1="-1670.38" y1="438.37" x2="-1670.38" y2="454.53" xlink:href="#bg"/>
    <linearGradient id="bi" x1="1351.94" y1="459.89" x2="1351.94" y2="474.64" gradientTransform="translate(14.45)" xlink:href="#bg"/>
    <linearGradient id="bj" x1="1369.84" y1="459.89" x2="1369.84" y2="474.64" gradientTransform="translate(14.45)" xlink:href="#bg"/>
    <linearGradient id="bk" x1="-1706.14" y1="455.68" x2="-1706.14" y2="481.97" xlink:href="#bg"/>
    <linearGradient id="bl" x1="-1688.24" y1="455.68" x2="-1688.24" y2="481.97" xlink:href="#bg"/>
    <linearGradient id="bm" x1="1303.78" y1="259.12" x2="1303.78" y2="268.99" xlink:href="#a"/>
    <linearGradient id="bn" x1="1326.08" y1="259.12" x2="1326.08" y2="268.99" xlink:href="#a"/>
    <linearGradient id="bo" x1="845.93" y1="610.32" x2="845.93" y2="662.49" xlink:href="#a"/>
    <linearGradient id="bp" x1="886.82" y1="639.1" x2="886.82" y2="657.35" xlink:href="#a"/>
    <linearGradient id="bq" x1="761.13" y1="507.14" x2="734.46" y2="540.83" xlink:href="#a"/>
    <linearGradient id="br" x1="-1120.79" y1="387.83" x2="-1120.79" y2="402.87" xlink:href="#bg"/>
    <linearGradient id="bs" x1="-1102.89" y1="387.83" x2="-1102.89" y2="402.87" xlink:href="#bg"/>
    <linearGradient id="bt" x1="-1077.98" y1="387.83" x2="-1077.98" y2="402.87" xlink:href="#bg"/>
    <linearGradient id="bu" x1="-1060.08" y1="387.83" x2="-1060.08" y2="402.87" xlink:href="#bg"/>
    <linearGradient id="bv" x1="-1104.65" y1="412.4" x2="-1104.65" y2="427.44" xlink:href="#bg"/>
    <linearGradient id="bw" x1="-1086.75" y1="412.4" x2="-1086.75" y2="427.44" xlink:href="#bg"/>
    <linearGradient id="bx" x1="1296.92" y1="209.28" x2="1452.45" y2="209.28" gradientTransform="matrix(1, 0, 0, 1, 0, 0)" xlink:href="#au"/>
    <linearGradient id="by" data-name="未命名漸層 97" x1="476.68" y1="476.27" x2="43.78" y2="488.06" gradientUnits="userSpaceOnUse">
      <stop offset="0" stop-color="#efd380"/>
      <stop offset="0.98" stop-color="#fff193"/>
    </linearGradient>
    <linearGradient id="bz" x1="1474.35" y1="485.4" x2="1843.25" y2="468.55" xlink:href="#by"/>
    <linearGradient id="ca" x1="862.99" y1="376.11" x2="268.38" y2="399.69" xlink:href="#by"/>
    <linearGradient id="cb" x1="1027.98" y1="365.4" x2="1368.24" y2="385.62" xlink:href="#by"/>
  </defs>
  <g style="isolation: isolate">
    <g>
      <path d="M1430.84,608.89a7,7,0,0,1-4.32-1.49l-53.63-41.93-55.47-16.88a7,7,0,0,1-5-6.72v-6.16a7,7,0,0,1,3.34-6l-3.48-5.94a7,7,0,0,1-2.64,3l-4.52,2.88a7,7,0,0,1-5.52.88,7.07,7.07,0,0,1-4.41-3.44L1282,502.86h-4.87a7,7,0,0,1-7-7v-3.69a7,7,0,0,1,2.35-5.25l-5.12-7.07a7,7,0,0,1-1.34-4.12V462.14a7,7,0,0,1,9.5-6.56l25.93,9.82h21.73a7,7,0,0,1,5.65,2.86l6.86,9.33a7,7,0,0,1,4.34-1.5h6.16a7,7,0,0,1,6.67,4.84l5,15.29h1.07a7,7,0,0,1,7,7v17.07l15.09,9.43,5.51-5.27a7,7,0,0,1,4.85-1.94h19.72a7,7,0,0,1,5.1,11.84l-5.47,5.78v5a7,7,0,0,1-3,5.72h11.14a7,7,0,0,1,7,7v13.54l8.66,10.68h15.15a7,7,0,0,1,7,7v4.52a7,7,0,0,1-7,7h-10.24l-2.52,4.59a7,7,0,0,1-4.74,3.49A6.74,6.74,0,0,1,1430.84,608.89Z" fill="#ddecf3"/>
      <polygon points="1273.03 462.14 1273.03 475.71 1284.95 492.15 1277.14 492.15 1277.14 495.84 1286.18 495.84 1301.38 523.79 1305.9 520.91 1284.12 476.53 1292.75 476.53 1323.58 529.13 1323.58 535.71 1319.47 535.71 1319.47 541.87 1376.18 559.13 1430.84 601.88 1435.36 593.66 1449.75 593.66 1449.75 589.14 1431.25 589.14 1418.92 573.93 1418.92 557.9 1396.32 557.9 1396.32 545.16 1403.72 545.16 1403.72 537.35 1411.12 529.54 1391.39 529.54 1381.94 538.59 1358.92 524.2 1358.92 503.24 1352.76 503.24 1346.18 483.1 1340.02 483.1 1337.55 486.39 1333.44 486.39 1323.17 472.42 1300.15 472.42 1273.03 462.14" fill="url(#a)"/>
      <path d="M933.05,392.38a7,7,0,0,1-6.64-4.75l-19.32-56.72a7,7,0,0,1,3-8.28l.7-.42v-1.37a7,7,0,0,1,7-7h3.7a7,7,0,0,1,7,6.44l.72,8.67,6.31,14.13a7,7,0,0,1,5,3.07l6.57,9.86a7,7,0,0,1-4.64,10.81,7,7,0,0,1,1.71,4.59v4.36l4.78,4.5a7,7,0,0,1-4.81,12.13Z" fill="#ddecf3"/>
      <path d="M937.57,429.37a6.83,6.83,0,0,1-1.62-.19,7.06,7.06,0,0,1-4.49-3.38l-5.34-9.45a7.06,7.06,0,0,1-.91-3.45v-4.52a7,7,0,0,1,6.67-7l1.55-.08v-8.94a7,7,0,0,1,4.34-6.49,7.15,7.15,0,0,1,2.68-.53,7,7,0,0,1,5,2.06l4.52,4.52h7.78A7,7,0,0,1,964.1,396l4.11,9a7,7,0,0,1-6.39,9.92h-5.31a7,7,0,0,1-7,7h-.6a7,7,0,0,1-2.49,2.93l-4.93,3.29A7,7,0,0,1,937.57,429.37Z" fill="#ddecf3"/>
      <path d="M908,502.93a7,7,0,0,1-5.67-2.89L899,495.52a7,7,0,0,1,.06-8.34l.95-1.27-1.45-2.58a7,7,0,0,1,.18-7.2L911.51,456a7,7,0,0,1,5.93-3.27H922a7,7,0,0,1,7-6.16h3.63l1.27-.85V434.38l-2.46-4.62a7,7,0,0,1,3.06-9.58l4.93-2.46a6.87,6.87,0,0,1,3.13-.75,7,7,0,0,1,6.16,3.65l7,12.74a7.06,7.06,0,0,1,.86,3.37V469.2a7,7,0,0,1-7,7H947a7,7,0,0,0-3.7,0H942a7,7,0,0,1-2.41,4.13l-4.93,4.11a7,7,0,0,1-10.3-1.45,6.91,6.91,0,0,1-1.12,2.86l-9.45,14a7,7,0,0,1-5.7,3.08Z" fill="#ddecf3"/>
      <path d="M876.34,554.31a7,7,0,0,1-7-6.8l-3.77-2.83a7,7,0,0,1-2.8-5.61V535a7.06,7.06,0,0,1,1.1-3.79l6.58-10.27a26.7,26.7,0,0,1,9.2-5.7h2.46A12.37,12.37,0,0,1,890,528l-4.22,13.79v5.53a7,7,0,0,1-7,7Z" fill="#ddecf3"/>
      <path d="M819.63,572a7,7,0,0,1-7-7v-6.58c0-.12,0-.25,0-.38h-1.74a7,7,0,0,1-5.49.26l-22.63-8.41a7,7,0,0,1-4.58-6.58v-14H758.3a7,7,0,0,1-4.13-1.35l-22.43-16.36H701.88a7,7,0,0,1-6.34-10l8.64-18.19-16.79-3.52L642.5,506.66a7.07,7.07,0,0,1-3.6,1,7,7,0,0,1-2-.3L551.6,481.77a7,7,0,0,1-4-10.33l7.87-13.13a7,7,0,0,1,6-3.4h17.73l4.55-7.36L578.18,442a7,7,0,0,1-2.06-5V419.94a7,7,0,0,1,7-7H616.8V368.77a7,7,0,0,1,6.81-7l130.72-3.89-.09-11.67a7,7,0,0,1,7-7.07h37.58l6.93-20.79a7,7,0,0,1,6.66-4.8h38.05a7,7,0,0,1,7,7v34L868.67,367l2-2.4a7,7,0,0,1,9.63-1l8.53,6.56a7,7,0,0,1,2.08,8.53l-3.19,6.85,5.14,10.79a7,7,0,0,1-.63,7.09l-9.84,13.78a7,7,0,0,1-5.08,2.91l-17.75,1.61L848.42,444v2.57l2.85,2.84.79-.79a7,7,0,0,1,5-2.05H867.3a7,7,0,0,1,5.24,11.68l-11.38,12.8v1.58L877.3,487a7,7,0,0,1,2.36,5.25v21.37a7.14,7.14,0,0,1-1,3.7l-12.74,20.54a7,7,0,0,1-2.73,2.53L838,553.42l.84,1.45a7,7,0,0,1-.79,8.14l-5.76,6.57A7,7,0,0,1,827,572Z" fill="#ddecf3"/>
      <path d="M553.61,482.07a6.89,6.89,0,0,1-2.14-.34,7,7,0,0,1-5.18-6.77v-5.22l-7.37-13.64a7.07,7.07,0,0,1-.84-3.34V441.47l-10.65-6.57a7,7,0,0,1-3.33-6v-7.81a7,7,0,0,1,3.16-5.87,7,7,0,0,1-2.34-5.23V384.54a7.05,7.05,0,0,1,.86-3.36l19.28-35.41V293.3a7,7,0,0,1,.17-1.51l9.45-42.74a7.21,7.21,0,0,1,.63-1.74h-1.59a7,7,0,0,1-6.7-5L545.37,237a7,7,0,0,1,.13-4.51,7,7,0,0,1-2.49-5.36v-22.2a7,7,0,0,1,8.32-6.89l15.21,2.88a7,7,0,0,1,5.05,3.91l1.35-.87a7,7,0,0,1,3.67-1.11,7.35,7.35,0,0,1,.75-1.64l2.06-3.28a7,7,0,0,1,3-2.65l-.75-1.39a7,7,0,0,1,3.31-9.75l13-5.82-2.79-1.88a7,7,0,0,1-.75-11.07l15.67-13.93c-.07-.22-.13-.44-.18-.67a7,7,0,0,1,1.89-6.48l3.08-3.09a7,7,0,0,1,6.34-1.92l5.25,1.05,2.05-1.45a7,7,0,0,1-2.07-6l2.06-14.79a7,7,0,0,1,7-6.06h9.86a7,7,0,0,1,5.39,2.53l2.06,2.46a7,7,0,0,1,1.25,2.23l3.27,2.07,6.78-3.25a7,7,0,0,1,7.34.78l4.08,3.18a7,7,0,0,1,7.12,1l10.68,8.63a7,7,0,0,1,1.43,9.37,7,7,0,0,1,.89,5.9l-1,3.52.83-.38a7,7,0,0,1,7.27.85l2.46,1.93,12.18-5.31a7,7,0,0,1,9.83,6.43v.79H767a7,7,0,0,1,5.12,2.22l5.12,5.45v-1.88a7,7,0,0,1,10.67-6l1.77,1.08a7,7,0,0,1,4-1.28h4.52a5.53,5.53,0,0,1,.71,0l-7.3-8.62a7,7,0,0,1,5-11.55L820.08,133a7.07,7.07,0,0,1,3.14.56,7,7,0,0,1,6.27-3.86h8.63a7,7,0,0,1,7,7V137l2-1.06a7,7,0,0,1,7,.18l7.9,4.79L873.57,134a7,7,0,0,1,8.44,1l7.42,7.09h7.05a7,7,0,0,1,4.11,1.33,6.87,6.87,0,0,1,2.95-1.23l11.4-1.9v-1.86a7,7,0,0,1,6.76-7,7,7,0,0,1,6.83-8.63h68.64a7,7,0,0,0,7,0h19.32a7,7,0,0,1,5.37,2.5l6.57,7.8a7,7,0,0,1,1.65,4.52V147a7,7,0,0,1-1.89,4.79l-.61.66,2.78,2.24a7.05,7.05,0,0,1,2.6,5.46v5.75a7,7,0,0,1-7,7H1014a6.84,6.84,0,0,1,0,.79v9a7.09,7.09,0,0,1-.83,3.31l-.85,1.59h1.24a7,7,0,0,1,6.3,3.94l8.63,17.67a7,7,0,0,1-.29,6.7L1008.93,248a7,7,0,0,1-6,3.4h-9.14l-2.07,3.52a7,7,0,0,1-5.32,3.42,6.74,6.74,0,0,1-1.27,0l2.28,11.81a7,7,0,0,1,4.67,5l4.39,18.28,5.61,4.68a7,7,0,0,1,2.53,5.39v4.93a7,7,0,0,1-3.46,6.05l-3.35,2,.63,14.27a7,7,0,0,1-1.2,4.26l-7,10.27a7,7,0,0,1-12.08-.8l-23.84-47.68a6.93,6.93,0,0,1-.74-3.13V280.15a7,7,0,0,1,1.86-4.76l3.07-3.32v-14.9h-3.25a7,7,0,0,1-6.37-4.06l-1.79-3.87,0,0v9.19a7,7,0,0,1,5.75,6.91v5.34a7,7,0,0,1-3.88,6.28l-14,7a7,7,0,0,1-9.16-2.66l-2.46-4.11a7,7,0,0,1-1-3.58H897.27l-9,43.92a7,7,0,0,1,5.83,3.74l.68,1.29a7,7,0,0,1,9-1.59l11.1,6.57a7,7,0,0,1,3.22,4.29l10.68,41.51a7,7,0,0,1-.4,4.65l-22.61,49.73a7,7,0,0,1-2.73,3.09l-11.16,6.8,13.27,24.56a7,7,0,0,1-2.12,9.06l-12.74,9a7,7,0,0,1-10.7-3.45l-5.34-15.62a7,7,0,0,1-.16-4,7,7,0,0,1-4.33-6.48V449.1h-1.66l-7.54,5.9a7,7,0,0,1-11.35-5.49h-6a7,7,0,0,1-7-2.19l-.11-.13a7,7,0,0,1-1-7.76l13.77-27.55a7,7,0,0,1,5.64-3.85l18.45-1.68,5.57-7.79-4.79-10.05a7,7,0,0,1-.18-5.62,7,7,0,0,1-9.84-.56L845.27,362a7,7,0,0,1-1.81-4.7V337.08H816.65l-6.55,12.34a7,7,0,0,1-6.2,3.73H768.32l.1,15.69a7,7,0,0,1-7,7.06h0l-130.56-.11v44.15a7,7,0,0,1-7,7H590.16v7.13l7.46,7.46a7,7,0,0,1,1,8.64l-9.52,15.42a7,7,0,0,1-6,3.33H565.47l-5.83,9.72A7,7,0,0,1,553.61,482.07ZM552.11,451l3.69,6.82a7,7,0,0,1,5.69-2.9h17.73l4.55-7.36L578.18,442a7,7,0,0,1-2.06-5V419.94a7,7,0,0,1,7-7H616.8V368.77a7,7,0,0,1,7-7h0l130.52.11-.1-15.68a7,7,0,0,1,7-7.06h38.42l6.55-12.35a7,7,0,0,1,6.2-3.73h38.05a7,7,0,0,1,7,7v24.53L868.67,367l2-2.4a7,7,0,0,1,9.63-1l8.53,6.56a7,7,0,0,1,2.08,8.53l-3.19,6.85,5.14,10.79a7,7,0,0,1-.63,7.09l-9.84,13.78a7,7,0,0,1-5.08,2.91l-17.75,1.61-6.91,13.82h3.51a7,7,0,0,1,4.46,1.6l.67-.52a7,7,0,0,1,4.32-1.49h9.84a7,7,0,0,1,3.36-6l15-9.15,20.68-45.51-9.34-36.3-2.69-1.59a7,7,0,0,1-5.62,2.82H892a7,7,0,0,1-6.21-3.75l-2.14-4.06h-4a7,7,0,0,1-6.88-8.44l11.92-57.94a7,7,0,0,1,6.88-5.61H933V245.63a7,7,0,0,1,3-5.73l9.87-7a7,7,0,0,1,8.85.6l-2.85-5.71a7,7,0,0,1,6.27-10.16h4.52a7,7,0,0,1,6.21,3.75l7.81,14.79a7,7,0,0,1,.73,4.33,7.52,7.52,0,0,1,1.2-.61,12,12,0,0,0,11.18-2.53H999l15.3-25.39-5-10.3H993.06a7,7,0,0,1-7-7v-5.75a7,7,0,0,1,7-7h6.47l.48-.9v-2.54l-3.81-1.52a7,7,0,0,1-4.41-6.52V165.9a7,7,0,0,1,7-7h21.39l-.33-.26a7,7,0,0,1-2.58-5,8.61,8.61,0,0,1,0-.88h-7a7,7,0,0,1-5.43-2.56l-11-13.47H944.07l4.94,5.61a7,7,0,0,1-1.38,10.48L941.47,157a7,7,0,0,1-8.33-.4l-6.41-5.23a7,7,0,0,1-3.62,1.78L911.72,155v2.27a7,7,0,0,1-12,5l-6.16-6.16h-7a7,7,0,0,1-4.85-1.95l-5.6-5.35-10.62,6.31a7,7,0,0,1-7.23,0l-8.07-4.9-1.81,1a7,7,0,0,1-6.61,0l-7-3.7a4.83,4.83,0,0,1-.45-.26l-1.72,2.93a7,7,0,0,1-12.11,0l-.08,0a7.09,7.09,0,0,1-4.19-2.87l-4.77.25,4.42,5.23a7,7,0,0,1-.53,9.63l-7.81,7.39a7,7,0,0,1-8.4,1,6.76,6.76,0,0,1-2,1.72,7,7,0,0,1-5.87.47v.81a7,7,0,0,1-4.62,6.6L782.16,182a7,7,0,0,1-7.52-1.79L764,168.81H720.17a7,7,0,0,1-6.49-4.34L707,167.4a7,7,0,0,1-7.13-.9,7,7,0,0,1-2.47,3.71l-5.8,4.51-2.6,7.14A7,7,0,0,1,679.9,186l-3.29-1.24a7,7,0,0,1-4.27-8.56l8.9-30.05-.93-1.33a7,7,0,0,1-1.22-4.87,7,7,0,0,1-5.15-1.43l-7.67-6-6.35,3.05a7,7,0,0,1-6.79-.39l-2.45-1.55-.61.77a7.08,7.08,0,0,1-2.57,2,7,7,0,0,1-2.59,8l-12.74,9a7,7,0,0,1-5,1.24,7,7,0,0,1-1.19,1.37l-15.42,13.71,5,3.37a7,7,0,0,1,3.1,5.82v8.22a7,7,0,0,1-7,7h-4a7.08,7.08,0,0,1,2.53,2.4l18.08,28.77a7,7,0,0,1-.33,7.94l-2.46,3.29a7,7,0,0,1-9,1.93L607,233.38a7.08,7.08,0,0,1,.57,2.8v11.51a7,7,0,0,1-11.3,5.56l1.29,6.15a7,7,0,0,1-.65,4.68L592,273.54a7,7,0,0,1-7.46,3.66l-16-2.88a7,7,0,0,1-4.43-2.77l-5,22.52v53.48a7,7,0,0,1-.86,3.36L539,386.33V403a7,7,0,0,1,6.63,4.8l3.7,11.1a7,7,0,0,1-6.13,9.22l5.62,3.47a7,7,0,0,1,3.33,6Zm415.5-158.93,16.51,33-.54-12.15a7,7,0,0,1,3.45-6.36l1.86-1.09-3.2-2.67a7,7,0,0,1-2.34-3.76l-3.7-15.43a7,7,0,0,1-5-5.42l-2.12-10.95v7.56a7.06,7.06,0,0,1-1.86,4.76l-3.07,3.33ZM571,256.28a7.11,7.11,0,0,1,1.5.17l2.35.51,1-5.39a7.27,7.27,0,0,1-1.68-1.1l-.45,1.8a6.93,6.93,0,0,1-2.74,4Zm-10.44-23a7,7,0,0,1,3.17,1.1l5.21,3.39-2.14-6.41-5.21-3.19a7.4,7.4,0,0,1-1.14-.86A7,7,0,0,1,560.54,233.3Zm25.91-4.14h13.23a7.06,7.06,0,0,1-2.38-4.48,7,7,0,0,1-5.36,2.49h-6.46ZM557,223.76l1.48,1.18.41.36a7.08,7.08,0,0,1-.72-3.09v-8.57l-1.17-.22Zm41.63-30.35h5.06a7.31,7.31,0,0,1-1.81-1.46Zm420-56.66,3.69,4.65a7.52,7.52,0,0,1,.64.95v-2.24l-2.83-3.36Z" fill="#ddecf3"/>
      <polygon points="1491.6 406.78 1491.6 472.06 1452.73 494.52 1452.73 525.95 1428.86 525.95 1422.55 481.18 1491.6 406.78" fill="#ddecf3"/>
      <path d="M1433.31,518.07a7,7,0,0,1-6.87-5.59l-4.08-19.55a6.15,6.15,0,0,1-1,.07h-22.6a7,7,0,0,1-6.71-4.93h-9.87l-17.63,19.83a7,7,0,0,1-5.25,2.36h-6.57a7,7,0,0,1-6.68-4.84L1341.72,492a7,7,0,0,1-4.17,1.37h-4.11a7,7,0,0,1-5.65-2.86l-8.17-11.11h-19.47a7,7,0,0,1-2.48-.46l-27.13-10.27a7,7,0,0,1-2.63-1.76L1248.6,446.4a7,7,0,0,1-1.91-4.8V407.48a7.05,7.05,0,0,1,1.22-4l4.95-7.25V384.47a7,7,0,0,1,2.05-5l6.58-6.58V357.35a7,7,0,0,1,7-7H1273a7,7,0,0,1,6,3.46l2.69,4.57a7,7,0,0,1,1.85,1.66l11,14.19h161.5l22.77-11.69a7,7,0,0,1,7.42.63l6.8,5.11,14.37-8.21a7,7,0,0,1,3.48-.93,6.81,6.81,0,0,1,.78.05l11.59,1.29,3.17.15a7,7,0,0,1,6.62,6.16h.84a7,7,0,0,1,7,7v15l3.52,1.76a7,7,0,0,1,3.88,6.28v4.52a7,7,0,0,1-7,7h-12l-5.37,5.07a7,7,0,0,1-9.44.18l-3.29-2.88a7.06,7.06,0,0,1-2.13-3.37l-1.43,1.11v9.72a7,7,0,0,1-7,7h-18.46V433a7,7,0,0,1-5.76,6.9v5.42a7,7,0,0,1-3.7,6.19v2a7,7,0,0,1-2.69,5.53l-23.61,18.45v29.45a7,7,0,0,1-3.13,5.84l-6.16,4.11A7,7,0,0,1,1433.31,518.07Z" fill="#ddecf3"/>
      <polygon points="917.85 326.18 917.85 320.84 921.55 320.84 922.37 330.7 931 350.02 934.7 350.02 941.27 359.88 931.41 359.88 934.29 371.39 937.16 371.39 937.16 378.79 944.15 385.36 933.05 385.36 913.74 328.65 917.85 326.18" fill="#c2e4ed"/>
      <polygon points="940.45 407.97 940.45 392.35 947.03 398.93 957.71 398.93 961.82 407.97 949.49 407.97 949.49 414.95 940.45 414.95 942.51 419.06 937.58 422.35 932.23 412.9 932.23 408.38 940.45 407.97" fill="#7cbce8"/>
      <polygon points="940.86 449.48 940.86 432.63 937.58 426.46 942.51 423.99 949.49 436.73 949.49 469.2 947.03 469.2 947.03 463.04 943.33 463.04 943.33 469.2 932.23 469.2 935.11 474.95 930.18 479.06 928.94 470.85 913.74 474.95 917.44 481.94 907.98 495.92 904.7 491.39 908.39 486.46 904.7 479.89 917.44 459.75 928.94 459.75 928.94 453.58 934.7 453.58 940.86 449.48" fill="#7cbce8"/>
      <polygon points="869.76 534.96 876.34 524.68 878.8 524.68 879.63 522.22 882.09 522.22 882.09 525.92 883.33 525.92 878.8 540.71 878.8 547.29 876.34 547.29 876.34 544 873.05 541.53 869.76 539.07 869.76 534.96" fill="#7cbce8"/>
      <polygon points="1418.72 526.46 1428.58 522.35 1452.42 531.8 1449.54 537.56 1465.16 537.56 1465.16 534.27 1438.86 518.65 1426.12 516.19 1414.61 524 1418.72 526.46" fill="#c2e4ed"/>
      <polygon points="1469.47 535.3 1481.8 535.3 1492.49 541.05 1492.49 544.34 1478.93 544.34 1476.46 548.86 1473.58 546.8 1473.99 544.75 1466.18 544.75 1466.18 541.87 1472.35 541.87 1472.35 538.59 1469.06 537.35 1469.47 535.3" fill="#c2e4ed"/>
      <polygon points="1498.65 547.63 1494.95 543.52 1494.95 541.05 1504.41 541.05 1504.41 547.63 1498.65 547.63" fill="#c2e4ed"/>
      <path d="M1508.93,942.61a7,7,0,0,1-5.57-2.75l-23-30a7,7,0,0,1-1.45-4.27V851l-3-2a7,7,0,0,1-3.12-5.84v-23a7,7,0,0,1,4.93-6.7V723.76l-26.23-16a6.92,6.92,0,0,1-2-1.91l-18.5-25.89a7,7,0,0,1-.49-7.36l1-1.94-5.05-4.16a7,7,0,0,1-2.55-5.41v-9.87a7,7,0,0,1,1-3.53,7,7,0,0,1-2.19-5.1V636a7.07,7.07,0,0,1,1.65-4.53l20.54-24.34V600.3l-1.58-4.12a7,7,0,0,1-.47-2.52v-4.52a7,7,0,0,1,2.14-5l12.74-12.33a7,7,0,0,1,4.88-2h15.2a7.09,7.09,0,0,0,6.17-1.65,6.93,6.93,0,0,1,2.14.34,7,7,0,0,1,4.82,5.83h15.23a7.06,7.06,0,0,1,4,1.23l4.78,3.29h13.84a7,7,0,0,1,5.29,2.4l14.75,16.92h12.43a7,7,0,0,1,5.84,3.12l14,21a7.06,7.06,0,0,1,1.18,3.58l23.54,9.41a7.1,7.1,0,0,1,3.07,2.4,3.85,3.85,0,0,1,.48,0,7.55,7.55,0,0,1,1.16.09l22.19,3.7a7,7,0,0,1,4.87,3.32l4.12,6.86h3.83a7,7,0,0,1,7,7v16a7,7,0,0,1-1.35,4.13l-16.32,22.4v19.09a7,7,0,0,1-1.18,3.89l-15.62,23.42a7,7,0,0,1-5.84,3.13h-12.3l-4.2,6.22,6,3.91a7,7,0,0,1,1.78,10.06l-18.08,24.25a7,7,0,0,1-5.63,2.82h-.24l-8.79,12.61a7.05,7.05,0,0,1-4.7,2.93,7.24,7.24,0,0,1,.2,1.69v10.69a7,7,0,0,1-7,7h-19.7v11.06a7,7,0,0,1-2.47,5.34v5.35a7,7,0,0,1-4,6.34l-3.79,1.8v3.77a7,7,0,0,1-3.27,5.94l-.41.25a7,7,0,0,1,6.14,7v7.4a7,7,0,0,1-3.5,6.08l-4.31,2.49v4.75a7,7,0,0,1,5.35,6.82v13.53h5.31a7,7,0,0,1,7,7v7.81a7,7,0,0,1-7,7Z" fill="#ddecf3"/>
      <polygon points="1449.75 589.14 1462.49 576.81 1477.69 576.81 1471.94 586.67 1471.94 590.78 1477.69 590.78 1477.69 583.79 1483.86 575.16 1483.86 581.33 1506.05 581.33 1512.63 585.85 1528.65 585.85 1545.5 605.16 1561.12 605.16 1575.09 626.12 1561.94 639.27 1565.23 643.79 1578.38 631.88 1603.04 641.74 1603.04 648.32 1606.74 648.32 1609.2 644.62 1631.4 648.32 1637.56 658.59 1645.37 658.59 1645.37 674.62 1627.7 698.87 1627.7 720.24 1612.08 743.66 1596.05 743.66 1585.78 758.87 1597.7 766.68 1579.61 790.92 1576.33 789.28 1586.19 774.49 1582.49 772.02 1570.16 790.1 1574.27 792.98 1564.82 806.54 1556.6 806.54 1546.74 799.97 1543.86 804.9 1551.26 809.42 1551.26 814.76 1559.07 815.17 1559.07 825.86 1532.35 825.86 1532.35 843.94 1521.67 843.94 1521.67 848.05 1529.89 848.05 1529.89 854.63 1522.08 858.32 1522.08 866.54 1514.27 871.48 1514.27 879.7 1524.54 879.7 1524.54 887.09 1516.73 891.61 1516.73 907.23 1522.08 907.23 1522.08 927.78 1534.41 927.78 1534.41 935.59 1508.93 935.59 1485.91 905.59 1485.91 847.23 1479.75 843.12 1479.75 820.1 1484.68 820.1 1484.68 719.83 1455.09 701.74 1436.6 675.85 1440.29 668.87 1430.84 661.06 1430.84 651.19 1436.18 647.49 1436.18 642.56 1429.61 642.56 1429.61 635.99 1451.8 609.68 1451.8 599 1449.75 593.66 1449.75 589.14" fill="url(#b)"/>
      <path d="M1563.79,657.76a13.88,13.88,0,0,0,1.44.07,14.05,14.05,0,0,0,9.43-3.63l6.65-6,8,3.21a14,14,0,0,0,13.7,11h3.7a14.06,14.06,0,0,0,8.09-2.56l7.87,1.31,2.82,4.71a14,14,0,0,0,5.22,5.05l-14.39,19.74a14,14,0,0,0-2.69,8.27V716l-9.09,13.63h-8.52a14,14,0,0,0-11.63,6.18L1574.15,751a14,14,0,0,0-2.13,10.62c0,.28.12.56.19.83a15.39,15.39,0,0,0-1.32,1.65l-12.33,18.08a14,14,0,0,0-2.42,7.18l-1.62-1.08a14,14,0,0,0-7.78-2.36,14.21,14.21,0,0,0-3.17.36,14,14,0,0,0-9,6.6l-2.88,4.93a14.07,14.07,0,0,0-.07,14,14,14,0,0,0-13.34,14v4.45a14,14,0,0,0-10.69,13.63v4.11a13.9,13.9,0,0,0,1.19,5.66,14,14,0,0,0-.78,4.61v.49l-1.27.8a14,14,0,0,0-6.54,11.87v8.21a14,14,0,0,0,2.89,8.53,13.69,13.69,0,0,0-.42,3.39v12.8l-2.75-3.59V847.23a14,14,0,0,0-6.17-11.62v-4.82a14,14,0,0,0,4.94-10.69V783.68" fill="url(#c)"/>
      <path d="M894,714.59a7,7,0,0,1-2.61-.51l-6.16-2.46a7,7,0,0,1-2-11.85l11.51-9.86a7,7,0,0,1,4.56-1.69h9a7,7,0,0,1,7,7V701a7,7,0,0,1-7,7h-4l-5.85,4.93A7,7,0,0,1,894,714.59Z" fill="#ddecf3"/>
      <polygon points="887.85 705.1 894.01 707.57 901.82 700.99 908.39 700.99 908.39 695.24 899.35 695.24 887.85 705.1" fill="#c2e4ed"/>
      <path d="M926.48,683.76a6.87,6.87,0,0,1-1.85-.25l-13.56-3.69a7,7,0,0,1-4.36-10.06l3.7-7a7,7,0,0,1,6.21-3.73,6.91,6.91,0,0,1,2.92.64l9.86,4.52a7,7,0,0,1,4.1,6.38v6.16a7,7,0,0,1-7,7Z" fill="#ddecf3"/>
      <polygon points="912.92 673.04 926.48 676.74 926.48 670.58 916.62 666.06 912.92 673.04" fill="#c2e4ed"/>
      <path d="M1010.32,716.23a7,7,0,0,1-5-2.06l-1.64-1.64h-3.26a7,7,0,0,1-5.7-2.92l-2.39-3.34a7,7,0,0,1-5.06,2.15H975.8a7,7,0,0,1-5-2l-2.46-2.47h-8.19a7,7,0,0,1-6.57-9.48l1.23-3.29a7.23,7.23,0,0,1,1-1.81L954.45,687l-18.07-4.26A85.31,85.31,0,0,1,924.8,671.4v-2.19L923.46,668a7,7,0,0,1,1.34-11.43l5.34-2.88a7,7,0,0,1,3.32-.83h9.87a7,7,0,0,1,7,7v3.4l4.57-4.36a7,7,0,0,1,7.51-1.42l34.11,14a7.18,7.18,0,0,1,2,1.27l11.92,10.69a7,7,0,0,1,1.65,8.24l4.83,6h.75a7,7,0,0,1,5.68,2.89l3.29,4.52a7,7,0,0,1-5.68,11.15Z" fill="#ddecf3"/>
      <polygon points="931.82 666.06 928.12 662.77 933.47 659.89 943.33 659.89 943.33 672.63 950.73 672.63 959.77 664 993.88 677.98 1005.8 688.66 1003.33 691.95 1013.61 704.69 1017.72 704.69 1021 709.21 1010.32 709.21 1006.62 705.51 1000.45 705.51 991 692.36 981.96 697.7 987.3 697.7 987.3 701.4 975.79 701.4 971.27 696.88 960.18 696.88 961.41 693.59 966.34 693.18 958.95 680.85 937.99 675.92 937.99 671.4 931.82 671.4 931.82 666.06" fill="url(#d)"/>
      <path d="M897.3,636.09a7,7,0,0,1-6.38-4.1l-2.65-5.76H887a7,7,0,0,1-7-7v-2.47a7,7,0,0,1,5.65-6.88l-19.88-26.74a7,7,0,0,1-1.39-4.19v-4.11a7,7,0,0,1,3.29-5.94V565a7,7,0,0,1,7-7h5.75a7,7,0,0,1,6.57,4.55,52.31,52.31,0,0,0,7.07,6.78,7,7,0,0,1,.66,6.58l-2.88,7a7,7,0,0,1-2.77,3.28l6.88,9.63h3.78a7,7,0,0,1,6.45,4.24L914,618.07a7,7,0,0,1,.57,2.78v4.52a27.28,27.28,0,0,1-12.36,10.72Z" fill="#ddecf3"/>
      <polygon points="871.41 578.93 871.41 574.82 874.7 574.82 874.7 564.96 880.45 564.96 880.45 569.07 884.56 569.07 884.56 573.18 888.26 573.18 885.38 580.16 881.68 580.16 880.04 585.51 892.37 602.77 899.76 602.77 907.57 620.85 907.57 625.37 905.11 625.37 905.11 620.44 902.23 620.44 902.23 629.07 897.3 629.07 892.78 619.21 887.02 619.21 887.02 616.74 895.24 616.74 895.24 610.99 871.41 578.93" fill="#c2e4ed"/>
      <path d="M973.74,882.67a7,7,0,0,1-5-2l-2.71-2.71-6.24,2.89a7,7,0,0,1-7.71-1.23L941,869.3a7,7,0,0,1-2.25-5.15v-12.3H931a7,7,0,0,1-7-7V834.59h-27.2L883,840.94a7.06,7.06,0,0,1-2.93.64H862.55l-8.29,7.29a7,7,0,0,1-6.85,1.39L837.54,847a7,7,0,0,1-4.8-6.66V803.24a7,7,0,0,1-5.75-6.9V786.06a7,7,0,0,1,2.45-5.33l3.3-2.83V768a7,7,0,0,1,3.25-5.92l19.31-12.33a7.08,7.08,0,0,1,3.78-1.1,6.84,6.84,0,0,1,2.14.34l6.67,2.13,6.26-5.05-.9-3.41a7,7,0,0,1,2.82-7.58l7.81-5.34a7,7,0,0,1,9.27,1.19L904,722.22a7.06,7.06,0,0,1,4.39-1.53,7.14,7.14,0,0,1,1.37.13,7,7,0,0,1,4.77,3.5l2.53,4.59h.33L925.62,714v-2.3a7,7,0,0,1,7-7,7.27,7.27,0,0,1,1.6.18l24.66,5.76a6.88,6.88,0,0,1,3.3,1.81v-3.2a7,7,0,0,1,4.58-6.58,6.91,6.91,0,0,1,2.44-.44,7,7,0,0,1,5.33,2.45l7.76,9.06h7.87a7,7,0,0,1,7,7v25.61l11,6.59a7,7,0,0,1,2.87,3.32l2.31,5.54h1.08a7,7,0,0,1,6.15,3.64l13.56,24.66a7,7,0,0,1,.87,3.38v26.71a7,7,0,0,1-7,7h-7v1.2a7,7,0,0,1-7,7h-4.55L1002,851.5l-.74,13a7,7,0,0,1-3.58,5.72l-20.55,11.51A7,7,0,0,1,973.74,882.67ZM962.2,735.56V723.25l-3.92,7.63Z" fill="#ddecf3"/>
      <polygon points="869.35 758.94 882.09 748.66 880.04 740.86 887.85 735.51 891.96 740.86 908.39 727.71 912.92 735.92 921.55 735.92 932.64 715.79 932.64 711.68 957.3 717.43 949.9 731.81 962.64 747.02 969.22 747.02 969.22 709.21 979.08 720.72 990.18 720.72 990.18 750.31 1004.56 758.94 1008.67 768.8 1014.43 768.8 1027.99 793.46 1027.99 820.17 1014.02 820.17 1014.02 828.39 1004.97 828.39 995.11 849.76 994.29 864.15 973.74 875.65 967.58 869.49 956.89 874.42 945.79 864.15 945.79 844.83 931 844.83 931 827.57 895.24 827.57 880.04 834.56 859.9 834.56 849.63 843.6 839.76 840.31 839.76 796.34 834.01 796.34 834.01 786.06 839.76 781.13 839.76 767.98 859.08 755.65 869.35 758.94" fill="url(#e)"/>
      <path d="M1625.64,324.74a7,7,0,0,1-5.52-2.7l-5.29-6.76h-2.75a7,7,0,0,1-6.28-3.88l-9.86-19.72a7,7,0,0,1-.74-3.14V256.07a7,7,0,0,1,3.12-5.84l16.61-11.07v-8.8l-1.13-3.85h-6.24a7,7,0,0,1-7-7v-9.87a7.06,7.06,0,0,1,1.65-4.52l4.43-5.25-5.55-29.12-3-3h-12.71a7,7,0,0,1-6.12-3.57l-7.4-13.15a7,7,0,0,1,3.62-10l-4.83-8.46a7,7,0,0,1,3.34-9.93,7,7,0,0,1,6.46-4.27h18.61l2.92-3.31a7,7,0,0,1-1-3.64v-3.29a7,7,0,0,1,3.3-6L1617.4,94a7,7,0,0,1,3.72-1.07h3.58a6.89,6.89,0,0,1,1.2-2.27l11.1-14a7,7,0,0,1,5.49-2.65h15.21a7,7,0,0,1,7,7V91.24H1670v-9a7,7,0,0,1,7-7h3.25V70.72a7,7,0,0,1,5.62-6.88l26.31-5.34a7.28,7.28,0,0,1,1.39-.14,7.09,7.09,0,0,1,3.9,1.18l14.79,9.86a7,7,0,0,1,1.77,1.7h1.73a7,7,0,0,1,5,2.06l14.38,14.38a7,7,0,0,1,1.52,7.65,6.47,6.47,0,0,1-.36.75l1.33-.94a7,7,0,0,1,9.11.85l11.09,11.51a7,7,0,0,1-.75,10.42l-13.86,10.74a7,7,0,0,1-1.53,5.93l-18,21.18,3,6.17a6.94,6.94,0,0,1,.69,3v18.9a7,7,0,0,1-4.17,6.42l1,1.11a7,7,0,0,1-.59,10.17.14.14,0,0,1,0,.07,7,7,0,0,1-2.14,7.79l-7,5.75a7,7,0,0,1-8.61.24L1722.8,213l-1.58.61,8.2,10.61a7,7,0,0,1,1.47,4.29V240a7,7,0,0,1-11.92,5l-9.92-9.67,2.18,2.68a7,7,0,0,1-2.47,10.79L1693.49,256v3.75a7,7,0,0,1-4.55,6.57l-20.52,7.74v7.47a7,7,0,0,1-7,7h-5.71l-14.18,32a7,7,0,0,1-6.41,4.18Z" fill="#ddecf3"/>
      <polygon points="1607.56 167.3 1614.14 201.82 1607.56 209.63 1607.56 219.5 1619.07 219.5 1621.94 229.36 1621.94 242.92 1602.22 256.07 1602.22 288.54 1612.08 308.27 1618.25 308.27 1625.64 317.72 1635.1 317.72 1651.12 281.55 1661.4 281.55 1661.4 269.22 1686.47 259.77 1686.47 251.55 1705.78 242.51 1700.44 235.93 1707.43 224.02 1723.87 240.04 1723.87 228.54 1709.89 210.45 1723.87 205.11 1730.03 209.63 1737.02 203.88 1731.67 203.88 1731.67 196.07 1739.07 196.07 1732.91 189.49 1732.91 183.74 1740.31 183.74 1740.31 164.84 1735.37 154.56 1756.33 129.9 1744.83 129.9 1744.83 124.97 1756.33 124.97 1772.77 112.23 1761.68 100.72 1729.21 123.74 1725.92 118.81 1749.35 100.72 1743.59 96.61 1735.79 103.6 1731.26 103.6 1731.26 99.9 1736.2 99.9 1736.2 92.5 1750.17 92.5 1735.79 78.12 1717.7 78.12 1717.7 75.24 1728.39 75.24 1713.59 65.38 1687.29 70.72 1687.29 76.48 1692.22 76.48 1692.22 82.23 1677.02 82.23 1677.02 98.26 1657.7 98.26 1657.7 81 1642.49 81 1631.4 94.97 1631.4 99.9 1621.12 99.9 1607.97 108.12 1607.97 111.41 1614.55 111.41 1602.22 125.38 1580.44 125.38 1580.44 129.08 1576.74 129.08 1583.31 140.59 1594 140.59 1594 147.57 1577.97 147.57 1585.37 160.73 1600.98 160.73 1607.56 167.3" fill="url(#f)"/>
      <g>
        <path d="M1545.09,289.16A7,7,0,0,1,1540,287l-24.64-25.78h-13a7,7,0,0,1-7-7v-5.75a7,7,0,0,1,7-7h13.55a7,7,0,0,1,1.9-4.38l7-7.39a6.94,6.94,0,0,1,1.79-1.37v-9.06l-6.21-7.91a7,7,0,0,1-2.8.58h-9.87a7,7,0,0,1-3.42-.89l-22.4-12.54a7,7,0,0,1-3.59-6.12V187a7,7,0,0,1,1.65-4.52,7,7,0,0,1,.54-9.62l22.61-21.38a7,7,0,0,1,9.23-.36l3.73,3a7,7,0,0,1,4.81-1.9h5.75a7,7,0,0,1,7,7v11.88h6.13a7,7,0,0,1,7,7v10.19l.09.05h2.34a7,7,0,0,1,5.67,2.89,7,7,0,0,1,2.75,1.81l5.75,6.16a7,7,0,0,1,1.89,4.79v2.88a6.9,6.9,0,0,1-.15,1.44,6.76,6.76,0,0,1,.15,1.44v1.61l4.52,4.52a7,7,0,0,1-4.76,12l11.27,11a7,7,0,0,1,.54,9.47l-11.1,13.56a7,7,0,0,1-3,2.16,7,7,0,0,1-2,6.17l-8.63,8.63v3.26a7,7,0,0,1-7,7Z" fill="#ddecf3"/>
        <polygon points="1485.3 192.34 1485.3 187 1491.87 187 1491.87 182.06 1485.3 177.96 1507.9 156.59 1514.27 161.72 1497.83 178.16 1497.83 189.26 1501.53 192.13 1504.82 185.97 1504.82 176.93 1508.52 176.93 1508.52 171.59 1520.85 159.26 1526.6 159.26 1526.6 173.64 1516.32 183.91 1521.67 190.9 1531.53 190.9 1531.53 178.16 1539.75 178.16 1539.75 192.54 1545.09 195.42 1549.2 195.42 1549.2 200.76 1552.49 200.76 1552.49 197.89 1558.24 204.05 1558.24 206.93 1552.08 206.93 1552.08 209.81 1558.24 209.81 1558.24 213.5 1552.49 213.5 1552.49 216.38 1560.3 216.38 1564.82 220.9 1556.19 220.9 1556.19 229.12 1571.39 243.92 1560.3 257.48 1554.13 249.67 1556.6 247.21 1548.38 238.99 1542.63 245.56 1555.78 265.29 1547.15 273.92 1538.93 265.29 1536.87 267.34 1545.09 276.8 1545.09 282.14 1518.38 254.19 1502.35 254.19 1502.35 248.44 1522.9 248.44 1522.9 241.86 1529.89 234.46 1533.59 234.46 1533.59 216.79 1517.15 195.83 1513.45 198.3 1517.56 204.87 1507.69 204.87 1485.3 192.34" fill="#c2e4ed"/>
        <path d="M1518,161.75a7,7,0,0,1-4.16-1.36l-14-10.27-.41-.33-5.76-4.93a7,7,0,0,1-2.45-5.33v-7.81a7,7,0,0,1,1.74-4.62l1.14-1.3v-1l-6.58-6.57a7,7,0,0,1-1-8.68l2-3.29a7,7,0,0,1,8.52-2.81l11.51,4.52a7,7,0,0,1,4.45,6.53v12.43l5.52,4h8a6.88,6.88,0,0,1,2.5.46l14,5.34a7,7,0,0,1,3.2,10.64l-8.22,11.5a7,7,0,0,1-5.71,2.94h-8.63a7.11,7.11,0,0,1-2.88-.61A7,7,0,0,1,1518,161.75Z" fill="#ddecf3"/>
        <polygon points="1503.99 144.46 1498.24 139.53 1498.24 131.72 1501.12 128.43 1501.12 121.86 1492.49 113.23 1494.54 109.94 1506.05 114.46 1506.05 130.49 1516.32 137.88 1526.6 137.88 1540.57 143.23 1532.35 154.74 1523.72 154.74 1523.72 147.75 1517.56 147.75 1517.97 154.74 1503.99 144.46" fill="#c2e4ed"/>
        <path d="M1546.74,142.44a7,7,0,0,1-2.72-.55l-30.41-12.74a7,7,0,0,1-3.88-8.87l1.64-4.52a7,7,0,0,1,5.45-4.53,7,7,0,0,1,4.54-7.9l3-1.06A7,7,0,0,1,1527,94.8l7.4-5.35a7.23,7.23,0,0,1,2.26-1.08,7,7,0,0,1,3.46-2.39V81.17a7,7,0,0,1,2.4-5.28l5-4.41-6.63-9.8a7,7,0,0,1-1.21-3.93V45a7,7,0,0,1,7-7h14.38a7,7,0,0,1,2.26.37,7,7,0,0,1,6.37-4.07h4.11a7,7,0,0,1,5.3,2.42l0,.06a7,7,0,0,1,6.57-4.54h7.81l.52,0a7,7,0,0,1,4-1.25h5.75a7,7,0,0,1,5.91,3.22l1.62,2.53h11a7,7,0,0,1,5.46,2.62L1643,58.28a7,7,0,0,1-.14,9l-7.4,8.63a7,7,0,0,1-4.93,2.44,7,7,0,0,1-3.52,3.84l-21.37,10.28a6.5,6.5,0,0,1-1.34.48,7,7,0,0,1-3.49,4l-9.87,4.93a7,7,0,0,1-5,.49,7,7,0,0,1-4.31,1.49h-3.26v6.13a7,7,0,0,1-2.33,5.22l-13.69,12.29v1.39a7,7,0,0,1-2.77,5.59L1551,141A7,7,0,0,1,1546.74,142.44Z" fill="#ddecf3"/>
        <polygon points="1516.32 122.68 1546.74 135.42 1555.37 128.84 1555.37 124.32 1571.39 109.94 1571.39 96.79 1581.67 96.79 1581.67 89.39 1584.55 89.39 1587.83 95.56 1597.7 90.62 1597.7 84.46 1600.98 84.46 1602.63 86.1 1624 75.83 1614.96 75.83 1614.96 71.31 1630.16 71.31 1637.56 62.68 1622.36 43.77 1607.56 43.77 1603.86 38.02 1598.11 38.02 1598.11 44.18 1596.05 44.18 1593.59 39.25 1585.78 39.25 1585.78 43.77 1579.2 47.47 1573.86 41.31 1569.75 41.31 1569.75 50.35 1561.12 45.01 1546.74 45.01 1546.74 57.74 1555.37 70.48 1576.74 70.48 1582.08 66.79 1585.78 70.08 1580.03 76.65 1563.17 76.65 1563.17 86.51 1553.72 75.42 1547.15 81.17 1547.15 92.68 1542.22 92.68 1548.38 99.25 1543.86 100.9 1538.52 95.14 1531.12 100.49 1534.41 105.01 1538.11 102.54 1540.57 105.01 1536.46 109.94 1541.39 115.69 1541.39 119.39 1536.87 119.39 1529.48 107.88 1523.72 109.94 1527.01 118.16 1517.97 118.16 1516.32 122.68" fill="url(#g)"/>
        <path d="M1362.62,161.75a7,7,0,0,1-7-6.14L1354,142.46a7,7,0,0,1,3.13-6.75l6.29-4.11a7,7,0,0,1,3.66-5.64l6.18-3.35v-4.45a7,7,0,0,1,7-7h11.92a6.94,6.94,0,0,1,2.81.59l5.23,2.29h4.7a7,7,0,0,1,7,7v15.61a7,7,0,0,1-4.49,6.55l-18.08,7a7.09,7.09,0,0,1-2.53.47h-3l-4.54,7.65a7,7,0,0,1-6,3.44Z" fill="#dfedf2"/>
        <polygon points="1362.62 154.74 1373.31 154.74 1379.88 143.64 1386.87 143.64 1404.95 136.65 1404.95 121.03 1398.79 121.03 1392.21 118.16 1380.29 118.16 1380.29 126.79 1370.43 132.13 1370.43 135.42 1360.98 141.58 1362.62 154.74" fill="#c2e4ed"/>
        <path d="M1422.21,204.5a7,7,0,0,1-5.27-2.39l-5.51-6.27-7.94,3.84a6.94,6.94,0,0,1-3.06.71h-16a7,7,0,0,1-7-7v-4L1371.2,186a7,7,0,0,1-3.68-6.18V172a7,7,0,0,1,5.75-6.91v-5a7,7,0,0,1,2.47-5.34,7,7,0,0,1,4.38-6.51l28.36-11.51a7,7,0,0,1,2.63-.51,7,7,0,0,1,6.46,4.25l.29.69h5.58a7.45,7.45,0,0,1,1.25.11,7,7,0,0,1,3.22-2.52,7,7,0,0,1,5.51.2l7,3.29a7,7,0,0,1,3.57,8.83l-6.84,18.12,5.84,7.59a7,7,0,0,1,.89,7l-2.47,5.76a7,7,0,0,1-5.18,4.14v3.78a7,7,0,0,1-7,7Z" fill="#ddecf3"/>
        <polygon points="1391.8 157.61 1391.8 160.08 1380.29 160.08 1380.29 166.65 1391.8 166.65 1398.38 176.52 1387.28 176.52 1380.29 172 1374.54 172 1374.54 179.81 1384.4 185.15 1384.4 193.37 1400.43 193.37 1413.17 187.2 1422.21 197.48 1429.2 197.48 1429.2 192.13 1425.5 192.13 1425.5 186.79 1434.95 186.79 1437.42 181.04 1429.2 170.35 1437.42 148.57 1430.43 145.28 1421.8 165.83 1418.1 164.19 1423.44 148.16 1418.1 148.16 1414.81 154.74 1409.47 154.74 1410.29 150.22 1413.58 148.98 1411.12 143.23 1382.76 154.74 1391.8 154.74 1391.8 157.61" fill="#c2e4ed"/>
        <path d="M1438.66,153.91a7,7,0,0,1-5.43-2.57A7.14,7.14,0,0,1,1432,149a7.08,7.08,0,0,1-5.11-2.83l-5.75-7.81a7,7,0,0,1,.84-9.28l7-6.57a7,7,0,0,1,4.81-1.91h2.52l5.5-4.28a7,7,0,0,1,7.92-.47l6.16,3.69a7.36,7.36,0,0,1,1.53,1.24l8.06-4.91a7,7,0,0,1,10.67,6v7.37h4.49a7,7,0,0,1,6.63,9.31l-3.7,10.69a7,7,0,0,1-6.63,4.72Z" fill="#ddecf3"/>
        <polygon points="1438.66 146.89 1476.88 146.89 1480.58 136.21 1472.77 136.21 1469.89 140.73 1464.55 140.73 1464.55 134.15 1469.07 132.51 1469.07 121.82 1459.62 127.58 1459.62 137.44 1452.22 137.44 1452.22 125.52 1446.06 121.82 1438.66 127.58 1433.73 127.58 1426.74 134.15 1432.49 141.96 1448.93 141.96 1448.93 144.84 1439.07 144.84 1438.66 146.89" fill="#c2e4ed"/>
        <path d="M1426.74,132.54a7.08,7.08,0,0,1-4-1.21l-10.27-7a7,7,0,0,1,.52-11.93l24.25-13.56a6.92,6.92,0,0,1,3.42-.89h11.51a7,7,0,0,1,7,7v5.76a7,7,0,0,1-2,4.87l-11.51,11.92a7,7,0,0,1-5,2.15,6.85,6.85,0,0,1-2.22-.37l-2.46-.82a7.08,7.08,0,0,1-1.68-.82l-2.48,2.65A7,7,0,0,1,1426.74,132.54Z" fill="#dfedf2"/>
        <polygon points="1416.47 118.54 1426.74 125.52 1438.25 113.19 1441.95 114.02 1438.25 121.82 1440.71 122.65 1452.22 110.73 1452.22 104.97 1440.71 104.97 1416.47 118.54" fill="#c2e4ed"/>
        <path d="M1291.23,388.25a7,7,0,0,1-5.54-2.71l-13.15-16.9a7,7,0,0,1-.76-7.39,6.8,6.8,0,0,1,1.63-2.15v-2.26l-18.29-24a7,7,0,0,1-1.12-6.36l1.66-5.26h-.72a7,7,0,0,1-7-7v-9.45a7,7,0,0,1,3.61-6.13l3.78-2.11V277.84l-1.2-.6a7,7,0,0,1-3.29.82h-6.16a7,7,0,0,1-6.17-3.67L1229.07,257l-29.9-19.55-15.6,9.19a7,7,0,0,1-2.56,10l-58,31.23a6.9,6.9,0,0,1-3.33.85,7,7,0,0,1-7-7v-6.17a7,7,0,0,1,3.46-6.05L1149.32,250l2-4h-9.8a7,7,0,0,1-6-10.59l.32-.55a7,7,0,0,1-6.23-7v-9a7,7,0,0,1,2.79-5.61,7,7,0,0,1,.9-8.81l9.46-9.45a7,7,0,0,1,9-.79l.11-.05a7,7,0,0,1,5.7-6l.37-.07a7,7,0,0,1-4.82-2.41l-5.34-6.16a7,7,0,0,1-1.72-4.6v-4.93a7,7,0,0,1,2.9-5.68A7,7,0,0,1,1154,157l24.24-7a6.66,6.66,0,0,1,1.92-.28V126.38a7,7,0,0,1,4.72-6.63l61.64-21.37a7,7,0,0,1,7.29,1.69l37.81,38.22a7,7,0,0,1,2,4.94v7.36h3.66a7,7,0,0,1,6.5,4.36l1.4,3.4a7.55,7.55,0,0,1,1.35-.52l36.17-9.87a7.28,7.28,0,0,1,1.85-.24,7,7,0,0,1,7,7v14.19l29.75,12.19a7,7,0,0,1,4.36,6.49v3.67h6.13a7,7,0,0,1,6.43,4.2l.45,1a6.91,6.91,0,0,1,2.43-1l12.33-2.47a7.16,7.16,0,0,1,1.37-.14,7,7,0,0,1,5.41,2.55l7.76,9.37h.68a7,7,0,0,1,5.79-4.87l9.46-1.23a6.84,6.84,0,0,1,.91-.06,7,7,0,0,1,5.76,3l.87,1.25,1.19-1.89-3.61-3.42a7,7,0,0,1-2.19-4.8l-.41-9.87a7,7,0,0,1,2.92-6l16-11.51a7,7,0,0,1,4.09-1.31h3.29a7,7,0,0,1,7,7v26.39a7.22,7.22,0,0,1,1.42.42,7,7,0,0,1,4.33,6.48v.81l4.17-7.2a7,7,0,0,1,4.8-3.38,6.85,6.85,0,0,1,1.28-.12,7,7,0,0,1,4.41,1.56l10.68,8.63a7,7,0,0,1,2.61,5.46V218a7,7,0,0,1-5.34,6.81v3.87a7,7,0,0,1-3.36,6L1484.65,247a7.12,7.12,0,0,1-3.67,1,7,7,0,0,1-3.43-.9,5.21,5.21,0,0,1-.74-.48l-8.92,10.76a7,7,0,0,1-5.41,2.54h-.16a7,7,0,0,1-6.82,5.34h-2.69a7,7,0,0,1-5.94,3.29H1444L1434.05,286l7.34,19.48L1469,319.89a7,7,0,0,1,3.78,6.22v.17l14.32-7V297.34a7,7,0,0,1,1.07-3.72l2.92-4.67-.07-1.27-2-1.35a7,7,0,0,1-2.22-9.3l7-12.33a7,7,0,0,1,6.11-3.55h19.72a7,7,0,0,1,6.25,3.81l8.63,16.85a7,7,0,0,1,.77,3.2V298l5.6-8.57a7,7,0,0,1,5.71-3.17h.17a7,7,0,0,1,5.68,2.9l6.53,9h3.81a7,7,0,0,1,7,7v28.32l3,4.61.78-.22a7,7,0,0,1,8.7,4.9l2.46,9a7,7,0,0,1-3.67,8.14l-28.35,14a7.13,7.13,0,0,1-3.11.72h-23.76l-3.38-.16-.44,0-9.53-1.06-16.39,9.36a7,7,0,0,1-7.69-.48l-7-5.23-20.37,10.46a7.16,7.16,0,0,1-3.21.77Z" fill="#ddecf3"/>
        <polygon points="1355.52 381.23 1457.86 381.23 1482.13 368.77 1492.63 376.64 1511 366.14 1522.81 367.45 1526.19 367.62 1549.61 367.62 1577.97 353.65 1575.51 344.61 1569.75 346.25 1562.77 335.56 1562.77 305.15 1555.37 305.15 1546.74 293.23 1532.76 314.6 1508.52 314.6 1508.52 293.64 1515.91 293.64 1515.91 305.15 1528.24 305.15 1528.24 285.01 1519.61 268.16 1499.88 268.16 1492.9 280.49 1497.83 283.78 1498.24 290.77 1494.13 297.34 1494.13 323.65 1473.99 333.51 1473.99 359.4 1465.77 354.47 1465.77 326.11 1435.77 310.5 1426.32 285.43 1439.88 261.59 1446.87 261.59 1440.29 255.01 1442.35 251.31 1448.92 258.3 1455.5 258.3 1455.5 249.67 1462.49 252.96 1476.46 236.11 1480.98 236.11 1480.98 241.04 1501.12 228.71 1501.12 218.03 1506.46 218.03 1506.46 210.22 1495.78 201.59 1482.21 225.01 1476.05 225.01 1476.05 218.85 1478.52 214.33 1478.52 204.46 1472.76 210.22 1472.76 193.37 1472.76 171.17 1469.47 171.17 1453.44 182.68 1453.86 192.54 1461.66 199.94 1440.29 233.64 1434.54 228.71 1448.51 211.04 1444.82 205.7 1435.36 206.93 1435.36 211.86 1424.68 211.86 1414.81 199.94 1402.48 202.41 1399.2 215.15 1391.8 198.3 1373.31 198.3 1373.31 192.96 1378.65 192.96 1378.65 187.61 1344.54 173.64 1344.54 154.74 1308.37 164.6 1308.37 173.64 1303.85 173.64 1297.28 157.61 1286.59 157.61 1286.59 143.23 1248.78 105.01 1187.13 126.38 1187.13 164.19 1187.13 167.89 1178.5 167.89 1178.5 164.6 1184.26 161.72 1180.15 156.79 1155.9 163.78 1161.24 169.94 1153.02 169.94 1153.02 174.87 1158.37 181.04 1180.56 181.04 1174.39 192.13 1158.78 195.01 1159.19 198.71 1150.15 202.41 1147.68 199.94 1138.23 209.4 1143.16 213.92 1143.16 218.85 1136.58 218.85 1136.58 227.89 1148.09 227.89 1141.52 238.99 1160.01 238.99 1160.01 244.33 1154.67 255.01 1119.73 275.56 1119.73 281.73 1177.68 250.49 1172.34 245.15 1202.34 227.48 1202.34 231.18 1234.4 252.14 1244.67 271.04 1250.84 271.04 1250.84 259.94 1254.94 259.94 1254.94 269.81 1262.34 273.51 1262.34 300.63 1254.94 304.74 1254.94 314.19 1265.22 314.19 1260.7 328.58 1280.42 354.47 1280.42 364.33 1278.08 364.33 1291.23 381.23 1355.52 381.23" fill="url(#h)"/>
      </g>
      <polygon points="1273.03 357.35 1268.51 357.35 1268.51 375.84 1259.88 384.47 1259.88 398.44 1253.71 407.49 1253.71 441.6 1273.03 462.14 1300.15 472.42 1323.17 472.42 1333.44 486.39 1337.55 486.39 1340.02 483.1 1346.18 483.1 1352.76 503.24 1359.33 503.24 1379.06 481.05 1398.79 481.05 1398.79 485.98 1421.39 485.98 1421.39 481.46 1427.14 481.46 1433.31 511.05 1439.47 506.94 1439.47 474.06 1465.77 453.51 1465.77 445.29 1469.47 445.29 1469.47 428.03 1472.35 428.03 1472.35 432.96 1475.23 432.96 1475.23 418.17 1500.71 418.17 1500.71 405.02 1515.5 393.51 1528.65 393.51 1528.65 397.21 1523.72 397.21 1515.91 405.43 1519.2 408.31 1526.6 401.32 1541.39 401.32 1541.39 396.8 1534 393.1 1534 373.79 1524.95 373.79 1501.73 389.61 1497.83 385.7 1522.9 367.62 1526.19 367.62 1522.81 367.45 1511 366.14 1492.63 376.64 1482.13 368.77 1457.86 381.23 1355.52 381.23 1291.23 381.23 1278.08 364.33 1277.14 364.33 1273.03 357.35" fill="url(#i)"/>
      <polygon points="807.83 551.68 802.36 564.96 819.21 579.34 820.62 579.34 808.16 551.8 807.83 551.68" fill="none"/>
      <polygon points="876.72 413.05 886.56 399.27 880 385.5 884.59 375.66 876.06 369.1 875.8 368.88 850.48 357.29 878.55 320.46 840.5 320.46 803.9 346.13 761.26 346.13 761.4 364.67 623.82 368.77 623.82 419.94 583.14 419.94 583.14 437 592.65 446.51 583.14 461.93 561.49 461.93 553.62 475.05 638.9 500.63 686.14 472.42 714.35 478.33 701.88 504.57 734.03 504.57 758.3 522.28 785.2 522.28 785.2 543.27 807.83 551.68 808.12 550.99 821.68 550.99 824.56 558.38 819.63 558.38 819.63 564.96 827.02 564.96 832.78 558.38 828.25 550.57 859.9 534.13 872.64 513.59 872.64 492.22 854.15 475.78 854.15 468.38 859.04 462.87 867.3 453.58 857.02 453.58 853.77 456.84 851.27 459.34 841.41 449.48 841.41 442.7 841.29 442.57 855.07 415.02 876.72 413.05" fill="url(#j)"/>
      <polygon points="820.63 579.36 820.66 579.34 820.62 579.34 820.63 579.36" fill="#f1f1f1"/>
      <polyline points="553.62 475.05 561.49 461.93 583.14 461.93 592.65 446.51 583.14 437 583.14 419.94 623.82 419.94 623.82 368.77 761.4 368.88 761.26 356.25 803.9 356.25 828.57 330.28 866.62 330.28 850.48 357.29 875.8 368.88 876.06 369.1 884.59 375.66 880 385.5 886.56 399.27 876.72 413.05 855.07 415.02 841.29 442.57 841.41 442.7 841.41 442.49 856.2 442.49 856.2 449.48 865.65 442.08 876.75 442.08 876.75 450.71 885.79 454.41 885.79 457.69 880.86 458.93 886.2 474.54 898.94 465.5 882.5 435.09 899.35 424.82 921.96 375.09 911.27 333.58 900.18 327 896.89 332.35 891.96 332.35 887.85 324.54 879.63 324.54 891.54 266.59 933.88 266.59 933.88 269.88 929.36 273.58 931.82 277.69 945.79 270.7 945.79 265.36 940.04 265.36 940.04 245.63 949.9 238.65 955.25 250.15 958.95 250.15 964.29 237 958.12 224.67 962.64 224.67 970.45 239.47 965.52 246.45 965.52 274.81 960.59 280.15 960.59 293.71 984.43 341.39 991.41 331.11 990.59 312.62 997.58 308.51 997.58 303.58 990.18 297.41 985.25 276.87 981.55 276.87 976.62 251.38 981.14 251.38 981.14 246.45 985.66 251.38 989.77 244.4 1002.92 244.4 1022.24 212.34 1013.61 194.67 993.06 194.67 993.06 188.92 1003.74 188.92 1007.03 182.75 1007.03 173.71 998.81 170.42 998.81 165.9 1032.92 165.9 1032.92 160.15 1024.29 153.16 1030.04 147 1030.04 137.54 1023.47 129.74 1004.15 129.74 1016.89 145.76 1010.32 145.76 997.17 129.74 928.53 129.74 943.74 147 937.58 151.11 921.96 138.37 921.96 146.18 904.7 149.05 904.7 157.27 896.48 149.05 886.61 149.05 877.16 140.01 861.96 149.05 850.45 142.07 845.11 144.94 838.12 141.24 838.12 136.72 829.49 136.72 829.49 141.66 826.61 146.59 825.38 140.83 822.09 143.3 820.45 140.01 797.02 141.24 810.58 157.27 802.77 164.67 798.25 161.38 793.73 161.38 793.73 166.31 784.28 160.56 784.28 173.71 779.76 175.35 767.02 161.79 720.17 161.79 720.17 153.98 704.14 160.97 698.39 156.45 693.04 158.92 693.04 164.67 685.65 170.42 682.36 179.46 679.07 178.23 688.93 144.94 686.06 140.83 688.93 137.13 678.25 128.5 678.25 133.02 667.15 124.39 656.88 129.32 649.07 124.39 644.55 130.15 642.08 128.5 647.43 121.52 645.37 119.05 635.51 119.05 633.45 133.85 640.85 138.78 628.11 147.82 619.89 146.18 616.81 149.26 621.33 150.9 599.14 170.63 611.67 179.05 611.67 187.27 607.15 187.27 607.15 181.93 587.84 190.56 593.18 200.42 604.27 200.42 622.36 229.19 619.89 232.48 604.27 223.85 604.27 215.22 607.15 215.22 607.15 210.29 600.58 210.29 585.37 201.66 583.31 204.94 589.48 208.64 587.84 211.11 582.08 208.23 580.44 211.11 591.95 216.86 591.95 220.15 582.08 220.15 576.74 209.88 570.99 213.57 582.08 236.18 600.58 236.18 600.58 247.69 592.36 240.29 587.01 243.16 590.71 260.84 585.78 270.29 569.75 267.41 570.99 263.3 580.44 265.36 583.73 247.28 578.79 245.22 572.63 226.73 565.23 222.21 565.23 207.82 550.02 204.94 550.02 227.14 554.13 230.43 552.08 234.95 553.72 240.29 559.89 240.29 568.11 245.63 566.88 250.56 561.53 250.56 552.08 293.3 552.08 347.55 531.94 384.54 531.94 410.02 538.93 410.02 542.63 421.12 531.12 421.12 531.12 428.93 545.09 437.56 545.09 452.76 553.31 467.97 553.31 474.95" fill="url(#k)"/>
      <polygon points="686.14 472.42 638.83 500.61 638.9 500.63 686.14 472.42" fill="#f1f1f1"/>
      <g>
        <path d="M412.35,485.25a7,7,0,0,1-4.78-1.89l-6.17-5.76a7,7,0,0,1-.88-9.26l.6-.82L397.35,465a6.91,6.91,0,0,1-2.73.88,7.05,7.05,0,0,1-1.27,2.94l-5.75,7.81a7.06,7.06,0,0,1-5.66,2.85,6.87,6.87,0,0,1-3.13-.75l-2.47-1.23a7,7,0,0,1-3.31-9l1.9-4.43V464a7,7,0,0,1-4.91-6.26L360,455a7,7,0,0,1-4.41-3.56l-5.43-10.58h-3.94l-6.3,5a7,7,0,0,1-4.39,1.53h-2.43a7,7,0,0,1-2.59,5.41l-10,8.18a6.89,6.89,0,0,1,.29,2v6.58a7,7,0,0,1-7,7h-1.4a7,7,0,0,1-6.82,5.34h-7.62a7,7,0,0,1-5.94,3.28h-7.4a7,7,0,0,1-5.68-2.9l-1.18-1.63h-3.41a7,7,0,0,1-7-7V470a7,7,0,0,1-3.7-6.19V457.6a7,7,0,0,1,1.85-4.75l2.68-2.91v-5.76l-1.61-2.95a7,7,0,0,1,3.57-9.87l10.27-4.11a7,7,0,0,1,6.26.53,7.24,7.24,0,0,1,1.69-.2H294a7,7,0,0,1,6.19,3.7H301l1.7-3.77L299,424.35a7,7,0,0,1-1.87-2.46h-2.65a7,7,0,0,1-7-7v-7.81a7,7,0,0,1,7-7h5.77a7,7,0,0,1,6.56-4.52h2.88a6.92,6.92,0,0,1,3.21.78l9.5-9.76v-5.77a7,7,0,0,1,4.52-6.56l8.63-3.28a6.92,6.92,0,0,1,2.5-.46h2.55l-1-3.18a7.33,7.33,0,0,1-.32-2.13v-8.63a6.91,6.91,0,0,1,.23-1.76,6.88,6.88,0,0,1-1.43.15,7,7,0,0,1-4.62-1.74l-6.57-5.76a7,7,0,0,1-2.4-5.28v-14.8a7,7,0,0,1,1-3.6,7,7,0,0,1,1.42-9.83L350,296.72V282.57a7,7,0,0,1,2.35-5.24l12.86-11.46v-.55a7.08,7.08,0,0,1,1.1-3.77l.06-.08a7,7,0,0,1,1.56-8.33l4.52-4.11a7.07,7.07,0,0,1,3.64-1.74,7,7,0,0,1,6.84-5.42H386l2.83-3.76a7,7,0,0,1,4.7-2.75,7,7,0,0,1,5-2.11H403a6.76,6.76,0,0,1,1.44.15,6.9,6.9,0,0,1,1.44-.15h7a7,7,0,0,1,3.32.84l10.69,5.76a7,7,0,0,1,1.8,1.39l2.9.27a5.72,5.72,0,0,1,1,.17l26.84,6.54.95-.84a7,7,0,0,1,4.67-1.77,6.94,6.94,0,0,1,3.49.93L485,256a7.07,7.07,0,0,1,3.16,3.89l8.52-8.51a7,7,0,0,1,3.9-2,6.8,6.8,0,0,1,2-2.1,7,7,0,0,1,4-1.27,7.09,7.09,0,0,1,2.4.42l4.52,1.65a7.2,7.2,0,0,1,1.05.49l5.85-3.48-2-1.13a7,7,0,0,1-3.15-8.6l1.24-3.28a7,7,0,0,1,3.78-4,7.1,7.1,0,0,1,5.48,0l38.62,16.05a7,7,0,0,1,4.16,8l-9.31,42,0,53.48a6.91,6.91,0,0,1-.86,3.36L539,386.39v23.69a7,7,0,0,1-7,7h-.79v.38a7,7,0,0,1-3.64,6.15L523,426.14v2.56l17.45,19a7,7,0,0,1,1.28,7.52l-3.7,8.63a7,7,0,0,1-4.18,3.87,7,7,0,0,1-5.67-.5l-14-7.76h-9.28a7,7,0,0,1-3.66-1l-7.4-4.53a7,7,0,0,1-3.35-6v-4.3l-19-7.69a7,7,0,0,1-3.92-9l-8,2.27a7,7,0,0,1-1.93.27h-9.45a7,7,0,0,1-1.89-.26l-6.05,12.7.53.76a7,7,0,0,1-1.34,9.48l-8.63,7a7,7,0,0,1-8.64.15A6.87,6.87,0,0,1,421,461l2.91,2.51A7,7,0,0,1,425,473l-7,9.44a7,7,0,0,1-5,2.82C412.78,485.24,412.57,485.25,412.35,485.25Z" fill="#ddecf3"/>
        <path d="M507.43,241.59a7,7,0,0,1-5.52-2.68l-1.22-1.56h0a7,7,0,0,1-9-3.34l-3.28-6.58a7,7,0,0,1,.31-6.84,7.05,7.05,0,0,1-1.05-3.7v-5.34a7,7,0,0,1,.81-3.29,7,7,0,0,1-.81-3.29v-3.69a7,7,0,0,1,.43-2.4l.91-2.52a7,7,0,0,1-1.33-4.13v-4.52a7,7,0,0,1,6.79-7L500,169.79a7,7,0,0,1,6.28-3.88h3.55l8.75-6.09v-2.5a7,7,0,0,1,7-7h8.22a7,7,0,0,1,7,7v11.1a7,7,0,0,1-2.38,5.26l-25.17,22.14v13.78l9.21,20a7,7,0,0,1-4.76,9.76l-8.63,2.05A6.4,6.4,0,0,1,507.43,241.59Z" fill="#ddecf3"/>
        <path d="M399.83,832.93a7.07,7.07,0,0,1-5.08-2.17l-9-9.46a7,7,0,0,1,1-10.59L371,758.38l-10.39-11.13a7,7,0,0,1-1.88-4.79V728.89a7,7,0,0,1,7.12-7l3.16,0,0-23-18.56-28.85a7,7,0,0,1,0-7.64l6.24-9.55L354.7,649l-50.12,0a7,7,0,0,1-6.39-4.13l-4.71-10.44H271.71a7,7,0,0,1-5.42-2.56L253.2,615.85h-7.37a7,7,0,0,1-5.4-2.54l-14-16.86a7,7,0,0,1-1.11-7.08l7.73-19.29v-7.26a7,7,0,0,1-6.57-7v-9.45a7,7,0,0,1,1.89-4.8l23.85-25.47a7,7,0,0,1,4.26-2.16l3.71-.46v-6.14a7,7,0,0,1,2.4-5.28l4.18-3.65v-1.75a7,7,0,0,1,3.33-6l10.65-6.57v-6a7,7,0,0,1,7-7h5.34a7,7,0,0,1,7,6.58h2a7,7,0,0,1,3.15.76l13-7.6a7.06,7.06,0,0,1,3.54-.95H337.8l14.66-4.24a7,7,0,0,1,7.57,2.53l8.62,11.52a7,7,0,0,1,0,8.42l-1.4,1.86.06.06h14.63a7,7,0,0,1,4.23,1.42l10.53,8v-2.78a7,7,0,0,1,4.86-6.67l12.75-4.1a7,7,0,0,1,6.92,1.53l9.39,8.7,14.06,1.54,4.05-2.7a7.08,7.08,0,0,1,3.89-1.17h11.69l3.26-8.14-.63-3.84-6.22,3.67a7,7,0,0,1-8.31-.87l-.46-.42a6.92,6.92,0,0,1-4.25,1.44h-5.76a7,7,0,0,1-4.31-1.49,7,7,0,0,1-6.51-1.53l-3.7-3.29a7,7,0,0,1-1.61-8.38l.9-1.81v-2.73a7,7,0,0,1-4.93-6.71V454a7,7,0,0,1,7-7h11.78l10-8.57a7,7,0,0,1,4.58-1.7l21.37,0a7,7,0,0,1,7,7v1l2.67.86,8.13-4.06a7,7,0,0,1,6.8.29l5.71,3.49h9.12a7,7,0,0,1,3.4.88L535,454.9a7,7,0,0,1,3.62,6.14v3.13l16.43,4,.48.13.17.05L640.84,494a7,7,0,0,1,1.57,12.76l-12.47,7.41-9.71,21.44a7,7,0,0,1-5,4,6.92,6.92,0,0,1-2.72,0H590.78l3.43,3.43a7,7,0,0,1,1.37,8l-6,12.53a7,7,0,0,1-6.34,4h-4l-49.07,32.78h9.05l10-8.25a7,7,0,0,1,10.12,1.24l7,9.46a7,7,0,0,1,.94,6.59l-7.41,20.14a7,7,0,0,1-1.81,2.72l-54.5,50.49v13.81a7,7,0,0,1,6.16,7l0,27.54a7,7,0,0,1-2.94,5.71L479.63,756v17.75a7,7,0,0,1-3.71,6.18l-6.09,3.26.31.83a7,7,0,0,1-1.65,7.45L433.12,826.4a7,7,0,0,1-4.94,2H408.29L404,831.57A7,7,0,0,1,399.83,832.93Zm-27-93.23L382.4,750a7.08,7.08,0,0,1,1.59,2.76l18.05,60a7.18,7.18,0,0,1,.27,2.63,7,7,0,0,1,3.69-1h19.31l30.07-29.69-.86-2.32a7,7,0,0,1,3.26-8.65l7.8-4.17V752.38a7,7,0,0,1,3-5.71l27.07-19.26V710.46a7,7,0,0,1-6.16-7V679.65a7,7,0,0,1,2.25-5.14l55.51-51.43,5.52-15-.33-.45-6.21,5.13a7,7,0,0,1-4.47,1.61l-35.35,0a7,7,0,0,1-7-7V595.18l-10.64-19.06h-4.11a7,7,0,0,1-7-7V555.88l-18.25-29.55a7,7,0,0,1,1.23-8.86l4.93-4.52a7,7,0,0,1,10.3.89L498,542.62a7,7,0,0,1,.37,8L516.94,571a7.06,7.06,0,0,1,1.84,4.74v12.49l1.83,1.66,52.61-35.16a7,7,0,0,1,3.9-1.18h1.73l1.73-3.63h-5.92a7,7,0,0,1-5.61-2.81l-3-4-3.79,3.12a7,7,0,0,1-4.47,1.61H550a7,7,0,0,1-5.58-2.76L524.7,519.12a7,7,0,0,1-.76-7.24l3.29-7a7,7,0,0,1,6.35-4h6.58a7,7,0,0,1,5.78,3.06l8.45,12.33,9.79,2.88,5.18-1.21a7,7,0,0,1,7.26,2.67l3.65,5h29.1l8.7-19.2a7,7,0,0,1,2.8-3.13l.65-.39-69.91-21-.11,0-21.63-5.32a7,7,0,0,1-5.34-6.82v-4.49l-10.41-5.75h-9.28a7,7,0,0,1-3.66-1l-4.08-2.5-7.21,3.6a7,7,0,0,1-5.28.41l-10.27-3.3a7,7,0,0,1-4.82-5.83h-11.8l-10,8.57a7,7,0,0,1-4.58,1.7h-2.43v7.74H442a6.82,6.82,0,0,1,2,.29,7,7,0,0,1,3.78-1.11h4.52a7,7,0,0,1,4.74,1.84l1.09,1,4.57-2.69a7,7,0,0,1,3.57-1h6.58A7,7,0,0,1,479.7,473l2,12.34a7.11,7.11,0,0,1-.4,3.76l-5.77,14.38a7,7,0,0,1-6.52,4.4H454.74l-4.4,2.92a7,7,0,0,1-4.65,1.14l-18.9-2.07a6.94,6.94,0,0,1-4-1.83l-8.08-7.48-4,1.27v8a7,7,0,0,1-7,7h-4.93a7,7,0,0,1-4.23-1.43l-15-11.33H364.26a7,7,0,0,1-5.12-2.23L353,495.33a7,7,0,0,1-.49-9l1.77-2.36-2.56-3.42-11,3.17a7.12,7.12,0,0,1-1.95.27h-15l-18.1,10.55a7,7,0,0,1-9.72-2.75h-2.25a7.11,7.11,0,0,1-2.26,2.24l-10.65,6.56v1a7,7,0,0,1-2.4,5.28l-4.18,3.65v9.15a7,7,0,0,1-6.15,7l-7.35.91-19.94,21.29a7,7,0,0,1,6.29,7v15.62a7,7,0,0,1-.5,2.6l-6.68,16.67,9.2,11.11h7.39a7,7,0,0,1,5.42,2.57L275,620.32h23a7,7,0,0,1,6.4,4.13l4.7,10.44,49.83,0a7,7,0,0,1,6.21,3.75L371.1,650a7,7,0,0,1-.33,7.11l-6,9.19L382,693.05a6.94,6.94,0,0,1,1.11,3.8v32.2a7,7,0,0,1-7,7H376l-3.16,0ZM553.48,533.76h1.81l2.32-1.92-7.21-2.12Z" fill="#ddecf3"/>
        <path d="M283.76,392.1a7,7,0,0,1-6.54-9.54l1.2-3.13-.24-.19a7,7,0,0,1-2.53-5.4v-6.16a7,7,0,0,1,1.9-4.8L274.23,358a7,7,0,0,1-1.17-4.69L274.61,339a7,7,0,0,1,7-6.26h9.25a7,7,0,0,1,7,6.87,7,7,0,0,1,4,6.32v12.9l3.39,5.2h.61a7,7,0,0,1,7,7v5.29a7,7,0,0,1-3.16,5.86,7,7,0,0,1-7,6h-9.62l-1.44,1.61a7,7,0,0,1-5.24,2.35Z" fill="#ddecf3"/>
        <path d="M274.31,353.11a7,7,0,0,1-6.95-7.95l.89-6.61a7,7,0,0,1,7-6.09h4.84a7,7,0,0,1,6.51,9.62l-2.64,6.61a7,7,0,0,1-6.52,4.41Z" fill="#ddecf3"/>
        <path d="M268.57,383.94l-.7,0-4.4-.45a7,7,0,0,1-5.79-9.66l.16-.39a7,7,0,0,1-1.54-5l.44-5.28a7,7,0,0,1,7-6.43h.8l.76-1.65a7,7,0,0,1,6.37-4.08H280a7,7,0,0,1,7,7v12.34a7,7,0,0,1-6.94,7,7,7,0,0,1-5,3l-.41,0A7,7,0,0,1,268.57,383.94Z" fill="#ddecf3"/>
        <polygon points="531.99 410.08 524.18 410.07 524.18 417.47 515.95 421.99 515.95 431.44 535.25 452.41 531.55 461.04 515.94 452.4 504.84 452.39 497.45 447.87 497.45 438.82 474.03 429.36 479.38 419.91 475.68 415.8 478.97 412.92 469.11 412.92 469.11 419.08 457.6 422.36 448.14 422.36 448.15 416.6 444.45 416.6 432.1 442.49 434.98 446.6 426.34 453.58 422.65 450.29 415.66 450.29 415.66 456.45 412.37 456.45 412.37 451.93 410.32 451.93 410.31 460.97 419.35 468.78 412.36 478.23 406.19 472.47 409.49 467.95 409.49 464.67 398.39 457.26 398.4 446.58 377.45 435.06 377.45 426.02 364.71 426.01 364.71 436.69 393.88 456.03 393.87 458.9 390.18 458.9 389.36 455.61 385.25 454.79 385.24 460.95 387.71 464.65 381.95 472.46 379.48 471.22 381.95 465.47 381.96 457.25 377.02 457.25 377.03 452.32 361.82 448.2 354.43 433.81 343.75 433.81 335.53 440.38 326.07 440.37 326.07 447.36 310.44 460.09 310.44 462.96 313.73 462.97 313.73 469.54 305.51 469.54 305.5 474.88 291.94 474.87 291.94 478.16 284.54 478.16 281.26 473.63 274.27 473.63 274.28 463.77 270.58 463.76 270.58 457.6 275.11 452.67 275.11 442.4 272.65 437.87 282.93 433.77 285.39 437.88 288.26 437.88 288.27 434.6 294.02 434.6 294.02 438.3 305.53 438.3 311.29 425.57 303.48 418.99 303.48 414.88 294.44 414.87 294.45 407.06 306.78 407.07 306.78 402.55 309.66 402.55 309.65 405.02 314.18 405.02 329.39 389.41 329.39 380.78 338.03 377.5 346.66 377.5 346.66 374.22 349.13 374.22 346.25 365.17 346.26 356.54 352.43 350.79 354.07 354.08 352.42 356.14 352.42 358.19 355.71 358.19 355.71 361.07 353.24 361.07 352.01 365.18 356.53 369.7 360.23 367.24 356.94 362.71 364.75 356.96 355.31 339.29 347.91 339.28 338.05 347.91 331.47 342.15 331.48 327.36 335.18 326.13 334.77 322.43 331.07 319.55 356.98 300.25 356.99 282.57 372.2 269.02 372.2 265.32 375.08 260.8 372.62 258.34 377.14 254.23 380.43 257.11 382.89 255.88 382.9 248.89 389.47 248.89 394.41 242.32 396.87 242.32 396.87 245.2 398.52 245.2 398.52 240.27 403.04 240.27 403.04 246.85 405.91 246.85 405.92 240.27 412.9 240.28 423.59 246.03 423.58 248.09 416.19 248.09 416.18 252.61 426.46 252.61 426.46 248.09 430.98 248.51 461.39 255.92 465.09 252.63 481.52 262.1 477.41 267.44 485.22 272.78 501.67 256.35 506.6 258.82 506.6 253.07 511.12 254.72 511.12 258.83 528.38 248.56 528.38 253.49 535.78 249.39 535.78 245.69 521.81 237.87 523.05 234.59 561.67 250.63 552.19 293.37 552.16 347.62 532 384.6 531.99 410.08" fill="url(#l)"/>
        <polygon points="516.06 232.53 506.21 211.15 506.22 192.66 533.77 168.42 533.78 157.33 525.56 157.32 525.55 163.49 511.99 172.93 506.23 172.93 498.83 187.72 494.72 187.72 494.71 192.24 498 192.24 494.71 201.28 494.71 204.98 499.64 204.98 499.64 208.27 494.7 211.55 494.7 216.9 497.99 218.13 497.99 221.42 494.7 224.29 497.98 230.87 502.91 228.82 507.43 234.58 516.06 232.53" fill="#c2e4ed"/>
        <polyline points="553.32 475.02 531.54 469.67 531.55 461.04 515.94 452.4 504.84 452.39 497.45 447.87 486.76 453.2 476.49 449.91 476.49 443.75 455.12 443.73 443.19 454 428.81 453.99 428.81 459.75 433.74 459.75 433.73 470.84 432.09 474.13 435.78 477.42 437.43 475.78 441.95 475.78 441.95 478.66 447.7 478.66 447.7 474.96 452.22 474.96 457.15 479.49 466.2 474.15 472.77 474.15 474.82 486.49 469.06 500.87 452.62 500.86 446.45 504.96 427.55 502.9 416.46 492.62 403.72 496.72 403.71 509.87 398.78 509.87 381.93 497.12 364.26 497.11 358.1 490.53 363.04 483.95 354.41 472.44 338.79 476.95 321.94 476.94 302.21 488.44 302.21 484.74 293.17 484.74 293.17 478.16 287.83 478.16 287.83 488.02 273.85 496.64 273.85 501.58 267.27 507.33 267.26 519.65 257.39 520.88 233.54 546.35 233.54 555.8 240.11 555.81 240.1 571.42 231.87 591.97 245.84 608.83 256.52 608.83 271.72 627.33 298.02 627.35 304.59 641.91 358.94 641.95 364.89 653.26 356.4 666.26 376.07 696.85 376.05 729.04 365.77 728.9 365.76 742.46 377.27 754.8 395.31 814.81 390.79 816.45 399.83 825.91 406 821.39 428.19 821.4 463.55 786.49 461.09 779.91 472.6 773.75 472.61 752.38 502.63 731.03 502.64 703.5 496.48 703.49 496.49 679.65 553.24 627.08 560.64 606.95 553.66 597.49 541.74 607.35 506.4 607.33 506.4 593.36 492.86 569.1 484.64 569.1 484.64 553.89 465.35 522.64 470.28 518.13 492.46 546.91 489.58 551.43 511.76 575.69 511.75 591.3 519.96 598.71 577.11 560.52 583.27 560.52 589.24 547.99 584.11 542.85 574.65 542.85 567.26 532.98 557.81 540.78 550 540.78 530.28 514.87 533.58 507.89 540.15 507.89 550.01 522.28 563.98 526.4 570.97 524.76 576.72 532.57 613.7 532.59 613.84 532.72 624.46 509.27 638.82 500.72 553.63 475.11" fill="url(#m)"/>
        <polygon points="281.59 339.71 290.84 339.71 289.08 345.88 294.8 345.88 294.8 360.86 301.4 371 305.8 371 305.8 376.28 302.72 376.28 302.71 381.13 289.94 381.12 286.41 385.08 283.77 385.08 285.97 379.36 291.92 376.06 288.62 372.75 282.67 373.85 282.68 367.68 289.28 367.68 280.04 354.02 281.59 339.71" fill="#80b4d9"/>
        <polygon points="280.05 339.49 277.4 346.09 274.32 346.09 275.2 339.48 280.05 339.49" fill="#80b4d9"/>
        <polygon points="271.67 357.98 269.02 363.71 263.74 363.7 263.29 368.99 267.26 368.99 264.17 376.48 268.57 376.92 270.34 373.84 274.3 373.4 276.07 370.32 280.03 370.32 280.04 357.99 271.67 357.98" fill="#80b4d9"/>
      </g>
      <path d="M722.77,196.23l4.58-4.41a9.53,9.53,0,0,1,13.61.42l3.67,4" fill="url(#n)"/>
      <g>
        <path d="M1317.18,288.54l-10-9.65a9.53,9.53,0,0,0-13.61.42l-8.5,9.23" fill="url(#o)"/>
        <path d="M1289.73,288.54l-4.59-4.4a9.52,9.52,0,0,0-13.6.42l-3.67,4" fill="url(#p)"/>
      </g>
      <path d="M658.48,215.91l4.58-4.41a9.53,9.53,0,0,1,13.61.42l3.67,4" fill="url(#q)"/>
      <g>
        <path d="M1225.62,209.35l10-9.65a9.52,9.52,0,0,1,13.61.41l8.5,9.24" fill="url(#r)"/>
        <path d="M1253.07,209.35l4.58-4.41a9.53,9.53,0,0,1,13.61.42l3.67,4" fill="url(#s)"/>
      </g>
      <path d="M940.07,483.85l9.19-8.84a8.73,8.73,0,0,1,12.47.39l7.78,8.45" fill="url(#t)"/>
      <g>
        <path d="M894.76,790l10-9.66a9.53,9.53,0,0,1,13.61.42l8.5,9.24" fill="url(#u)"/>
        <path d="M922.21,790l4.58-4.41a9.53,9.53,0,0,1,13.61.42l3.67,4" fill="url(#v)"/>
      </g>
      <g>
        <path d="M885.93,762.39l7.49-7.2a7.12,7.12,0,0,1,10.16.31l6.33,6.89" fill="url(#w)"/>
        <path d="M906.41,762.39l3.42-3.28a7.09,7.09,0,0,1,10.15.31l2.74,3" fill="url(#x)"/>
      </g>
      <g>
        <path d="M867.21,808.88l7.74-7.45a7.36,7.36,0,0,1,10.51.32l6.55,7.13" fill="url(#y)"/>
        <path d="M888.39,808.88l3.53-3.4a7.36,7.36,0,0,1,10.51.32l2.83,3.08" fill="url(#z)"/>
      </g>
      <g>
        <path d="M1256.46,247.4l10-9.65a9.51,9.51,0,0,1,13.6.41l8.5,9.24" fill="url(#aa)"/>
        <path d="M1283.9,247.4l4.59-4.41a9.52,9.52,0,0,1,13.6.42l3.67,4" fill="url(#ab)"/>
      </g>
      <g>
        <path d="M480.9,678.42l-10-9.65a9.51,9.51,0,0,0-13.6.41l-8.5,9.24" fill="url(#ac)"/>
        <path d="M453.45,678.42,448.87,674a9.53,9.53,0,0,0-13.61.42l-3.66,4" fill="url(#ad)"/>
      </g>
      <g>
        <path d="M489.43,713.19l-10-9.65a9.52,9.52,0,0,0-13.61.41l-8.49,9.24" fill="url(#ae)"/>
        <path d="M462,713.19l-4.58-4.41a9.53,9.53,0,0,0-13.61.42l-3.67,4" fill="url(#af)"/>
      </g>
      <g>
        <path d="M477.52,625.94l10-9.66a9.53,9.53,0,0,1,13.61.42l8.49,9.24" fill="url(#ag)"/>
        <path d="M505,625.94l4.58-4.41a9.53,9.53,0,0,1,13.61.42l3.67,4" fill="url(#ah)"/>
      </g>
      <g>
        <path d="M452.59,652.83l10-9.65a9.53,9.53,0,0,1,13.61.42l8.49,9.23" fill="url(#ai)"/>
        <path d="M480,652.83l4.58-4.4a9.53,9.53,0,0,1,13.61.41l3.67,4" fill="url(#aj)"/>
      </g>
      <g>
        <path d="M1500.59,756.67l8.23-7.91a7.81,7.81,0,0,1,11.15.35l7,7.56" fill="url(#ak)"/>
        <path d="M1523.08,756.67l3.76-3.6a7.8,7.8,0,0,1,11.15.34l3,3.26" fill="url(#al)"/>
      </g>
      <g>
        <path d="M1530,787.39l-8.23-7.91a7.8,7.8,0,0,0-11.15.34l-7,7.57" fill="url(#am)"/>
        <path d="M1507.53,787.39l-3.75-3.61a7.8,7.8,0,0,0-11.15.34l-3,3.27" fill="url(#an)"/>
      </g>
      <g>
        <path d="M1492.63,729.92l8.23-7.91a7.8,7.8,0,0,1,11.15.35l7,7.56" fill="url(#ao)"/>
        <path d="M1515.12,729.92l3.76-3.61a7.81,7.81,0,0,1,11.15.35l3,3.26" fill="url(#ap)"/>
      </g>
      <g>
        <path d="M1465.26,684.3l8.23-7.91a7.8,7.8,0,0,1,11.15.35l7,7.56" fill="url(#aq)"/>
        <path d="M1487.75,684.3l3.75-3.61a7.8,7.8,0,0,1,11.15.35l3,3.26" fill="url(#ar)"/>
      </g>
      <g>
        <path d="M1485.61,707.47l8.23-7.92a7.81,7.81,0,0,1,11.15.35l7,7.57" fill="url(#as)"/>
        <path d="M1508.1,707.47l3.76-3.61a7.8,7.8,0,0,1,11.15.34l3,3.27" fill="url(#at)"/>
      </g>
      <path d="M1427.15,248a11.36,11.36,0,0,1,7,2.43,18.14,18.14,0,0,1,26.73-5.48,22.71,22.71,0,0,1,40.24,14.44h-85.4A11.39,11.39,0,0,1,1427.15,248Z" fill="url(#au)"/>
      <polygon points="1719.07 129.55 1693.35 148.07 1693.35 204.65 1719.07 204.65 1719.07 180.99 1710.84 164.53 1733.47 143.95 1719.07 129.55" fill="url(#av)"/>
      <g>
        <path d="M1338.11,312.86l-9.86-9.84a9.52,9.52,0,0,0-13.61.17l-8.67,9.08" fill="url(#aw)"/>
        <path d="M1310.67,312.36l-4.5-4.49a9.52,9.52,0,0,0-13.61.16l-3.75,3.93" fill="url(#ax)"/>
      </g>
      <g>
        <path d="M1663.77,162.66l-9.86-9.83a9.51,9.51,0,0,0-13.61.16l-8.67,9.08" fill="url(#ay)"/>
        <path d="M1636.33,162.16l-4.5-4.49a9.51,9.51,0,0,0-13.61.17l-3.75,3.92" fill="url(#az)"/>
      </g>
      <g>
        <path d="M1672.2,187.23l-9.86-9.84a9.53,9.53,0,0,0-13.62.17l-8.66,9.08" fill="url(#ba)"/>
        <path d="M1644.75,186.72l-4.5-4.48a9.51,9.51,0,0,0-13.61.16l-3.74,3.92" fill="url(#bb)"/>
      </g>
      <g>
        <path d="M1625.7,216l9.87-9.83a9.51,9.51,0,0,1,13.61.16l8.66,9.08" fill="url(#bc)"/>
        <path d="M1653.15,215.5l4.5-4.49a9.51,9.51,0,0,1,13.61.17l3.74,3.92" fill="url(#bd)"/>
      </g>
      <polygon points="1386.12 310.7 1396.44 307.92 1418.83 320.4 1415.23 325.73 1430.71 327.78 1431.14 324.52 1407.11 305.59 1394.8 301.48 1382.37 307.72 1386.12 310.7" fill="url(#be)" style="mix-blend-mode: darken"/>
      <polygon points="1435.28 326.1 1447.51 327.71 1457.35 334.81 1456.92 338.07 1443.47 336.3 1440.44 340.46 1437.85 338.05 1438.53 336.06 1430.79 335.04 1431.16 332.19 1437.28 333 1437.71 329.74 1434.61 328.08 1435.28 326.1" fill="url(#bf)" style="mix-blend-mode: darken"/>
      <g>
        <path d="M1418.34,445l-6.49-6.24a6.15,6.15,0,0,0-8.79.27l-5.49,6" fill="url(#bg)"/>
        <path d="M1400.6,445l-3-2.85a6.15,6.15,0,0,0-8.79.27l-2.37,2.58" fill="url(#bh)"/>
      </g>
      <g>
        <path d="M1353.49,466.3l8.06-7.75a7.64,7.64,0,0,1,10.92.34l6.82,7.41" fill="url(#bi)"/>
        <path d="M1375.52,466.3l3.68-3.53a7.65,7.65,0,0,1,10.92.33l3,3.2" fill="url(#bj)"/>
      </g>
      <g>
        <path d="M1442.2,463.5l-8.06-7.75a7.65,7.65,0,0,0-10.92.33l-6.82,7.42" fill="url(#bk)"/>
        <path d="M1420.17,463.5l-3.68-3.54a7.65,7.65,0,0,0-10.92.33l-3,3.21" fill="url(#bl)"/>
      </g>
      <g>
        <path d="M1287.7,267.32l10-9.65a9.53,9.53,0,0,1,13.61.42l8.5,9.23" fill="url(#bm)"/>
        <path d="M1315.15,267.32l4.58-4.4a9.53,9.53,0,0,1,13.61.42l3.67,4" fill="url(#bn)"/>
      </g>
      <g>
        <path d="M848.8,688.28a7,7,0,0,1-6.39-4.11h-4.29a7,7,0,0,1-7-6.16h-2.07a7,7,0,0,1-7-7v-6.64l-6.69-7a7,7,0,0,1,0-9.64l6.16-6.58a7,7,0,0,1,5.12-2.22,7.17,7.17,0,0,1,2.62.5,6.94,6.94,0,0,1,2.4-3.85l11.1-9a7,7,0,0,1,4.43-1.58h4.45l7.91-6.59a7,7,0,0,1,4.49-1.63,6.19,6.19,0,0,1,1.21.11,7,7,0,0,1,4.85,3.37l5.76,9.86a7,7,0,0,1-2.39,9.52l-1.89,1.17,3.42,2a7,7,0,0,1,3.46,6v5.75a7,7,0,0,1-7,7h-1.62l-7.79,22a7,7,0,0,1-6.62,4.67Z" fill="#ddecf3"/>
        <path d="M805.65,694.45a7,7,0,0,1-4.8-1.91L780.3,673.23a7,7,0,0,1-2.22-5.12v-2.65l-5.59-6.21A7.08,7.08,0,0,1,770.7,655l-.19-2.88-16.65-12a7,7,0,0,1-2.49-8.05l2-5.75a7,7,0,0,1,6.61-4.66,6.71,6.71,0,0,1,1.53.17l7.39,1.64a7,7,0,0,1,2.93,1.43l20.55,16.85L804.8,652a7,7,0,0,1,1.93,8.23l.51.53a6.88,6.88,0,0,1,1.29-.12h3.7a7,7,0,0,1,7,7v16a7,7,0,0,1-3.58,6.12l-6.58,3.7A7,7,0,0,1,805.65,694.45Z" fill="#ddecf3"/>
        <path d="M871.41,690.75a7,7,0,0,1-6.81-5.32l-2.06-8.22a7.07,7.07,0,0,1,.29-4.29c.47-1.43,2.5-9,4.26-15.63a7,7,0,0,1,2.4-3.7l8.22-6.57a7,7,0,0,1,4.38-1.54h9.58l3.06-2.3a7,7,0,0,1,4.21-1.4,7.71,7.71,0,0,1,1.07.08l5.34.82a7,7,0,0,1,3.21,12.5L898,663.29a7,7,0,0,1-1.92,3.62l-3,3L895,673a7,7,0,0,1-2.32,9.76l-4.11,2.47a7,7,0,0,1-3.6,1,7.21,7.21,0,0,1-2.35-.4,7,7,0,0,1-6.7,4.92Z" fill="#ddecf3"/>
        <path d="M805.65,659.51a7,7,0,0,1-4.08-1.3l-20.14-14.39a7,7,0,0,1-2.93-5.71V635.3l-7.59-9.14a7,7,0,0,1,.43-9.43l5.42-5.45a7,7,0,0,1,5-2.07,5.43,5.43,0,0,1,.57,0,7,7,0,0,1,5.14,2.91l2.7,3.78c.23,0,.47,0,.7,0a7,7,0,0,1,5.38,2.5l8.63,10.28a7,7,0,0,1,1.65,4.51v5.87l4.61,4.07a7,7,0,0,1,2.24,6.64l-.83,4.11a7,7,0,0,1-6.88,5.64Z" fill="#ddecf3"/>
        <polygon points="829.08 670.99 838.12 670.99 838.12 677.15 848.8 677.15 848.8 681.26 855.38 681.26 864.83 654.55 871.41 654.55 871.41 648.8 864.42 644.69 864.42 636.88 869.76 633.59 864.01 623.73 854.15 631.95 847.16 631.95 836.06 640.99 836.06 649.62 830.72 649.62 826.61 645.92 820.45 652.5 829.08 661.54 829.08 670.99" fill="url(#bo)"/>
        <polygon points="777.29 648.39 757.98 634.41 760.03 628.66 767.43 630.3 787.98 647.15 800.31 657.43 798.25 661.54 806.06 669.76 808.53 667.7 812.23 667.7 812.23 683.73 805.65 687.43 785.1 668.11 785.1 662.77 777.71 654.55 777.29 648.39" fill="#c2e4ed"/>
        <path d="M869.35,675.51c.41-.82,4.52-16.44,4.52-16.44l8.22-6.57H894l4.93-3.7,5.35.82-10.69,8.22H882.91L877.16,662l2.47,4.11,5.75-4.11h5.75l-7,7,4.93,7.8L885,679.21,879.22,671h-3.29v12.74h-4.52Z" fill="url(#bp)"/>
        <polygon points="776.32 621.68 785.51 632.77 785.51 638.11 805.65 652.5 806.47 648.39 799.49 642.22 799.49 633.18 790.86 622.91 787.98 624.96 781.74 616.23 781.74 616.23 776.32 621.68" fill="#c2e4ed"/>
        <g>
          <path d="M677,630.34a7,7,0,0,1-6.57-4.58L646.77,562l-2.72,1.63a7,7,0,0,1-8.22-.72l-9.45-8.22a7.28,7.28,0,0,0-4.22-5l-13-11.8a7,7,0,0,1-1.68-8.09l10.61-23.45a7,7,0,0,1,2.8-3.14l14.35-8.55a7.05,7.05,0,0,1,.82-.42l46.49-27.76a7,7,0,0,1,5-.85l28.21,5.91a7,7,0,0,1,4.9,9.88L713,497.55h21a7,7,0,0,1,4.14,1.35l22.42,16.36H785.2a7,7,0,0,1,7,7v16.11l18,6.71a7,7,0,0,1,4.05,9.25l-3.53,8.57,11,9.4h3.58a7,7,0,0,1,7,7V596.6a7,7,0,0,1-2.42,5.3l-18.9,16.44a7,7,0,0,1-4.61,1.72H799.9a7,7,0,0,1-7-7v-5l-6.49-5.71a7.06,7.06,0,0,1-2.32-6.16l2.36-18.34L784,574.07a7.11,7.11,0,0,1-1.17-3.9v-9.73L774,558.05l-2.12,15.24a7,7,0,0,1-5.16,6.77h0l-8.82,7.19a7,7,0,0,1-11.45-5.44v-8.16l-15.25-23H731l-38,33.54v23.14a7,7,0,0,1-2.06,5l-4.33,4.33.91,4.54a7,7,0,0,1-5.36,8.23l-3.7.82A7.25,7.25,0,0,1,677,630.34Z" fill="#ddecf3"/>
          <path d="M776.32,628.7H776a7,7,0,0,1-5.09-2.53l-4.77-5.76a7,7,0,0,1-1.62-4.67l.77-28-6.46-10.89a7,7,0,0,1-1-3.58v-.49a7.77,7.77,0,0,1,.06-1l3.28-23.62a7,7,0,0,1,6.95-6.05,6.87,6.87,0,0,1,1.85.25l21.65,5.9a7,7,0,0,1,5.17,6.77v13l2.76,4.13a7,7,0,0,1,1.12,4.79L798,597.91a7,7,0,0,1-4.49,5.67A6.88,6.88,0,0,1,791,604a7.07,7.07,0,0,1-4.24-1.42l-1.52,6.48,2.18,3.06a7,7,0,0,1-.73,9l-5.43,5.46A7,7,0,0,1,776.32,628.7Z" fill="#ddecf3"/>
          <polygon points="793.73 576.08 789.79 570.17 789.79 555.08 768.14 549.18 764.86 572.8 764.86 573.29 772.36 585.92 771.54 615.92 776.32 621.68 781.74 616.23 781.74 616.23 777.71 610.58 782.64 589.62 791.03 597.01 791.03 597.01 793.73 576.08" fill="#7cbce8"/>
          <polygon points="613.86 532.61 626.88 544.41 635.1 544.41 635.1 549.34 630.99 549.34 640.44 557.56 646.6 553.86 646.6 546.88 648.66 546.88 677.02 623.32 680.72 622.5 679.07 614.28 686.06 607.29 686.06 580.99 728.39 543.59 734.96 543.59 753.46 571.53 753.46 581.81 764.55 572.77 764.86 573.29 764.86 572.8 768.14 549.18 789.79 555.08 789.79 570.17 793.73 576.08 791.03 597.01 799.9 604.82 799.9 613.04 806.47 613.04 825.38 596.6 825.38 579.34 820.66 579.34 820.63 579.36 820.62 579.34 819.21 579.34 802.36 564.96 807.83 551.68 785.2 543.27 785.2 522.28 758.3 522.28 734.03 504.57 701.88 504.57 714.35 478.33 686.14 472.42 638.9 500.63 638.83 500.61 624.47 509.16 613.86 532.61" fill="url(#bq)"/>
        </g>
      </g>
      <g>
        <path d="M856.85,397.52l-8.06-7.75a7.64,7.64,0,0,0-10.92.34l-6.82,7.41" fill="url(#br)"/>
        <path d="M834.82,397.52,831.14,394a7.63,7.63,0,0,0-10.92.33l-2.94,3.2" fill="url(#bs)"/>
      </g>
      <g>
        <path d="M814,397.52,806,389.77a7.64,7.64,0,0,0-10.92.34l-6.82,7.41" fill="url(#bt)"/>
        <path d="M792,397.52,788.33,394a7.63,7.63,0,0,0-10.92.33l-2.95,3.2" fill="url(#bu)"/>
      </g>
      <g>
        <path d="M840.71,422.09l-8.06-7.75a7.65,7.65,0,0,0-10.92.33l-6.82,7.42" fill="url(#bv)"/>
        <path d="M818.68,422.09,815,418.55a7.65,7.65,0,0,0-10.92.33l-3,3.21" fill="url(#bw)"/>
      </g>
      <path d="M1452.45,221.44a13.9,13.9,0,0,0-20.16-12.4,24.82,24.82,0,0,0-47.1.22,13.92,13.92,0,0,0-17.11,3,16.75,16.75,0,0,0-25.81-2.44c-3.11,3.15-4.37,8-7.73,11-8.9,8-16.53-6.07-25-6.07a12.61,12.61,0,0,0-12.59,11.64h154.61A13.88,13.88,0,0,0,1452.45,221.44Z" fill="url(#bx)"/>
      <g>
        <text transform="translate(212.29 565.6)" font-size="27.17" fill="#1b507b"  letter-spacing="0.1em">全球趨勢指標<tspan x="0" y="37.06">建立品牌聲望</tspan></text>
        <polygon points="394.34 502.98 304.23 519.83 212.42 519.83 212.42 500.46 300.86 491.19 394.34 502.98" fill="#1b507b"/>
        <path d="M222.89,530.78H404.45l-7-9.18a13.09,13.09,0,0,0-10.4-5.14H212.42v3.85A10.47,10.47,0,0,0,222.89,530.78Z" fill="#6186b6"/>
        <path d="M203.25,460q-4.86,3.57-9.75,7.1c2.95,1.67,4.42,2.49,7.37,4.13-3,2.21-4.53,3.31-7.55,5.49,3,1.66,4.42,2.49,7.37,4.13-3,2.21-4.53,3.3-7.54,5.48,2.94,1.67,4.42,2.5,7.37,4.13-3,2.21-4.53,3.31-7.55,5.49,2.95,1.67,4.42,2.49,7.37,4.13-3,2.21-4.53,3.31-7.54,5.49q4.74,2.69,9.52,5.32c96.42.2,95.15-9.72,191.61-8.31l.65-35.64a15,15,0,0,0-15.11-15.32C288.22,452,294.54,460.18,203.25,460Z" fill="url(#by)"/>
        <text transform="translate(266.49 490.99)" font-size="25.67" fill="#1b507b"  letter-spacing="0.1em">歐洲</text>
      </g>
      <g>
        <text transform="translate(1485.75 570.06)" font-size="27.17" fill="#1b507b"  letter-spacing="0.1em">制度化的成熟消費市場</text>
        <g>
          <polygon points="1722.07 499.54 1666.49 517.23 1574.68 517.23 1574.68 497.86 1663.12 488.59 1722.07 499.54" fill="#1b507b"/>
          <path d="M1585.15,528.18H1740.6l-7-9.18a13.07,13.07,0,0,0-10.39-5.14H1574.68v3.85A10.47,10.47,0,0,0,1585.15,528.18Z" fill="#6186b6"/>
          <path d="M1531.82,457.39q-4.86,3.57-9.75,7.1c3,1.67,4.42,2.49,7.37,4.13-3,2.21-4.53,3.31-7.55,5.49,2.95,1.66,4.43,2.49,7.38,4.13-3,2.21-4.53,3.3-7.55,5.48,3,1.67,4.42,2.5,7.37,4.13-3,2.21-4.53,3.31-7.55,5.49,3,1.67,4.43,2.49,7.38,4.13-3,2.21-4.53,3.31-7.55,5.49q4.74,2.69,9.52,5.32c96.42.2,95.16-9.72,191.61-8.31l.65-35.64A15,15,0,0,0,1708,449C1616.8,449.39,1623.11,457.58,1531.82,457.39Z" fill="url(#bz)"/>
          <text transform="translate(1595.9 487.54)" font-size="25.67" fill="#1b507b"  letter-spacing="0.1em">北美</text>
        </g>
      </g>
      <path d="M384.69,502.79a.58.58,0,0,0,0-1.15.58.58,0,0,0,0,1.15Z" fill="#90aed8"/>
      <g>
        <polygon points="743.31 405.4 687.73 423.09 572.34 423.09 572.34 403.71 684.36 394.45 743.31 405.4" fill="#1b507b"/>
        <path d="M582.81,434H754.26l-7-9.18a13.09,13.09,0,0,0-10.39-5.13H572.34v3.84A10.47,10.47,0,0,0,582.81,434Z" fill="#6186b6"/>
        <path d="M553.87,363.25q-5.24,3.57-10.51,7.1c3.18,1.67,4.77,2.49,7.95,4.13-3.25,2.21-4.88,3.31-8.14,5.48,3.18,1.67,4.77,2.5,8,4.14-3.25,2.2-4.88,3.3-8.13,5.48,3.17,1.67,4.76,2.49,7.94,4.13-3.25,2.21-4.88,3.31-8.13,5.49,3.18,1.67,4.77,2.49,8,4.13-3.26,2.21-4.89,3.31-8.14,5.48q5.11,2.7,10.26,5.33c104,.2,102.59-9.72,206.58-8.31l.71-35.64c.16-8.45-7.2-15.36-16.3-15.32C645.49,355.25,652.3,363.44,553.87,363.25Z" fill="url(#ca)"/>
        <text transform="translate(570.82 395.08)" font-size="25.67" fill="#1b507b"  letter-spacing="0.1em">中國及東南亞</text>
        <text transform="translate(572.78 474.81)" font-size="27.17" fill="#1b507b"  letter-spacing="0.1em">前進新興市場<tspan x="29.89" y="37.06">東協中心</tspan></text>
      </g>
      <g>
        <polygon points="1454.16 417.48 1449.44 423.77 1454.16 423.77 1458.88 423.77 1454.16 417.48" fill="#6186b6"/>
        <polygon points="1454.16 422.2 1449.44 428.49 1454.16 428.49 1458.88 428.49 1454.16 422.2" fill="#6186b6"/>
        <rect x="1453.59" y="427.78" width="1.14" height="4.86" fill="#1b507b"/>
      </g>
      <g>
        <polygon points="1446.72 436.43 1441.99 442.72 1446.72 442.72 1451.44 442.72 1446.72 436.43" fill="#6186b6"/>
        <polygon points="1446.72 441.15 1441.99 447.44 1446.72 447.44 1451.44 447.44 1446.72 441.15" fill="#6186b6"/>
        <rect x="1446.14" y="446.73" width="1.14" height="4.86" fill="#1b507b"/>
      </g>
      <g>
        <polygon points="1434.22 412.72 1429.5 419.02 1434.22 419.02 1438.94 419.02 1434.22 412.72" fill="#6186b6"/>
        <polygon points="1434.22 417.44 1429.5 423.74 1434.22 423.74 1438.94 423.74 1434.22 417.44" fill="#6186b6"/>
        <rect x="1433.65" y="423.02" width="1.14" height="4.86" fill="#1b507b"/>
      </g>
      <g>
        <polygon points="1456.68 392.37 1451.96 398.66 1456.68 398.66 1461.4 398.66 1456.68 392.37" fill="#6186b6"/>
        <polygon points="1456.68 397.09 1451.96 403.38 1456.68 403.38 1461.4 403.38 1456.68 397.09" fill="#6186b6"/>
        <rect x="1456.11" y="402.67" width="1.14" height="4.86" fill="#1b507b"/>
      </g>
      <g>
        <g>
          <polygon points="1201.83 390.55 1146.24 408.24 1054.44 408.24 1054.44 388.87 1142.87 379.6 1201.83 390.55" fill="#1b507b"/>
          <path d="M1064.91,419.19h155.45l-7-9.18a13.09,13.09,0,0,0-10.4-5.14h-148.5v3.85A10.47,10.47,0,0,0,1064.91,419.19Z" fill="#6186b6"/>
          <path d="M1011.57,348.4q-4.86,3.57-9.75,7.1c2.95,1.67,4.43,2.49,7.38,4.13-3,2.21-4.53,3.31-7.55,5.49,3,1.66,4.42,2.49,7.37,4.13-3,2.21-4.53,3.3-7.55,5.48,2.95,1.67,4.43,2.5,7.38,4.13-3,2.21-4.53,3.31-7.55,5.49,3,1.67,4.42,2.49,7.37,4.13-3,2.21-4.53,3.31-7.55,5.49q4.75,2.68,9.53,5.32c96.42.2,95.15-9.72,191.61-8.31l.65-35.64A15.05,15.05,0,0,0,1187.79,340C1096.55,340.4,1102.86,348.59,1011.57,348.4Z" fill="url(#cb)"/>
          <text transform="translate(1075.65 378.55)" font-size="25.67" fill="#1b507b"  letter-spacing="0.1em">日本</text>
        </g>
        <text transform="translate(1033.77 457.18)" font-size="27.17" fill="#1b507b"  letter-spacing="0.1em">內需市場強大<tspan x="0" y="37.06">友好交流夥伴</tspan></text>
      </g>
      <g>
        <rect x="839.91" y="483.21" width="1.03" height="4.99" fill="#1b507b"/>
        <circle cx="840.51" cy="481.4" r="3.53" fill="#6186b6"/>
      </g>
      <g>
        <rect x="828.36" y="526.65" width="1.17" height="5.64" fill="#1b507b"/>
        <circle cx="829.04" cy="524.61" r="3.99" fill="#6186b6"/>
      </g>
      <g>
        <rect x="838.85" y="519.7" width="1.17" height="5.64" fill="#1b507b"/>
        <circle cx="839.53" cy="517.66" r="3.99" fill="#6186b6"/>
      </g>
      <g>
        <path d="M837.65,464.23l-1.81-4a1.44,1.44,0,0,0-2.63,0l-1.81,4a2.94,2.94,0,0,0,2.67,4.15H835A2.93,2.93,0,0,0,837.65,464.23Z" fill="#6186b6"/>
        <rect x="833.93" y="464.2" width="1.2" height="8.13" fill="#1b507b"/>
      </g>
      <g>
        <path d="M853.79,490.2l-1.81-4a1.44,1.44,0,0,0-2.62,0l-1.81,4a2.93,2.93,0,0,0,2.67,4.15h.9A2.93,2.93,0,0,0,853.79,490.2Z" fill="#6186b6"/>
        <rect x="850.07" y="490.17" width="1.2" height="8.13" fill="#1b507b"/>
      </g>
      <text transform="translate(881.77 448.54) scale(0.92 1)" font-size="23.34" class="city" data-name="tokyo" letter-spacing="0.1em">東京</text>
      <text transform="translate(769.75 619.62) scale(0.92 1)" font-size="23.34" class="city" data-name="bangkok" letter-spacing="0.1em">曼谷</text>
      <text transform="translate(360.38 391.51) scale(0.92 1)" font-size="23.34" class="city" data-name="frankfurt" letter-spacing="0.1em">法蘭克福</text>
      <text transform="translate(334.92 429.19) scale(0.92 1)" font-size="23.34" class="city" data-name="paris" letter-spacing="0.1em">巴黎</text>
      <text transform="translate(221.89 371.14) scale(0.92 1)" font-size="23.34" class="city" data-name="london" letter-spacing="0.1em">倫敦</text>
      <text transform="translate(886.86 504.54) scale(0.92 1)" font-size="23.34" class="city" data-name="shanghai" letter-spacing="0.1em">上海</text>
      <text transform="translate(1485.65 425.11) scale(0.92 1)" font-size="23.34" class="city" data-name="newyork" letter-spacing="0.1em">紐約</text>
      <text transform="translate(861.41 554.44) scale(0.92 1)" font-size="16.61" class="city" data-name="shenzhen" letter-spacing="0.1em">深圳</text>
      <text transform="translate(828.82 570.74) scale(0.92 1)" font-size="16.61" class="city" data-name="hongkong" letter-spacing="0.1em">香港</text>
      <text transform="translate(834.59 442.34) scale(0.92 1)" font-size="16.61" class="city" data-name="qingdao" letter-spacing="0.1em">青島</text>

      <g class="city dot" data-name="tokyo">
        <circle cx="940" cy="463" r="12.68" fill="#1b507b"/>
        <circle cx="940" cy="463" r="8.37" fill="#f4cd74"/>
      </g>
      <g class="city dot" data-name="newyork">
        <circle cx="1470" cy="416" r="12.68" fill="#1b507b"/>
        <circle cx="1470" cy="416" r="8.37" fill="#f4cd74"/>
      </g>
      <g class="city dot" data-name="frankfurt">
        <circle cx="340" cy="380" r="12.68" fill="#1b507b"/>
        <circle cx="340" cy="380" r="8.37" fill="#f4cd74"/>
      </g>
      <g class="city dot" data-name="paris">
        <circle cx="313" cy="412" r="12.68" fill="#1b507b"/>
        <circle cx="313" cy="412" r="8.37" fill="#f4cd74"/>
      </g>
      <g class="city dot" data-name="london">
        <circle cx="290" cy="363" r="12.68" fill="#1b507b"/>
        <circle cx="290" cy="363" r="8.37" fill="#f4cd74"/>
      </g>
      <g class="city dot" data-name="bangkok">
        <circle cx="792" cy="579" r="12.68" fill="#1b507b"/>
        <circle cx="792" cy="579" r="8.37" fill="#f4cd74"/>
      </g>
      <g class="city dot" data-name="shanghai">
        <circle cx="869" cy="495" r="12.68" fill="#1b507b"/>
        <circle cx="869" cy="495" r="8.37" fill="#f4cd74"/>
      </g>
      <g class="city dot" data-name="qingdao">
        <circle cx="852" cy="460" r="6.02" fill="#1b507b"/>
        <circle cx="852" cy="460" r="3.98" fill="#f4cd74"/>
      </g>
      <g class="city dot" data-name="shenzhen">
        <circle cx="854" cy="532" r="6.02" fill="#1b507b"/>
        <circle cx="854" cy="532" r="3.98" fill="#f4cd74"/>
      </g>
      <g class="city dot" data-name="hongkong">
        <circle cx="838" cy="542" r="6.02" fill="#1b507b"/>
        <circle cx="838" cy="542" r="3.98" fill="#f4cd74"/>
      </g>
    </g>
  </g>
</svg>
