<svg xmlns="http://www.w3.org/2000/svg" xmlns:xlink="http://www.w3.org/1999/xlink" viewBox="0 0 433 373">
  <defs>
    <linearGradient id="a" data-name="未命名漸層 4" x1="38.17" y1="26" x2="274.35" y2="26" gradientUnits="userSpaceOnUse">
      <stop offset="0" stop-color="#c2e4ed"/>
      <stop offset="0.99" stop-color="#ecf6fc"/>
    </linearGradient>
  </defs>
  
  <g style="isolation: isolate">
    <g>
      <g>
        <path d="M415.41,331H21.67a7.26,7.26,0,0,0-7.26,7.26v.49A7.25,7.25,0,0,0,21.67,346H49.91a5.5,5.5,0,0,1,5.5,5.5h0a5.5,5.5,0,0,1-5.5,5.5H36.41a8,8,0,0,0-8,8h0a8,8,0,0,0,8,8h379Z" fill="#c2e4ed"/>
        <rect x="114.41" y="346" width="92" height="11" rx="5.38" ry="5.38" fill="#acd9e7"/>
        <rect x="233.41" y="346" width="92" height="11" rx="5.38" ry="5.38" fill="#acd9e7"/>
        <path d="M253.5,160.69,246.13,173a63.65,63.65,0,0,0-8.87,37.84L251.51,353h8.9V180.54Z" fill="#1f2b60"/>
        <polygon points="267.8 200 298.14 352 308.07 352 288.14 200 267.8 200" fill="#1f2b60"/>
        <path d="M269.55,48l6.36,14.6-4,.35-.16,3a3.75,3.75,0,0,1-4.32,3.5h0L263.66,83.9l-10,.9L263.47,52a5.49,5.49,0,0,1,4.75-3.88Z" fill="#6186b6"/>
        <path d="M266.11,81h8.61a14.77,14.77,0,0,1,12.78,7.34h0a14.69,14.69,0,0,1,1.77,10.13l-6,44.5H251L233.9,97.13l-13.09,32.22,38.25,11.07-1,7-39.56-8.05a12.42,12.42,0,0,1-9-17l14-33.45a13,13,0,0,1,12-8Z" fill="#6186b6"/>
        <path d="M274.35,44.47a21.1,21.1,0,0,0-30.62-18.84,37.68,37.68,0,0,0-71.52.34,21.06,21.06,0,0,0-26,4.54,25.42,25.42,0,0,0-39.19-3.71c-4.73,4.79-6.64,12.16-11.74,16.75-13.52,12.17-25.1-9.22-38-9.22A19.18,19.18,0,0,0,38.17,52H273A20.94,20.94,0,0,0,274.35,44.47Z" fill="url(#a)"/>
        <path d="M21.48,134.55h22.1a9.89,9.89,0,0,1,9.89,9.89v94.32a0,0,0,0,1,0,0h-32a0,0,0,0,1,0,0V134.55A0,0,0,0,1,21.48,134.55Z" transform="translate(74.94 373.31) rotate(-180)" fill="#7cbce8"/>
        <path d="M61.71,98.4l5.17,8.73H62.51v3.5a5.23,5.23,0,0,1-5.24,5.24h0l-1.75,18.35H45L48.53,98.4Z" fill="#6186b6"/>
        <path d="M56,134.66H68.05a25.74,25.74,0,0,1,17.06,6.46l38.14,33.74h41.64l-.43,7.86H110.21L79.55,156.51v26.21H34.26L15,150.81a10.65,10.65,0,0,1,9.12-16.15Z" fill="#ec7163"/>
        <polyline points="29.75 149.52 45.48 174.86 90.92 174.86 90.92 184 34.12 184" fill="#ec7163"/>
        <path d="M35,190.59l-2.88,15.56a18.61,18.61,0,0,0,3.41,14.56h0a18.62,18.62,0,0,0,14.9,7.45h79.82V353H141.6l7-108.23L178.3,352.25h11L159.61,219.12a18.62,18.62,0,0,0-14.67-14.23l-71.5-14.3Z" fill="#1f2b60"/>
        <path d="M21.48,228.44h98a10.32,10.32,0,0,1,10.32,10.32v0a0,0,0,0,1,0,0H21.48a0,0,0,0,1,0,0V228.44A0,0,0,0,1,21.48,228.44Z" transform="translate(151.28 467.2) rotate(-180)" fill="#7cbce8"/>
        <rect x="66.87" y="238.76" width="13.41" height="115.55" transform="translate(147.16 593.07) rotate(-180)" fill="#1b507b"/>
        <circle cx="42.63" cy="96.89" r="8.03" fill="#1f2b60"/>
        <path d="M48,93.34h7.55a3,3,0,0,1,3,3h2.11a3,3,0,0,1,3.05,3v1.09H48.3Z" fill="#1f2b60"/>
        <polyline points="53.46 99.47 47.34 110.59 43.14 101.54 52.43 99.47" fill="#1f2b60"/>
        <path d="M31.21,183.23H414.57a0,0,0,0,1,0,0v17a0,0,0,0,1,0,0H43.86A12.65,12.65,0,0,1,31.21,187.6v-4.37a0,0,0,0,1,0,0Z" transform="translate(445.78 383.48) rotate(-180)" fill="#6186b6"/>
        <path d="M89.57,174.79h10.58a10,10,0,0,1,7.91,3.86L111.5,183H89.88l-.31-7.93" fill="#6186b6"/>
        <path d="M161.59,175H168a13.13,13.13,0,0,1,10.34,5l2.73,3.5H161.91l-.32-8.21" fill="#9ed7f5"/>
        <rect x="93.45" y="77.9" width="141.15" height="83.18" rx="7.33" ry="7.33" transform="translate(328.05 238.98) rotate(-180)" fill="#bfe4f8"/>
        <polygon points="176.25 148.88 158.17 148.88 151.84 184 182.58 184 176.25 148.88" fill="#1f2b60"/>
        <circle cx="167.34" cy="116.07" r="7.06" fill="#1f2b60"/>
        <path d="M353.34,85.6l-22.27,1.79a14.18,14.18,0,0,0-11.33,7.36L293.41,143l-60.07.2V154H296a15.81,15.81,0,0,0,13.9-8.28L324.41,119l4.93,40.2h55.2l7.2-40,16.4,25.2-25.6,16.8,2,10.8,27.27-16.25a15.81,15.81,0,0,0,5-22.4L390.41,93.09a14.19,14.19,0,0,0-11.27-6.39Z" fill="#fee195"/>
        <path d="M329.34,159.2l-16,105.15a32.54,32.54,0,0,0,8.45,27.19l38.76,41.26V307.2L332.94,274l18.73-99.88a3.1,3.1,0,0,1,3-2.52h0a3.09,3.09,0,0,1,3.08,3L360.94,370h12.8l10.4-189.6V158.8Z" fill="#1f2b60"/>
        <polygon points="376.46 320.42 388.94 339.6 378.54 350 375.01 346.83 376.46 320.42" fill="#1f2b60"/>
        <rect x="222.44" y="154.04" width="101.17" height="29.18" fill="#fff"/>
        <path d="M396.41,183.22h3.29a15.35,15.35,0,0,1,15.35,15.35V364.17a0,0,0,0,1,0,0H396.41a0,0,0,0,1,0,0V183.22A0,0,0,0,1,396.41,183.22Z" fill="#6186b6"/>
        <path d="M348.54,48l-7.2,12.8h4.8L346.7,68a3.46,3.46,0,0,0,3.44,3.19h0l1.6,18.4,4.8,8.8,6.4-9.6-4-40.8Z" fill="#6186b6"/>
        <path d="M263.32,52.5l9.44,1.57,7-6.91-2.57-.84a7.94,7.94,0,0,0-6.66.82l-1.18.74h0a5.45,5.45,0,0,0-5.78,3.81Z" fill="#1f2b60"/>
        <circle cx="345.91" cy="45.5" r="6.36" fill="#1f2b60"/>
        <path d="M345.41,46l8.56-.61a5.3,5.3,0,0,1,5.66,5.07l.28,7.42L347,50.5Z" fill="#1f2b60"/>
        <rect x="89.41" y="175" width="72" height="9" fill="#1f2b60"/>
        <line x1="222.89" y1="162.67" x2="323.61" y2="162.67" fill="none" stroke="#bfe4f8" stroke-miterlimit="10"/>
        <line x1="222.89" y1="172.67" x2="323.61" y2="172.67" fill="none" stroke="#bfe4f8" stroke-miterlimit="10"/>
      </g>
      <polyline points="34.12 156.56 45.41 175 78.41 175" fill="none" stroke="#ec7163" stroke-miterlimit="10" opacity="0.61" style="mix-blend-mode: multiply"/>
    </g>
  </g>
</svg>
