<svg xmlns="http://www.w3.org/2000/svg" xmlns:xlink="http://www.w3.org/1999/xlink" viewBox="0 0 641.78 1052.67">
  <defs>
    <clipPath id="a">
      <rect width="641.78" height="1052.67" fill="none"/>
    </clipPath>
    <linearGradient id="b" data-name="未命名漸層 92" x1="345.21" y1="464.39" x2="345.21" y2="-48.79" gradientUnits="userSpaceOnUse">
      <stop offset="0" stop-color="#efd380"/>
      <stop offset="0.98" stop-color="#fff198"/>
    </linearGradient>
    <linearGradient id="c" x1="598.21" y1="285.17" x2="80.85" y2="327.76" xlink:href="#b"/>
    <linearGradient id="d" x1="609.97" y1="393.38" x2="-6.76" y2="388.64" xlink:href="#b"/>
  </defs>
  
  <g style="isolation: isolate">
    <g clip-path="url(#a)">
      <rect x="-12.22" y="-10.28" width="654" height="542.08" fill="#fbf6d2"/>
      <circle cx="187.55" cy="208.11" r="93.92" fill="#fffbed"/>
      <circle cx="77.96" cy="192.73" r="49.62" fill="#fffbed"/>
      <circle cx="11.29" cy="201.84" r="40.5" fill="#fffbed"/>
      <circle cx="345.21" cy="257.15" r="164.23" fill="url(#b)"/>
      <circle cx="623.15" cy="165.73" r="76.63" fill="#fffbed"/>
      <circle cx="576.97" cy="184.89" r="42.78" fill="#fffbed"/>
      <path d="M292.57,142.63a.83.83,0,0,0,0-1.65.83.83,0,0,0,0,1.65Z" fill="#84caeb"/>
      <rect x="-4" y="201.66" width="643" height="886" fill="#cde5ed"/>
      <g>
        <path d="M377.27,180.13a5.42,5.42,0,0,0-5.42,5.42h0a5,5,0,0,1-5,5H325.28a5.63,5.63,0,0,0-5.68,5.13,5.5,5.5,0,0,0,5.49,5.87H443.37V180.13Z" fill="#50bbb7"/>
        <path d="M459.69,184.81v-4.13H418.33c-12.3,0-22.27,11-22.27,19.53v1.65H608.42V184.81h0c0-8.51-10-15.41-22.27-15.41H482C469.66,169.4,459.69,176.3,459.69,184.81Z" fill="#50bbb7"/>
        <g>
          <polygon points="428.03 183.56 443.65 183.56 443.65 123.16 428.03 131.55 428.03 183.56" fill="#4990b3"/>
          <polygon points="443.65 123.16 443.65 129.38 428.03 137.77 428.03 131.55 443.65 123.16" fill="#1b507b"/>
          <g>
            <rect x="431.21" y="140.52" width="12.44" height="1.45" transform="translate(874.86 282.48) rotate(-180)" fill="#c2e4ed"/>
            <rect x="431.21" y="144.86" width="12.44" height="1.45" transform="translate(874.86 291.16) rotate(-180)" fill="#c2e4ed"/>
            <rect x="439.02" y="140.52" width="1.74" height="1.45" transform="translate(879.78 282.48) rotate(-180)" fill="#1b507b"/>
            <rect x="437.29" y="140.52" width="1.74" height="1.45" transform="translate(876.31 282.48) rotate(-180)" fill="#75c4b8"/>
            <rect x="434.68" y="144.86" width="1.74" height="1.45" transform="translate(871.1 291.16) rotate(-180)" fill="#75c4b8"/>
            <rect x="432.95" y="144.86" width="1.74" height="1.45" transform="translate(867.63 291.16) rotate(-180)" fill="#1b507b"/>
          </g>
          <g>
            <rect x="431.21" y="150.14" width="12.44" height="1.45" transform="translate(874.86 301.72) rotate(-180)" fill="#c2e4ed"/>
            <rect x="431.21" y="154.48" width="12.44" height="1.45" transform="translate(874.86 310.4) rotate(-180)" fill="#c2e4ed"/>
            <rect x="439.02" y="150.14" width="1.74" height="1.45" transform="translate(879.78 301.72) rotate(-180)" fill="#1b507b"/>
            <rect x="437.29" y="150.14" width="1.74" height="1.45" transform="translate(876.31 301.72) rotate(-180)" fill="#75c4b8"/>
            <rect x="434.68" y="154.48" width="1.74" height="1.45" transform="translate(871.1 310.4) rotate(-180)" fill="#75c4b8"/>
            <rect x="432.95" y="154.48" width="1.74" height="1.45" transform="translate(867.63 310.4) rotate(-180)" fill="#1b507b"/>
          </g>
        </g>
        <rect x="467.93" y="148.46" width="33.06" height="35.6" fill="#1b507b"/>
        <g>
          <polygon points="442.63 98.49 442.63 117 442.63 184.06 468.89 184.06 468.89 117 468.89 98.49 442.63 98.49" fill="#83bede"/>
          <path d="M455.76,98.49H442.63l2.93,8.24a22,22,0,0,0,6,8.72l1.12,1h6.14l1.12-1a21.89,21.89,0,0,0,6-8.72l2.93-8.24Z" fill="#1b507b"/>
          <g>
            <line x1="442.63" y1="119.87" x2="468.9" y2="119.87" fill="none" stroke="#1b507b" stroke-miterlimit="10" stroke-width="0.58"/>
            <line x1="442.86" y1="122.68" x2="468.66" y2="122.68" fill="none" stroke="#1b507b" stroke-miterlimit="10" stroke-width="0.58"/>
            <line x1="442.63" y1="125.48" x2="468.44" y2="125.48" fill="none" stroke="#1b507b" stroke-miterlimit="10" stroke-width="0.58"/>
            <line x1="442.86" y1="128.28" x2="468.66" y2="128.28" fill="none" stroke="#1b507b" stroke-miterlimit="10" stroke-width="0.58"/>
            <line x1="442.63" y1="131.08" x2="468.9" y2="131.08" fill="none" stroke="#1b507b" stroke-miterlimit="10" stroke-width="0.58"/>
            <line x1="442.86" y1="133.89" x2="468.66" y2="133.89" fill="none" stroke="#1b507b" stroke-miterlimit="10" stroke-width="0.58"/>
            <line x1="442.63" y1="136.69" x2="468.44" y2="136.69" fill="none" stroke="#1b507b" stroke-miterlimit="10" stroke-width="0.58"/>
            <line x1="442.86" y1="139.49" x2="468.66" y2="139.49" fill="none" stroke="#1b507b" stroke-miterlimit="10" stroke-width="0.58"/>
          </g>
          <g>
            <line x1="442.63" y1="142.88" x2="468.9" y2="142.88" fill="none" stroke="#1b507b" stroke-miterlimit="10" stroke-width="0.58"/>
            <line x1="442.86" y1="145.69" x2="468.66" y2="145.69" fill="none" stroke="#1b507b" stroke-miterlimit="10" stroke-width="0.58"/>
            <line x1="442.63" y1="148.49" x2="468.44" y2="148.49" fill="none" stroke="#1b507b" stroke-miterlimit="10" stroke-width="0.58"/>
            <line x1="442.86" y1="151.29" x2="468.66" y2="151.29" fill="none" stroke="#1b507b" stroke-miterlimit="10" stroke-width="0.58"/>
            <line x1="442.63" y1="154.09" x2="468.9" y2="154.09" fill="none" stroke="#1b507b" stroke-miterlimit="10" stroke-width="0.58"/>
            <line x1="442.86" y1="156.9" x2="468.66" y2="156.9" fill="none" stroke="#1b507b" stroke-miterlimit="10" stroke-width="0.58"/>
            <line x1="442.63" y1="159.7" x2="468.44" y2="159.7" fill="none" stroke="#1b507b" stroke-miterlimit="10" stroke-width="0.58"/>
            <line x1="442.86" y1="162.5" x2="468.66" y2="162.5" fill="none" stroke="#1b507b" stroke-miterlimit="10" stroke-width="0.58"/>
          </g>
          <path d="M454.62,100.37h2.27a5.54,5.54,0,0,1,5.54,5.54v.36a0,0,0,0,1,0,0H449.08a0,0,0,0,1,0,0v-.36A5.54,5.54,0,0,1,454.62,100.37Z" fill="#75c4b8"/>
        </g>
        <g>
          <polygon points="476.91 135.85 461.82 135.85 461.82 184.06 471.93 184.06 476.91 184.06 482.49 184.06 482.49 156.77 476.91 135.85" fill="#98d5f4"/>
          <line x1="461.82" y1="139.79" x2="478.11" y2="139.79" fill="none" stroke="#91a9ca" stroke-miterlimit="10" stroke-width="0.45" style="mix-blend-mode: multiply"/>
          <line x1="461.82" y1="143.43" x2="478.93" y2="143.43" fill="none" stroke="#91a9ca" stroke-miterlimit="10" stroke-width="0.45" style="mix-blend-mode: multiply"/>
          <line x1="461.82" y1="147.52" x2="480.02" y2="147.52" fill="none" stroke="#91a9ca" stroke-miterlimit="10" stroke-width="0.45" style="mix-blend-mode: multiply"/>
          <line x1="461.82" y1="151.97" x2="481.21" y2="151.97" fill="none" stroke="#91a9ca" stroke-miterlimit="10" stroke-width="0.45" style="mix-blend-mode: multiply"/>
          <line x1="461.82" y1="156.17" x2="482.32" y2="156.17" fill="none" stroke="#91a9ca" stroke-miterlimit="10" stroke-width="0.45" style="mix-blend-mode: multiply"/>
          <line x1="461.82" y1="160.71" x2="482.32" y2="160.71" fill="none" stroke="#91a9ca" stroke-miterlimit="10" stroke-width="0.45" style="mix-blend-mode: multiply"/>
          <line x1="461.82" y1="165.41" x2="482.49" y2="165.41" fill="none" stroke="#91a9ca" stroke-miterlimit="10" stroke-width="0.45" style="mix-blend-mode: multiply"/>
          <line x1="461.98" y1="169.81" x2="482.65" y2="169.81" fill="none" stroke="#91a9ca" stroke-miterlimit="10" stroke-width="0.45" style="mix-blend-mode: multiply"/>
          <line x1="461.82" y1="174.05" x2="482.49" y2="174.05" fill="none" stroke="#91a9ca" stroke-miterlimit="10" stroke-width="0.45" style="mix-blend-mode: multiply"/>
          <line x1="461.82" y1="178.75" x2="482.49" y2="178.75" fill="none" stroke="#91a9ca" stroke-miterlimit="10" stroke-width="0.45" style="mix-blend-mode: multiply"/>
          <g style="mix-blend-mode: multiply">
            <rect x="463.13" y="137.06" width="0.66" height="1.52" fill="#91a9ca"/>
            <rect x="464.77" y="137.06" width="0.66" height="1.52" fill="#91a9ca"/>
            <rect x="466.41" y="137.06" width="0.66" height="1.52" fill="#91a9ca"/>
          </g>
          <g>
            <rect x="463.13" y="140.7" width="0.66" height="1.52" fill="#91a9ca" style="mix-blend-mode: multiply"/>
            <rect x="464.77" y="140.7" width="0.66" height="1.52" fill="#91a9ca" style="mix-blend-mode: multiply"/>
            <rect x="466.41" y="140.7" width="0.66" height="1.52" fill="#91a9ca" style="mix-blend-mode: multiply"/>
          </g>
          <g>
            <rect x="463.13" y="144.64" width="0.66" height="1.52" fill="#91a9ca" style="mix-blend-mode: multiply"/>
            <rect x="464.77" y="144.64" width="0.66" height="1.52" fill="#91a9ca" style="mix-blend-mode: multiply"/>
            <rect x="466.41" y="144.64" width="0.66" height="1.52" fill="#91a9ca" style="mix-blend-mode: multiply"/>
          </g>
          <g style="mix-blend-mode: multiply">
            <rect x="463.13" y="148.89" width="0.66" height="1.52" fill="#91a9ca"/>
            <rect x="464.77" y="148.89" width="0.66" height="1.52" fill="#91a9ca"/>
            <rect x="466.41" y="148.89" width="0.66" height="1.52" fill="#91a9ca"/>
          </g>
          <g>
            <rect x="463.13" y="153.13" width="0.66" height="1.52" fill="#91a9ca" style="mix-blend-mode: multiply"/>
            <rect x="464.77" y="153.13" width="0.66" height="1.52" fill="#91a9ca" style="mix-blend-mode: multiply"/>
            <rect x="466.41" y="153.13" width="0.66" height="1.52" fill="#91a9ca" style="mix-blend-mode: multiply"/>
          </g>
          <rect x="461.82" y="134.03" width="15.09" height="1.82" fill="#1b507b"/>
        </g>
        <g>
          <polygon points="428.74 183.56 413.11 183.56 413.11 113.53 428.74 121.92 428.74 183.56" fill="#7dc8c5"/>
          <polygon points="413.11 113.53 413.11 119.75 428.74 128.15 428.74 121.92 413.11 113.53" fill="#1b507b"/>
          <g>
            <rect x="413.11" y="130.9" width="12.44" height="1.45" fill="#c2e4ed"/>
            <rect x="413.11" y="135.24" width="12.44" height="1.45" fill="#c2e4ed"/>
            <rect x="416.01" y="130.9" width="1.74" height="1.45" fill="#1b507b"/>
            <rect x="417.74" y="130.9" width="1.74" height="1.45" fill="#0094a8"/>
            <rect x="420.35" y="135.24" width="1.74" height="1.45" fill="#0094a8"/>
            <rect x="422.08" y="135.24" width="1.74" height="1.45" fill="#1b507b"/>
          </g>
          <g>
            <rect x="413.11" y="140.52" width="12.44" height="1.45" fill="#c2e4ed"/>
            <rect x="413.11" y="144.86" width="12.44" height="1.45" fill="#c2e4ed"/>
            <rect x="416.01" y="140.52" width="1.74" height="1.45" fill="#1b507b"/>
            <rect x="417.74" y="140.52" width="1.74" height="1.45" fill="#0094a8"/>
            <rect x="420.35" y="144.86" width="1.74" height="1.45" fill="#0094a8"/>
            <rect x="422.08" y="144.86" width="1.74" height="1.45" fill="#1b507b"/>
          </g>
          <g>
            <rect x="413.11" y="150.14" width="12.44" height="1.45" fill="#c2e4ed"/>
            <rect x="413.11" y="154.48" width="12.44" height="1.45" fill="#c2e4ed"/>
            <rect x="416.01" y="150.14" width="1.74" height="1.45" fill="#1b507b"/>
            <rect x="417.74" y="150.14" width="1.74" height="1.45" fill="#0094a8"/>
            <rect x="420.35" y="154.48" width="1.74" height="1.45" fill="#0094a8"/>
            <rect x="422.08" y="154.48" width="1.74" height="1.45" fill="#1b507b"/>
          </g>
        </g>
        <rect x="527.44" y="147.5" width="23.42" height="36.56" fill="#6186b6"/>
        <rect x="548.9" y="127.32" width="24.86" height="50.69" fill="#1b507b"/>
        <rect x="495.83" y="140.15" width="33.06" height="43.91" fill="#1b507b"/>
        <g>
          <rect x="451.58" y="166.3" width="17.8" height="17.8" fill="#d0ebf9"/>
          <rect x="454.94" y="168.35" width="0.96" height="2.09" fill="#83bede"/>
          <rect x="457.35" y="168.35" width="0.96" height="2.09" fill="#83bede"/>
          <rect x="454.94" y="171.34" width="0.96" height="2.09" fill="#83bede"/>
          <rect x="457.35" y="171.34" width="0.96" height="2.09" fill="#83bede"/>
        </g>
        <g>
          <path d="M507.15,154.05a12.89,12.89,0,0,0-.16,18.06l18.22-18.22A12.89,12.89,0,0,0,507.15,154.05Z" fill="#7dc8c5"/>
          <path d="M525.38,172.28a12.9,12.9,0,0,0,0-18.23l-.17-.16L507,172.11l.16.17A12.9,12.9,0,0,0,525.38,172.28Z" fill="#50bbb7"/>
        </g>
        <g>
          <rect x="501.07" y="169.67" width="28.07" height="14.48" fill="#6186b6"/>
          <line x1="501.07" y1="172.23" x2="529.14" y2="172.23" fill="none" stroke="#1b507b" stroke-miterlimit="10" stroke-width="0.48"/>
          <line x1="501.22" y1="175.46" x2="529.28" y2="175.46" fill="none" stroke="#1b507b" stroke-miterlimit="10" stroke-width="0.48"/>
        </g>
        <g>
          <path d="M576.9,154.05a12.88,12.88,0,0,0-.15,18.06L595,153.89A12.9,12.9,0,0,0,576.9,154.05Z" fill="#7dc8c5"/>
          <path d="M595.13,172.28a12.9,12.9,0,0,0,0-18.23c0-.06-.11-.11-.16-.16l-18.22,18.22.15.17A12.9,12.9,0,0,0,595.13,172.28Z" fill="#50bbb7"/>
        </g>
        <g>
          <rect x="570.82" y="169.67" width="28.07" height="14.73" fill="#6186b6"/>
          <line x1="570.82" y1="172.23" x2="598.89" y2="172.23" fill="none" stroke="#1b507b" stroke-miterlimit="10" stroke-width="0.48"/>
          <line x1="570.97" y1="175.46" x2="599.04" y2="175.46" fill="none" stroke="#1b507b" stroke-miterlimit="10" stroke-width="0.48"/>
        </g>
        <g>
          <rect x="524.22" y="160.01" width="57" height="2.63" fill="#6186b6"/>
          <rect x="525.38" y="162.64" width="53.97" height="21.64" fill="#b9c5d6"/>
          <path d="M529.29,166.35h.27a1.21,1.21,0,0,1,1.21,1.21v16.79a0,0,0,0,1,0,0h-2.7a0,0,0,0,1,0,0V167.56A1.21,1.21,0,0,1,529.29,166.35Z" fill="#006284"/>
          <path d="M535,166.35h.27a1.21,1.21,0,0,1,1.21,1.21v16.79a0,0,0,0,1,0,0h-2.7a0,0,0,0,1,0,0V167.56A1.21,1.21,0,0,1,535,166.35Z" fill="#006284"/>
          <path d="M540.68,166.35H541a1.21,1.21,0,0,1,1.21,1.21v16.79a0,0,0,0,1,0,0h-2.7a0,0,0,0,1,0,0V167.56A1.21,1.21,0,0,1,540.68,166.35Z" fill="#006284"/>
          <path d="M546.38,166.35h.27a1.21,1.21,0,0,1,1.21,1.21v16.79a0,0,0,0,1,0,0h-2.7a0,0,0,0,1,0,0V167.56a1.21,1.21,0,0,1,1.21-1.21Z" fill="#006284"/>
          <path d="M552.07,166.35h.27a1.21,1.21,0,0,1,1.21,1.21v16.79a0,0,0,0,1,0,0h-2.7a0,0,0,0,1,0,0V167.56A1.21,1.21,0,0,1,552.07,166.35Z" fill="#006284"/>
          <path d="M557.77,166.35H558a1.21,1.21,0,0,1,1.21,1.21v16.79a0,0,0,0,1,0,0h-2.7a0,0,0,0,1,0,0V167.56a1.21,1.21,0,0,1,1.21-1.21Z" fill="#006284"/>
          <path d="M563.47,166.35h.27a1.21,1.21,0,0,1,1.21,1.21v16.79a0,0,0,0,1,0,0h-2.7a0,0,0,0,1,0,0V167.56A1.21,1.21,0,0,1,563.47,166.35Z" fill="#006284"/>
          <path d="M569.16,166.35h.27a1.21,1.21,0,0,1,1.21,1.21v16.79a0,0,0,0,1,0,0H568a0,0,0,0,1,0,0V167.56a1.21,1.21,0,0,1,1.21-1.21Z" fill="#006284"/>
          <path d="M574.86,166.35h.27a1.21,1.21,0,0,1,1.21,1.21v16.79a0,0,0,0,1,0,0h-2.7a0,0,0,0,1,0,0V167.56A1.21,1.21,0,0,1,574.86,166.35Z" fill="#006284"/>
        </g>
        <g>
          <rect x="517.96" y="142.69" width="0.96" height="1.92" fill="#f1e9c7"/>
          <rect x="520.85" y="142.69" width="0.96" height="1.92" fill="#f1e9c7"/>
          <rect x="523.74" y="142.69" width="0.96" height="1.92" fill="#f1e9c7"/>
        </g>
        <g>
          <rect x="517.96" y="146.06" width="0.96" height="1.92" fill="#f1e9c7"/>
          <rect x="520.85" y="146.06" width="0.96" height="1.92" fill="#f1e9c7"/>
          <rect x="523.74" y="146.06" width="0.96" height="1.92" fill="#f1e9c7"/>
        </g>
        <path d="M319.59,200.88v12.74a8.58,8.58,0,0,0,8.65,8.49h69.23a8.58,8.58,0,0,1,8.66,8.49h0a8.57,8.57,0,0,0,8.65,8.48H591.11a17.14,17.14,0,0,0,17.31-17h0V200.88Z" fill="#50bbb7" opacity="0.2" style="mix-blend-mode: multiply"/>
      </g>
      <path d="M566.49,707.62H278.61a12.65,12.65,0,0,1-12.44-12.72l0,.23a12.48,12.48,0,0,1,12.48-12.48h62.72a6.14,6.14,0,0,0,6.13-6.14h0a6.14,6.14,0,0,0-6.13-6.13H308.74a9.1,9.1,0,0,1-9.09-9.1h0a9.1,9.1,0,0,1,9.09-9.1H436.53a10.37,10.37,0,0,1,10.37,10.37h0a6.14,6.14,0,0,0,6.14,6.14h38.5a7.82,7.82,0,0,1,7.83,7.82h0a6.14,6.14,0,0,0,6.14,6.14h61A12.49,12.49,0,0,1,579,695.13h0A12.49,12.49,0,0,1,566.49,707.62Z" fill="#c2e4ed" opacity="0.5" style="mix-blend-mode: multiply"/>
      <path d="M-247.45,1048.83v-58L292.4,636.5,800.4,959a106.44,106.44,0,0,1,49.38,89.85H-247.45Z" fill="#6186b6"/>
      <path d="M292.86,696.68l-489.75,321.45v29.61H799.22a53.9,53.9,0,0,0-25-45.49Z" fill="#8ebde0"/>
      <line x1="194.4" y1="761.31" x2="394.65" y2="761.31" fill="none" stroke="#58789e" stroke-miterlimit="10" stroke-width="1.44"/>
      <line x1="144.38" y1="794.14" x2="445.39" y2="794.14" fill="none" stroke="#58789e" stroke-miterlimit="10" stroke-width="1.44"/>
      <line x1="86.84" y1="831.9" x2="505.86" y2="831.9" fill="none" stroke="#58789e" stroke-miterlimit="10" stroke-width="1.44"/>
      <line x1="25.42" y1="872.21" x2="565.69" y2="872.21" fill="none" stroke="#58789e" stroke-miterlimit="10" stroke-width="1.44"/>
      <line x1="-45.2" y1="918.56" x2="642.38" y2="918.56" fill="none" stroke="#58789e" stroke-miterlimit="10" stroke-width="0.72"/>
      <line x1="521.48" y1="785.5" x2="521.48" y2="840.65" fill="none" stroke="#1b507b" stroke-miterlimit="10" stroke-width="1.44"/>
      <line x1="243.16" y1="668.82" x2="243.16" y2="728.47" fill="none" stroke="#1b507b" stroke-miterlimit="10" stroke-width="1.44"/>
      <line x1="194.62" y1="757.36" x2="194.62" y2="698.85" fill="none" stroke="#1b507b" stroke-miterlimit="10" stroke-width="1.44"/>
      <g>
        <g>
          <polygon points="354.07 584.37 413.34 538.94 450.73 575.84 377.47 629.13 358.59 617.14 354.07 584.37" fill="#6186b6"/>
          <circle cx="436.11" cy="553.25" r="26.91" fill="#1b507b"/>
          <path d="M334,487l8.31,14-4.12.2.2,5.2a4.51,4.51,0,0,1-4.66,4.69h0l-1.35,26.83-11.84-.2,3.76-51Z" fill="#6186b6"/>
          <path d="M293.22,532.24l68.63,6.12a13.93,13.93,0,0,1,11.27,7.74l8.2,18.23-20,14.43s-14,37.11,49.7,80.15c0,0,40.08,20.84,57.71,64.13L374.5,785.25s-1.14-38-31.81-67.59L285.33,658,278,543.62A14.23,14.23,0,0,1,293.22,532.24Z" fill="#50bbb7"/>
          <path d="M270.7,557.91l7.77,43.19L312.86,534l-22.52-2.19a27,27,0,0,0-18.37,5l-44,31.58a7.32,7.32,0,0,0-1.43,10.55l42.27,52.46,8.4-11.23-33.18-44.8Z" fill="#50bbb7"/>
          <circle cx="334.83" cy="483.37" r="6.8" fill="#1b507b"/>
          <path d="M334,479.36l-8.67,2.74a9.38,9.38,0,0,0-6.56,9v4.79a5.87,5.87,0,0,0,2.11,4.51l2.7,2.25.6-9.22,9.82-6.82Z" fill="#1b507b"/>
          <polygon points="343.83 536.5 350.07 612.03 278.52 601.24 312.59 534.23 343.83 536.5" fill="#fee195"/>
          <path d="M278.52,601.24l-4.5,8.69c-7.85,15.16-8.51,32.07-8,49.13l7.76,213.07h16.47l15.1-233.81a3.82,3.82,0,0,1,3.81-3.57h0a3.82,3.82,0,0,1,3.8,3.42L337,872.94h15.34L350.07,612Z" fill="#1b507b"/>
          <polygon points="320.79 534.83 325.21 545.89 332.53 535.68 320.79 534.83" fill="#6186b6"/>
        </g>
        <circle cx="437.43" cy="552.07" r="18.27" fill="none" stroke="#50bbb7" stroke-miterlimit="10" stroke-width="0.96"/>
        <circle cx="437.43" cy="551.67" r="9.86" fill="none" stroke="#50bbb7" stroke-miterlimit="10" stroke-width="0.96"/>
      </g>
      <line x1="464.14" y1="807.71" x2="464.14" y2="747.82" fill="none" stroke="#1b507b" stroke-miterlimit="10" stroke-width="1.44"/>
      <rect x="-50.98" y="918.44" width="376.34" height="131.47" fill="#6186b6"/>
      <g>
        <g>
          <path d="M54.6,641.52l22.5,15.84-6.67,5,5.06,9.1a7.93,7.93,0,0,1-2,10.08l-.52.41,15,44.6L62.52,735.3,35.84,650.69Z" fill="#6186b6"/>
          <path d="M61.68,735.3,31.5,749.53a48.22,48.22,0,0,0-25.18,59L41.68,914.11l131.7-10.42V735.3l81-30.22a24.9,24.9,0,0,0,11.44-38l-37.4-51.42-16.25,10,33.76,55.44-158,45.43Z" fill="#50bbb7"/>
          <polygon points="118.73 717.7 114.2 673.62 130.87 669.45 138.79 714.88 118.73 717.7" fill="#50bbb7"/>
          <path d="M114.2,673.62l-.44-4a114.46,114.46,0,0,1,6.13-51.4l1.81-5L138.79,609l-3.65,11.85a114.43,114.43,0,0,0-4.74,42.22l.47,6.37Z" fill="#6186b6"/>
          <path d="M41.68,914.11,18.84,1086.66H68.15L91.21,958.72a10.52,10.52,0,0,1,10-8.65l6.41-.22a6.51,6.51,0,0,1,7.2,5.88l11.9,130.93h46.67v-183Z" fill="#1b507b"/>
          <path d="M53.7,641.77l2.73-1.72a17.18,17.18,0,0,0,7.3-19.42l-2.08-7-9.72,2.72A9.65,9.65,0,0,0,45,627.2h0a6,6,0,0,1-3.36,6.36L37,635.73a19.78,19.78,0,0,0-11.46,17.95h0a19.8,19.8,0,0,0,9.61,17l8.45,5.07-6.5-25.28Z" fill="#1b507b"/>
          <path d="M88.23,651.14,226.84,537.93l18.3,30L96.55,662.63a7.1,7.1,0,0,1-9.26-1.42h0A7.1,7.1,0,0,1,88.23,651.14Z" fill="#83bede"/>
          <circle cx="239.88" cy="550.3" r="17.98" fill="#1b507b"/>
        </g>
        <line x1="86.93" y1="660.55" x2="226.11" y2="561.85" fill="none" stroke="#1b507b" stroke-miterlimit="10" stroke-width="0.72"/>
        <polygon points="212.14 626.77 185.94 582.01 198.27 575.02 228.13 616.34 212.14 626.77" fill="#6186b6"/>
      </g>
      <line x1="358.32" y1="886.37" x2="258.91" y2="1047.74" fill="none" stroke="#6186b6" stroke-miterlimit="10" stroke-width="1.44"/>
      <g>
        <path d="M577.39,773.05l-20.92,21.86,6.08,2.76-4.91,10.81a7,7,0,0,0,3.5,9.33h0L551.31,852l21.27,9.66,22.43-79Z" fill="#1b507b"/>
        <path d="M562.88,849.8H445.7l-37.46-54.51-22.05,7.79,36.16,61.26a26,26,0,0,0,22.41,12.8h53.55l15.62,95.78h99l24.84-114.59-51.54-8.53Z" fill="#fee195"/>
        <path d="M413.2,802.06l-4.85-6.95a70.62,70.62,0,0,0-37.88-27.3L357.71,764l-5.65,17h0a70.63,70.63,0,0,1,37.63,27.55l3,4.31Z" fill="#1b507b"/>
        <path d="M572.84,764.42v-7.91l18.21,8.4a20.75,20.75,0,0,1,11.76,15.42h0a20.75,20.75,0,0,1-11.27,22l-2.45,1.2,5.42-18.85-16.15-10.23A11.87,11.87,0,0,1,572.84,764.42Z" fill="#6186b6"/>
        <g>
          <circle cx="512.16" cy="936.37" r="27.58" fill="#1b507b"/>
          <circle cx="512.33" cy="936.57" r="14.81" fill="none" stroke="#6186b6" stroke-miterlimit="10" stroke-width="0.72"/>
        </g>
        <g>
          <circle cx="478.93" cy="945.04" r="27.58" fill="#6186b6"/>
          <circle cx="479.1" cy="945.24" r="14.81" fill="none" stroke="#1b507b" stroke-miterlimit="10" stroke-width="0.72"/>
        </g>
        <g>
          <rect x="325.8" y="760.12" width="28.89" height="46.23" fill="#6186b6"/>
          <circle cx="361.19" cy="774.56" r="9.19" fill="none" stroke="#6186b6" stroke-miterlimit="10" stroke-width="1.44"/>
        </g>
        <g>
          <path d="M559.27,906.53,566,887.37l-5.54-1.94-6.69,19.16a2.21,2.21,0,0,1-2.81,1.35h0a2.2,2.2,0,0,0-2.8,1.35l-19,54.26L543,966.39l19-54.25a2.2,2.2,0,0,0-1.35-2.81h0A2.19,2.19,0,0,1,559.27,906.53Z" fill="#6186b6"/>
          <circle cx="562.99" cy="886.75" r="3.1" fill="#1b507b"/>
        </g>
        <g>
          <path d="M580.14,918.64l9-18.18-5.25-2.61-9,18.18a2.21,2.21,0,0,1-3,1h0a2.21,2.21,0,0,0-2.95,1l-25.57,51.47L556.55,976l25.57-51.47a2.19,2.19,0,0,0-1-2.95h0A2.2,2.2,0,0,1,580.14,918.64Z" fill="#6186b6"/>
          <circle cx="586.3" cy="899.48" r="3.1" fill="#1b507b"/>
        </g>
        <rect x="447.31" y="942.14" width="130.13" height="110.53" fill="#c2e4ed"/>
        <rect x="577.44" y="942.14" width="42.36" height="110.53" fill="#1b507b"/>
        <rect x="533.58" y="972.92" width="45.61" height="20.77" fill="#1b507b"/>
        <path d="M586.24,849.8l43.92,4.83a34.28,34.28,0,0,1,30.27,29.81l10.46,83.47a22.92,22.92,0,0,1-22.74,25.77h-69V972.92h63l-8.9-76.76H586.24Z" fill="#fee195"/>
      </g>
      <g>
        <g>
          <path d="M154.55,698.89l19.19,30.52h-9.59l-.89,12.65a6.55,6.55,0,0,1-6.53,6.09h0l-6.1,43.59H124l13.08-94.16Z" fill="#1b507b"/>
          <path d="M164.47,782.57l126.92-30.94L355,658.77l16.13,11.77L314.25,763.3a53.38,53.38,0,0,1-28.79,22.79l-69.93,23.08L200.71,960.44H135.32V785.85l3.62-.05A114.44,114.44,0,0,0,164.47,782.57Z" fill="#fee195"/>
          <path d="M355,658.77l6.76-8a53.77,53.77,0,0,1,29-17.81l6.92-1.61,3.92,14.82h0a53.88,53.88,0,0,0-28.36,21.21l-2.16,3.2Z" fill="#6186b6"/>
          <path d="M106.17,782.57-20.75,751.63l-63.64-92.86-16.13,11.77,56.91,92.76a53.38,53.38,0,0,0,28.79,22.79l69.93,23.08L69.93,960.44h65.39V785.85l-3.61-.05A114.46,114.46,0,0,1,106.17,782.57Z" fill="#fee195"/>
          <polygon points="200.71 960.44 200.71 1212.42 161.04 1212.42 137.06 1011.01 125.73 1011.01 91.73 1212.42 34.18 1212.42 69.93 960.44 200.71 960.44" fill="#1b507b"/>
        </g>
        <circle cx="144.37" cy="695.22" r="15.32" fill="#6186b6"/>
        <circle cx="133.53" cy="710.39" r="15.32" fill="#6186b6"/>
        <line x1="103.55" y1="782.26" x2="204.68" y2="913.73" fill="none" stroke="#1b507b" stroke-miterlimit="10" stroke-width="1.44"/>
      </g>
      <g>
        <path d="M264.58,796.35,250,830H260.1v10.09a10.08,10.08,0,0,0,10.08,10.09h0l3.93,43.72h23.54l-10-87.16A11.71,11.71,0,0,0,276,796.35Z" fill="#6186b6"/>
        <path d="M318.85,890h120.6V835.51a54.93,54.93,0,0,1,8.21-28.9l10.85-17.54,16.81,7.28-8.08,14.36a55,55,0,0,0-7.05,26.94v61.76A23.61,23.61,0,0,1,436.58,923H343Z" fill="#6186b6"/>
        <path d="M214.51,902.71l-50.26,73.56-57.26-48a68,68,0,0,0-43.71-15.9H53.84v21.86h1.82a68.07,68.07,0,0,1,48.43,20.24l46.26,46.87a23.62,23.62,0,0,0,35.88-2.66L227,942.78Z" fill="#6186b6"/>
        <path d="M236.2,890h93.13a28.37,28.37,0,0,1,22.78,11.47l15.6,21-28.85,127.78H239.65L208.5,943.89a48.7,48.7,0,0,1,4.44-40.8h0A27.17,27.17,0,0,1,236.2,890Z" fill="#1b507b"/>
        <rect x="319.05" y="890.23" width="83.48" height="32.54" fill="#1b507b"/>
        <polyline points="212.39 906.24 163.63 975.95 187.38 997.25 224.96 946.12 212.23 906.5" fill="#1b507b"/>
        <circle cx="262.46" cy="790.48" r="17.01" fill="#1b507b"/>
        <path d="M262.46,807.46h25.28v-4.68a10.88,10.88,0,0,0-10.88-10.88H264.58Z" fill="#1b507b"/>
      </g>
      <path d="M114.27,233.84H-106.64a7.44,7.44,0,0,0-7.44,7.44h0a7.44,7.44,0,0,0,7.44,7.44h86.75a3.65,3.65,0,0,1,3.66,3.65h0A3.66,3.66,0,0,1-19.89,256H-39.3a5.42,5.42,0,0,0-5.42,5.42h0a5.42,5.42,0,0,0,5.42,5.42H39.36A3.66,3.66,0,0,0,43,263.21v-2.52A3.64,3.64,0,0,1,46.67,257h24a3.66,3.66,0,0,0,3.66-3.66v-1a3.65,3.65,0,0,1,3.65-3.65h36.34a7.44,7.44,0,0,0,7.44-7.44h0A7.44,7.44,0,0,0,114.27,233.84Z" fill="#c2e4ed" opacity="0.53" style="mix-blend-mode: multiply"/>
      <g>
        <rect x="389.54" y="971.22" width="68.2" height="79.18" fill="#50bbb7"/>
        <circle cx="423.81" cy="971.23" r="34.07" fill="#1b507b"/>
        <line x1="401.36" y1="986.12" x2="401.36" y2="1050.41" fill="none" stroke="#1b507b" stroke-miterlimit="10" stroke-width="0.72"/>
        <g>
          <rect x="321.91" y="995.06" width="68.2" height="54.63" fill="#fee195"/>
          <circle cx="356.18" cy="995.06" r="34.07" fill="#1b507b"/>
          <line x1="335.27" y1="986.12" x2="335.27" y2="1050.41" fill="none" stroke="#1b507b" stroke-miterlimit="10" stroke-width="0.76"/>
          <line x1="349.84" y1="986.12" x2="349.84" y2="1050.41" fill="none" stroke="#1b507b" stroke-miterlimit="10" stroke-width="0.76"/>
          <line x1="364.4" y1="986.12" x2="364.4" y2="1050.41" fill="none" stroke="#1b507b" stroke-miterlimit="10" stroke-width="0.76"/>
          <line x1="378.97" y1="986.12" x2="378.97" y2="1050.41" fill="none" stroke="#1b507b" stroke-miterlimit="10" stroke-width="0.76"/>
        </g>
        <line x1="416.17" y1="986.12" x2="416.17" y2="1050.41" fill="none" stroke="#1b507b" stroke-miterlimit="10" stroke-width="0.72"/>
        <line x1="430.98" y1="986.12" x2="430.98" y2="1050.41" fill="none" stroke="#1b507b" stroke-miterlimit="10" stroke-width="0.72"/>
        <line x1="445.79" y1="986.12" x2="445.79" y2="1050.41" fill="none" stroke="#1b507b" stroke-miterlimit="10" stroke-width="0.72"/>
        <circle cx="423.39" cy="970.34" r="22.64" fill="none" stroke="#6186b6" stroke-miterlimit="10" stroke-width="0.76"/>
        <path d="M434.59,966.25h5.06a0,0,0,0,1,0,0v6.5a0,0,0,0,1,0,0h-5.06a3.25,3.25,0,0,1-3.25-3.25v0A3.25,3.25,0,0,1,434.59,966.25Z" fill="#6186b6"/>
        <circle cx="356.22" cy="992.73" r="22.64" fill="none" stroke="#6186b6" stroke-miterlimit="10" stroke-width="0.76"/>
        <path d="M367.41,988.65h5.06a0,0,0,0,1,0,0v6.5a0,0,0,0,1,0,0h-5.06a3.25,3.25,0,0,1-3.25-3.25v0A3.25,3.25,0,0,1,367.41,988.65Z" fill="#6186b6"/>
      </g>
      <g>
        <path d="M565.44,417H100.16A15.67,15.67,0,0,0,84.5,432.68h0a15.66,15.66,0,0,0,15.66,15.66H282.89a7.69,7.69,0,0,1,7.69,7.7h0a7.69,7.69,0,0,1-7.69,7.7H242a11.42,11.42,0,0,0-11.42,11.42h0A11.41,11.41,0,0,0,242,486.57H407.67a7.7,7.7,0,0,0,7.7-7.7v-5.31a7.69,7.69,0,0,1,7.7-7.69h50.44a7.7,7.7,0,0,0,7.7-7.7V456a7.7,7.7,0,0,1,7.7-7.7h76.53a15.66,15.66,0,0,0,15.66-15.66h0A15.67,15.67,0,0,0,565.44,417Z" fill="#c2e4ed" style="mix-blend-mode: multiply"/>
        <g>
          <path d="M110.61,286.11q-7.17,5.28-14.39,10.48c4.35,2.46,6.53,3.68,10.88,6.1-4.46,3.26-6.69,4.88-11.14,8.1,4.35,2.46,6.53,3.68,10.88,6.1-4.46,3.26-6.68,4.88-11.14,8.1,4.35,2.46,6.53,3.68,10.88,6.1-4.45,3.26-6.68,4.88-11.14,8.09,4.35,2.47,6.53,3.69,10.88,6.1-4.45,3.27-6.68,4.89-11.14,8.1q7,4,14.06,7.86c142.36.3,283.22-33.3,425.63-31.21l1.22-43.62a22.21,22.21,0,0,0-22.32-22.62C379.07,264.36,245.39,286.39,110.61,286.11Z" fill="#1b507b"/>
          <path d="M551,369.1q7.07,4,14.11,8c-4.42,1.72-6.63,2.58-11.05,4.32,4.36,2.47,6.55,3.71,10.91,6.21-4.42,1.71-6.63,2.57-11,4.32,4.36,2.46,6.55,3.7,10.91,6.2-4.42,1.71-6.63,2.58-11.05,4.32,4.37,2.47,6.55,3.71,10.92,6.21-4.42,1.71-6.63,2.57-11.05,4.31,4.37,2.47,6.55,3.71,10.92,6.21-5.71,2.21-8.56,3.33-14.27,5.59-142.11-.07-291.24,11.26-433.38,9.86.23-18.57.82-30.09,1.06-48.65C260.12,387.4,408.89,369,551,369.1Z" fill="#1b507b"/>
          <polygon points="128.48 372.08 258.86 335.81 535.45 331.81 395.57 366.49 120.9 380.62 128.48 372.08" fill="#1b507b"/>
          <path d="M110.61,281.38q-7.17,5.26-14.39,10.48c4.35,2.46,6.53,3.68,10.88,6.1-4.46,3.26-6.69,4.88-11.14,8.1,4.35,2.46,6.53,3.68,10.88,6.1-4.46,3.26-6.68,4.88-11.14,8.1,4.35,2.46,6.53,3.68,10.88,6.09-4.45,3.27-6.68,4.89-11.14,8.1,4.35,2.47,6.53,3.68,10.88,6.1-4.45,3.26-6.68,4.88-11.14,8.1q7,4,14.06,7.86c142.36.3,283.48-24.3,425.89-22.21l1-52.62a22.23,22.23,0,0,0-22.32-22.63C379.07,259.63,245.39,281.66,110.61,281.38Z" fill="url(#c)"/>
          <path d="M551,355q7.07,4,14.11,8c-4.42,1.71-6.63,2.57-11.05,4.32,4.36,2.46,6.55,3.7,10.91,6.2-4.42,1.71-6.63,2.58-11,4.32,4.36,2.47,6.55,3.71,10.91,6.21-4.42,1.71-6.63,2.57-11.05,4.31,4.37,2.47,6.55,3.71,10.92,6.21-4.42,1.71-6.63,2.57-11.05,4.32,4.37,2.46,6.55,3.71,10.92,6.2-5.71,2.21-8.56,3.33-14.27,5.6-142.11-.08-290.88,18.29-433,16.89q.28-22.53.56-45.05a10.71,10.71,0,0,1,10.74-10.57C267.15,372.36,412.42,354.89,551,355Z" fill="url(#d)"/>
          <g>
            <path d="M160.05,387.88V389l10.37-.14V391q-13.44.19-26.89.24v-2.08c4.09,0,6.14,0,10.24,0v-1.13c-4.75,0-7.13,0-11.88,0v-2.49c4.75,0,7.13,0,11.88,0v-1.37l6.28-.05v1.33c4.78-.06,7.17-.09,11.94-.17v2.52C167.22,387.8,164.83,387.83,160.05,387.88Zm9.79,14.44v1.37c-5.18.08-7.78.12-13,.16l-2.9,1.53c3.17,0,4.75,0,7.92-.08l-.95-.91,7.06-.09,3.28,3-7,.1-1.44-1.28-.68,1.31-1.95,0v1.06c4.14,0,6.21-.07,10.35-.14v2c-4.14.07-6.21.1-10.35.14v1c4.77-.05,7.15-.09,11.92-.17v2.42q-15,.27-30,.27v-2.42c4.71,0,7.06,0,11.77,0v-1c-4.15,0-6.22,0-10.37,0v-2c4.15,0,6.22,0,10.37,0v-1.06c-3.91,0-5.87,0-9.79,0v-2l3.28-1.62h-3.14v-1.3H142v-4.37q15,0,30.1-.28v4.3Zm-26.28-5.05v-5.06q13.44,0,26.86-.24v5Q157,397.22,143.56,397.27Zm22.29,3.2c-7,.1-10.57.14-17.61.16v1.16c7,0,10.57-.06,17.61-.16ZM164.21,394c-5.81.08-8.72.1-14.54.13v1.2c5.82,0,8.73-.06,14.54-.14Z" fill="#1b507b"/>
            <path d="M178,390.84c-.57-2.87-.86-4.3-1.43-7.17l5.46-.12c.57,2.87.86,4.3,1.43,7.17Zm5.46,8.35,0,.2-5.42.12-1.47-7.62,5.36-.11c.57,2.79.86,4.18,1.43,7v-3.41l2.08-.05v3.86Zm-1.3,14.7-5.53.12,1.2-13.23,5.42-.12C182.82,406,182.6,408.6,182.16,413.89Zm6.15-27.28,2.59-.07v2.29l-2.8,2.94,1.61,0v-1.4l1.33,0v3.93l-7.61.19v-2.73l2.49-2.52-2.49.06v-2.66l2.93-3.11,5-.13C190.15,384.64,189.53,385.29,188.31,386.61Zm-.58,27.15c-.47-1-.7-1.52-1.16-2.53,5.76-.15,8.64-.23,14.4-.41v-1.43c-6.7.21-10.06.3-16.76.46v-6.07c6.4-.16,9.6-.25,16-.44v-1.13c-6.64.21-9.95.3-16.59.45v-2.45q11.34-.27,22.66-.66v6c-6.37.22-9.56.31-15.94.48v1.3c6.58-.17,9.87-.28,16.45-.5v6.35Q197.27,413.52,187.73,413.76Zm-1.51-14.64v-3.86l1.92-.05v3.86Zm2.7-.07v-3.86l2-.05V399Zm2.36-12.14v-2.33c.72,0,1.08,0,1.8-.05-.19-.49-.28-.74-.47-1.24l4.91-.15.45,1.25,1.19,0v2.32Zm.37,12.07v-5.67c2.83-.07,4.24-.12,7.07-.2v5.66Zm0-9.42v-1.78l7.1-.2v1.77Zm0,2.8v-1.85l7.1-.2v1.84Zm4.13,3-1.29,0v1.26l1.29,0Zm3.66,3.37v-3.86l2-.06v3.86Zm4.91-12.61,2.6-.09v2.15l-2.8,3.1,1.4-.05v-1.33l1.46-.05v3.86l-7.54.24v-2.56l2.46-2.7-2.46.07v-2.56l3.11-3.23,4.81-.16Zm-2.18,12.53v-3.86l1.91-.06v3.85Zm2.66-.09v-3.86l2-.07v3.86Z" fill="#1b507b"/>
            <path d="M222.37,407.22v5.26l-4.44.17V408l-6.25,1v-3.24l1.06-.18V386.29l-.75,0v-3.25c4.45-.16,6.68-.24,11.13-.42v3.24l-.75,0V404l.92-.14v3.21Zm-4.44-21.12-1.06,0v4l1.06,0Zm0,7.27-1.06,0v4l1.06,0Zm0,7.3-1.06,0v4.16l1.06-.14Zm21.33.94c.18,2.77.27,4.15.44,6.91l2.94-.13c-.51,1.3-.76,2-1.26,3.26l-6.59.3c-.11-1.4-.16-2.1-.27-3.5-1,1.45-1.54,2.18-2.56,3.63l-3.42.14,1.06-1.54-5.77.24V397.23l9-.38v9.22l1.44-2.05c-.24-3.51-.35-5.27-.58-8.78-4.29.19-6.43.28-10.72.45v-3.14l1.47-.06c-.37-1.51-.56-2.27-.92-3.78l4-.16c.32,1.51.49,2.27.81,3.78h.45c.18-1.54.26-2.31.44-3.85l3.62-.15c-.21,1.54-.31,2.31-.51,3.84l1.12-.05c-.24-4.07-.36-6.1-.61-10.17l5.08-.23.69,10.17,3.62-.16v3.14l-3.35.15.1,2.32.55-.78,3.41-.16Zm-15.5-13.8v-3.14l1.71-.07c-.22-.93-.33-1.4-.54-2.33l5.46-.23c.23.93.34,1.4.58,2.33l1.63-.07v3.14Zm5.36,12.27-1.53.07v2.08l1.53-.07Zm0,5.12-1.53.07v2.42l1.53-.07Zm10.28-14.58c-.28-3-.41-4.49-.69-7.48l2.77-.13.65,7.48Z" fill="#1b507b"/>
            <path d="M270.32,410.24q-4.26-8.94-8.5-17.89l-8.3,18.75-7.4.37,13.89-31,7.2-.38c-1.9,4.35-2.85,6.52-4.74,10.87l6-.32,9.18,19.2Z" fill="#1b507b"/>
            <path d="M301.24,408.49l-1.4-3.36,5.8-.34V385.2l-2.8.16c-.42,1.45-.63,2.17-1.06,3.61l-5.8.34V408.8c-5.52.32-8.27.48-13.79.78V383.17L285,383c.44-1.54.66-2.31,1.09-3.85l6.35-.36-1.13,3.85,4.68-.27V388c1.15-3.83,1.72-5.74,2.87-9.56L305,378,303.83,382l7.92-.47v26.39Zm-10.82-22.41-2.8.16v7.92l2.8-.16Zm0,11.23-2.8.16v8.33l2.8-.16Zm8.77,4.72c-1.09-4.69-1.64-7-2.73-11.72l6-.35,2.77,11.72Z" fill="#1b507b"/>
            <path d="M344.17,388.33v1.39l-8.91.54v4.47l10.31-.62v3.35l-10.31.61V403l11.54-.69v3.35l-29.73,1.78v-3.35l11.5-.69v-4.94l-10.27.61v-3.34l10.27-.62v-4.47l-8.91.53v-1.4l-3.31.2c2.65-3.69,4-5.54,6.62-9.24l-3.51.22v-3.45l19.42-1.17c3.47,4.71,5.2,7.07,8.67,11.77Zm-10.41-8.22-3.07.18c-2.06,2.9-3.09,4.35-5.16,7.24l13.08-.78Z" fill="#1b507b"/>
            <path d="M360,378.78v9l1.77-.1v3.14l-1.77.1v9.22l1.74-.38V403l-10.07,2.33v-3.27l2.22-.55V391.26l-1.88.11v-3.14l1.88-.11v-9l-2.32.14V376l10.51-.61v3.27Zm15.32,3q0,11.13,0,22.25l-8.09.47-.55-1.48-4.67.28c.58-4.5.88-6.75,1.46-11.25l5.23-.3-1.2,9.52,1.67-.1v-19l-7.27.42v-3.28l7.27-.42v-4.64l6.08-.35v4.64l1.26-.07c-.18-1.5-.27-2.26-.44-3.76l4.6-.26c.2,1.5.29,2.26.48,3.76l1.27-.07v3.28Zm-11.84,8.87c-.45-2.77-.68-4.16-1.13-6.93l5.22-.3c.43,2.77.64,4.16,1.06,6.93Zm17.54-1-5.25.3,1.05-7.06,5.26-.3C381.7,385.42,381.49,386.84,381.06,389.66Zm-3.85,12.78-1.4-11.09,5.22-.29c.54,4.43.82,6.65,1.36,11.08Z" fill="#1b507b"/>
            <path d="M409.15,375.91l-2.9,7.65,10-.49v18.77c-6.93.33-10.4.51-17.34.87V391.79l-2.52.14,1.33-3.32-2.29,1.32v13l-7.68.41c-.62-1.34-.94-2-1.57-3.36l3.08-.17V393.5L386.62,395v-3.83l2.67-1.54v-8.43l-2.7.14V378l2.7-.15v-4.71l6.17-.34v4.72l2.56-.14v3.38l-2.56.13V386l2.6-1.5v3.31l4.57-11.61-4.57.24V373q9.54-.5,19.08-1v3.45Zm.82,10.91-4.75.24v12l4.75-.24Z" fill="#1b507b"/>
            <path d="M436.89,391.25v6.55l3.9-.16c-.46,1.29-.68,1.94-1.13,3.22l-8.88.38v-9.73l-1.84.08V397l-.85,4.34-6.52.3c.4-2.34.59-3.51,1-5.85V371.88q14.32-.64,28.67-1.19v8.63q-11.14.44-22.29.91v8.26l3.59-.16v-2.46l-2.63.12v-3.11l2.63-.11v-1.71l5.93-.25v1.71l3.45-.14v-1.71l6.11-.24v1.71L451,382v3.11l-2.94.11v2.45l3.69-.13v3.1C445.78,390.89,442.82,391,436.89,391.25Zm7.75-17c-6.28.25-9.42.38-15.7.66v2.18c6.28-.28,9.42-.41,15.7-.65Zm.1,26.45L437,392.37l7.51-.3,1.33,1.38c.32-.58.47-.88.79-1.46l5.42-.2L449.22,397c1.25,1.34,1.88,2,3.14,3.34Zm-2.83-15.18-3.45.14v2.46l3.45-.14Z" fill="#1b507b"/>
            <path d="M485.6,399.32c-6.64.14-10,.22-16.59.41l-4-5.44c-.63,2.24-.94,3.36-1.57,5.61l-7,.23L459.79,389l6.25-.19c.59.82.88,1.24,1.47,2.07,4.2-5.5,6.3-8.25,10.51-13.73q-10.36.27-20.72.61c0-1.36,0-2,0-3.38,4.49-.16,6.74-.23,11.23-.36-.39-1.69-.58-2.54-1-4.24l7.1-.19c.4,1.69.59,2.54,1,4.24,4.23-.11,6.35-.16,10.58-.25v3.28q-7.4,9.67-14.78,19.37c6.32-.18,9.48-.25,15.8-.38Z" fill="#1b507b"/>
            <path d="M510.85,375.41c-.42,1-.63,1.56-1.06,2.6l-6.31.06c.37-.92.55-1.38.92-2.29l-6.25.07V380l6.32-.08V399l-5.26.06-1.43-3.15,1.7,0v-12.6l-1.33,0v11l-1.43,4.77-5.53.09,1.67-5.9V375.94l-1.12,0v-3.28l3.38-.06-1-3.32c2.62-.05,3.93-.07,6.56-.1.43,1.33.65,2,1.09,3.33l3,0v2.35l2.25-5.79,6.32-.05-1.16,3.08c3.86,0,5.79,0,9.66,0v3.31C517.42,375.37,515.23,375.38,510.85,375.41Zm5.53,23.52-4.85-13.28v10.17l3.07,0L513.21,399c-3,0-4.49,0-7.48.06V378.77c3.69,0,5.53,0,9.22-.07.19-.64.28-1,.47-1.61h6.08c-.49,1.9-.74,2.85-1.23,4.74l-8.74,0v1.5l5.09,0c.5,1.42.76,2.13,1.26,3.55.38-1.57.57-2.36,1-3.93h3.27l-1.43,6.25h-1.95l3.52,9.72Z" fill="#1b507b"/>
          </g>
          <g>
            <path d="M494.1,319.59l2.67-9.95c4.05,1,6.08,1.57,10.12,2.63l-2.67,9.93C500.17,321.14,498.15,320.62,494.1,319.59Zm3.26-12.12L505,279.25c4.05,1.06,6.08,1.6,10.13,2.69q-3.81,14.08-7.6,28.17C503.43,309,501.4,308.51,497.36,307.47Z" fill="#1b507b"/>
            <g>
              <path d="M174.64,337.86q-5.19-5.76-10.35-11.55-5.06,5.94-10.11,11.88c-4.73,0-7.09.05-11.81.05q8.19-9.11,16.35-18.24-5.67-6.48-11.32-13c4.45,0,6.68,0,11.13-.09l5.71,6.45,7.4-8.41q-14.22.27-28.45.31v-4.93q8,0,16-.11l-.92-4.87c4.06-.05,6.1-.08,10.16-.16l1,4.87q7.91-.15,15.82-.39v4.94l-2.66.08q-6.36,7.53-12.73,15,8,8.91,16.12,17.8C181.44,337.7,179.17,337.76,174.64,337.86Z" fill="#1b507b"/>
              <path d="M220,327.14V305.61l-1.65.08v16q-8,.38-16,.68v10.06l-1.55,4.42-8.76.31c.83-2.35,1.25-3.52,2.08-5.88V306.68l-2.18.07,4.7-11.82q9.72-.35,19.45-.8L220,305.08V297l5.23-.25v30.14ZM209.29,299l-6.1.25-2.42,6,2.56-.1c-.21-1.54-.31-2.31-.53-3.85L209,301c.34,1.53.52,2.3.87,3.83l1.45-.06Zm.58,10.09-7.5.3v2.23l7.5-.31Zm0,6.34-7.5.3V318l7.5-.31Zm-6,21.29V324.22c5.8-.23,8.71-.36,14.51-.63v12.53C212.58,336.39,209.67,336.52,203.87,336.75Zm8-8.61-1.55.07v4l1.55-.07Zm10.5,7.79-2.27-4.48,6.77-.34V293l8-.42v42.72C229.84,335.56,227.34,335.69,222.35,335.93Z" fill="#1b507b"/>
              <path d="M242.86,334.85V292.66q20.61-1.19,41.18-2.59v42.19Q263.46,333.64,242.86,334.85ZM276,324.14l-1.45,2.9-7.36.48c-.34-2.63-.52-3.94-.87-6.57l-.63.81-6.14.39,1.26-1.58c-3.27.21-4.91.31-8.18.5V307.33c4.37-.26,6.56-.39,10.94-.67v10.55l2-2.5c-.56-4-.84-6-1.41-10-4.91.32-7.37.47-12.29.76V301l11.76-.72c-.17-1.35-.26-2-.43-3.36l6.72-.43c.2,1.34.29,2,.49,3.35l1-.07c-.15-1.15-.23-1.72-.38-2.87l3.09-.21c.12,1.16.18,1.73.29,2.89l.78-.05V304l-4.26.28c.17,1.32.26,2,.43,3.31l1.07-1.28,3.53-.23V295.31q-12.43.81-24.87,1.57v33q12.43-.75,24.87-1.57ZM252.2,328.5v-4.31c4.92-.6,7.38-.91,12.29-1.53V327C259.58,327.59,257.12,327.9,252.2,328.5ZM259,311.39l-1.84.12v4.88l1.84-.11ZM276,309l-3.82,4.8c.46,3.63.7,5.44,1.16,9.07l2.66-.18Z" fill="#1b507b"/>
              <path d="M330.73,299.25v2.81l-20,1.44-1.69,2.05,10.83-.77v25.06l-11.56.83c-.81-1.77-1.22-2.65-2-4.41l4.5-.32v-16l-5.71.4-2.42,2.93,7.31-.52-6.54,8.06,7-.5-8.52,10.82-10.16.71,8-10-7.5.53L299,314l-7.35.51c3.29-4.09,4.93-6.14,8.22-10.25l-4.55.32v-2.8l-3.43.23v-9.43l16.59-1.17-1.3-3.24,9.67-.69c.57,1.29.85,1.94,1.41,3.23L334,289.59V299Zm-6.05-4.45-23.37,1.67v3l23.37-1.67Zm5.09,18.26-9,.66,4.55-9.38,9-.65Zm-3.88,16.3-4.83-14,8.75-.63c2,5.6,3,8.4,5,14Z" fill="#1b507b"/>
              <path d="M371.33,293.43l-1.7,3.17,6.63-.45v29.66c-4,.26-6,.4-10,.68l-1.7-3.76-1.4,2.52-8.47.59,2.28-4.17-7.65.54v5.46l-7.55.54V286.07l15.53-1.1V300.6l-3.24,2.55,3.24,2.19v7l4.07-7.4,7.06-.49v-3.29l-1.4.1-1,1.81-9.09.63,5.22-9.6-4,.28V289.8l3.72-.26c-.71-2.06-1.07-3.09-1.79-5.15l8.71-.6c.7,2.06,1.05,3.09,1.74,5.15l1.94-.13c.79-2.17,1.19-3.25,2-5.41l8.52-.57c-.79,2.16-1.19,3.24-2,5.41l3-.2v4.55ZM351.15,290l-1.79.13v11.23l1.79-.13Zm0,15.87-1.79.13v11.42l1.79-.13ZM368.47,307c-1.33,2.46-2,3.68-3.34,6.14l-7.79.54V321l3.49-6.48,7.64-.53Zm0,8.66-3.38,6.29,3.38-.24Zm14.23-7.83-5.76.39c.89-4.61,1.34-6.91,2.23-11.52l5.61-.37C384,300.91,383.53,303.21,382.7,307.81Zm-3.53,16.3c-.84-5.71-1.25-8.57-2.08-14.28l5.9-.39c.85,5.71,1.28,8.57,2.13,14.28Z" fill="#1b507b"/>
              <path d="M391.94,324.87V306.3l9.39-.59V319.4l6.24-.37V303c-5.92.35-8.89.54-14.81.91V285.29l9.29-.57v13.59l5.52-.33V281.05c3.77-.23,5.66-.33,9.43-.55v16.94l5.57-.31V283.54c3.64-.2,5.46-.29,9.09-.47v18.57c-5.86.3-8.79.45-14.66.78v16.06l6.29-.34V304.45c3.74-.2,5.61-.3,9.34-.48v18.58Q412.28,323.59,391.94,324.87Z" fill="#1b507b"/>
              <path d="M454.45,284l-2.17,6.42c4.27-.17,6.41-.25,10.69-.4v19.26q-5.67,6.18-11.32,12.38c-4.73.19-7.09.29-11.81.51,3.5-3.82,5.25-5.73,8.76-9.53l-7.7-10.16c3.88-.18,5.81-.26,9.68-.42,1.4,1.87,2.09,2.81,3.49,4.69l.24-.44V295l-3.63.14c-.81,2.23-1.22,3.34-2,5.56-3.55.15-5.32.22-8.86.39l5.76-16.66-5,.22v-4.69q11.53-.51,23.08-.93v4.69ZM467,321.12c-.9-1.88-1.36-2.83-2.27-4.71,3.77-.13,5.66-.19,9.44-.29V278.23l8.66-.22v42.68Q474.89,320.86,467,321.12Zm-2.27-8.73V282.06l7.5-.24v30.34Z" fill="#1b507b"/>
            </g>
          </g>
        </g>
      </g>
    </g>
  </g>
</svg>
