<svg xmlns="http://www.w3.org/2000/svg" xmlns:xlink="http://www.w3.org/1999/xlink" viewBox="0 0 544.78 433.26">
  <defs>
    <linearGradient id="a" data-name="未命名漸層 4" x1="164.28" y1="48.82" x2="300.31" y2="48.82" gradientUnits="userSpaceOnUse">
      <stop offset="0" stop-color="#c2e4ed"/>
      <stop offset="0.99" stop-color="#ecf6fc"/>
    </linearGradient>
    <linearGradient id="b" data-name="未命名漸層 3" x1="143.33" y1="99.07" x2="83.34" y2="99.07" gradientUnits="userSpaceOnUse">
      <stop offset="0" stop-color="#c2e4ed"/>
      <stop offset="0.99" stop-color="#fff"/>
    </linearGradient>
  </defs>
  
  <g style="isolation: isolate">
    <g>
      <path d="M283.73,1.75C165.55,1.75,69.57,96.76,68,214.57H499.46C497.89,96.76,401.91,1.75,283.73,1.75Z" fill="#c2e4ed"/>
      <path d="M72.13,259.86c19.69,98.88,106.94,173.4,211.6,173.4s191.91-74.52,211.59-173.4a216.48,216.48,0,0,0,4.16-42.36c0-1,0-1.95,0-2.93H68c0,1,0,2,0,2.93A217.25,217.25,0,0,0,72.13,259.86Z" fill="#91ceec"/>
      <path d="M474,171.75H338.86c-15.95,0-28.88,9-28.88,20.16v-5.4H288.82v-.72H203.11a7.05,7.05,0,0,0-7,7.09,6.56,6.56,0,0,1-6.53,6.58H135.69a7.33,7.33,0,0,0-7.36,6.72,7.17,7.17,0,0,0,7.12,7.68h92v.36H500.1V191.91C500.1,180.78,489.91,171.75,474,171.75Z" fill="#50bbb7"/>
      <circle cx="46.85" cy="269.48" r="14.48" fill="#6186b6"/>
      <text transform="translate(42.19 275.99) scale(0.92 1)" font-size="18.1" fill="#ecf6fc"  font-weight="700" letter-spacing="0.1em">1</text>
      <circle cx="46.85" cy="162.14" r="14.48" fill="#6186b6"/>
      <text transform="translate(42.19 168.65) scale(0.92 1)" font-size="18.1" fill="#ecf6fc"  font-weight="700" letter-spacing="0.1em">2</text>
      <circle cx="499.79" cy="27.49" r="14.48" fill="#6186b6"/>
      <text transform="translate(495.14 34.01) scale(0.92 1)" font-size="18.1" fill="#ecf6fc"  font-weight="700" letter-spacing="0.1em">3</text>
      <circle cx="237.33" cy="293.6" r="17.6" fill="#6186b6"/>
      <circle cx="165.63" cy="344.21" r="7.41" fill="#50bbb7"/>
      <circle cx="222.41" cy="353.32" r="31.24" fill="#6186b6"/>
      <circle cx="352.06" cy="354.19" r="17.6" fill="#6186b6"/>
      <circle cx="314.5" cy="332.04" r="6.91" fill="#50bbb7"/>
      <circle cx="404.85" cy="322.51" r="31.24" fill="#6186b6"/>
      <circle cx="158.61" cy="286.76" r="41.84" fill="#6186b6"/>
      <path d="M300.31,59.45A12.17,12.17,0,0,0,282.67,48.6a21.7,21.7,0,0,0-41.19.2,12.15,12.15,0,0,0-15,2.61A14.64,14.64,0,0,0,204,49.28c-2.73,2.75-3.83,7-6.76,9.64-7.79,7-14.46-5.31-21.9-5.31a11,11,0,0,0-11,10.18H299.51A12,12,0,0,0,300.31,59.45Z" fill="url(#a)"/>
      <path d="M158.84,109.71a12.14,12.14,0,0,0-17.63-10.85,21.71,21.71,0,0,0-41.2.19,12.14,12.14,0,0,0-15,2.62,14.65,14.65,0,0,0-22.57-2.14c-2.73,2.76-3.83,7-6.76,9.65-7.79,7-14.46-5.31-21.9-5.31a11,11,0,0,0-11,10.18H158A12,12,0,0,0,158.84,109.71Z" fill="url(#b)"/>
      <rect x="240.12" y="192.19" width="260.17" height="8.72" rx="3.47" ry="3.47" fill="#50bbb7" opacity="0.44" style="mix-blend-mode: multiply"/>
      <g>
        <g>
          <polygon points="75.94 193.04 88.12 179.56 88.12 160.41 100.89 160.41 100.89 151.19 124.3 151.19 132.11 163.25 123.59 173.89 123.59 178.85 139.91 178.85 152.8 193.04 75.94 193.04" fill="#1b507b"/>
          <polygon points="242.25 192.69 67.9 192.69 67.9 199.78 248.25 199.78 242.25 192.69" fill="#6186b6"/>
          <polygon points="67.9 213.97 237.28 213.97 248.55 203.33 67.9 203.33 67.9 213.97" fill="#6186b6"/>
          <polygon points="248.25 199.78 67.9 199.78 67.9 203.33 248.55 203.33 250.05 201.91 248.25 199.78" fill="#1b507b"/>
          <polygon points="82.68 192.69 94.86 179.21 94.86 160.05 107.63 160.05 107.63 150.83 131.04 150.83 138.85 162.89 130.34 173.53 130.34 178.5 146.65 178.5 159.54 192.69 82.68 192.69" fill="#fff"/>
          <polygon points="130.34 155.09 130.34 167.15 136.01 162.18 130.34 155.09" fill="#1b507b"/>
          <rect x="110.47" y="155.09" width="3.55" height="4.97" fill="#1b507b"/>
          <rect x="116.85" y="155.09" width="3.55" height="4.97" fill="#1b507b"/>
          <rect x="106.21" y="163.6" width="3.55" height="4.97" fill="#1b507b"/>
          <rect x="98.41" y="171.4" width="3.55" height="4.97" fill="#1b507b"/>
          <rect x="112.6" y="163.6" width="3.55" height="4.97" fill="#1b507b"/>
          <circle cx="79.96" cy="192.69" r="5.02" fill="#1b507b"/>
          <circle cx="218.13" cy="192.69" r="5.02" fill="#1b507b"/>
          <circle cx="228.06" cy="192.69" r="5.02" fill="#1b507b"/>
          <circle cx="237.99" cy="192.69" r="5.02" fill="#1b507b"/>
          <polyline points="88.83 162.36 88.83 151.9 102.67 151.9" fill="none" stroke="#1b507b" stroke-miterlimit="10" stroke-width="0.67"/>
          <line x1="88.83" y1="154.38" x2="104.08" y2="154.38" fill="none" stroke="#1b507b" stroke-miterlimit="10" stroke-width="0.67"/>
          <line x1="67.9" y1="187.72" x2="242.96" y2="187.72" fill="none" stroke="#1b507b" stroke-miterlimit="10" stroke-width="0.67"/>
        </g>
        <g>
          <line x1="180.17" y1="103.89" x2="201.28" y2="88.36" fill="none" stroke="#1b507b" stroke-miterlimit="10" stroke-width="0.15"/>
          <line x1="204.32" y1="86.66" x2="210.18" y2="82.48" fill="none" stroke="#1b507b" stroke-miterlimit="10" stroke-width="0.15"/>
          <g>
            <path d="M173.34,99.84l4.7,3.31-1.39,1,1,1.91a1.64,1.64,0,0,1-.42,2.1l-.11.08,3.13,9.32L175,119.42l-5.56-17.66Z" fill="#6186b6"/>
            <path d="M174.82,119.42l-6.3,3a10.08,10.08,0,0,0-5.26,12.31l7.38,22.05,27.5-2.17V119.42l16.91-6.31a5.2,5.2,0,0,0,2.39-7.93l-7.81-10.73-3.4,2.09,7.05,11.57-33,9.49Z" fill="#50bbb7"/>
            <polygon points="186.73 115.75 185.78 106.54 189.27 105.67 190.92 115.16 186.73 115.75" fill="#50bbb7"/>
            <path d="M185.79,106.54l-.1-.83A24.07,24.07,0,0,1,187,95l.38-1,3.57-.87-.76,2.47a23.68,23.68,0,0,0-1,8.81l.1,1.33Z" fill="#6186b6"/>
            <path d="M170.64,156.75l-4.76,36h10.29L181,166.07a2.22,2.22,0,0,1,2.09-1.81l1.34,0a1.36,1.36,0,0,1,1.5,1.22l2.49,27.34h9.74v-38.2Z" fill="#1b507b"/>
            <path d="M173.16,99.9l.56-.36a3.59,3.59,0,0,0,1.53-4.06L174.81,94l-2,.57a2,2,0,0,0-1.45,2.27h0a1.23,1.23,0,0,1-.7,1.33l-1,.45a4.14,4.14,0,0,0-2.4,3.75h0a4.13,4.13,0,0,0,2,3.54L171,107l-1.35-5.27Z" fill="#1b507b"/>
            <path d="M180.36,101.85,209.3,78.22l3.82,6.25-31,19.78a1.48,1.48,0,0,1-1.93-.3h0A1.47,1.47,0,0,1,180.36,101.85Z" fill="#50bbb7"/>
            <circle cx="212.02" cy="80.8" r="3.75" fill="#1b507b"/>
          </g>
          <line x1="180.09" y1="103.82" x2="209.15" y2="83.21" fill="none" stroke="#1b507b" stroke-miterlimit="10" stroke-width="0.15"/>
          <polygon points="206.23 96.76 200.76 87.42 203.34 85.96 209.57 94.59 206.23 96.76" fill="#6186b6"/>
        </g>
      </g>
      <line x1="1.86" y1="214.57" x2="542.92" y2="214.57" fill="none" stroke="#9dcfef" stroke-linecap="round" stroke-linejoin="round" stroke-width="3.72" style="mix-blend-mode: multiply"/>
      <g>
        <path d="M158.6,275.11a9,9,0,0,0-9-9v9.49h-7.92v-9.49a9,9,0,0,0-.58,18.06v0h.55v27.21h8V284.15h.74v0A9,9,0,0,0,158.6,275.11Z" fill="#aecad9"/>
        <circle cx="145.6" cy="307.34" r="1.55" fill="#6186b6"/>
      </g>
      <path d="M185.21,300.81v-4H180.9a9.35,9.35,0,0,0-1.16-2.93l3.1-3.11L180,287.89,176.94,291a9.07,9.07,0,0,0-2.9-1.26V285.3h-4v4.32a9.1,9.1,0,0,0-2.93,1.15l-3.11-3.1-2.85,2.86,3.06,3.05a9,9,0,0,0-1.26,2.89h-4.39v4h4.32a9.07,9.07,0,0,0,1.15,2.94l-3.1,3.1,2.86,2.85,3.05-3.05a9.48,9.48,0,0,0,2.89,1.26V312h4v-4.31a9.31,9.31,0,0,0,2.94-1.16l3.1,3.1,2.85-2.85-3.05-3.05a9.53,9.53,0,0,0,1.26-2.9Zm-13.49,1.41a3.73,3.73,0,1,1,3.73-3.73A3.73,3.73,0,0,1,171.72,302.22Z" fill="#aecad9"/>
      <path d="M185.21,273.28v-1.87h-2a4.67,4.67,0,0,0-.54-1.37l1.44-1.44-1.33-1.33-1.42,1.42a4.46,4.46,0,0,0-1.34-.58v-2h-1.88v2a4.5,4.5,0,0,0-1.36.54l-1.45-1.44L174,268.5l1.42,1.42a4.25,4.25,0,0,0-.59,1.34h-2v1.88h2a4.26,4.26,0,0,0,.54,1.36L173.91,276l1.32,1.32,1.42-1.42a4.3,4.3,0,0,0,1.35.59v2h1.87v-2a4.41,4.41,0,0,0,1.37-.54l1.44,1.44,1.33-1.32-1.42-1.42a4.52,4.52,0,0,0,.58-1.35Zm-6.27.65a1.73,1.73,0,1,1,1.73-1.73A1.73,1.73,0,0,1,178.94,273.93Z" fill="#aecad9"/>
      <g>
        <path d="M226.4,348.7h-.16l3.43-9.89H214.73l3.43,9.89H218a7.06,7.06,0,0,0-6.7,9.25l4,12.36h13.73L233.11,358A7.06,7.06,0,0,0,226.4,348.7Z" fill="#aecad9"/>
        <ellipse cx="222.4" cy="338.54" rx="7.61" ry="2.36" fill="#1b507b"/>
      </g>
      <g>
        <path d="M419.35,319.22h3.3a5.09,5.09,0,0,1,5.09,5.09v0a5.09,5.09,0,0,1-5.09,5.09h-3.3a0,0,0,0,1,0,0V319.22A0,0,0,0,1,419.35,319.22Z" fill="none" stroke="#1b507b" stroke-miterlimit="10" stroke-width="1.24"/>
        <path d="M393.88,321l-1.2-1a17.1,17.1,0,0,0-11.09-4.07h0" fill="none" stroke="#1b507b" stroke-miterlimit="10" stroke-width="1.5"/>
        <rect x="396.28" y="331.81" width="20.38" height="3.6" fill="#1b507b"/>
        <polygon points="406.17 310.83 391.78 319.22 406.17 319.22 420.55 319.22 406.17 310.83" fill="#1b507b"/>
        <rect x="405.57" y="309.04" width="1.5" height="3.9" fill="#1b507b"/>
        <path d="M392.08,319.22h28.47a0,0,0,0,1,0,0v7.52a6.26,6.26,0,0,1-6.26,6.26H398.34a6.26,6.26,0,0,1-6.26-6.26v-7.52A0,0,0,0,1,392.08,319.22Z" fill="#50bbb7"/>
      </g>
      <circle cx="336.61" cy="288.78" r="26.93" fill="#6186b6"/>
      <g>
        <path d="M341.64,276.63l-4.1-6.22-4.1,6.22A6.65,6.65,0,0,0,335.6,286l1.94,1.14,1.94-1.14A6.65,6.65,0,0,0,341.64,276.63Z" fill="#9dcfef"/>
        <path d="M328.71,281.8l-7.35,1.25,4.06,6.25a6.64,6.64,0,0,0,9.44,1.78l1.83-1.31-.28-2.23A6.62,6.62,0,0,0,328.71,281.8Z" fill="#9dcfef"/>
        <path d="M346.37,281.8l7.34,1.25-4,6.25a6.64,6.64,0,0,1-9.44,1.78l-1.83-1.31.27-2.23A6.63,6.63,0,0,1,346.37,281.8Z" fill="#9dcfef"/>
        <path d="M333.53,300.37l-7.08,2.31.68-7.42a6.64,6.64,0,0,1,7.52-6l2.23.31.8,2.11A6.64,6.64,0,0,1,333.53,300.37Z" fill="#9dcfef"/>
        <path d="M341.54,300.37l7.09,2.31-.68-7.42a6.64,6.64,0,0,0-7.53-6l-2.23.31-.79,2.11A6.64,6.64,0,0,0,341.54,300.37Z" fill="#9dcfef"/>
        <circle cx="337.54" cy="288.61" r="4.15" fill="#1b507b"/>
        <polyline points="326.38 285.09 337.54 288.61 348.55 285.82" fill="none" stroke="#1b507b" stroke-miterlimit="10" stroke-width="0.29"/>
        <line x1="336.81" y1="290.81" x2="330.05" y2="298.15" fill="none" stroke="#1b507b" stroke-miterlimit="10" stroke-width="0.29"/>
        <line x1="338.91" y1="290.67" x2="345.91" y2="298.15" fill="none" stroke="#1b507b" stroke-miterlimit="10" stroke-width="0.29"/>
        <line x1="337.39" y1="284.36" x2="337.39" y2="276.72" fill="none" stroke="#1b507b" stroke-miterlimit="10" stroke-width="0.29"/>
      </g>
      <line x1="61.43" y1="269.17" x2="121.11" y2="269.17" fill="none" stroke="#1b507b" stroke-miterlimit="10" stroke-width="0.62"/>
      <line x1="61.12" y1="162.14" x2="79.73" y2="162.14" fill="none" stroke="#1b507b" stroke-miterlimit="10" stroke-width="0.62"/>
      <line x1="499.79" y1="41.77" x2="499.79" y2="61.93" fill="none" stroke="#1b507b" stroke-miterlimit="10" stroke-width="0.62"/>
      <circle cx="68.87" cy="37.73" r="37.73" fill="#c2e4ed"/>
      <circle cx="484.59" cy="382.04" r="21.04" fill="#91ceec"/>
      <g>
        <rect x="377.69" y="62.1" width="122.17" height="133.36" fill="#6186b6"/>
        <rect x="438.56" y="53.6" width="61.31" height="8.5" fill="#1b507b"/>
        <g>
          <line x1="377.69" y1="76.04" x2="500.01" y2="76.04" fill="none" stroke="#1b507b" stroke-miterlimit="10" stroke-width="1.07"/>
          <line x1="377.69" y1="89.12" x2="500.01" y2="89.12" fill="none" stroke="#1b507b" stroke-miterlimit="10" stroke-width="1.07"/>
          <line x1="377.69" y1="102.84" x2="500.01" y2="102.84" fill="none" stroke="#1b507b" stroke-miterlimit="10" stroke-width="1.07"/>
          <line x1="377.69" y1="115.92" x2="500.01" y2="115.92" fill="none" stroke="#1b507b" stroke-miterlimit="10" stroke-width="1.07"/>
          <line x1="377.69" y1="128.99" x2="500.01" y2="128.99" fill="none" stroke="#1b507b" stroke-miterlimit="10" stroke-width="1.07"/>
          <line x1="377.69" y1="142.07" x2="500.01" y2="142.07" fill="none" stroke="#1b507b" stroke-miterlimit="10" stroke-width="1.07"/>
        </g>
        <line x1="403.47" y1="62.1" x2="403.47" y2="164.22" fill="none" stroke="#1b507b" stroke-miterlimit="10" stroke-width="0.54"/>
        <line x1="431.7" y1="62.1" x2="431.7" y2="164.22" fill="none" stroke="#1b507b" stroke-miterlimit="10" stroke-width="0.54"/>
        <line x1="459.93" y1="62.1" x2="459.93" y2="164.22" fill="none" stroke="#1b507b" stroke-miterlimit="10" stroke-width="0.54"/>
        <line x1="488.16" y1="62.1" x2="488.16" y2="164.22" fill="none" stroke="#1b507b" stroke-miterlimit="10" stroke-width="0.54"/>
      </g>
      <g>
        <rect x="252.05" y="125.47" width="247.93" height="36.94" fill="#1b507b"/>
        <g>
          <polygon points="251.99 161.4 252.05 157.21 287.4 133.2 287.4 127.95 299.86 127.95 299.86 133.2 335.28 156.81 334.62 161.4 251.99 161.4" fill="#1b507b"/>
          <g>
            <rect x="252.02" y="161.3" width="83.32" height="33.4" fill="#aecad9"/>
            <polygon points="293.87 133.3 252.25 161.53 293.87 161.53 335.49 161.53 293.87 133.3" fill="#aecad9"/>
            <rect x="291.08" y="131.04" width="5.42" height="6.32" fill="#aecad9"/>
            <g>
              <rect x="280.25" y="145.72" width="7.23" height="12.42" fill="#1b507b"/>
              <rect x="280.25" y="145.72" width="7.23" height="1.81" fill="#6186b6"/>
              <line x1="280.25" y1="151.93" x2="287.47" y2="151.93" fill="none" stroke="#6186b6" stroke-miterlimit="10" stroke-width="0.66"/>
              <line x1="283.86" y1="145.72" x2="283.86" y2="158.14" fill="none" stroke="#6186b6" stroke-miterlimit="10" stroke-width="0.66"/>
            </g>
            <g>
              <rect x="287.47" y="145.72" width="7.23" height="12.42" fill="#1b507b"/>
              <rect x="287.47" y="145.72" width="7.23" height="1.81" fill="#6186b6"/>
              <line x1="287.47" y1="151.93" x2="294.7" y2="151.93" fill="none" stroke="#6186b6" stroke-miterlimit="10" stroke-width="0.66"/>
              <line x1="291.08" y1="145.72" x2="291.08" y2="158.14" fill="none" stroke="#6186b6" stroke-miterlimit="10" stroke-width="0.66"/>
            </g>
            <g>
              <rect x="294.7" y="145.72" width="7.23" height="12.42" fill="#1b507b"/>
              <rect x="294.7" y="145.72" width="7.23" height="1.81" fill="#6186b6"/>
              <line x1="294.7" y1="151.93" x2="301.92" y2="151.93" fill="none" stroke="#6186b6" stroke-miterlimit="10" stroke-width="0.66"/>
              <line x1="298.31" y1="145.72" x2="298.31" y2="158.14" fill="none" stroke="#6186b6" stroke-miterlimit="10" stroke-width="0.66"/>
            </g>
            <g>
              <rect x="301.92" y="145.72" width="7.23" height="12.42" fill="#1b507b"/>
              <rect x="301.92" y="145.72" width="7.23" height="1.81" fill="#6186b6"/>
              <line x1="301.92" y1="151.93" x2="309.15" y2="151.93" fill="none" stroke="#6186b6" stroke-miterlimit="10" stroke-width="0.66"/>
              <line x1="305.53" y1="158.14" x2="305.53" y2="145.72" fill="none" stroke="#6186b6" stroke-miterlimit="10" stroke-width="0.66"/>
            </g>
            <line x1="287.47" y1="145.72" x2="287.47" y2="158.14" fill="none" stroke="#6186b6" stroke-miterlimit="10" stroke-width="0.66"/>
            <line x1="294.7" y1="146.62" x2="294.7" y2="158.03" fill="none" stroke="#6186b6" stroke-miterlimit="10" stroke-width="0.66"/>
            <line x1="301.92" y1="146.62" x2="301.92" y2="158.03" fill="none" stroke="#6186b6" stroke-miterlimit="10" stroke-width="0.66"/>
            <rect x="252.14" y="161.41" width="83.32" height="2.26" fill="#1b507b"/>
            <circle cx="294.25" cy="141.66" r="1.92" fill="#1b507b"/>
            <path d="M265.91,168.3h0a5.64,5.64,0,0,1,5.64,5.64V194.7a0,0,0,0,1,0,0H260.26a0,0,0,0,1,0,0V173.94A5.64,5.64,0,0,1,265.91,168.3Z" fill="#6186b6"/>
            <path d="M284.08,168.3h0a5.64,5.64,0,0,1,5.64,5.64V194.7a0,0,0,0,1,0,0H278.44a0,0,0,0,1,0,0V173.94a5.64,5.64,0,0,1,5.64-5.64Z" fill="#6186b6"/>
            <path d="M302.26,168.3h0a5.64,5.64,0,0,1,5.64,5.64V194.7a0,0,0,0,1,0,0H296.62a0,0,0,0,1,0,0V173.94A5.64,5.64,0,0,1,302.26,168.3Z" fill="#6186b6"/>
            <path d="M320.44,168.3h0a5.64,5.64,0,0,1,5.64,5.64V194.7a0,0,0,0,1,0,0H314.79a0,0,0,0,1,0,0V173.94A5.64,5.64,0,0,1,320.44,168.3Z" fill="#6186b6"/>
            <line x1="252.02" y1="178.11" x2="334.87" y2="178.11" fill="none" stroke="#6186b6" stroke-miterlimit="10" stroke-width="0.66"/>
            <line x1="252.02" y1="183.43" x2="335.34" y2="183.43" fill="none" stroke="#6186b6" stroke-miterlimit="10" stroke-width="0.66"/>
          </g>
          <polygon points="334.62 161.4 334.62 156.81 369.38 133.2 369.38 127.95 381.84 127.95 381.84 133.2 417.26 156.81 417.26 161.4 334.62 161.4" fill="#1b507b"/>
          <g>
            <rect x="334" y="161.3" width="83.32" height="33.4" fill="#aecad9"/>
            <polygon points="375.85 133.3 334.23 161.53 375.85 161.53 417.47 161.53 375.85 133.3" fill="#aecad9"/>
            <rect x="373.06" y="131.04" width="5.42" height="6.32" fill="#aecad9"/>
            <g>
              <rect x="362.22" y="145.72" width="7.23" height="12.42" fill="#1b507b"/>
              <rect x="362.22" y="145.72" width="7.23" height="1.81" fill="#6186b6"/>
              <line x1="362.22" y1="151.93" x2="369.45" y2="151.93" fill="none" stroke="#6186b6" stroke-miterlimit="10" stroke-width="0.66"/>
              <line x1="365.84" y1="145.72" x2="365.84" y2="158.14" fill="none" stroke="#6186b6" stroke-miterlimit="10" stroke-width="0.66"/>
            </g>
            <g>
              <rect x="369.45" y="145.72" width="7.23" height="12.42" fill="#1b507b"/>
              <rect x="369.45" y="145.72" width="7.23" height="1.81" fill="#6186b6"/>
              <line x1="369.45" y1="151.93" x2="376.67" y2="151.93" fill="none" stroke="#6186b6" stroke-miterlimit="10" stroke-width="0.66"/>
              <line x1="373.06" y1="145.72" x2="373.06" y2="158.14" fill="none" stroke="#6186b6" stroke-miterlimit="10" stroke-width="0.66"/>
            </g>
            <g>
              <rect x="376.67" y="145.72" width="7.23" height="12.42" fill="#1b507b"/>
              <rect x="376.67" y="145.72" width="7.23" height="1.81" fill="#6186b6"/>
              <line x1="376.67" y1="151.93" x2="383.9" y2="151.93" fill="none" stroke="#6186b6" stroke-miterlimit="10" stroke-width="0.66"/>
              <line x1="380.29" y1="145.72" x2="380.29" y2="158.14" fill="none" stroke="#6186b6" stroke-miterlimit="10" stroke-width="0.66"/>
            </g>
            <g>
              <rect x="383.9" y="145.72" width="7.23" height="12.42" fill="#1b507b"/>
              <rect x="383.9" y="145.72" width="7.23" height="1.81" fill="#6186b6"/>
              <line x1="383.9" y1="151.93" x2="391.12" y2="151.93" fill="none" stroke="#6186b6" stroke-miterlimit="10" stroke-width="0.66"/>
              <line x1="387.51" y1="145.72" x2="387.51" y2="158.14" fill="none" stroke="#6186b6" stroke-miterlimit="10" stroke-width="0.66"/>
            </g>
            <line x1="369.45" y1="145.72" x2="369.45" y2="158.14" fill="none" stroke="#6186b6" stroke-miterlimit="10" stroke-width="0.66"/>
            <line x1="376.67" y1="146.62" x2="376.67" y2="158.03" fill="none" stroke="#6186b6" stroke-miterlimit="10" stroke-width="0.66"/>
            <line x1="383.9" y1="146.62" x2="383.9" y2="158.03" fill="none" stroke="#6186b6" stroke-miterlimit="10" stroke-width="0.66"/>
            <rect x="334.11" y="161.41" width="83.32" height="2.26" fill="#1b507b"/>
            <circle cx="376.22" cy="141.66" r="1.92" fill="#1b507b"/>
            <path d="M347.89,168.3h0a5.64,5.64,0,0,1,5.64,5.64V194.7a0,0,0,0,1,0,0H342.24a0,0,0,0,1,0,0V173.94A5.64,5.64,0,0,1,347.89,168.3Z" fill="#6186b6"/>
            <path d="M366.06,168.3h0a5.64,5.64,0,0,1,5.64,5.64V194.7a0,0,0,0,1,0,0H360.42a0,0,0,0,1,0,0V173.94A5.64,5.64,0,0,1,366.06,168.3Z" fill="#6186b6"/>
            <path d="M384.24,168.3h0a5.64,5.64,0,0,1,5.64,5.64V194.7a0,0,0,0,1,0,0H378.59a0,0,0,0,1,0,0V173.94a5.64,5.64,0,0,1,5.64-5.64Z" fill="#6186b6"/>
            <path d="M402.41,168.3h0a5.64,5.64,0,0,1,5.64,5.64V194.7a0,0,0,0,1,0,0H396.77a0,0,0,0,1,0,0V173.94A5.64,5.64,0,0,1,402.41,168.3Z" fill="#6186b6"/>
            <line x1="334" y1="178.11" x2="416.84" y2="178.11" fill="none" stroke="#6186b6" stroke-miterlimit="10" stroke-width="0.66"/>
            <line x1="334" y1="183.43" x2="417.32" y2="183.43" fill="none" stroke="#6186b6" stroke-miterlimit="10" stroke-width="0.66"/>
          </g>
          <polygon points="417.26 161.4 417.26 156.81 452.01 133.2 452.01 127.95 464.48 127.95 464.48 133.2 499.89 156.81 499.89 161.4 417.26 161.4" fill="#1b507b"/>
          <g>
            <rect x="416.63" y="161.3" width="83.32" height="33.4" fill="#aecad9"/>
            <polygon points="458.48 133.3 416.86 161.53 458.48 161.53 500.1 161.53 458.48 133.3" fill="#aecad9"/>
            <rect x="455.69" y="131.04" width="5.42" height="6.32" fill="#aecad9"/>
            <g>
              <rect x="444.86" y="145.72" width="7.23" height="12.42" fill="#1b507b"/>
              <rect x="444.86" y="145.72" width="7.23" height="1.81" fill="#6186b6"/>
              <line x1="444.86" y1="151.93" x2="452.08" y2="151.93" fill="none" stroke="#6186b6" stroke-miterlimit="10" stroke-width="0.66"/>
              <line x1="448.47" y1="145.72" x2="448.47" y2="158.14" fill="none" stroke="#6186b6" stroke-miterlimit="10" stroke-width="0.66"/>
            </g>
            <g>
              <rect x="452.08" y="145.72" width="7.23" height="12.42" fill="#1b507b"/>
              <rect x="452.08" y="145.72" width="7.23" height="1.81" fill="#6186b6"/>
              <line x1="452.08" y1="151.93" x2="459.31" y2="151.93" fill="none" stroke="#6186b6" stroke-miterlimit="10" stroke-width="0.66"/>
              <line x1="455.69" y1="145.72" x2="455.69" y2="158.14" fill="none" stroke="#6186b6" stroke-miterlimit="10" stroke-width="0.66"/>
            </g>
            <g>
              <rect x="459.31" y="145.72" width="7.23" height="12.42" fill="#1b507b"/>
              <rect x="459.31" y="145.72" width="7.23" height="1.81" fill="#6186b6"/>
              <line x1="459.31" y1="151.93" x2="466.53" y2="151.93" fill="none" stroke="#6186b6" stroke-miterlimit="10" stroke-width="0.66"/>
              <line x1="462.92" y1="145.72" x2="462.92" y2="158.14" fill="none" stroke="#6186b6" stroke-miterlimit="10" stroke-width="0.66"/>
            </g>
            <g>
              <rect x="466.53" y="145.72" width="7.23" height="12.42" fill="#1b507b"/>
              <rect x="466.53" y="145.72" width="7.23" height="1.81" fill="#6186b6"/>
              <line x1="466.53" y1="151.93" x2="473.76" y2="151.93" fill="none" stroke="#6186b6" stroke-miterlimit="10" stroke-width="0.66"/>
              <line x1="470.15" y1="145.72" x2="470.15" y2="158.14" fill="none" stroke="#6186b6" stroke-miterlimit="10" stroke-width="0.66"/>
            </g>
            <line x1="452.08" y1="145.72" x2="452.08" y2="158.14" fill="none" stroke="#6186b6" stroke-miterlimit="10" stroke-width="0.66"/>
            <line x1="459.31" y1="146.62" x2="459.31" y2="158.03" fill="none" stroke="#6186b6" stroke-miterlimit="10" stroke-width="0.66"/>
            <line x1="466.53" y1="146.62" x2="466.53" y2="158.03" fill="none" stroke="#6186b6" stroke-miterlimit="10" stroke-width="0.66"/>
            <rect x="416.75" y="161.41" width="83.32" height="2.26" fill="#1b507b"/>
            <circle cx="458.86" cy="141.66" r="1.92" fill="#1b507b"/>
            <path d="M430.52,168.3h0a5.64,5.64,0,0,1,5.64,5.64V194.7a0,0,0,0,1,0,0H424.87a0,0,0,0,1,0,0V173.94A5.64,5.64,0,0,1,430.52,168.3Z" fill="#6186b6"/>
            <path d="M448.7,168.3h0a5.64,5.64,0,0,1,5.64,5.64V194.7a0,0,0,0,1,0,0H443.05a0,0,0,0,1,0,0V173.94A5.64,5.64,0,0,1,448.7,168.3Z" fill="#6186b6"/>
            <path d="M466.87,168.3h0a5.64,5.64,0,0,1,5.64,5.64V194.7a0,0,0,0,1,0,0H461.23a0,0,0,0,1,0,0V173.94A5.64,5.64,0,0,1,466.87,168.3Z" fill="#6186b6"/>
            <path d="M485,168.3h0a5.64,5.64,0,0,1,5.64,5.64V194.7a0,0,0,0,1,0,0H479.4a0,0,0,0,1,0,0V173.94A5.64,5.64,0,0,1,485,168.3Z" fill="#6186b6"/>
            <line x1="416.63" y1="178.11" x2="499.48" y2="178.11" fill="none" stroke="#6186b6" stroke-miterlimit="10" stroke-width="0.66"/>
            <line x1="416.63" y1="183.43" x2="499.95" y2="183.43" fill="none" stroke="#6186b6" stroke-miterlimit="10" stroke-width="0.66"/>
          </g>
          <rect x="328.72" y="161.4" width="12.46" height="1.97" fill="#1b507b"/>
          <line x1="334.62" y1="161.4" x2="334.62" y2="194.7" fill="none" stroke="#1b507b" stroke-miterlimit="10" stroke-width="0.66"/>
          <rect x="408.73" y="161.4" width="17.71" height="1.97" fill="#1b507b"/>
          <line x1="417.26" y1="156.81" x2="417.26" y2="194.7" fill="none" stroke="#1b507b" stroke-miterlimit="10" stroke-width="0.66"/>
        </g>
      </g>
    </g>
  </g>
</svg>
