<svg xmlns="http://www.w3.org/2000/svg" viewBox="0 0 116.59 26.21">
  
  <g>
    <path d="M25.82,12.81,23.43,5.44A7.3,7.3,0,0,0,16.92.72H9.19A5.88,5.88,0,0,0,8.08.83,3.09,3.09,0,0,1,10.29,2s2.1,3.07-.86,8.86a8.11,8.11,0,0,0-1.16-5.7,7.59,7.59,0,0,1,.27,5.57S8.15,7.67,4,5.13a2.28,2.28,0,0,1-.85-.81,5,5,0,0,0-.42.87C4,5.78,7.5,7.69,8.26,10.56a6.73,6.73,0,0,0-3.35-2C3.23,8.39,3.4,7.73,3.1,7.39a4.75,4.75,0,0,1-.73-1L.28,12.81a7.31,7.31,0,0,0,2.49,7.65l.8.57a5.76,5.76,0,0,0,1.31-2.37,1.43,1.43,0,0,1,.39-1.14l.58-.73a3.27,3.27,0,0,1,.83-2.28A7.12,7.12,0,0,0,7.77,13a7.28,7.28,0,0,1-.59-.75C5.52,9.88,5.79,9.48,5.79,9.48s.35-.35,2.79,2.22a2.84,2.84,0,0,0,2.13,1.51c1.57.27,3.62,1.65,3.79,2.4s-1.36.41-2.05.35a3.07,3.07,0,0,1-1.78-1,3.84,3.84,0,0,0-1,1.27,3,3,0,0,1-1.89,1.53c-.41.25-.2.47-.72,1.08a1.61,1.61,0,0,1-1.18.59,11.28,11.28,0,0,1-1.81,1.93l.24.18c2.06-.52,2.38-1,2.38-1-.18-.85,1.36-.83,1.72-.84s.21.23.21.23c-.82,1.54-1.52,1.18-1.52,1.18a20.68,20.68,0,0,1-2.29.72l.82,0c.76,0,1.54,0,2.31,0H8.3a1.77,1.77,0,0,0,.7-.2c.07-.88,1.54-.4,1.88-.31s.14.29.14.29c-1.23,1.24-1.81.68-1.81.68a2.49,2.49,0,0,1-.36,0c-.42,0-1.78.08-3.44,0L9,25a7.35,7.35,0,0,0,8,0l6.26-4.55A7.3,7.3,0,0,0,25.82,12.81ZM11.11,2.07a25.67,25.67,0,0,1,5.33,2.28s-1.38,2.23-7.07,7C9.37,11.35,12.75,5.49,11.11,2.07ZM10.7,12.23a23,23,0,0,1,2.84-3.9,26.7,26.7,0,0,0,2.92-4S20.85,7.72,20,9.3C20,9.3,15.71,8.09,10.7,12.23Zm9.56,4.26c-1.1-.34-1.16,0-1.2.2a1.51,1.51,0,0,1-.19.43c-.95,1.45-3.39-.23-4-1.75s-3-2.56-3-2.56c5.48-1.78,10.63,2.32,10.63,2.32C22.72,16.11,21.36,16.83,20.26,16.49Zm2.7-2s-5-4.23-11.12-1.84c0,0,3.88-3.54,8.86-3C20.7,9.66,24.38,12.33,23,14.51Z" fill="#fff"/>
    <g>
      <path d="M42.83,1.33s.08,0,.11,0,0,0,.06,0,0,0,.06,0,0,0,.06,0,0,0,0,0h0s0,0,0,0,0,0,0,0l0,0s0,0,0,0,.06,0,.08,0,0,0,0,0h0l0,0,0,0c.05,0,.18,0,.25,0s0,0,0,0h.14s.06,0,.08,0,.05,0,.08.05,0,0,.06,0,0,0,0,0,.05.07.08,0,0,0,0,.05.08,0,.1,0,.06,0,.07,0,0,.06.08,0,0,0,0,0,.06,0,.08,0l0,0,0,0a0,0,0,0,1,0,0l0,0a.27.27,0,0,0,.09,0H45l.06.06c.07,0,.11,0,.13,0s0,0,.06,0,0,.08.06.06,0,0,0,0l.06.06s0,0,.06,0h0l.07.07s0,.05.09,0a.12.12,0,0,1,.05,0h0v0l0,0s0,.08,0,.11l0,0s0,.08,0,.1,0,.09.06.16l0,0c0,.09.06.13.05.22s0,.05,0,.08l0,0h0s0,0,0,0S46,3,46,3s0,.07,0,.1,0,0,0,0l0,0s0,0,0,.09,0,0,0,0a0,0,0,0,0,0,0l.06.05v0s0,.07.07,0,0,.06,0,.06,0,0,.06,0,.08,0,.1.07h.05l0,0h0s.06,0,.08,0h0s0,0,0,0h.08s.07,0,.1,0,0,0,0,0,0,0,0,0,0,0,0,0,.08.08.08,0,.17,0,.2,0,0,0,0,0a.29.29,0,0,0,.08.07s0,0,.06,0l0,0h.15l.06,0s0,0,0,0,.07,0,.09,0a.15.15,0,0,1,.12,0h.18s0,.05,0,.05,0,0,0,0a0,0,0,0,0,0,0h.08s0,0,0,0l0,0a0,0,0,0,0,0,0h.06s0,0,0,0h0l0,0s.09,0,.14,0a.76.76,0,0,1,.09.09s0,0,.07,0,.07,0,.1,0l.1.11s.07,0,.1,0l.05.06h0s0,0,.05,0,0,0,.06,0a.25.25,0,0,0,.09.11.24.24,0,0,1,.17,0s0,0,0,0,0,.08.08.08,0,0,.08,0,0,0,0,0h.07c.09,0,.11.07.16.1s0,0,0,0,0,0,0,0,0,0,.06,0,0,0,0,0,0,0,0,0h.14a.05.05,0,0,0,0,0s.08,0,.11,0,.1,0,.09,0h.06l.05.06s.06,0,.09.06H51s0,.05.07.06,0,0,.09,0,0,.05,0,.07h.14s0,0,0,0h0s0,0,0,0,.05,0,.06,0h.06s0,0,0,0,0,0,.06,0,.08,0,.09,0,0,0,.07,0,0,.06.08,0h0a0,0,0,0,1,0,0s0,0,.06,0l0,0s0,0,0,0,0,0,.06.05v0l0,0h.05s0,.07.08.1h0s0,0,0,0,0,0,.06.07.07.11.11.17,0,.05,0,.06,0,0,0,0,0,.07,0,.08V6s0,0,0,0,0,0,0,0,0,0,0,0,0,0,0,0,0,0,0,.05,0,0-.05,0,0,.06-.09.09v0s0,0-.06,0,0,.06-.06.08v0s0,0,0,0h-.06s0,.09-.08.08a.6.6,0,0,0-.08.08c-.06,0-.09,0-.13.07h0l-.05,0h-.07s0,0-.07,0l0,0s-.08,0-.08,0-.09,0-.13,0a0,0,0,0,0-.06,0l0,0a.21.21,0,0,1-.15,0,.12.12,0,0,1-.13,0h0a.17.17,0,0,0-.12-.08s0,0,0,0H50.7l-.09,0s0,0,0,0-.16,0-.2,0h0l-.07-.06s-.07,0-.09,0-.06,0-.07,0a.08.08,0,0,0-.08,0s0-.1-.06-.07v0l0,0h0a.06.06,0,0,0,0,0s0,0,0,0h0s0,0-.05,0,0,0-.09,0h-.08s0,0-.07,0,0,0,0-.07-.09,0-.12,0-.08,0-.1,0a.24.24,0,0,1-.19,0h0s-.08-.06-.08,0a.08.08,0,0,1-.09,0s-.08,0-.09,0h0s0-.07-.1-.09h-.24s-.06-.08-.09,0h-.19s0,0,0,0l0,0,0,0s0,0,0,0H48s0,0-.06,0L47.87,6h0s-.07,0-.08,0,0,0-.06,0,0,.06-.06.08a0,0,0,0,0,0,0l-.12.12v0a.47.47,0,0,1-.06.09s0,.07,0,.11,0,0,0,0,0,.06-.06.07,0,0,0,0l0,0s0,.07,0,.09,0,0,0,0,0,0,0,0-.06,0-.05,0l0,.06a.06.06,0,0,1-.06.06s-.05,0,0,.06,0,0,0,0,0,0,0,0,0,.05-.06.07-.08,0-.11.06-.06.06-.08.1,0,0-.07,0l-.08,0v.06h0s0,0,0,0,0,0,0,0-.1.11-.15.18,0,0,0,0v0s0,0,0,0,0,0,0,.09a.17.17,0,0,1,0,.1.07.07,0,0,0-.06,0h0s0,.07-.08.08v.21s0,0,0,0,0,.06,0,.09-.05,0,0,.06l-.05,0s0,0,0,.08l0,0v0s0,0,0,0,0,.09,0,.14l0,.05a1.33,1.33,0,0,0,0,.2l0,0s0,0,0,.05,0,0,0,.06l0,0s0,0,0,0,0,0,0,0v0s0,0,0,.06.06,0,.07.07v0a.63.63,0,0,0,.11.12s0,.07,0,.06,0,0,0,0,0,0,.05,0,0,0,0,0a.06.06,0,0,0,0,.05c.06,0,.09,0,.15,0s.06.1.12.09,0,0,0,0h0l.07.07h0l.06.06c.06,0,.06.08.13.07s0,.08.05.06,0,.09.09.1,0,0,0,0h0c0,.06.06.06.08.09s0,.06.06.05,0,.1.1.1,0,.06.08.06v0h0c0,.06.08.08.11.13s.06,0,.06.06a0,0,0,0,0,0,0c0,.06,0,.05.1.05s0,0,0,0,.06.06.1.08a.08.08,0,0,1,.09,0c.06,0,.08.05.12.06h0s0,0,.06,0,0,0,.07,0,0,0,.06,0h0l0,0h0s0,0,0,0,0,0,0,0h.07l.1.1s.06,0,.08,0h.1l.07.06s0,0,0,0h0l0,0s0,0,0,0l0,0s0,0,0,0,0,0,.08,0,0,0,0,0,0,0,0,0,0,.06.08.06a.27.27,0,0,1,.08.07c.06,0,.07.05.09.07s.07,0,.1,0,.12.09.17.1,0,0,0,0,.07,0,.08,0H50l0,0s.13,0,.16,0,.06,0,.07,0h0s.07,0,.09-.05.06,0,.13,0,.06,0,.07,0,.11,0,.13,0,0,0,0,0,.06,0,.08,0h.08s0,0,.06,0,.1,0,.12,0h.06v0l0,.06h0l0,.05h0s0,0,.06,0l.11.1s.07.1.11.1,0,0,0,0l0,0h.06s0,0,.08,0,0,0,0,0,0,0,0,0h.1a0,0,0,0,0,0,0s.08,0,.09,0,0,0,.08,0,0,0,0,0,0,0,.06,0,0,0,0,0,.05,0,.07,0,0,0,.05,0,0,.07.07.05l.05,0s.07.07.13,0,0,.05,0,.06.08,0,.09,0h.05l0,0a.08.08,0,0,0,0,0s0,0,0,.06.09,0,.12,0h0s.06,0,.07,0h0s0,0,.05,0,.11,0,.15,0,0,0,0,0,0,0,.05,0,0,0,0,0h.09s0,.05.07,0,0,.06.06.05a.07.07,0,0,1,0,0s0,0,0,0,0,0,0,0,0,0,0,0a.06.06,0,0,0,.05,0h.43a.06.06,0,0,0,.06,0,.13.13,0,0,0,.1,0s0,0,0,0,0,0,.05,0h.11a.08.08,0,0,0,0,0h0l0,0s.06,0,.1,0l0,0h.26l0,0s0,0,0,0,.07.09.1,0h.12s.06,0,.07.05h0s0,0,0,0h.06l0,0h0s0,0,.06,0,0,0,.06,0h0s0,0,.05,0,0,.07.08.05v0l0,0s0,0,0,0h.48a.07.07,0,0,0,0,0h.1s0,0,0,0,0,0,.05,0h0s0,0,0,0,.09,0,.1,0,.06,0,0,0l.07-.08a.08.08,0,0,0,.08,0s0,.07.08,0h0l0,0,0,0s0,0,0,0a.5.5,0,0,0,.21,0s.07,0,.09,0H58a0,0,0,0,0,0,0,.12.12,0,0,0,.13,0s.05,0,.06,0a0,0,0,0,0,.07,0s0,0,0,0a0,0,0,0,0,0,0s0,0,.07,0,.05,0,.06,0,.12,0,.15,0h.11l0,0,0,0s0,0,.08,0,.06,0,.07.05h0s0,0,.08,0,0,0,0,0,.06.06.09.09a.06.06,0,0,0,0,.06h0s0,0,0,.05,0,.08,0,.13,0,.05.06.08,0,.05,0,.06,0,0,0,0a.59.59,0,0,1,0,.13h0s-.07.05-.05.08h0s0,0,0,.05,0,0-.06.08v0a.22.22,0,0,1-.05.08s0,.06-.06,0l-.2.2s0,0,0,0,0,.07-.09.07l0,0s-.09,0-.08.06h0c-.05,0-.06.07-.11.06l0,0c-.05,0-.1,0-.08.07s-.06,0-.07.07-.07,0-.12,0,0,.06-.07.07h-.13s0,0,0,0,0,.05-.09,0-.08,0-.09.09,0,0-.08.06-.07,0-.06.06a.06.06,0,0,0-.06,0h0s0,0-.05.05v0c-.06,0-.13,0-.12.06l-.07.09a.16.16,0,0,0,0,.07c-.06,0-.08.07-.12.1s0,0-.07,0,0,0,0,0a.15.15,0,0,0-.08.08h0v0c-.05.05-.11.09-.16.15s0,0,0,.05-.1,0-.1,0,0,0,0,0,0,0-.09,0h0s0,.11-.1.09,0,.05-.06,0-.09.07-.11.12,0,0,0,0v.07s0,0-.08,0v0s0,0,0,0,0,0,0,.07,0,0-.07,0h0c0,.06-.08.05-.09.08s0,0,0,0,0,0,0,0h0l0,0s0,.05-.05.06-.07,0-.09,0,0,0-.05,0h0s0,0,0,0,0,0,0,0,0,0,0,0a.05.05,0,0,0-.07,0s-.08,0-.12,0l0,0s-.11,0-.13,0A.21.21,0,0,0,55,17c-.09,0-.08.07-.15.07s0,0-.06.06h0a.19.19,0,0,1-.13.05s0,.06,0,.09,0,0-.07,0a0,0,0,0,0,0,0c0,.06-.14,0-.18.07h-.26a0,0,0,0,0,0,0s0,0,0,0,0-.06-.07,0,0,0,0-.05h0s0,0,0-.05a.53.53,0,0,1-.13,0s0,0,0,0,0,0,0-.05h-.05a.23.23,0,0,0-.12-.06.43.43,0,0,1-.1-.09H53.2l-.08-.06s-.06-.06-.1-.08H53s0-.06-.06-.05v0l-.16-.17h0s0-.09-.08-.09,0,0,0,0a.41.41,0,0,0-.09-.1c0-.05,0-.06-.06-.09h0s0,0-.06,0a.14.14,0,0,0-.07-.08h-.08s0,0,0,0,0,0,0-.05,0,0,0,0,0,0-.07,0a.63.63,0,0,1-.12-.11s0-.07,0-.06,0-.05,0-.07l0,0h0s-.05,0,0-.06l-.06-.05h0s0-.09-.1-.09,0,0,0,0l0,0s0,0,0-.05,0,0,0-.05H51.5s0,0,0,0a0,0,0,0,0-.06-.06l-.07-.06h0s0,0-.05,0,0-.05-.09,0,0-.08-.05,0S51,15,51,15h0s0,0,0,0-.09-.13-.16-.13a1492746485751.51,1492746485751.51,0,0,1-.06-.06,0,0,0,0,0,0,0,.06.06,0,0,0,0,0,0,0,0,0,0,0,0s0,0-.06-.07h0s0-.07-.08-.08a0,0,0,0,0,0,0s-.06-.06-.09-.09h0l0-.05a.07.07,0,0,0-.06-.07s0,0-.06,0h0L50,14.07h0c0-.07-.12-.1-.16-.16v-.05s-.08,0-.07-.07-.05-.06-.08-.09,0,0,0,0,0-.08,0-.13,0,0,0,0v0s0,0,0,0v0s0-.07-.08-.08v0l0,0s0,0,0,0,0,0,0,0,0,0-.06,0,0-.14-.09-.11,0-.1-.08-.08A0,0,0,0,0,49.1,13c0-.06,0-.1-.07-.08s-.05,0-.07-.06h0c0-.06,0-.07-.07-.09s-.07,0-.09,0a.09.09,0,0,1-.1,0h-.08s0,0,0,0-.08,0-.1,0-.1,0-.12,0-.21,0-.26,0-.06,0-.08,0,0,0,0,0-.06,0-.09-.07h0a.77.77,0,0,0-.12-.13h0s0,0-.06-.05-.05-.06-.09-.06-.06,0-.11-.06,0-.05-.07-.08h0a.17.17,0,0,0-.12-.06s0,0,0,0h0s0,0,0-.05a0,0,0,0,0,0,0A.09.09,0,0,0,47,12s-.06-.12-.15-.09l0,0s0-.05-.09,0l0-.05h-.23l0,0c-.08,0-.2,0-.27,0H46l0,0h-.08s0,0,0,0h0s0-.07,0-.06,0-.06,0-.07-.07,0-.1,0,0,0,0,0,0,0-.07,0,0,0,0,0-.07-.08-.11-.13h0s-.05,0-.09-.06,0,0,0,0h0l-.05,0s0-.05-.08,0,0,0-.06,0h0s-.08,0-.1-.06h0s-.06-.07-.11-.09,0,0,0,0,0,0,0,0l0,0h-.12l0,0c-.09,0-.09-.06-.15,0h0s0,0,0,0,0,0,0,0,0,0,0,0-.05,0-.05,0a.39.39,0,0,1-.08-.1.93.93,0,0,1-.23,0h-.26c-.06,0-.1,0-.12,0s0,0-.08,0-.09.11-.14.15a0,0,0,0,0-.06.06l-.13.12a0,0,0,0,1,0,0s-.07,0-.08,0-.1,0-.13.06,0,0,0,0l0,0h-.09c-.06,0-.1,0-.14,0h0a.06.06,0,0,0,0,.05s-.06,0-.09.06,0,0-.06,0h-.08a.06.06,0,0,1-.09,0s0,0,0,0,0,0-.06,0l0,0s-.08,0-.08,0,0,0-.07.06,0,0-.07,0h0s0,.11-.1.09a.1.1,0,0,1,0,0,.18.18,0,0,0-.13,0v0a.13.13,0,0,0-.07,0h0s-.08,0-.09.05,0,0,0,0a0,0,0,0,0,0,0h0c-.06,0-.08,0-.11.05s-.15,0-.13.08-.08,0-.08,0h0s0,0-.06,0,0,0-.05,0,0,0,0,.06a.05.05,0,0,0-.07.07s0,0,0,0a.12.12,0,0,1-.05.05v0h0s0,.05-.07.07-.07,0-.06.06-.06,0,0,0l-.12.12c-.09,0-.13.1-.19.12v0s0,0,0,0a.09.09,0,0,0-.06.07s0,0-.08.06h0l-.05,0s0,0,0,0,0,0,0,0,0,0,0,0h-.08s0,0,0,0,0,0-.06.05-.09,0-.15,0,0,0,0,0v0l0,0s0,0,0,0-.07,0-.08,0l0,0,0,0,0,0,0,0s0,0,0,0-.09,0-.11,0h0s-.05,0-.06,0-.08,0-.11,0a0,0,0,0,0,0,0H38.5s-.07,0-.08,0h-.09s-.12,0-.13,0-.05,0-.09,0,0,0,0,0-.06,0-.1,0,0,0-.05,0a.52.52,0,0,0-.1.11c-.06,0-.11,0-.11.06s-.08.07-.09.12h0l0,0h0a.45.45,0,0,1-.11,0,0,0,0,0,0,0,0s0,0-.07,0h0s-.1,0-.12.06h0a.1.1,0,0,0-.06,0c0,.08-.07.06-.07.13s0,0-.06,0-.28,0-.32.09,0,0,0,0-.07.06-.1.1-.07,0-.07,0,0,0-.05,0h0l-.11,0s0,0-.07.07,0,0,0,0l-.07.07s-.09,0-.07.07,0,0,0,0,0,0,0,.05,0,0,0,0-.05,0-.08,0l0,0s0,0-.07,0l-.09.08s-.1,0-.11,0h0s0,0,0,0a.15.15,0,0,0-.11.06,0,0,0,0,0,0,0,.11.11,0,0,0,0,0H35.2s0,0,0,0a.07.07,0,0,0,0,0,0,0,0,0,0,0,0H35a.28.28,0,0,0-.15.11c-.05,0-.05,0-.08,0l0,.05s-.07,0-.07,0-.13.07-.19.11,0,0-.05,0h0l0,0h0a.1.1,0,0,0-.06,0,.06.06,0,0,0-.09,0s-.12,0-.14,0-.05,0-.08,0l-.06.05a.13.13,0,0,0-.12.06h0l-.08.06h0a.07.07,0,0,0,0,0c-.05,0-.05,0-.05.08h0s0,0-.06.07,0,.1-.06.09,0,0,0,0h0a.6.6,0,0,0-.11.12s0,0,0,0-.1,0-.11,0,0,0-.06,0a.11.11,0,0,0-.11.06h-.06a0,0,0,0,1,0,0h0s0,0,0,0a.08.08,0,0,0,0,0h0a.11.11,0,0,0,0,0c-.07,0-.14,0-.2,0s0,0,0,0,0,0-.06,0,0,0,0,0,0,0-.05,0l0,0s0-.06-.07,0l0,0s0-.05-.07,0,0,0,0,0h0s-.06,0-.1,0l0,0H31.8l-.07-.07h0l0,0c-.05,0-.06,0-.09-.06h-.05s0,0,0,0,0,0-.07,0l-.23-.24h0s0-.07-.08-.1v-.08a.3.3,0,0,1,0-.13s0,0,0,0l0,0v0s0-.07,0-.09v-.21h0a.17.17,0,0,0,0-.07v-.32s0-.06,0-.09,0,0-.05-.06,0-.07,0-.13l0,0s0-.1-.05-.14,0,0,0-.06,0-.07,0-.13,0-.06,0-.08l0,0s0-.05,0-.07l0,0s0,0,0,0,0,0,0,0v0s0,0,0,0l0,0,0,0s0-.06,0-.08l0,0s0,0,0-.05,0,0,0,0,0,0,0,0,0,0,0,0,0-.09,0-.12a.45.45,0,0,1,0-.12l0,0s0,0,0,0,0,0,0,0,0-.13,0-.19,0,0,0,0,0,0-.05-.06v-.06s0,0,0,0-.09-.08-.12-.13,0-.11-.07-.1a.09.09,0,0,0-.06-.08c.05,0,0-.07,0-.1v0s0,0,0-.06a.09.09,0,0,1,0-.08l0,0v0s0,0,0,0a.05.05,0,0,0,0,0l0,0s0-.05-.05-.08,0,0,0-.05,0,0,0,0,0-.05,0-.07l0,0v0c0-.08.08-.17.19-.17s0,0,0,0,.08,0,.08,0h.07a.11.11,0,0,1,.08,0,0,0,0,0,1,0,0s0,0,.06,0,0,0,.07,0,.12,0,.14,0a.06.06,0,0,1,.05,0h.06s0,.06.08.07,0,0,0,0,.05,0,.05,0,0,0,0,0,.05,0,.05,0l.06,0h0s0,0,.05,0,0,.07.09.07,0,0,0,0h0s0,0,0,0,.07.05.12,0,.05.15.11.11,0,.1.07.07.06.07.08,0l.07.06v0a.06.06,0,0,0,0,0s.06.05.12,0,0,0,0,0h0s0,0,0,0h0s0,.06.09.07,0,0,0,.07,0,0,.06,0,.09.07.13.09v0a.34.34,0,0,0,.08.09s0,0,.05,0,0,.06,0,.05a.29.29,0,0,1,.08.07h0s0,.06.07.09,0,0,0,0,.06,0,.09,0,0,0,.07,0,.08,0,.09,0h.08l0,0s0,0,0,0,0,0,0,0H34s0,.06.06,0v0s0,0,0,0a0,0,0,0,0,0,0h.07l0,0,0,0a.07.07,0,0,0,.1-.07s.09,0,.1-.06.06,0,.08,0h0a.11.11,0,0,0,.05,0s0,0,.06,0,0,0,0,0h0l0,0s0,0,0,0a0,0,0,0,0,0,0s0,0,0,0H35a.05.05,0,0,0,0,0h.1s.09-.09.11-.11.09,0,.1,0,.1,0,.13,0h.06s.07.05.09,0,0,0,.06,0,.11,0,.13,0a.1.1,0,0,0,.07,0s0,0,0,0l0,0s0-.07.1-.06l.07-.07s.09,0,.11,0,.07,0,.06,0,.05,0,.08-.07h0a.18.18,0,0,0,.07,0s0,0,0,0h.06l0,0,0,0a.06.06,0,0,0,.07,0s0,0,0,0h.06s.08,0,.11,0,.06,0,.08-.07h.26s0,0,0-.05.1,0,.13,0l0,0h0s0,0,0,0,0,0,0,0,0,0,.05,0,0,0,0-.06.11,0,.13-.06.06,0,.11,0,0,0,.05,0l.06-.07s.06,0,.06,0l0,0H38s0,0,.05,0,0,0,0,0,.06,0,.06,0a.06.06,0,0,0,.05,0h0a.46.46,0,0,0,.07-.07h.12l.09,0,.05,0h.11s0,0,0,0h.17s0,0,0,0,.13,0,.15,0,0,0,0,0,0,0,0,0h.05s0,0,.06,0,0,0,0,0h.06a0,0,0,0,1,0,0h0s0,0,.06-.05h0l.07-.06,0,0s.07,0,.06,0l0,0h0l.08-.06h0a.36.36,0,0,0,.11-.1h0l.12-.07c0-.05,0-.06,0-.1s0,0,.05,0,.09,0,.11-.1,0,0,.06,0h0s0-.06,0-.07a.12.12,0,0,0,.12-.07h.07l.06-.06h.06l0-.05s.07,0,.06,0,0,0,0,0,.06,0,.08-.07,0,0,.09,0,0,0,0,0h.05s0,0,0,0,.13,0,.16,0,0,0,.07,0,.05,0,.06-.07a0,0,0,0,0,0,0c.05,0,.08-.07.12-.11s0,0,0,0,.06,0,.06-.05.06,0,.06,0,0-.07,0-.1,0,0,0,0a.08.08,0,0,0,0-.08V9.26s0-.1,0-.14a.29.29,0,0,0-.09-.1h0l0,0s0,0-.07,0,0,0,0,0,0-.05-.07,0-.07-.1-.11-.06a0,0,0,0,0,0,0s0,0,0,0l0,0h0a.07.07,0,0,1,0,0s-.06,0-.09,0,0-.05-.07-.05,0,0,0,0,0,0-.06,0,0,0,0-.07,0-.08-.09-.08l-.06-.06s0,0-.08,0,0-.15-.11-.16,0,0-.06-.06,0,0,0,0a.15.15,0,0,1,0-.09s0,0-.05,0,0,0,0-.07a.1.1,0,0,0,0-.1c0-.05,0,0,0-.09s0,0,0,0-.06,0-.06-.1,0,0,0,0,0,0-.06-.06,0-.1-.06-.13h0a.42.42,0,0,1,0-.1,1.06,1.06,0,0,0-.15-.15s-.06-.06-.09-.09-.09-.05-.14,0-.06-.06-.08,0h0l0,0s-.06,0-.09,0h-.06s0,0-.06,0-.07,0-.09,0,0,0,0,0-.08,0-.1,0,0,0-.08,0,0,0-.07,0h0s0,0,0,0,0,0,0,0-.06.08-.11.1h-.1s0,0,0,0,0,0-.07,0,0,0,0,0,0,0,0,0,0,0-.05,0,0,0-.06,0,0,0-.08,0-.06,0-.07,0a0,0,0,0,0-.07,0s-.07,0-.1,0,0,0-.05,0a0,0,0,0,1,0,0l-.05,0a0,0,0,0,1,0,0s0,0,0,0,0,0,0,0,0,0,0,0-.17,0-.2.05v0s-.06,0-.07,0,0,0-.06,0h-.15s0,0,0,0h0s0,0,0,0-.05,0-.06,0h-.24s0,0,0,0,0,0,0,0-.13,0-.19,0v0s-.05,0-.05,0-.08,0-.11,0,0,0-.06,0,0-.06,0-.07,0,0,0,0a.06.06,0,0,0-.06-.07s0,0-.05,0h0a.08.08,0,0,0,0,0s0,0,0,0h0s0-.09-.06-.07,0,0,0,0,0,0,0,0,0,0,0,0,0-.06-.06-.06,0,0,0,0,0,0-.05,0,0,0,0,0V7a.31.31,0,0,1,0-.12.12.12,0,0,0-.05,0c0-.06,0-.07-.08-.11h0a.09.09,0,0,0-.06-.06.16.16,0,0,0,0-.07l0,0v0l0,0s0-.07,0-.09,0,0,0-.05a0,0,0,0,0,0-.07l.06-.06s0,0,0,0,0,0,0-.06.08,0,.08-.12,0,0,0,0,0,0,.08,0a.6.6,0,0,0,.08-.08s0,0,.1,0,0,0,.07,0,0,0,.06,0l0,0h0s.08-.06.07-.1a.09.09,0,0,0,.11,0s0,0,0,0,.08,0,.1,0,0,0,0,0h0s.11,0,.14,0,0,.06.08.07h.17s0,0,0,0,.13,0,.15,0h0l0,0a.06.06,0,0,0,.06,0,.08.08,0,0,0,.07,0c0-.05.11,0,.11,0s.1,0,.11,0,.06,0,.09,0l.12,0s.06,0,.09,0h.08s.1,0,.11,0a.43.43,0,0,0,.1-.09s.08,0,.1,0h.09s.06,0,.07,0,.19,0,.21,0,0,0,.05,0,0,0,.07,0,0,0,.07-.06h0s0,0,.06,0,0,0,0,0a.07.07,0,0,0,.1,0s0,0,.07,0,0,0,.06,0,.1,0,.1,0h.07s0,0,0,0h0l.06-.05h.17s0,0,0,0,0,0,.08,0,0,0,0,0,0,0,.05,0,0,0,0,0,.1,0,.13-.07,0,0,0,0h0a0,0,0,0,0,0,0,0,0,0,0,1,0,0s.06-.06.08-.07h.18a0,0,0,0,0,0,0,.09.09,0,0,0,.1,0s0,0,0,0,0,0,0,0l.06,0s0,0,0,0a0,0,0,0,0,.08,0h0l0,0a0,0,0,0,0,0,0h0s0,0,0,0,0,0,0,0,0,0,.07,0v0h0v0h.07s0,0,.05,0l0,0h.1s0-.06.07-.07,0,0,0,0h.06s0,0,.07,0h0a0,0,0,0,0,0,0,.07.07,0,0,1,0,0s0,0,.06,0,.07,0,.13,0a0,0,0,0,0,0,0s0,0,0,0,0,0,.09,0l.06,0s0,0,0,0,0,0,.05,0,0,0,0,0l0,0v0s0,0,0,0a0,0,0,0,0,0,0s0,0,0-.05L42.35,4h0s0,0,0,0,.08-.08.13-.12,0-.07,0-.11V3.67h0c0-.07,0-.11.07-.17s0,0,0,0l0,0,0,0a0,0,0,0,1,0,0s0,0,0-.05l0,0,0,0s0,0,0-.08a.34.34,0,0,1,0-.11s0,0,0,0,0,0,0,0,0-.09-.06-.06,0-.1-.08-.08a.14.14,0,0,0-.13-.07s0,0,0-.07,0,0,0,0,0,0-.06-.05-.06-.07-.09-.1-.08,0-.11,0h0s-.05-.06-.07-.09,0,0-.05,0,0,0,0,0,0,0,0-.05v0l0,0s0,0,0-.06,0,0,0-.06,0-.07,0-.09,0,0,0,0,0,0,0,0,0-.09,0-.11.06-.05,0-.11,0-.08.07-.1v0s0-.05.06-.07h0s.09,0,.09-.11,0,0,0,0,0,0,0,0,0,0,.07-.06h0s0-.05.07-.05,0,0,0,0,0,0,0,0l0,0h0l0,0s.08,0,.08,0h.22s.07,0,.08,0,.07,0,.11,0S42.82,1.34,42.83,1.33Zm.68,4.89,0,0h-.09s0,0,0,0,0,0-.08,0a.16.16,0,0,0-.08.06s0,0,0,0H43l-.07.07s0,0-.06,0-.06,0-.08,0h0a0,0,0,0,1,0,0l0,0h-.1l0,0s0,0,0,0,0,0-.07,0h0l0,0s-.09,0-.12,0,0,0-.05,0l-.09.08h-.08a.08.08,0,0,1,0,0s0,0-.09,0a.65.65,0,0,1-.08.09s0,0,0,0-.07.07-.09.09,0,0,0,0h0a.16.16,0,0,0-.07.07c0,.06,0,.06-.1.06V7a.09.09,0,0,0,0,.1s0,0,0,.06,0,0,0,.07,0,0,0,.09l0,0v.07a.27.27,0,0,1,.07.08s0,0,.05,0,0,.06.08.08a.07.07,0,0,1,.06,0v0s0,0,0,.07h0v0c.07,0,.12.12.19.16h0s0,0,0,0h0a.06.06,0,0,0,.07.06s0,0,0,0h0s0,0,0,0h.12s0,0,.07,0h.08a.08.08,0,0,0,.1,0l0,0s0,0,.06,0,0,0,0,0l.06.06h0l.07.06s.08,0,.12,0a.06.06,0,0,1,0,0,.12.12,0,0,0,0,.05s0,0,0,0h0l0,0s0,0,.08,0a0,0,0,0,0,0,0l.07,0s0,0,0,0l0,0,0,0h.11l0,0a.4.4,0,0,0,.11,0s0,0,.08,0l.08-.08s.06,0,.1,0,.08,0,.12,0v0s0,0,0,0,.06-.08.13-.06.06-.07.1-.1h0s0-.05.07-.06,0,0,0,0V8s0,0,0-.06.06,0,.07-.09,0,0,0-.06V7.73s0-.06,0-.09l0,0a0,0,0,0,1,0,0s0,0,0,0,0,0,0,0,0,0,0,0l0,0,0,0c0-.07,0,0,0-.09h0s0,0,0-.07,0-.11,0-.16,0-.1,0-.14,0-.1,0-.15,0-.08,0-.09v0a.38.38,0,0,1-.09-.09s-.07-.08-.1-.09h-.06l0,0s0,0,0,0,0,0,0,0-.06,0-.1,0H44s0,0,0,0,0,0,0,0h-.06a.16.16,0,0,0-.09,0s0,0,0,0-.07,0-.13,0,0,0,0,0S43.53,6.23,43.51,6.22Z" fill="#fff" fill-rule="evenodd"/>
      <g>
        <path d="M99.93,0s.15.05.09.08h0c-.06,0,.22,0,.17,0,.11-.1,0,.07.09,0s0,0,0,0,0,0,0,0h0c.06,0,.14.08.1.1s.14.11.16.1,0,0,0,0a0,0,0,0,0,0,0s.05,0,.06,0h0s.07,0,0,0a0,0,0,0,0,0,0s0,0,0,0,.06,0,0,0,0,0,0,0h0v0s0,0,0,0,.19.21.15.12c.13.06.17.08.11.08s0,0,0,0,.07,0,0,0,.05.06,0,.05,0,.11,0,.07.09.08.1.13h0s0,0,0,0,0,0,0,0,0,0,0,0h0s0,0,0,0h0s.07,0,0,0,0,0,0,0,0,0,0,0,0,0,0,0h0s0,0,0,0,0,0,0,0,0,0,0,.05,0,0,0,0h0s0,0,0,0h0c0,.06,0,.07,0,0a.17.17,0,0,0,.06.09s.13.06.13.08,0,0,0,0h0c.12,0,.18,0,.14.06s.11.07.07.06,0,.07,0,0,.15.06.15,0,0,0,0,0h0c.14.09.18.11.13.09s0,0,0,0,0,0,0,0,0,.07,0,.06l0,0s0,.06,0,.05.11,0,.07,0,0,0,0,0c-.19,0,.15.13,0,.11h0s0,0,0,0,0,0,0,0,0,0,0,0h0s.2,0,.13.06,0,0,0,0-.06.16-.08.11,0,0,0,0h0c0,.08,0,.1,0,.08s0,0,0,0h0s0,0,0,0,0,0,0,0h0s0,0,0,0a0,0,0,0,0,0,0c0,.06,0,.08,0,.08s0,.05,0,0h0c0,.06,0,.08,0,.06s-.06,0,0,0,0,0,0,0,0,0,0,0l0,0,0,0c-.1,0-.12.06-.08,0s0,0,0,0v0s0,0,0,0,0,0,0,0,0,0,0,.05h0a.3.3,0,0,1-.07.11s0,.06,0,0h0s0,0,0,0,0,0,0,0,0,0,0,0h0s0,0,0,0,0,0,0,0,0,0,0,0-.07,0-.07,0,0,0,0,.06,0,0,0,0,0,0,0,0,0,0,0,0,0,0,0,0-.19,0-.14,0,0,0,0,0h0s0,0,0,0,0,0,0,0v0s0,0,0,0h0s0,0,0,0,0,0-.06,0h0s-.09,0-.1,0h0v0h0s0,0,0,0,0,0,0,0,0,0,0,0,0,0,0,0h0v0h0s-.1,0,0,0,0,0,0,0h0l-.07,0h0v0s0,0,0,0h0s0,0,0,0v0s0,0,0,0,0,0,0,0-.14,0-.09,0,0,.06,0,0,0,0,0,0,0,0,0,0,0,0,0,0-.16-.08-.11-.11,0,0,0,0,0,0,0,0-.06,0,0,0,0-.05,0,0h0v0h0s0,0,0,0v0s-.33-.23-.28-.22,0,0,0,0,0,0,0,0-.05,0-.05,0,0,0,0,0,0,0,0,0,0,0,0,0,0,0,0,0a0,0,0,0,1,0,0v0h0s0,0,0,0l0,0s-.06,0,0,0h0s0,0,0,0-.05,0-.05,0,0,0,0,0v0c-.07.05-.09.08-.06.06s0,0,0,0v0s0,0,0,0,0,0,0,0-.22.06-.22.06,0,0,0,0h0s-.16,0-.09,0-.25.23-.2.1,0,0,0,0h0s0,0,0,0-.17-.12-.1-.09c-.09,0-.1,0-.07,0h0s0,0,0,0,0,0,0,0h0c-.27,0-.37,0-.26,0s0,.05,0,0-.14.06-.18,0h0s0,0,0,0h0c-.06-.06-.13,0-.08.06s-.1,0-.1.08h0v0s0,0,0,0,0,0,0,0,0,0-.06,0h0a.65.65,0,0,1-.23.06s-.08,0-.07.05-.13-.05-.08-.07,0,0,0,0h0s0,0,0,0h0s0,0,0,0,0,0,0,0h0a.19.19,0,0,1-.15,0h0s0,0-.09,0,0,0,0,0l0,0h0s0,0,0,0h0s-.08,0,0,0,0,0,0,0h0s0,0,0,0h0s0-.11,0,0,0,0,0,0-.13-.05-.13-.05,0,0,0,0,0,0,0,0a.15.15,0,0,0-.07.05h0s0,0,0,0,0,0,0,0v0h0s0,0,0,0-.06,0,0,0h0s-.16.06-.1,0,0,0,0,0a0,0,0,0,1,0,0s0,0,0,0,0,0,0,0,0,.1,0,.08,0,0,0,0,0,0,0,0,0,.09,0,.05l0,0h0l0,0s0,0,0,0h0v0l-.13,0s-.12,0-.11,0l0,0,0,0c.06,0,0,.09,0,.06s-.06,0,0,0-.1,0-.09,0-.06,0,0,0,0-.06,0,0h0s0,0,0,0-.15.08-.13,0,0,0,0,0,0,0,0,0-.09.13-.06.07,0,0,0,0h0c-.06,0-.07,0,0,0s-.08,0,0,0c.12.3-.23,0-.19,0s-.17,0-.17.11-.14,0-.11,0-.11,0-.11,0a.12.12,0,0,1-.1,0h0s0,0,0,0-.07,0,0,0a0,0,0,0,1,0,0h0c-.07,0-.07.05,0,.05s-.06,0,0,0,0,0,0,0h0c-.09,0-.12,0-.08-.07h-.06s-.1,0-.09,0,0,0,0,0,0,0,0,0-.14-.18,0-.12,0,0,0,0,0,0,0,0,0,0,0,0h0s-.06-.05,0,0-.08,0,0,0-.07,0,0,0l0,0s0,0,0,0h0v0h0s0,0,0,0h0s0-.1-.06-.08,0-.1,0-.08.07-.25,0-.15,0,0,0,0,0,0,0,0,0,0,0,0,0,0,0,0,0-.13,0-.07.08,0,.05-.06h0a0,0,0,0,1,0,0s0,0,0,0,0-.12,0-.09,0,0,0,0-.06.07-.06,0v0c-.05.12,0,0,0,0s0,0,0,0h0c0-.1,0-.13,0-.1s0,0,0,0h0s0,0,0,0h0s0,0,0,0,0,0,0-.06h0a.14.14,0,0,1,0,0s0,0,0,0,0,0,0,0,0,0,0,0,0,0,0,0h0s0,0,0,0,0,0,0,0a.06.06,0,0,0,0,0c-.14,0,.14-.14.07-.08l0,0s0,0,0,0,.05-.05,0,0l0,0c0-.09,0-.12.06-.15s0,0,0,0,0,0,0,0,0,0,0,0h0s0,0,0,0,0,0,0,0h0A.12.12,0,0,0,95,1.4h0s0,0,0,0,0,0,0,0a0,0,0,0,1,0,0h0c0-.07,0-.1,0-.07s0,0,0,0h0s0,0,0,0,.1-.17.07-.12,0-.09,0-.07,0-.08,0-.05,0-.08,0-.05,0,0,0,0h0a0,0,0,0,0,0,0h0s0,0,0,0,0,0,0,0,0,0,0,0,.06-.07.09,0,0,0,0,0,.13.09.18,0,0,0,0,0,0,0,0,0,0-.09,0-.05h0s.16.08.14,0,0,0,0,0h0s0,0,0,0,0,0,0,0,0,0,0,0,.07-.05,0,0l0,0s0,0,0,0,.1,0,.07-.07c.13-.08,0,0,.07,0h0v0s0,0,0,0,.15-.05.12,0h0s.06,0,0,0,0,0,0,0,0-.06,0,0h0s0,0,0,0,0,0,0,0h0s0,0,0,0,0,0,0,0a.08.08,0,0,0,.06,0s0,0,0,0,0-.05,0,0h0c.1,0,.14,0,.08,0s0,0,.06,0h0s0,0,0,0a.06.06,0,0,1,0-.07s0,0,0,0,0,0,0,0,0,0,0,0h0l.12-.05h0s0,0,0,0,0,0,0,0h0s0,0,0,0,0,0,0,0h0c.07,0,.09,0,0,0s.06,0,0,0,0,0,0,0h0c.06,0,.08,0,.06,0s0,0,0,0h0s0,0,0,0,0,0,0,0,.08.05.08.05,0,0,0,0-.07-.08,0-.07,0,0,0,0,0,0,0,0h0c0-.07.06-.09,0,0s0,0,0,0,0,0,0,0,0,0,0,0h0s.1,0,.06,0a0,0,0,0,0,0,0s.15-.17.15,0h0c0-.07,0,0,0,0s0,0,0,0h.06s0,0,0,0h0c.07-.06.11,0,.08-.06l0,0h0s.06,0,0,0,0,0,0,0,0,0,0,0,.09,0,.05,0,.08,0,.06,0,0,0,0,0h0c.06,0,.07,0,0,.06s.15,0,.12,0,0,0,0,0,.08,0,.06,0h.05s0,0,0,0,0,0,0,0,0,0,0,0,0,0,0,0h0s.06,0,0,0c0-.2.07-.08.09-.08v0s0,0,0,0,.07,0,0,0,.07,0,0,0,.06,0,0,0,.07,0,.06,0A.32.32,0,0,1,98.26.4s0,0,0,0h0s0,0,0,0,0,0,0,0,0,0,0,0,0,0,0,0,0,0,0,0,.1,0,.07,0,.14,0,.11,0,0,0,0,0h0c.16-.08.21-.08.12,0l.06,0s0,0,0,0,0,0,0,0,0,0,0,0h0s0,0,0,0,0-.08.07,0,0,0,0,0,0,0,0,0h0s0,0,0,0,.07,0,.06,0,0,0,0,0,0,0,0,0h0s0,0,0,0,.07,0,0,0,0,0,0,0,.06,0,0,0,0-.07.05-.05h0a0,0,0,0,0,0,0s0,0,0,0l0,0s0,0,0,0,0,0,0,0h0s0,0,0,0,0,0,0,0h0s0,0,0,0,.1,0,.06,0c0,.17.17-.13.13,0h0l0,0s0,0,0,0,0,.07,0,.06.07,0,0,0,.1-.12.06,0,.09,0,.06,0,0,0,0,0h0l0,0h0c0-.06,0-.06,0,0s0,0,0,0,0,0,0,0,0,0,0,0l0,0s0,0,0,0h0s0,0,0,0,.09,0,.06,0,0-.07,0,0,0,0,0,0l0,0s.06,0,0,0Z" fill="#fff" fill-rule="evenodd"/>
        <path d="M112.13,3.06s0,0,0,0,0,0,.06,0h0s0,0,.06,0,.06,0,0,0,0,0,0,0h0s0,0,0,0,0,0,0,0v0c.08,0,.1,0,.07,0s0,0,0,0h0s.14.13,0,.14a.08.08,0,0,0,.08.07h0c.1,0,.07.08.09,0s0,0,0,0,0-.09.05-.08,0,0,0,0,0,0,0,0h0s0,0,0,0h0c.1,0,.13,0,.11.06s0,0,0,0h0c0-.08.09,0,.1,0s0,0,0,0,0,0,0,0l0,0,0,0c.09,0,.1,0,.07,0s0,0,0,0h0c0,.05.18,0,.17.05s0,0,0,0,0,0,0,0,0,0,0,0l0,0a.1.1,0,0,0,.1,0s0,0,0,0h0s.14.06.08.08.07,0,.05,0h0s0,0,0,0h0s0,0,0,0,0,0,0,0h0c.08-.06.26.11.23.07a.23.23,0,0,0,.11.08c-.05.06,0,.09.06.07s0,0,0,0,0,0,0,0,0,0,0,0,0,0,0,0l.11,0c.09,0,.11,0,.08,0s0,0,0,0h0s0,0,0,0h0s.13.11.13.11c.16-.15.1-.06.26,0,0,0,0,0,0,0s0,0,0,0c.14,0,.18.06.14.1h0s0,0,0,0,.08,0,.06,0h0s0,0,0,0h0s0,0,0,.06h0s0,0,0,0h0s0,.05,0,0,0,0,0,0h0s0,0,0,0,0,.09,0,.06,0,0,0,0A.24.24,0,0,0,115,4s0,0,0,0,0,0,0,0c.09.2.15,0,.12,0s0,0,.13,0,.09,0,.06,0,.06,0,0,0h0s0,0,0,0,0,0,0,0,.18,0,.27,0V4c.07,0,.09,0,.07,0s.08,0,0,0,.07,0,0,0l0,0h0s0,0,0,0h0s0,.06,0,0,0,0,0,0,0,0,0,0,0,0,0,0,0,0,0,0h.08c.08,0,.12,0,.08,0h0c.07,0,0,0,0,0v0h0c-.06,0,0,0,0,.07h0s0,0,0,0,0,0,0,0a0,0,0,0,0,0,0s0,0,0,0,.1,0,0,0v0h0c-.23.07.06.07,0,.08h0s0,0,0,0,0,.14,0,.1,0,0,0,0h0l0,0s0,0,0,0,.07,0,0,0h0l0,0s0,0,0,0h0s0,0,0,0h0s0,0,0,0l0,0a.1.1,0,0,1,0,.13h0a.28.28,0,0,0,0,.06c-.25.16.1,0,0,.06s0,0,0,.12h0s0,0,0,0h0s0,.06,0,0l0,0c0,.06,0,.07,0,0h0s0,0,0,0,0,0,0,0l0,0h0c0,.07,0,.08,0,0h0s0,0,0,0h0s0,0,0,0h0s-.06.35-.11.27-.05.06,0,0a.1.1,0,0,1,0,0s0,0,0,0h0s0,.08,0,.09-.12,0-.11,0,0,0,0,0,0,0,0,0h0s-.09,0-.09,0-.13.08-.08.06-.07.07,0,.06,0,0,0,0h0s0,0,0,0,0,0,0,0h0s-.14-.09-.13,0h0s0,.09,0,.08h0s-.07.16,0,.08,0,0,0,0,0,0,0,0-.09-.06-.09-.06,0,0,0,0v0c-.16.09-.22.1-.19,0s0,0,0,0-.05,0,0,0-.07,0,0,0,0,0,0,0,0,0,0,0h0c-.07,0-.08,0,0,0l-.08,0s0,0,0,0h0c0,.09-.11,0-.07,0s-.07,0,0,0,0,0,0,0h0s-.09,0-.06,0-.09,0,0,0h0l0,0h0s-.07,0-.06,0h0s0,0,0,0h0s0,0-.06,0h0c-.14,0-.19.06-.13.06h0c-.12,0-.16,0-.1.05s0,0,0,0-.09.06-.07,0h0s0,0,0,0-.22.11-.12.1,0,0,0,0h0l0,0h0s0,0,0,0,0,0,0,0h0s0,0,0,0,0,0,0,0h0s0,0,0,0,0,0,0,0h0s-.06,0,0,0,0,0-.06,0,0,0,0,0-.13,0-.09.07-.06,0,0,0h0c0-.08,0-.1,0-.06s0,0,0,0,0,0,0,0-.16,0-.15-.05,0,0,0,0h0s0,0,0,0,0,0,0,0h0s0,0,0,0,0,0,0,0h0s0,0,0,0h0s-.1.1-.07,0h0s0,0,0,0,0,0,0,0-.11,0-.11,0-.12.08,0,.08h0s0,0,0,0h0s0,0,0,0h0v0h0s0,0,0,0,0,0,0,0,0,0,0,0,0,0,0,0,0,0,0,0h0s0,0,0,0h0c-.12.11-.15.13-.12.07s0,.06,0,0l-.11.1s0,0,0,0-.1,0-.1,0h-.05s0,0,0,0h0s0,0,0,0a.06.06,0,0,0-.06,0s0,0,0,0l0,0s0,0,0,0,0,.07,0,0,0,0,0,0,.19.24,0,.17c0,0,0,0,0,0h0s0,0,0,0h0c0,.06,0,.08,0,.06s0,0,0,0,0,0,0,0,0,.08,0,.07,0,0,0,.07,0,0,0,0,0,.08.07.08h0s.06,0,0,0,0,0,0,0v0h0c.1,0,.13.05.09.05s.08.07.11,0,0,0,0,0,0,0,0,0c-.21,0,.13.2.09.11h0s0,0,0,0v0s0,0,0,0v0s0,.06.06,0,0,0,0,0h0s0,0,0,0l.08,0c.09.16.1.19,0,.1s.08.14.08.12h0s0,0,0,0,0,0,0,0,.08,0,.08,0,.06.15.1.09,0,.06,0,0,0,0,0,0h0s0,0,0,0,.06,0,0,0a.14.14,0,0,0,.1,0s0,.07,0,.06.08.13.11.12h0c.07,0,.09,0,.08,0h0s.19.19.17.2,0,.12,0,.12.06,0,0,.05.08,0,.08.09l0,0s0,0,0,0,0,0,0,0h0s0,0,0,.06.14.11.09.13l0,0c0,.07,0,.09,0,.08s0,0,0,0h0s0,0,0,0h0s0,0,0,0h0s0,0,0,0h0l0,0s.06.06,0,.06,0,0,0,0,0,0-.06,0h0s0,0,0,0,0,0,0,0,0,0,0,0l0,0h0s0,.06,0,0,.08,0,.1,0h0q0,.08,0,.06s0,0,0,0h0s0,0,0,0,0,0,0,0,0,0,0,0h0c0,.16,0,.21,0,.14,0,.08,0,.12,0,.07h0s0,0,0,0,0,0,0,0,0,0,0,0,0,0,0,0a0,0,0,0,1,0,0h0s0,.21.06.15a0,0,0,0,1,0,0,.69.69,0,0,0,0,.08,0,0,0,0,1,0,0h0s0,0,0,0h0s0,.05,0,0,0,0,0,0h0s0,0,0,.05,0,0,0,0l0,.09s0,0,0,0h0a.35.35,0,0,1-.06.09v0s0,0,0,0,0,.05,0,0a0,0,0,0,0,0,0h0s0,0,0,0h0s0,0,0,0h0c0,.06-.06.15-.05.17s-.06.07,0,0-.05.11,0,.09,0,.05,0,.05,0,0,0,0,0,0,0,0a.17.17,0,0,1-.11.05s0,0,0,0,0,0,0,0,0,0,0,0,0,0,0,0-.15,0-.09,0a.22.22,0,0,0-.1.09h0s0,0,0,0h0s0,0,0,0,0,0,0,0l-.06,0h0l0,0v0h0s0,0,0,0h0s0,0,0,0h0c0,.05,0,.05,0,.06s.05,0,0,0v0s-.09.09-.07.11,0,0,0,0-.09,0-.09,0h0s0,0,0,0,0,.12,0,0,0,0,0,0,0,0,0,0h0c-.06,0-.08,0,0,0h0c-.19.08,0,0,0,.1h0c0,.1,0,.13,0,.1a.15.15,0,0,1-.11,0s0,0,0,0h0s0,0,0,0,0,0,0,0v0l0,0s0,0,0,0l0,0,0,0a.2.2,0,0,0,0,.08v0s0,0,0,0,0,0,0,0,0,0,0,0h0s0,0,0,.07h0s-.06,0,0,0h0s0,0,0,0h0c-.08,0-.1,0-.08,0-.11.13-.16.15-.16.06s0,0,0,0h0s0,0,0,0,0,.06,0,0,0,.06-.06,0-.08,0,0,0h0s0-.09-.08-.06h0s0,0,0,0h0s0,0,0,0h0s0,0,0,0h0s0,0,0,0h0s0,0,0,0h0c-.1.08-.09,0-.08,0s-.09,0,0,0-.06,0,0,0,0,0,0,0,0,0,0,0,0,0,0,0,0,0,0,0,0,0,0,0,0,0,0,0h0s0,0,0,0h0s0,0,0,0h0s-.06,0,0-.07,0,0,0,0-.11,0-.09,0h-.11s-.06,0,0,0,0,0,0,0h0s0,0,0,0h0s0-.08-.09,0h0s0,0,0,0,0,0,0,0,0,0,0,0-.09,0,0,0-.14,0-.11,0,0,0,0,0,0,0,0,0l0,.06s-.06,0-.06,0h-.09s0,0,0,0,0,0,0,0h0s0,0,0,0h0s-.05,0,0,0,0,0,0,0h0s0,0,0,0,0,0,0,0-.07.07,0,0l-.05,0h0c-.07,0-.09.05,0,0s0,0,0,.05-.07,0,0,0h0s0,0,0,0,.08,0,0,0h0s0,0,0,0h0a.15.15,0,0,1-.07.06s0-.05-.06,0v0s0,0,0,0l0,0c.26.32-.26,0-.17,0s0,0,0,0-.08,0,0,0H111s0,0,0,0h0s0,0,0,0h0s0,0,0,0,0,0,0,0l0,0h0s0,0,0,0a0,0,0,0,0,0,0h0s0,0,0,0-.1,0-.07,0c-.12,0-.15,0-.1,0s-.06,0,0,0h0s-.18.17-.14,0l0,0h0c0-.05-.06,0,0,0s0,.06,0,.05,0,0,0,0,0,0,0,0-.31.14-.22.11,0,0,0,0,0,0,0,0h0c-.05.07-.05.13-.16.11s0,.11,0,.11,0,0,0,0,0,0,0,0,0,.15,0,.11.05,0,0,0h0s0,0,0,0h0s-.07.08,0,.08h0s0,0-.06.05h0s0,.11,0,.15h0s.08,0,0,.05,0,0,0,0,0,0,0,0h0s0,0,0,0,0,0,0,.06h0s0,0,0,0h0s0,.05,0,0,0,0,0,0,0,0,0,0,0,.18,0,.13-.06.08,0,0,0,0,0,0h0l-.06.05v0h0s0,.11,0,.11-.06.1-.06.06,0,0,0,0h0s0,.12,0,.09,0,.1,0,.06l0,.08c0,.05,0,.08,0,.05v0h0c0,.08.06.1.06.07h0s0,0,0,0,0,0,0,0a.1.1,0,0,1,0,0h0a0,0,0,0,0,0,0s0,0,0,0,0,.14,0,.12,0,0,0,0,0,0,0,0h0c-.06,0,0,.1,0,.11h0l0,.09s0,0,0,0,0,.09,0,.08,0,0,0,0h0s0,0,0,0,0,0,0,0h0s0,0,0,0,0,0,0,0,0,0,0,.06v0a.12.12,0,0,1,0,.07s0,0,0,0h0s0,0,0,.08h0s0,0,0,0h0s0,0,0,0,0,0,0,0h0v0c0-.05.09.06,0,0s0,.06,0,0,0,0,0,0h0v.06c.07,0,0,.06,0,.07s0,0,0,.07h0s0,0,0,0h0s0,0,0,0h0s0,0,0,0h0c-.06.06-.06.09,0,.07s0,0,0,0h0s0,0,0,.06h0v0h0c0,.09.11,0,.15.08h0s0,.05,0,0,0,0,0,.06h0s0,0,0,0h0s0,0,0,0h0s0,0,0,0h0c0,.14,0,.19,0,.15,0,.13,0,.18,0,.12s0,0,0,0h0s0,0,0,0,0,0,0,0,0,0,0,0h0v.1s0,0,0,0h0c0,.1-.06.13,0,.1h0s0,0,0,0,0,.06,0,0,0,.08,0,.06,0,0,0,0,.07,0,0,0v0h0s0,0,0,0,0,0,0,0,0,.05,0,.05-.07.08,0,0h0s0,0,0,0v0s0,.05,0,.06,0,.07,0,0,0,0,0,0h0s0,.07,0,.06.11.06.08.07,0,0,0,0,0,0,0,0,.09.06.08.1,0,0,0,0,0,.15,0,.15,0,0,0,0,0,0,0,0a.07.07,0,0,0,0,0s0,0,0,0,0,0,0,.06.12,0,.07,0,0,0,0,0,0,0,0,0-.05,0,0,0,0,0,0,0h0s0,0,0,0,0,.07,0,0-.08.1-.08.05,0,0,0,0,0,0,0,0,0,.09,0,.06,0,.12,0,.08,0,0,0,0h0c0,.12,0,.17,0,.14a.16.16,0,0,0,0,0h0s0,0,0,0-.05.08,0,.06-.07.11-.07,0h0s0,0,0,0h0s0,.12,0,.09h0s0,0,0,0,0,0,0,0,0,0,0,0,0,0,0,0h0s0,0-.06,0,0,0,0,0,0,0,0,0,0,0,0,0h0s0,0,0,0-.06,0,0,0h0s0,0,0,0,0,.05,0,0,0,.06,0,0-.18.18-.17.16l-.06.08s0,0,0,0h0s0,0,0,0l0,0c-.07,0-.09,0-.07,0s0,0,0,0h0s-.09,0-.06,0,0,0,0,0,0,0,0-.05a0,0,0,0,1,0,0s0,0,0,0,0,0,0,0-.07,0,0,0-.09-.07,0-.09,0,0,0,0h0c-.11,0-.13-.06-.07-.05a0,0,0,0,0,0,0s0,0,0,0,0,0,0,0h0s0,0,0,0h0s0,0,0,0h0s0-.08,0-.08,0,0,0,0h0a.53.53,0,0,0-.24-.06c.09,0-.07,0,0,0s0,0,0,0h0s0-.1,0-.08-.31,0-.19,0h0v0c0-.05,0-.09,0-.08s-.06-.08-.1,0,0,0,0-.05-.11,0-.06,0,0,0,0,0h0l0,0A.18.18,0,0,1,108,17s0,0,0,0,0-.05,0,0v0h0s0,0,0,0,0,0,0,0v-.08h0s0,0,0,0,0,0,0,0,0,0,0,0l.06,0h0c.1-.06-.11,0-.06,0s0,0-.07,0h0c0,.07-.08-.27,0-.12v0s0,0,0,0a.16.16,0,0,1,.09-.05h0s0,0,0,0-.09-.05-.09-.06,0,0,0,0h0s0,0,0,0,0,0,0,0,0,0,0,0,0,0,0,0,0,0,0,0h0s0,0,0,0a.37.37,0,0,1,0-.09h0c0-.11,0-.11,0-.1s0-.06,0-.05,0,0,0,0,0,0,0,0,0,0,0,0,0,0,0,0,0,0,0,0h0s0-.06,0-.06c.35-.25,0-.07,0-.13v0s0,0,0,0v0a.75.75,0,0,1,0-.11s0,0,0,0,0,0,0,0,0,0,0,0,0,0,0,0,0,0,0-.05h0c0-.06,0-.08,0-.07s0-.09,0-.06,0-.13,0-.1,0,0,0,0h0s0,0,0,0v0a0,0,0,0,1,0-.06s-.08,0,0-.05h0s0,0,0,0,0,0,0-.06h0s0,0,0,0a0,0,0,0,0,0,0s0,0,0,0h0c0-.07,0-.13-.06-.09v0h0c-.06-.07,0-.09,0-.13h0l0,0h0s0,0,0,0,0,0,0,0,0,0,0,0V14.7h0c.06-.12,0-.11-.09-.11s0,0,0,0h0s0,0,0,0h0l0,0h0a.11.11,0,0,0,0-.11s0,0,0,0h0s0,0,0,0h0s0,0,0,0,0,0,0,0,0,0,0,0,0,0,0,0h0c0-.23.17,0,0-.05s0,0,0,0h0l0,0s0,0,0,0,0-.06,0-.06h0s0-.05,0-.07h0c0-.05,0-.07,0,0v0h0s0,0,0,0h0s0,0,0,0a.33.33,0,0,1,0-.17h0s-.15-.16-.1-.24h0l0,0s0,0,0,0h0s.14-.07.11-.07,0,0,0,0,0,0,0,0,0,0,0,0h0s0-.05,0,0v0h0s0,0,0,0h0s0-.1,0-.09h0s0,0,0,0h0c.08,0,.06,0,.07-.09s0-.05,0,0,0,0,0,0,0,.06,0,0h0l0,0h0s0,.08,0,0,0,0,0,0h0s0,0,0,0h0a0,0,0,0,0,0,0h0c.07-.12.08-.17,0-.15v0h0s0-.11,0-.11h0s0,0,0,0h0s.05,0,0,0,0-.17,0-.16,0,0,0,0,0-.09,0-.1h0s0,0,0,0h0s0,0,0-.06,0-.07,0,0h0v0s0-.05,0,0,0,0,0,0,0,0,0,0h0a.24.24,0,0,0-.07-.13s0,0,0,0h0s0,0,0,0h0s0,0,0,0h0s0-.11-.05,0,0,0,.05,0v0s0-.06,0-.08l0,0h0s0,0,0,0h0s0,0,0-.06h0s0,0,0,0h0s0,0,0,0l0,0s0,0,0,0h0s.08-.11,0-.11,0,0,0,0h0s0-.19,0-.19h0s0,0,0,0h0l0-.06s0,0,0,0h0s0,0,0,0,.11-.18,0-.16v0h0s0,0,0,0h0s0-.19,0-.13,0-.11,0-.09a0,0,0,0,0,0-.06h0s0-.07,0-.07,0,0,0,0h0v0s0,0,0,0h0v0h0v0s-.11-.16-.11-.16h0s0-.06,0,0,.06-.17.06-.12a.07.07,0,0,1,0-.05h0c-.08,0,0-.08,0,0s0,0,0,0,0,.05,0,0h0s0,0,0,0h0s0,0,0,0,0,0,0,0,0,0,0,0,.11-.08.07,0,0,0,0,0h0v0s0,0,0,0h0l0,0,0,0s0-.06,0,0,0-.06,0,0,0,0,0,0h0v0h0s0,0,0,0,0,0,0,0,0-.19,0-.19h0s0,0,0,0h0s0,0,0,0h0s0,0,0,0,0,0,0,0-.1-.2-.09-.21h0s0,0,0,0h0s0,0,0,0,0,0,0,0,0-.08,0-.06,0-.09,0-.07,0,0,0,0,0-.23,0-.18,0-.05,0,0v0s0,0,0,0h0s0-.09,0-.09,0,0,0,0,0,0,0,0h0c0-.06,0,0,0,0h0s0,0,0,0,0-.12,0-.08V9.09h0s0,0,0,0,0-.12,0-.13,0,0,0,0h0v0h0c0-.09,0-.12,0-.07s0-.05,0,0,0,0,0,0h0c-.07,0-.07-.07,0-.06h0s0,0,0,0,0,0,0,0,0,0,0,0,.14-.17,0-.16,0,0,0,0h0s0,.06,0,.06h0s0,0,0,0h0v0h0s0,0,0,0h0s0,0,0,0v0h0a.08.08,0,0,1,0-.07s0,0,0,0,0-.06,0,0h0v0s0,0,0,0,0,0,0,0,0,0-.06,0,0-.15,0-.15,0,0,0,0l0,0c0-.08,0-.1-.08-.07s0,0,0,0h0c0-.09,0-.12,0-.08v0s-.06-.07-.08,0,0-.07,0-.05,0-.06,0,0,0-.07,0,0h0c.1-.09.13-.11.1-.06s0-.06,0-.07h0s0,0,0,0,0,0,0,0,0,0,0,0h0s0,0,0-.09,0,0,0,0h0c.1-.09.12-.12.08-.09s0-.07,0-.07h0s0,0,0,0a.17.17,0,0,1,0-.07s.08-.14.09-.09.09,0,.05,0l0,0c.08-.08.1-.12.06-.09s0,0,0,0,0-.18.06-.13q.12-.27,0-.21s0,0,0,0h0s-.08-.29-.08-.18,0,0,0,0v0s0,0,0,0,0,0,0,0,0-.09,0-.06,0-.06,0,0,0-.06,0,0,0-.07,0-.06,0,0,0,0a0,0,0,0,1,0,0s0,0,0,0,.06,0,.05-.05,0,0,0,0h0s0,0,0,0a0,0,0,0,0,0,0h0c-.06.09-.06,0-.06,0h0s0,.07,0,.05,0-.15.08-.11,0,0,0,0h0s0,0,0,0,0,0,0,0a0,0,0,0,1,0,0s0,0,0,0,0,0,0,0h0s0,0,0,0v0h0s0,0,0,0h0a.07.07,0,0,1,0-.06h0V6l0,0h0l0,0s0,0,0,0,0-.08,0,0,0,0,0,0h0s0,0,0,0h0s0-.12,0-.06,0,0,0,0h0c0-.09,0-.11,0-.06a0,0,0,0,0,0,0s0,0,0,0,0,0,0,0-.06,0,0,0h0s.05-.06,0-.07,0,0,0,0,.06,0,.06,0h0s0,0,0,0h0c0-.08,0,0,0,0s0,0,0,0h0l0,0s-.16,0-.09,0l-.05,0c0,.06-.07,0,0,0h0l0,0h0c0-.08-.07-.1,0-.07s0,0,0,0h0s0,0,0,0-.13.06-.14.09,0,0,0,0h0s0,0,0,0h0s0,0,0,0-.18.06-.14,0-.07,0,0,0h0s0,0,0,0h0s0,0,0,0h0s-.07-.09-.14-.06a1.55,1.55,0,0,0-.23.08h0a.77.77,0,0,1-.19,0h0v0s0-.08-.08-.06,0,0,0,0,.09,0-.05,0c0,0,0,0,0,0s0,0,0,0v0s0,0,0,0h0s0,0,0,0,0,0,0,0,0,0,0,0,0,0,0,0,0,0,0,0,0,0,0,0,0,0,0,0h0s0,0,0,0,0,0,0,0c-.16,0-.21,0-.16,0s0,0,0,0v0s0,0,0,0h0s-.05,0,0,0l-.06,0h0s0,0,0,0l-.14,0h0s0,0,0,0-.06-.06,0,0-.11-.12,0,0,0-.06,0,0,0,0,0,0,0,0,0,0,0,0,0,0h0c0,.11,0-.15,0-.09s0,0,0,0V5s0,0,0,0h0s0,0,0,0h0V5s0,0,0,0,0,0,0,0h0s0,0,0,0V4.94a.13.13,0,0,0,.06-.07h0a.15.15,0,0,0,0-.06s0,0,0,0,0,0,0,0,0-.13,0-.09,0,0,0,0h0s0,0,0,0h0s0-.09,0-.11a0,0,0,0,0,0,0h0s0,0,0,0h0s.07,0,.07,0,0-.18,0-.17.16,0,.11,0,0,0,0,0h0a.15.15,0,0,1,0-.06s0,0,0,0h0a0,0,0,0,0,.06,0c.07,0,.1,0,.08,0h0s0,0,0,0h0s0,0,0,0,.13-.14.1-.09,0,0,0,0h0s0,0,0,0h.06s0,0,0,0,.08,0,0,0,.14-.08.11,0,0,0,0,0,0,0,0,0,0,0,0,0,0,0,0,0,0,0,0,0,0,0,0,0S106,4,106,4s0,0,0,0l0,0s0,0,0,0h0s0,0,0,0l.08-.06s.16,0,.12.06,0,0,0,0h0s0,0,0,0,0,0,0,0h0s0,0,0,0,0,0,0,0,.13-.07.08,0,0,0,0,0h0l0,0s0,0,0,0,.18-.1.15,0l0,0h0c.08,0,.11,0,.08,0s0,0,0,0,0,0,0,0,0,0,0,0,0,0,0,0h.06s0,0,0,0h0s0,0,0,0,0-.17,0-.12.08,0,.06,0,.13,0,.09,0,0,0,0,0,.06,0,0,0h0s0,0,0,0,0,0,0,0,0,0,0,0h0s.11-.17.06,0l.05,0h0c.1,0,.13,0,.09,0h0s0,0,0,0,.23,0,.16,0,.08,0,0-.06h0l0-.06s0-.06.06,0,.08,0,.06,0,.06,0,.07,0h0s0,0,0,0,0-.06,0,0,.12-.08.09,0,0,0,0,0,0,0,0,0h0s0,0,0,0h.1s.06,0,0,0,0,0,0-.06a0,0,0,0,1,0,0s.06,0,0,0a.28.28,0,0,0,0-.05s.09.06,0,.12,0,0,0,0l0,0,.05,0s0,0,0,0,0,0,.07,0l0,0h0s0,0,0,0h0s0,0,0,0,0,0,0,0,0,0,0,0,0,0,0-.05l.08,0s0,0,0,0,0,0,0,0,0,0,0,0,.08-.06,0-.06h0s.19,0,.13,0h0s0,0,0,0h0c0,.06.13-.1.12,0s.06,0,.08,0,.09,0,.07,0l0,0v0s0,0,0,0,0,0,0,0,0,0,0,0,0,0,0,0,0,0,0,0h0s0,0,0,0h0s0,0,.06,0,0,0,0,0,.24-.07.15,0c.09,0,.13,0,.09,0a0,0,0,0,0,.06,0h0s.06,0,0,0,.1-.08.07,0,0,0,0,0,0,0,0,0h0s0,.07.06.07h0s0,0,0,0h0s0,0,0,0c0,.17.19-.1.15,0s0,0,0,0h0s0,0,0,0h0s0,0,0,0h0s0,0,0,0h0s.06.11.1.09h0s0,0,0,0,0,0,0,0l.08,0c.07,0,.08,0,0,0,.15,0,.21,0,.18,0a.18.18,0,0,0,.19,0h0c.11,0,.14,0,.1,0s0,0,0,0,0,0,0,0h0s0,0,0,0h0c.06,0,.07,0,0,0l.06,0c.05,0,.08,0,.07,0s.09,0,.06,0,.06,0,0,0l0,0s0,0,0,0,.13,0,.08,0,.11,0,.08,0,.09,0,.07,0,0,0,0,0h0l0,0h0c.06,0,.09,0,0,0,.12.05.16.06.11,0s.09,0,.07,0l0,0h0s0,0,0,0,0,0,0,0h0s.05,0,.07,0h0c.07,0,.09,0,.06,0s0,0,0,0,0,0,0,0,0,0,0,0h0s0,0,0,0v0c.07,0,.09,0,0,0,.13-.14,0,0,.07,0h0l0,0h0l0,0h0l.14-.06s0,0,0,0,0,0,0,0Zm-4.29,7.09,0,0Zm.4-6.69,0,0S108.24,3.45,108.24,3.46Zm2,1.7s-.07,0,0,0,0,0,0,0h0s0,0,0,0h0s0,0,0,0v0s0,0,0,0,0,0-.06,0,0,0,0,0h0s0,0,0,0,0,0,0,0,0,0,0,0l0,0h0c-.06,0,0,.07,0,.06s.06,0,0,0c0-.2-.73,0-.54,0-.49.27.29,1.23.23,1.3h0c0-.06,0-.07,0,0s.55-.12.67-.09a4.32,4.32,0,0,1,.66-.26l.05,0s0,0,0,0,1-.46.61-.56a1,1,0,0,0-1-.53h0m0,2.83h0c-.08,0-.13.18-.2.13h0c-.07,0-.09,0-.06,0s0,0-.06,0,0,0,0,0h0s-.08.05,0,0h0s0,0,0,0,0,.05,0,.05,0,0,0,0l0,0h0s0,0,0,0h0s-.06,0,0-.05c-.32,0-1.19.21-.77.76,0,0,0,0,0,0h0s0,0,0,0,0,0,0,0,0,0,0,0,0,0,0,0h0a.06.06,0,0,1,0,0h0s0,0,0,0h0s0,0,0,0h0V9s0,0,0,0a.08.08,0,0,1,0,.05s0,0,0,0a.34.34,0,0,1,0,.1h0s0,0,0,0h0s0,0,0,.05.06,0,0,0h0s0,0,0,0c.07.26.06.35,0,.24s0,0,0,.06h0s0,0,0,0h0c0,.08,0,.09,0,.05s.08.07,0,0,0,.05,0,.05h0c.1.05.12.06.08.05h0s0,0,0,0,0,.08,0,.08,0,0,0,.05l0,0h0s.06.06,0,0l0,.05s0,.05,0,.05v0s0,0,0,0,0,0,0,0,0,0,0,0h0c0,.05.07.06.07,0s0,0,0,0h0c.05,0,.08,0,.06,0s0,0,0,0h0s0,0,0,0h0l.1,0s.08,0,.07,0h0s0,0,0,0v0h0s0,0,0,0,0,0,0,0h0c.06,0,.08,0,0,0s0,.06.08,0,0,0,0,0h0s0,0,0,0h0c0,.08,0,0,.07,0h0c.08,0,.1,0,.07-.08h0s0-.15,0-.11,0,0,0,0h0s0,0,0-.05h0s0,0,0,0h0s.07,0,0,0,0,0,0,0h0s0,0,0,0h0s0,0,0,0h.08s0,0,0,0,0,0,0,0,.07-.06,0,0,.08-.06.07-.05,0,0,0,0,0,0,0,0l0,0s.06,0,0,0,.07,0,.05,0a.65.65,0,0,1,.1-.09s0,0,0,0,.08-.06.06,0a0,0,0,0,0,0,0h0c.05-.09.07-.13.07-.08v0h0v0h0s0,0,0,0h0s0,0,0,0,0,0,0,0h0s0,0,.06,0h0s.11-.07,0,0,.1-.14.09-.08,0,0,0,0,0,0,0,0h0c0,.06,0,.08,0,.07h.08s.14-.06.16-.08h0l.09,0h0c.08,0,.11,0,.08,0s.06,0,.09.12,0,0,0,0h0s0,.07,0,0a0,0,0,0,0,0,0c.1-.07.12-.07.1,0s0,0,0,0,0,0,0,0h0c.11,0,.15,0,.12,0h0s0,0,0,0,0-.06,0,0l0,0h0c.09-.06.12,0,.12-.07s0-.11,0-.08,0,0,0,0,0,0,0,0h0s0,0,0,0,0,0,0,0h0s0,0,0,0h0s0,0,0,0,0,0,0,0l0,0h0s0,0,0,0,0,0,0,0,0-.13,0-.13,0,0,0-.06h0s0,0,0,0,0,0,0,0h0a0,0,0,0,0,0,0h0s0,0,0,0h0s0,0,0,0,0,0,0,0h0s0,0,0,0c0-.2,0-.27,0-.21a.06.06,0,0,0,0-.08c-.06,0-.06,0,0,0h0s-.13,0-.1-.06h0s0-.07,0-.07-.13,0-.09,0-.07-.06,0,0-.08,0,0,0l0,0s0,0,0,0,0,0,0,0h0c-.11,0-.14,0-.11,0h0l0,0,0-.07,0,0s-.07.05-.06,0,0,0,0,0h0s0,0,0,0h0s0,0,0,0h0s0,0,0,0,0,0,0,0h0s0,0,0,0,0,0,0,0,0,0,0,0,0-.07,0-.06-.09,0,0,0h-.1v0s-.06,0-.06,0,0,0,0,0h-.06s0,0,0,0,0,0,0,0,0,0,0,0,0,0,0,0-.07-.17-.09-.12,0,0,0,0,0,0,0,0,0,0,0,0h0s0,0,0,0h0s-.06,0,0,0-.06,0,0,0L111,7.86h0s-.16.18-.13.07l-.07-.05s0,0,0,0,0,0,0,0Z" fill="#fff" fill-rule="evenodd"/>
        <path d="M98.91,3.14h0s0,0,0,0h0s0,0,0,0,0,0,0,0,0,0,0,0,0,0,0,0,0,0,0,0,0,0,0,0l.09,0c.05,0,.06,0,0,0s.07,0,0,0,.06,0,0,0,.05,0,0,0,0,0,0,0,0,0,0,0,.1,0,.08,0,.11,0,.08,0,.11,0,.1,0,0,0,0,0h0s0,0,0,0,0,0,0,0,0,0,0,0,0-.07,0,0,0,0,0,0,0,0,0,0,0,0,0,0h0s0,0,0,0h0s0,0,0,0,0,0,0,0h0s0,0,0,0,0,0,0,0,0,0,0,0h0s0,0,0,0h0s0,0,.08,0h0s0,0,0,0,0,0,0,0,0,0,0,0h0s.07,0,0,0,.15,0,.12.07h0s0,0,0,0l0,0,0,0s0,0,0,0h0c.09,0,.14,0,.1,0s0,0,.06,0h0s0,0,0,0h0v0c.06-.07,0,.08.06,0h0s0,0,0,0,.07-.05.08,0,.16,0,.19.05h0s0,.05,0,0h0s0,0,0,0,0,0,0,0,0,0,0,0,0,.1.08.07h0c.16-.11,0,.15.13,0s0,0,0,0,0,0,0,0,0,0,0,0,.07,0,.06-.06,0,0,0,0c.14-.13,0,.17.13,0l0,0h0s0,0,0,0h0s0,0,0,0,0,0,0,0,.09,0,.06,0,0,0,.07,0,0,0,0,0,0,0,.05,0h0s0,0,0,0,0,0,0,0h0s.05,0,0,0h0c.06-.07.08,0,.1,0a.11.11,0,0,1,0-.09s0,0,0,0,.08,0,.06,0h0s-.05.07,0,.06,0,0,0,0,0,0,0,0h0s0,0,0,0h0s0,0,0,0,0,0,0,0,0,0,0,0,0,0,0,0,0,0,0,0h0s.07,0,0,0,.15-.08.11,0,.14,0,.13,0,0,0,.06,0v0s.15,0,.07.09h0s0,0,0,0a.16.16,0,0,0,.1,0h0s0,0,0,0,0,0,0,0,0,0,0,0h0s.14,0,.12.06,0,0,0,0h0s0,0,0,0,0,0,0,0,.05,0,0,0,.06,0,.05,0,0,0,0,0,0,0,0,0h0s0,0,0,0h0v0l0,0s0,0,0,0,0,0,0,0h0s0,.06,0,0,0,0,0,0,.14.17.22.16.12.12.07.1.09.15.1.13,0,0,0,0a0,0,0,0,1,0,0c.06,0,.08.05.06,0h0s0,0,0,0,0,0,0,0h0s0,0,0,0,0,0,0,0,0,0,0,0h0s0,.05,0,0V4h0s0,0,0,0,0,0,0,0h0s0,0,0,0h0a.08.08,0,0,0,0,.11s0,0,0,0,.06.08.08.06a.25.25,0,0,0,0,.06h0s0,0,0,0h0a0,0,0,0,1,0,0s0,0,0,0l0,0s0,0,0,0h0c0,.06,0,0,0,0s0,0,0,0h0c0,.06,0,.09,0,.07s-.13.1-.14.13h0s0,0,0,0,0,0,0,0,0,0,0,0l0,0s0,0,0,0-.06,0,0,0-.08,0-.06,0-.2.12-.19.17l-.05,0s0,0,0,0,0,0-.06,0h0a0,0,0,0,0,0,0V5s0,0,0,0V5s0,0,0,0-.15,0-.13,0-.1,0-.08,0h0s0,0,0,0,0,0,0,0,0,0,0,0,0,0,0,0a.32.32,0,0,1,0,.06s0,.11-.08,0,0,0,0,0h0s0,0,0,0,0,0,0,0,0,0,0,0h0c0-.11-.06,0-.07,0h0s0,0,0,0,0,.08,0,0h0s0,0,0,0-.1.08-.08,0,0,0,0,0,0,0,0,0-.08,0-.05,0-.08,0,0,0,0,0,0,0-.07,0,0,0h0c-.07.11-.1.14-.07.09a.28.28,0,0,1-.11,0h0s-.06,0-.06,0,0,.07,0,0,0,.06,0,.09h0s0,0,0,0h0s0,0,0,0h0l0,0h0s0,0,0,0h0s0,0,0,0,0,.06,0,.06,0,0,0,0v0s0,0,0,0h0s0,0,0,0h0c0,.07,0,.09,0,.07v0h0s0,0,0,0h0s0,0,0,0,0,.06,0,0h0s0,.13,0,.14V6s0,0,0,0h0s0,0,0,0h0s0,0,0,0,0,0,0,0,0,.06,0,0v0h0s0,0-.05,0,.09,0,.05,0h0s0,0,0,0a.06.06,0,0,0,0,.06h0s0,0,0,0,0,0,0,0,0,.08,0,.06h0s0,0,0,0h0s0,.12,0,.12h0c0,.07,0,.11,0,.08s0,0,0,0h0s0,0,0,0h0c0,.11,0,.14,0,.1s0,0,0,.07h0s0,0,0,0h0c0,.07,0,.08,0,0s.15.09.09.11.06,0,0,0a.05.05,0,0,0,0,0s0,0,0,0,0,0,0,0h0s0,0,0,0h0s0,0,0,0h0s.21,0,.17,0,.06,0,0,0,0,0,0,0,0,0,0,0,.09.09.11.1h0c.11,0,.14,0,.1.09h0s0,0,0,0,.07,0,0,0,0,0,0,0h0c.06,0,.07,0,.06,0l0,0s.11,0,.06,0,.1,0,.08,0,.11,0,.07,0,.22-.15.22-.12,0,0,0,0,0,0,0,0h0v0s0,0,0,0l0,0s0-.07.06,0h0s.06,0,0,0,.11,0,.07,0,.11,0,.08,0,0,0,.06,0,0,0,0,0c.16,0,.21,0,.14,0s0,0,0,0,0,0,0,0,0-.07,0,0,0,0,0,0,0,0,0,0h0s0,0,0,0,0,0,0,0,0,0,0,0,0,0,0,0,.11.06.07.07,0,0,0,0,0,0,0,0,0,0,0,0h0s0,0,0,0h0s0,0,0,0,0,0,0,0l0,0s0,0,0,0,.08,0,0,0h0s0,0,0,0,0,0,0,0h0s.16,0,.09,0,.1,0,.07,0,0,0,0,0h0s.09,0,0,0,.19.21.14.21h0s0,0,0,0c.17.12.06.17.08.28h0s0,0,0,0h0c0,.1,0,.14,0,.09s0,.12,0,.08,0,0,0,0h0s0,0,0,.07a0,0,0,0,1,0,0c.1,0-.09.19,0,.21s0,.11,0,.09,0,0,0,0h0s0,.06,0,0-.09.13-.06.09,0,.08,0,.06,0,.07,0,.05,0,.09,0,.06l0,0s-.09,0-.08,0h0s0,0,0,0h0a0,0,0,0,0-.06,0h0a.09.09,0,0,1-.05,0s0,0,0,0-.07.1,0,.08-.09,0,0,0,0,0,0,0,0,0,0,0,0-.07,0,0h0l0,0s0,0,0,0,0,.06-.08,0h0s0,0,0,0h0v0h0s0,0,0,0,0,0,0,0,0,0,0,0h0s0,0,0,0,0,0,0,0,0,0,0,0h0s0,0,0,0h0s-.07,0,0-.05,0,0,0,0,0,0,0,0h-.06s0,0,0,0,0,0,0,0,0,0,0,0h-.1s0,0,0,0h0V8.34s-.06,0,0,0,0,0,0,0h0s0,0,0,0,0,0,0,0h-.07l0,0h0c-.09.07,0,0,0,0s-.27-.35-.09-.22c0,0,0,0,0,0a0,0,0,0,1,0,0s0,0,0,0,0,0,0,0a.19.19,0,0,1,0,.08s0,0,0,0h0c0-.07,0,0,0,0s0,0,0,0h0l0,0h0c-.11.08-.16.08-.11,0s0,0,0,0-.06,0,0,0l0,0h0l0,0a.07.07,0,0,1-.06-.09h0s0,0,0,0l-.12,0s-.12.07-.11.05,0,0,0,0-.08,0-.08,0h0a.06.06,0,0,0,0,0s0,0,0,0h0s0,0,0,0,0,0,0,0a0,0,0,0,1,0,0h0s-.11,0-.09,0h0s0,0,0,0,0,0,0,0,0,0,0,0,0,0,0,0-.09,0-.06,0,0,0,0,0a0,0,0,0,1,0,.06s0,0,0,0,0,0,0,0-.19,0-.16,0,0,0,0,0,0,0,0,0,0,0,0,0,0,0,0,0v0s0,0,0,0h0s0,0,0,0h0s0,0,0,0,0,0,0,0v0h0s0,0,0,0,0,0,0,0,0,0,0,0,0,0,0,0-.08,0-.07,0h0c-.07,0-.1,0-.1,0s-.1,0-.08,0-.05,0,0-.05,0,0,0,0h-.09c.06,0-.09.17-.07,0s0,0,0,0h0c-.1,0-.14,0-.09-.07h0s0,0,0,0,0,0,0,0h0s0,0,0,0,0,0,0,0,0,0,0,0,0,0,0,0,0,0,0,0-.09,0-.07,0,0,0,0,0h0s-.08,0-.06,0h0s0,0,0,0,0,0,0,0,0,0-.09,0,0,0,0,0-.08,0-.08,0,0,0,0,0h0s0,0,0,0,.06,0,0,0,0,.05,0,.05,0,0,0,0-.09,0,0,0h0c-.11,0,0,0,0,0s.05,0,0,0h0s0,0,0,0,0,0,0,0,0,0,0,0h0c0-.09-.14,0-.14,0h0s0,0,0,0-.13,0,0,.09,0,0,0,0h0s0,0,0,0-.07.09-.06,0,0,.08,0,.05v0s0,0,0,0,0,.05,0,0v0s-.05.07-.05,0,0,.05-.06.05l-.11,0s-.07,0-.06,0h-.07s0-.06-.06,0,0,0,0,0-.08,0,0,0,0,0,0,0,0,0,0,.06v0a.29.29,0,0,0-.18.2s0,0,0,0,0,0,0,0-.09,0-.09,0-.08,0,0,0-.1,0-.07,0,0,0,0,0h0s-.07,0,0,0h0s0,0-.06.06,0,0,0,0h0c0-.06-.08.08-.06,0s0,0,0,0h0s0,0,0,0,0,0,0,0-.14.05-.09.07h0s-.2,0-.14,0,0,0,0,0,0,0,0,0,0,0,0,0,0,0,0,0,0,0,0,0,0,0,0,0-.14,0-.14,0-.14.11-.1,0,0,0,0,0,0,0,0,0-.14.09-.11.11,0,0,0,0-.09,0-.07,0,0,0,0,0,0,0,0,0-.3.1-.27.17-.1.07-.17.08h0c-.05,0-.08,0-.06,0h0s0,0,0,0,0,0,0,0,0,0,0,0,0,0,0,0h0v0l0,0s0,0,0,0-.11,0-.12.06l-.09,0s0,0,0,0,0,0-.07,0-.14,0-.12,0,0,0,0,0v0s0,0,0,0v0s0,0,0,0,0,0,0,0-.15,0-.12,0,0,0,0,0v0s0,0,0,0h0s0,0,0,0v0l-.08,0c-.07,0-.08,0-.05,0s0,0,0,0,0,0,0,0l0,0h0s0,0,0,0,0,.06,0,0h0s0,0,0,0-.07,0,0-.06,0,0,0,0-.1,0-.07,0h0q-.28.09-.18.15s0,0,0,0h0s0,0,0,0h0s0,0,0,0-.12,0-.2.1h-.07s0,0,0,0h0s-.07.06-.05,0-.1,0-.08,0q-.42,0-.27,0c0-.09-.06-.11,0-.08s-.07-.06,0-.05a.07.07,0,0,0-.1,0s0,0,0,0,0,0,0,0-.07,0-.07,0-.09,0-.06.06,0,0,0,0,0,0,0,0a0,0,0,0,0,0,0s-.19.17-.23.14,0,0,0,0,.12,0,0,.08h0c0,.07,0,.08,0,.05s0,0,0,0h0s0,0,0,0h0l0,0h0c0-.05-.12,0-.08,0h-.05s0,0,0,0h0s-.06,0,0,0l0,0s0,0,0,0-.23,0-.25,0h0c-.11.07-.16.07-.15,0s-.07,0,0,0-.06,0,0,0,0,0,0,0,0,0,0,0,0,0,0,0h0s0,0,0,0h0l0,0c-.08.09-.13.11-.08.06a.1.1,0,0,1-.07,0h0a0,0,0,0,1,0,0s0,.08,0,0,0,0,0,0h0s-.14,0-.07.09,0,0,0,0-.12.17,0,.09,0,.13-.06.11,0,0-.07,0h0v0c-.06.05-.07.08,0,.06s-.19,0-.17,0,0,0,0,0h0s0,0,0,0,0,0,0,0h0s-.07.08-.06,0,0,0,0,0h0s0,0,0,0h-.06s0,0,0,0v0s0,0,0,0-.18,0-.16-.07,0,0,0,0h0s0,0,0,0h0s0,0,0,0,0,0,0,0,0,0,0,0h0c0-.07,0,0,0,0l0,0s0,0,0,0-.09.06-.07,0,0,0,0,0,0,0,0,0,0,0,0,0,0,0,0,0h0s-.09.17-.11.1h0s-.06,0,0,0h0s-.06,0,0,0h0s0,0,0,0h0s0,0,0,0h0c-.07,0-.08.05,0,0s.06.11,0,.13h0s0,0,0,0h0s-.13.07-.14.08v0s0,0,0,0,0,0,0,0,0,0,0,0v0s-.08,0,0,0-.06,0,0,0h0c-.1,0-.14,0-.09,0s0,0,0,0,0,0,0,0-.23,0-.14-.06c-.07,0-.09,0-.06,0h0q-.09.08-.06,0c-.11,0,0,0,0-.06h0a0,0,0,0,1,0,0h0s0,0,0,0,0,0,0,0,0,0,0,0,0,0,0,0,0,0,0,0h0s0,0,0,0,0-.05,0,0,0-.05,0,0,0,0,0,0h0s0,0,0,0,0,.05,0,0h0s0,0-.07,0,0,0,0,0,0,.05,0,0h0s0,0,0,0,0,0,0,0-.11,0-.07,0,0,0,0-.09-.16,0-.12,0L90,10.44h0s0-.06,0,0-.07-.22-.12-.21h0l0,0h0l0,0c0-.05,0-.06,0,0s0,0,0,0h0s0-.12,0-.1h0c0-.05,0-.07,0,0s0,0,0,0h0s-.07,0,0,0,0,0,0,0,0-.11,0-.08,0,0,0,0,0-.09-.06-.1h0s0,0,0,0h0c0-.14,0-.19,0-.14s0,0,0,0h0s0-.21,0-.14.07,0,0,0,0,0,0,0,0,0,0,0h0s0,0,0,0,.07-.13,0-.09a0,0,0,0,1,0,0s0,0,0,0,0-.11,0-.11.07-.09,0,0a0,0,0,0,1,0,0h0s0,0,0,0,0,0,0,0l.11-.06h0c.06,0,.08-.05.07,0v0s0,0,0,0l0-.06h0c.07-.06,0,.23.12,0q.17,0,.09-.06h0c0-.06.06-.08,0-.07s0,0,0,0,0,0,0,0h0c0-.05,0-.06,0,0s0,0,0,0,0,0,0,0,.06,0,0,0,.07,0,0,0h0s.07-.05.09,0l0,0h0s0,0,0,0,0,0,0,0,0,0,0,0h0l0,0s0,0,0,0,0,0,0,0,0,0,0,0,0,0,0,0h0s0,0,.07,0l0,0s.14,0,.09,0,0,0,0,0,0,0,0,0,0,0,0,0,0,0,0,0,.16,0,.13,0h0s0,0,0,0h0s0,0,0,0,.06,0,0,0c0-.14.18-.05.15,0h0v0s0,0,0,0l0,0h0c0-.05,0-.07,0-.06h0c.09.06.18-.11.18-.11l0,0s0,0,0,0,.1-.06.08-.07h0s0,0,0,0,0-.08.07-.1,0,0,0,0l0,0s0,0,0,0h.12s0,0,0,0,0,0,0,0h0l0,0h0c.05,0,.05,0,0,0h.06s.07,0,0,.09.08,0,.06,0c.26-.13-.06,0,.14,0h0s0,0,0,0h0s0,0,0,0,0,0,0,0,0,0,0,0,0,0,0,0,0,0,0,0h0s0,0,0,0h0s0,0,0,0,0,0,0,0,0,0,0,0v0h0s.17,0,.19,0h0s0,0,0,0h0s0,0,0,0,0,0,0,0,.07-.07,0-.06.07-.06.1,0,0,0,0,0,.09,0,.06,0h0s0,0,0,0,0-.16,0-.15l0,0s0,0,0,0,.08,0,.11,0,0-.14,0-.09,0,0,0,0,0,0,0,0,.1-.11.08-.07h0s0,0,0,0,0,0,0,0,0-.06,0,0,0,0,0,0c.11-.17.16.15.12.08s.18.09.15.14,0,0,0,0l0,0s.09,0,0,.06,0,0,0,0,0,0,0,0l.07,0h0s0,0,0,0,.08,0,.07,0,0,0,0,0h0l.22.06h0s.09-.11.07,0,.11-.15.08-.17,0,0,0,0h0s0-.06,0,0,.06,0,0,0h0s.07,0,.08,0h0v0s0,0,.05,0h0s0,0,0,0h0c0-.06,0-.08,0-.05h0c.06,0,.09,0,.05,0h0s0,0,0,0a.11.11,0,0,0,.08,0h0s0,0,0,0,.1,0,.07,0,.07,0,.07,0,0,0,0,0,0,0,.06,0,0,0,0,0,.07,0,0-.06,0,0,0,0,0,0,0,0,0,0,0,0h0c-.13,0,.12-.09,0,0h0s0,0,0,0,0,0,0,0,0,0,0,0,.06,0,0,0,0,0,0,0,0,0,0,0,0,0,0,0,0,0,0,0,0,0,0,0,.1-.11.07,0,0,0,0,0h0s0,0,0,0,0,0,0,0,0-.16,0-.1,0,0,0,0h0c.05,0,.06,0,0,0h0s0,0,0,0h0s0,0,0,0h0s0,0,0,0a0,0,0,0,0,0,0h0C95,7,95,7,95,7s0,0,0,0,0,0,0,0,0-.06,0,0,0,0,0,0,0,0,0,0h0s0,0,0,0,.06-.11,0-.07,0,0,0,0-.05,0,0,0-.07-.09-.08,0,.11-.16.08-.1,0,0,0,0v0s0,0,0,0,0,0,0,0v0s0,0,0,0h0a0,0,0,0,1,0,0s0,0,0,0,0,0,0,0,0-.06,0-.09h0a.08.08,0,0,1,0-.05h0s-.05-.1-.06-.09,0,0,0,0h0s0-.07-.08-.09-.15,0-.1,0,0,0,0,0h0s0,0,0,0h0s0,0,0,0v0h0s0,0,0,0h0s0,0,0,0h0s0,.06,0,.08-.12,0-.09,0-.07-.06,0-.07,0,0,0,0,0,0,0,0-.14,0-.17,0-.06,0-.14,0c-.44,0,0,0-.14,0s0-.05,0,0-.13-.09-.12-.11,0,0,0,0-.11-.11-.07-.09l0,0s-.11,0,0,0-.06,0,0,0h0s0,0,0,0,0-.06,0-.06,0-.11,0-.11a.16.16,0,0,0,0,0s0,0,0,0,0,0,0,0v0c.08,0,0,0,.06,0h0s0,0,0,0l0,0v0s0,0,0,0h0s0,0,0,0,0,0,0,0a0,0,0,0,1,0,0s0,0,0,0,0-.07,0,0,0-.15,0-.11,0,0,0,0a.14.14,0,0,1,0-.07s0,0,0-.06h0s0,0,0,0,0,0,0,0h0s0,0,0,0l0,0V5s0,0,0,0h0s0,0,0,0h0s0-.12.07-.12.07-.05.05,0,.1,0,.08-.07.07-.07,0-.07.17.1.2,0a.1.1,0,0,0,0-.06h0s0-.08,0,0l0,0h0s0,0,0,0h0s.1,0,.1,0v0h0s0,0,0,0,.19,0,.13-.06h0s.06,0,0,0,0,0,0-.05.08,0,.05,0h0c.15,0,.18-.06.13-.08s0,0,0,0,0,0,0,0,0,0,0,0,0,0,0,0,0,0,0,0h0s0,0,0,0h0s0,0,0,0h0s0,0,.06,0h.1c.06,0,.08,0,0,0s.09-.08.08,0h0c.09,0,.13,0,.1,0s0,0,0,0h0s0,0,0,0,.07-.11,0-.12,0,0,0,0l0,0c.13,0,.16,0,.1,0s0-.06.06-.07h0s0,0,0,0,0,0,0,0,.1-.06.07,0,.11,0,.07,0S96,4,96,4s.08,0,0,0a.07.07,0,0,0,.07,0h0s0,0,0,0,0,0,0,0,0,0,0,0,0,0,0,0,0,0,0,0,0,0,0,0h0s0,0,.06,0,.13-.05.11,0,0,0,0,0,0,0,0,0,0,0,0,0h0s0,0,0,0,0,0,0,0a0,0,0,0,0,0,0c.1,0,.11,0,.06,0s0,0,0,0h0s.07,0,0,0,.1,0,.06,0v0h0s0,0,0,0h0l0,0h0a0,0,0,0,1,0,0h0s0,0,0,0l0,0s0,0,0,0,0,0,0,0h0c0,.05.16,0,.09-.1s0,0,0,0h0s0,0,0,0h0l0,0h0s0,0,0,0,0,0,0,0l0,0c.05,0,.07,0,0,0h.08c.06,0,.08,0,.06,0s0,0,.08,0l0,0c.06,0,.07-.06,0,0a.11.11,0,0,0,.12,0s0,0,0,0,.09,0,.07,0h0s0,0,0,0,0,0,0,0,.16-.07.13,0,.1,0,.06,0v0l0,0s0,0,0,0,.2,0,.14,0,.08,0,.06,0,.06,0,0,0h0s0,0,0,0,0,0,0,0,0,0,0,0h0s0,0,0,0h0s0,0,0,0,0,0,0,0,0,0,0,0,.11,0,.06-.06.11,0,.09,0,.13-.06.1-.11h0s0,0,0,0h0c.09,0,.11,0,.07,0a0,0,0,0,1,0,0s0,0,0,0,0,0,0,0,.11,0,.08,0h0s0,0,0,0,0,0,0,0,0,0,0,0,.06,0,0,0h0s0,0,0,0,0,0,0,0h0s.06,0,0,0,.06,0,0,0,0,0,0,0,0,0,0,0,0,0,0,0,0,0,0,0,0,0,0,0l0,0s0,0,0,0,.2-.07.08-.12h0Zm1.74.35s0,0,0,0S100.64,3.49,100.65,3.49ZM94.71,9.73l0,0S94.71,9.74,94.71,9.73Zm3.84-4.4a.16.16,0,0,0-.14,0h0l-.06,0s0,0,0,0,0,0,0,0h0c0,.06-.06.07-.07,0s0,0,0,0,0,0,0,0,0,0,0,0-.07,0,0,0,0,0,0,0,0,0,0,0a0,0,0,0,0,0,0v0h0c0-.05,0-.07,0,0s-.06,0-.07-.06,0,0,0,0h-.06v0h0s0,0,0,0,0,0,0,0-.07,0,0,0,0,0,0,0,0,0,0,0-.11,0-.08,0h0v0l0,0s0,0,0,0,0,0,0,0h0s-.11.14-.1.16,0,0,0,0h0s-.26.18-.18.1c0,.09,0,.12-.05.09l0,0h0s0,0,0,0h0a.25.25,0,0,1,0,.07h0l0,0,0,0s0,0,0,0V6s0,0,0,0l0,.09s0,0,0,0h0s0,0,0,0,0,0,0,0,0,0,0,0l0,.07h0c0,.08,0,.1,0,.07s0,0,0,0h0c0,.06,0,.08,0,.05s0,.07,0,.07,0,.05,0,.05h0s0,0,0,0l0,0,0,0s0,0,0,0h0s0,0,0,0h0c0,.12,0,.14,0,.08v0s0,0,0,0h0s0,0,0,0,.08,0,.07,0h0s.08,0,0,0h.3l.06-.06h0c.39-.27.59-.3.59-.1,0-.06.81-.94.33-.71h0s0,0,0,0c.12.17,0-.14,0-.06s0,0,0,0h0s0-.1,0-.07-.13-.89-.26-.32a.31.31,0,0,1-.09.07C98.49,5.32,98.58,5.3,98.55,5.33Zm-.39.11s0,0,0,0Z" fill="#fff" fill-rule="evenodd"/>
        <path d="M101.05,9.15c.12,0,.15,0,.12,0s0,0,0,0c.13,0,.17,0,.13,0s0,0,.08,0h0s.13.07.1.08.22.18.17.2h0a.07.07,0,0,0,0,0s.16.06.09.08.07,0,0,0,0,0,0,0,0,0,0,0h0s0,0,0,0,.1.11.1.07h0s0,.06,0,0,0,0,0,0,0,.14,0,.09,0,.12,0,.09,0,.1,0,.1,0,0,0,0h0s0,0,0,0h0s0,0,0,0,0,0,0,0,.06.07.09.05,0,0,0,.06,0,0,0,0,0,0,0,0,0,.19,0,.23,0,.06,0,.06h0l0,0h0s0,0,0,0,0,0,0,0,0,0,0,.06h0s0,0,0,0a0,0,0,0,0,0,0v0s0,0,0,0h0a1,1,0,0,0,0,.18q0,.08,0,0c0,.08,0,.1,0,.07s0,.13,0,.09,0,.09,0,.11h0s0,0,0,0,0,.06,0,.05,0,0,0,0h0q0,.11,0,.06l0,0s0,0,0,0,0,0,0,0h0v0h0s0,0,0,0h0s0,0,0,0h0l0,0h0l-.08.05h0s0,.05,0,0,0,0,0,0v0s0,0,0,0h0s0,0,0,0v0s0,0,0,0h0s0,.06,0,0,.08,0,.06,0v0s0,0,0,0h0c0,.19,0,.26,0,.19s-.09.06-.06.07,0,.08,0,.09,0,.08,0,0,0,0,0,0,0,.06,0,.05,0,0,0,0l0,0c0,.1-.05.13,0,.09s0,.09,0,.05,0,.1,0,0,0,.1,0,.1h0s0,0,0,0h0s0,0,0,0h0c.06.09.08.11,0,.1h0s.05,0,.06,0,0,0,0,0v0s0,0,0,0a0,0,0,0,1,0,0s0,0,0,.06,0,0,0,0,.11.07.08.1h0c0,.06,0,.07,0,.06s-.08,0-.07.09,0,0,0,0h0c0,.06,0,0,0,0s0,0,0,.07,0,.14,0,.14v0s0,0,0,0,0,0,0,0h0s0,.05,0,0,0,0,0,.06h0s0,0,0,0h0s0,.05,0,0h0s0,0,0,0h0l-.07.08s0,0,0,0h0s0,0,0,0h0s0,0,0,.05h0v0h0s0,0,0,0h0s0,0,0,0h0s0,.05,0,0l0,0s0,0,0,0h0l0,0c.08,0-.16.05-.08,0-.1-.05-.13-.07-.08-.05s0-.07,0,0-.09,0,0,0h0s0,0,0,0l0,0s-.08.08-.09.1,0,.07,0,0h0s0,0,0,0h0c-.09,0-.12,0-.09,0h0s0,0,0,0,0,0,0,0v0s0,0,0,0-.11-.06-.13,0l0,0s0,0,0,0h0s-.08,0-.09,0h0s0,0,0,0h0s0,0,0,0h0l0,0,0,0-.06,0h0s-.07.06,0,0l0,0s0,0,0,0h0s0,0,0,0h0s0,0,0,0h0s-.11-.14,0-.11l-.07-.08h0s-.18-.08-.13-.07-.12-.08-.12-.08,0,.07,0,0h0s0,0,0,0h0s0,0,0,0h0l0,0s0,0,0,0,0,0,0,0l-.06,0s0,0,0,0,0,0,0,0,0,0,0,0h0s-.12,0-.08,0,0,0,0,0-.08,0-.08,0h0s0,0,0,0,0,0,0,0h0v0s0,0,0,0,0,0,0,0,0,0-.09.06h0l-.1,0s0,0,0,0h0s0,0,0,0h0s0,0,0,0-.08.06,0,.05,0,.05,0,0h0s0,0,0,0h0s0,0,0,0h0l0,.06h0s-.09,0-.06,0,0,0,0,0,.06,0,0,0,0,0,0,0,0-.11,0-.08,0,0,0,0h0s0-.06,0-.05h0l0,0h0s-.06,0,0,0h0s0,0,0,0h0l0,0h0s0,0,0,0h0s0,0,0,0v0c0,.06,0,.06,0,0l0,0s0,0,0-.06,0,0,0,0c.08-.21-.08.05,0,0s0,0,0,0-.09.18,0,.08,0,0,0,0h0s-.08,0-.06,0h0v0s0,0,0,0,0,0,0,0,0,0,0,0c-.15,0-.19,0-.13,0s0,0,0,0h0s-.06,0,0,0-.07,0-.07,0,0-.06,0,0,0,0,0,0l0,0h0s0,0,0,0h0s0,0,0,0h0a0,0,0,0,1,0,0s-.07,0,0,0,0,0,0,0h0s0,0,0,0h0c-.11,0-.16,0-.11,0s0,0,0,0h0s0,0,0,0-.08,0-.05,0-.07,0,0,0,0,0-.07,0h0q-.15,0-.09,0c0,.06-.34,0-.27,0h0s0,0,0,0h0s0,0,0,0h0s0,0,0,0h0s0,0,0,0,0,0,0,0-.09,0-.12,0,0,0,0,0h0s0,0,0,0h0l0,0s0,0,0,0h0l-.08.06v0h0c-.21,0-.27,0-.19,0s0,0,0,0h0s0,0,0,0h0s0,0,0,0-.07.07,0,0-.07.09-.07,0,0,0,0,0h0s0,0,0,0,0,.07,0,.05a0,0,0,0,1,0,0s0,0,0,0l0,0s0,0,0,0h0s0,0,0,0h0c0,.07,0,.09,0,.06s-.1,0-.07,0,0,0,0,0h0c0-.06-.24,0-.19-.11s-.05,0-.05,0v0l0,0s0,.07,0,0h-.08a0,0,0,0,0-.06,0h0q-.19,0-.12-.09s0,0,0,0h0c-.08,0-.1,0-.07,0s-.28,0-.32.06-.07,0,0,0h0s0,0,0,0,0,0,0,0,0,0,0,0a0,0,0,0,1,0,0s0,0,0,0h0s-.06,0,0,0,0,0,0,0,0,0,0,0l0,0h0s0,0-.07,0,0,0,0,0h0c-.06,0-.06.09,0,.11s-.07,0-.06,0v0s0,0,0,0,0,0,0,0,0,0,0,0c-.12.13-.14.18-.08.16s0,.1,0,.08v0s0,0,0,0,0,.07,0,0,0,0,0,0h0c0,.08,0,0,0,0s0,0,0,0,0,.06,0,0v0s0,0,0,0h0a.32.32,0,0,1,0,.07c0,.07,0,.1,0,.07-.17.12-.21.17-.14.13s.06.15,0,.21,0,0,0,0,0,0,0,0,0,0,0,0,0,.11,0,.08,0,0,0,0h0s0,0,0,0l-.12.06,0,0v0s0,0,0,0l-.06.12s-.06,0,0,0,0,0,0,0-.06,0,0,0a.06.06,0,0,1,0,.06c0-.12-.1.11-.11.09s0,0,0,0,0,0,0,0l0,0c-.07.1-.1.14-.07.09s-.06,0,0,0h0s0,0,0,0-.19,0-.16,0c-.06.07-.08.09,0,.07l0,0s0,0,0,0,0,0,0,0h0s0,0,0,0,0,0,0,0h0s0,0-.06,0,0,0,0,0h0s0,0,0-.06-.15,0-.1,0h0s0,0,0,0h0s0,0,0,0-.16-.06-.11-.05-.09-.07-.08,0-.12-.05-.09-.09-.12,0-.08,0,0,0,0,0h0v0h0s-.06.08-.06.08h0s0,0,0,0,0-.14-.06-.14h0s0,0,0,0-.11-.16,0-.14h0s0-.08,0,0,0,0,0,0h0a0,0,0,0,1,0,0h0s0,0,0,0h0s0,0,0,0,0,0,0,0h0c0-.07,0-.09,0-.07s0-.11,0-.07v0h0s0,0,0,0h0a.68.68,0,0,1,0-.12c0-.06,0-.08,0-.06s0,0,0,0h0a0,0,0,0,1,0,0s0,0,0,0,0-.06,0-.05-.09,0,0,0h0c-.09-.08.1-.05.07-.05s0,0,0,0,0,0,0,0h0c0-.1,0-.13,0-.09s0,0,0,0,0,0,0,0,0,0,0,0h0s0,0,0,0,0-.1,0-.07,0,0,0,0h0s0,0,0,0,0,0,0,0a0,0,0,0,1,0,0h0s0,0,0,0l0,0h0s0,0,0,0,0,0,0-.06h0c-.12.17,0-.31,0-.14,0,0,0,0,.05,0h0s0,0,0,0h0s0,0,0,0-.06-.27-.07-.18,0-.13,0-.07,0,0,0,0,0,0,0,0v0s0,0,0,0,0,0,0,0h0c0-.09,0-.11,0-.08s0,0,0,0,0-.09,0-.06,0,0,0,0h0v0s0,0,0,0h0c-.07,0-.07,0,0,0h0c.09-.06.12-.07.1,0l0,0s0,0,0,0,0,0,0,0,0,0,0-.05h0s0,0,0,0,0,0,0,0h0s.07-.09.07-.1h0s0,0,0,0h0c.06-.06.08-.08,0-.06l0,0h0s0,0,0,0h0s0,0,0,0h0s0,0,0,0h0c0-.05,0-.07,0-.05s.07,0,.06,0,.14-.06.11-.12h0s0-.17,0-.13-.09.05,0-.05h0s0,0,0,0,.07-.15,0-.11l0,0h0s0-.06,0-.05,0-.06,0,0l0,0h0s.17,0,.11,0-.13,0-.05-.06h0s.12,0,.14-.05h0s0,0,0,0h0s0,0,0,0h0c0-.08,0-.11-.07-.08s0-.08,0-.06,0,0,0,0h0c0-.09.07-.11.11-.11v0h0a.11.11,0,0,0,.06-.06l0,0s0-.05,0,0h0s0,0,0,0,0,0,0,0v0s.06-.08.06-.07h0s0,0,0-.05,0,0,0,0,0,0,0-.06-.07,0,0,0h0s0-.15,0-.11c0-.11,0-.15,0-.11s0-.06,0,0a0,0,0,0,0,0,0s0,0,0,0,0,0,0,0,0,0,0,0,0,0,0,0h0s0,0,0,0,0,0,0,0-.06,0,0,0-.08-.12,0-.08v0h0c.06-.08.08-.13,0-.12a.58.58,0,0,0,.08-.1c0,.34,0-.36,0-.26s0-.06,0,0,0,0,0,0h0c0-.12.07-.16.07-.12s0-.05,0,0l0,0h0s0,0,0,0h0l.07-.07v0h0s0,0,.07,0,0,0,0,0a0,0,0,0,1,0,0h0l.1-.09h0l0,0h0s.05,0,0,0,0,0,0,0l0,0h0c.06,0,.07,0,0,0h0s0,0,0,0,0,0,0,0h0s0,0,.07,0h0s0,0,0,0,0,0,0,0h.05s0,0,0,0h0s0,0,0,0,0,0,0,0h0v0a0,0,0,0,1,0,0,.06.06,0,0,0,0,0h0l0,0h.08l0,0h0a0,0,0,0,0,0,0h0v0s0,0,0,0h0s0,0,0,0,.11,0,.09.06,0,0,0,0h0s0,0,0,0h0s0,0,0,0,.06,0,0,0,.11.05.09,0,.08,0,.07,0h0s0,0,0,0,0,0,0,0a0,0,0,0,0,0,0s0,0,0,0,0,0,0,0,0,0,0,0,.09,0,.08,0,0,0,0,.07l0,0s0,0,0,0,0,0,0,0,0,0,0,0h0s0,0,0,0,0-.06,0-.06,0,0,0,0h0s.07,0,0,0,0,0,.08,0,.05,0,0,0l.09,0h0s0,0,0,0h0s.06-.06,0,0v0c.06-.05.08-.06.08,0s0,0,0,0,0-.05,0,0,0,0,0,0,0,0,0,0,0-.07,0,0h0c.09-.06.13-.07.09,0s0,0,0,0,0,0,0,0h0s0,0,0,0,.06-.11,0-.09,0,0,0,0,0,0,0,0,0,0,0,0h0l0,0s0,0,0,0h0s0,0,0,0,0,0,0,0,0,.05,0,0,0,0,0,0,0,0,0,0,0,0,0,0h0s0,0,0-.05.13-.07.1,0,0,0,0,0h0s0,0,0,0h0s-.08-.07,0-.07h0s0-.05,0,0,.16-.07.12-.06.07,0,.06,0,0,0,0,0h.1s.1,0,.06,0h0c.06,0,.08,0,0,0s0,0,.12,0,0,0,0,0,.09,0,.07,0,.06,0,0,0h0s.08,0,.08,0h0s.11-.08.11-.07,0,0,0,0,.13,0,.08.05,0,0,0,0h0s.08,0,.09-.05l.08-.08s0,0,0,0,0,0,0,0h0s0,0,0,0h0c.06,0,.06,0,.09,0s0,0,0,0,0-.08,0-.08,0,0,0,0h0s0,0,0,0,0,0,0,0h0s.1-.09.08-.07,0,0,0,0v0h0s0,0,0,0,0,0,0,0h0s0,0,0,0l.09,0h0c.06,0,.06-.06,0,0s.09-.08,0,0l0-.06s0,0,0,0,0,0,.08,0,0,0,0,0l0,0s.11.07.11,0V9.57s0,0,0,0h.08a.15.15,0,0,0,.08,0s0,0,0-.06h0l0,0c.07-.1.08-.13.05-.09s0,0,0,0,0-.09,0,0,.07-.08,0,0,0-.09,0-.06.06,0,0,0h0a.18.18,0,0,1,.09,0s0,0,0,0,0,0,0,0,0,0,0,0,.22.05.2-.08.06,0,.05,0,.11,0,.07,0,0,0,0,0h0c.06,0,.07,0,0,0s.09.15.14.1v0s0,0,0,0,0,0,0,0h0s.1.13.07.12,0,0,0,0,0,.12.06.1h0s0,0,0,0,0,0,0,0,.07,0,.07,0h0s0,0,0,0h0s0,0,0,0,0,0,0,0,0,0,0,0l0,0h0c0-.06,0-.07,0-.06s0,0,0,0h0s0,0,0,0h0v0h0c0-.06,0-.07,0,0s0-.05,0,0h0s0,0,0,0v0s0,0,0,0,0,0,0,0,0-.09,0,0,.07-.11.07-.07,0,0,0,0,0,0,0,0,0-.06,0,0,0-.06,0,0,0,0,0,0h0s0,0,0,0h0s0,0,0,0,0,0,0,0l0,0h0s0,0,0,0,0,0,0,0,.07,0,.09,0Zm-4.53,1.5,0,0Zm2.65.41h-.06s0,0,0,0,0,.13,0,.1,0,0,0,0l0,0,0,0,0,0h0l0,0h0s-.09.11-.09.07h0s0,0,0,0h0l0,0s0,0,0,0,0,0,0,0-.07,0-.05,0-.07,0,0,0-.07,0,0,0c-.29,0-.38,0-.28,0h0s0,0,0,0,0,0,0,0-.06,0,0,0,0,0-.05,0h0s-.08.11-.09.06h0c-.06,0-.07,0-.05,0s0,0,0,0,0,0,0,0h0s0,0,0,0,0,0,0,0h0v0s0,0,0,0h0v0l0,0s0,0,0,0h0s0,0,0,0,0,0,0,0-.11.05-.09,0-.06,0,0,0,0,0,0,0-.11,0-.14,0-.08.1-.08.06h0c-.09.06-.23.06-.21,0s0,0,0,0h0l0,0c.07,0-.16.12-.07,0h0s0,0,0,0,0,.12,0,.12h0s0,0,0,0h0s0,0,0,.05h0l0,0s0,0,0,0,0,0,0,0,0,0,0,0h0s-.06,0,0,0,0,0,0,0h0c-.11,0,.07,0,0,0h0s0,.05,0,0,0,0,0,0,0,0,0,0,0,0,0,0,0,.05,0,0-.19.15-.11.19a.46.46,0,0,1-.18.11h0s-.09.1-.07.12-.12.17-.11.09-.09.07-.07,0h0s0-.06,0,0-.13,0-.11,0,0,.05,0,0,0,0,0,0,0,0,0,0,0,.09,0,.07l0,0h0s0,0,0,0,0,0,0,0,.06.1,0,.08h0s0,0,0,0,0,0,0,.12h0v0s0,0,0,0v0c0,.13,0,.17,0,.12s0,0,0,0h0s0,0,0,0h0s0,0,0,0h0s0,0,.06,0,0,0,0,0,0,0,0,0,0,0,0,0,.07,0,0,0l.06,0s0,0,0,0,0,0,0,0,.11,0,.11,0,0,0,0,0,0,0,0,0h0s0,0,0,0,0,0,0-.05h0s.05,0,0,0l.07,0s0,0,0,0l0,0s.05,0,0,0v0c-.06.08.15,0,.14,0s.1,0,0,.05.06,0,.06,0v0s.06-.05,0-.05.07,0,0-.06.05,0,0,0,0,0,0,0h0s0,0,0,0,0,0,0,0h.07s0,0,0,0l0,0h0s0,0,0,0h0c.09,0,.12,0,.1,0h0s0,0,0,0,0,0,0,0h0s0,0,0,0,0,0,0,0l0,0h0s.12-.08.11,0,.13,0,.18,0,0,0,0,0h0s0,0,0,0h0s.07.05.07.06,0,0,.07,0h0s0,0,0,0v0c.09,0,.12,0,.07,0s.06,0,0,0,.06,0,.07,0h0s0,0,0,0h0s0,0,0,0l0,0s0,0,0,0h0s0,0,0,0h0s.07,0,.1,0,0,0,0,0,0,0,0,0l.06,0h0c.05-.05.07-.05,0,0s0,0,0,0l0,0s0,0,0,0h0s0,0,0,0,0,0,0,0,0,0,0,0,0,0,0,0v0s0,0,0,0h0s0,0,.06,0h0s.07,0,0,0h0s0,0,0,0l.06,0,0,0s0,0,0,0h0s0,0,0,0,0-.05,0,0,.06,0,0,0,.12-.05.1,0,.06,0,0,0a.13.13,0,0,1,0,.07l0,0s0,0,0,0,0,0,0,0,0,0,0,0c.09-.16.1-.22.06-.16s0,0,0,0,0,0,0,0,0,0,0,0h0v0h0s0,0,0,0,0,0,0,0,0,0,0,0h0s0,0,0,0h0s0,0,0,0v0c0-.05,0-.07,0-.05s0-.12,0-.08,0-.07,0,0h0v0c.05,0,.06,0,0,0h0c0-.05,0-.07,0,0h0a.31.31,0,0,0,.09-.12s0,0,0,0,0,0,0,0h0s0,0,0,0,0,0,0,0,0,0,0,0h0s0,0,0,0,0,0,0,0h0s0,0,0,0,0,0,0,0h0s0,0,0,0,0,0,0,0l0,0,0,0h0a.34.34,0,0,0,0-.1h0s.07-.05,0,0,.07-.17.06-.15h0c0-.06,0-.08,0,0s0,0,0,0,0,0,0,0,0,0,0,0h0c.06,0-.06-.06,0,0l.06-.06h0v0s0,0,0,0,0-.05,0-.06h0s0-.1,0-.08h0c-.14,0-.17,0-.13,0s-.13,0-.09-.06h0c0-.05,0,0,0-.05h0c-.06,0-.07,0,0,0s0,.05-.05,0,0,0,0,0,0,0,0,0h0q-.09,0,0,0h0s0-.09,0-.08h0s0,0,0,0-.07,0-.06,0h0s0,0,0,0S99.17,11.05,99.17,11.06Z" fill="#fff" fill-rule="evenodd"/>
      </g>
      <g>
        <polygon points="59.82 5.99 60.31 5.73 60.47 5.84 61.53 5.81 61.61 5.99 62.01 5.87 62.32 5.92 62.6 5.84 62.85 5.58 63.46 5.81 63.74 5.61 64.05 5.36 64.36 5.33 64.51 5.16 64.71 4.94 65.1 4.7 65.5 4.68 65.67 4.57 66.01 4.68 66.2 4.39 66.63 4.25 66.94 4.05 67.17 3.85 67.4 3.85 67.57 3.8 67.85 3.8 67.93 3.54 68.08 3.46 68.31 3.46 68.45 3.26 68.85 3.03 68.99 3.15 69.22 3.06 69.45 3.06 69.72 3.06 69.81 2.92 70.1 3.17 70.1 3.52 69.86 3.57 69.86 3.71 69.33 4.14 69.19 4.88 68.93 5.3 68.96 5.96 68.91 6.32 68.68 6.61 68.71 6.92 68.48 7.38 68.5 7.49 68.17 7.97 68.08 8.37 68.11 8.63 68.14 9.19 68.05 9.53 68.2 9.9 68.34 10.27 68.28 10.89 68.28 11.29 68.22 11.71 68.34 11.94 68.11 12.34 68.22 12.76 68.22 13.05 68.25 13.34 68.11 13.73 68.17 14.04 67.79 14.59 67.66 14.95 67.54 15.18 67.72 15.32 67.38 15.52 66.92 15.69 66.84 15.49 66.52 15.32 66.6 14.95 66.4 14.69 66.26 14.46 66.15 14.29 66.06 14.1 65.84 13.96 66.03 13.78 66.03 13.39 65.95 13.16 65.93 12.45 65.98 12.09 65.9 11.6 66.03 11.32 65.93 10.21 66.09 9.78 66.18 9.28 65.98 8.56 66.09 8.22 65.93 8.05 65.98 7.94 65.95 7.52 66.01 7.32 65.81 7.04 65.56 6.94 64.93 7.18 64.42 7.18 64.22 7.32 63.93 7.38 63.68 7.35 63.23 7.69 62.95 7.69 62.88 7.97 62.66 8.48 62.26 8.6 62.04 8.93 61.72 8.85 61.49 9.05 61.05 9.11 60.61 9.53 60.28 9.62 60.16 9.7 59.65 9.62 59.34 9.3 59.4 8.67 59.57 7.97 59.77 7.91 59.88 7.65 60.02 7.49 59.94 7.25 60.09 7.15 59.85 6.66 59.82 6.35 59.82 5.99" fill="#fff"/>
        <path d="M72.24,3.67l.23-.1.07-.3.25-.09.15-.1h.26l0-.2.47.14.34.14.06.26L74,4l.29.18.28-.06.26-.1V3.87l.23-.26h.24l.11-.18h.3l.41.26.15.07.11.15,0,.25.14.16.14,0,0,.23.15.16.66.36.32.23.22.22.2.1,0,.51L78,6.36l-.31.18-.2,0-.12.18-.26,0h-.32l-.28-.18h-.17l-.25-.1-.54-.14-.21,0-.24.1-.17-.13-.24.07-.36-.06-.27.28-.12.39-.08.59,0,.34.22.07,0,.6.08.2.08.23,0,.28.18.21.36.12.11,0,.49,0,.24.23.25.2.28.1.08.12h.18l.39.25.45.14.29,0,.32.28h.42l.22.16.45.07h.31l.28.18.24,0,.35.12.23-.14.38.14.65-.05.37-.21.23-.28.46,0,.35-.1.08.19.88-.3.47-.37.4-.13.18-.17.25,0,.06-.18L85,9.57l.55-.42.1-.19V8.63l.26-.38.14-.14L86,7.86l.09-.1.22,0,.31-.2.29,0,.46.17,0,.17.2,0,.1.42-.06.49-.12.06-.21.53.06.17-.54.26-.07.16-.16.22-.16.37-.26.1L86,11l0,.28-.1,0-.29.69-.32.23-.28.36-.15,0-.06.21-.21,0-.06.24-.24.21-.18.06-.28.18-.15.26-.35.19-.28.12,0,.2-.44.25-.15,0a1.55,1.55,0,0,0-.37.24c-.08.1-.32.47-.32.47l-.29-.11L81.15,15H81l-.18-.22-.35-.3-.47-.1L79.58,14H79.3L79,13.76l-.36-.24-.38-.41-.2,0L77.68,13l-.14,0-.39-.14-.32-.09-.28-.16-.18-.2-.25.06-.26-.16-.51,0-.4,0-.25-.16-.55-.29-.26-.12-.43-.19-.37-.14-.27-.53,0-.17-.12-.07-.21-.45,0-.22-.13-.16,0-.24-.15-.38L71.94,9,72,8.82l-.2-.49-.1-.16,0-.33.12-.35-.18-.22.07-.16V6.7l-.09-.12.08-.2V6l-.09-.31.2-.28L72,5l0-.26-.12-.16L72.2,4Z" fill="#fff"/>
      </g>
    </g>
    <g>
      <path d="M39.71,23.09c.16.27.3.54.46.79h0c.17-.27.34-.58.5-.86l.61-1.1a3,3,0,0,0,.5-1.1,5,5,0,0,0,.5,0l.58,0a.11.11,0,0,1,0,.15h-.13c-.42,0-.47.14-.46.54,0,.61,0,1.67.07,2.49,0,.29,0,.45.32.47l.21,0s0,.12,0,.13H41.31a.08.08,0,0,1,0-.13l.18,0c.33,0,.33-.12.33-.49l0-2.39h0c0,.06-.29.52-.42.75l-.59,1c-.29.51-.58,1-.7,1.3a.09.09,0,0,1-.07,0s-.05,0-.06,0a12.2,12.2,0,0,0-.58-1.14l-.59-1.1c-.13-.27-.27-.57-.41-.82h0c0,.35-.05.68-.07,1s0,.86,0,1.35,0,.51.29.53l.24,0c.05,0,.05.12,0,.13H37.37a.08.08,0,0,1,0-.13l.15,0c.27,0,.36-.07.4-.47s.07-.69.11-1.26.06-1,.08-1.28,0-.45-.44-.49h-.11s0-.13,0-.15l.52,0c.15,0,.32,0,.54,0a1.92,1.92,0,0,0,.33.95Z" fill="#fff"/>
      <path d="M44,21.71c0-.61,0-.71-.39-.73h-.17s0-.13,0-.15l.84,0,.8,0s.06.13,0,.15h-.17c-.39,0-.39.12-.39.73v2c0,.61,0,.69.39.73l.17,0s0,.12,0,.13H43.43s0-.1,0-.13l.17,0c.38,0,.39-.12.39-.73Z" fill="#fff"/>
      <path d="M49.73,23.65c0,.17,0,.85,0,1s0,.06-.12.06-.27-.3-.84-.86l-1.53-1.52-.75-.77h0a1.21,1.21,0,0,0,0,.38v1.24a4,4,0,0,0,.11,1.19.5.5,0,0,0,.34.11l.2,0s0,.11,0,.13H45.65a.08.08,0,0,1,0-.13l.17,0a.44.44,0,0,0,.3-.12,4.9,4.9,0,0,0,.08-1.18V21.53a.46.46,0,0,0-.15-.41.76.76,0,0,0-.4-.14h-.12s0-.13,0-.15c.28,0,.63,0,.75,0l.3,0a7.54,7.54,0,0,0,1.13,1.26l.63.63c.45.44.77.76,1.08,1h0s0-.11,0-.24V22.28a3.45,3.45,0,0,0-.13-1.19s-.14-.09-.4-.11h-.12s0-.13,0-.15l.77,0,.67,0a.09.09,0,0,1,0,.15h-.1a.61.61,0,0,0-.36.12,3.77,3.77,0,0,0-.1,1.18Z" fill="#fff"/>
      <path d="M51.34,21.71c0-.61,0-.71-.4-.73h-.17s0-.13,0-.15l.83,0,.82,0s0,.13,0,.15h-.17c-.38,0-.39.12-.39.73v2c0,.61,0,.69.39.73l.17,0s0,.12,0,.13H50.78s-.05-.1,0-.13l.17,0c.38,0,.4-.12.4-.73Z" fill="#fff"/>
      <path d="M54.18,24.71a2.25,2.25,0,0,1-1-.21,3.08,3.08,0,0,1-.18-.8s.14-.05.16,0a1.16,1.16,0,0,0,1.14.85c.55,0,.81-.31.81-.65a.85.85,0,0,0-.53-.81l-.62-.35a1.21,1.21,0,0,1-.71-1c0-.54.48-1,1.33-1a3,3,0,0,1,.62.07,1.11,1.11,0,0,0,.23,0,2.57,2.57,0,0,1,.11.7s-.13.05-.16,0a.84.84,0,0,0-.9-.64c-.64,0-.77.37-.77.63a.9.9,0,0,0,.55.71l.53.29a1.27,1.27,0,0,1,.82,1.09C55.58,24.29,55,24.71,54.18,24.71Z" fill="#fff"/>
      <path d="M58.33,23.76c0,.6,0,.69.39.72l.21,0s0,.12,0,.13H57.15s0-.1,0-.13l.23,0c.38,0,.41-.12.41-.72V21.2c0-.18,0-.18-.2-.18h-.35a1.42,1.42,0,0,0-.81.15.87.87,0,0,0-.29.39.17.17,0,0,1-.18,0,4.68,4.68,0,0,0,.25-.85.15.15,0,0,1,.13,0c0,.17.25.17.55.17h2.66c.35,0,.41,0,.51-.16s.11,0,.12,0a2.74,2.74,0,0,0-.09.87.15.15,0,0,1-.18,0c0-.15-.06-.36-.16-.42A1.35,1.35,0,0,0,59,21h-.47c-.19,0-.19,0-.19.19Z" fill="#fff"/>
      <path d="M61.09,21.71c0-.54,0-.65-.3-.67l-.2,0a.08.08,0,0,1,0-.14c.37,0,.82-.05,1.46-.05a2.55,2.55,0,0,1,1.1.18.85.85,0,0,1,.54.8,1.07,1.07,0,0,1-.82.95s0,.1,0,.15a6.32,6.32,0,0,0,1.32,1.51.82.82,0,0,0,.45.17s0,.05,0,.07a1.07,1.07,0,0,1-.29,0A1.53,1.53,0,0,1,63,24c-.17-.22-.44-.62-.64-.87a.51.51,0,0,0-.47-.18c-.3,0-.31,0-.31.12v.72c0,.6,0,.67.4.72l.13,0s0,.12,0,.13h-1.6s0-.1,0-.13l.16,0c.38,0,.4-.12.4-.72Zm.53.81c0,.11,0,.17,0,.19s.11,0,.46,0a1.18,1.18,0,0,0,.67-.15.77.77,0,0,0,.33-.71c0-.45-.32-.88-1.05-.88-.41,0-.43,0-.43.18Z" fill="#fff"/>
      <path d="M66.39,23.75c0,.61,0,.71.4.73l.24,0a.09.09,0,0,1,0,.13H65.26s-.05-.1,0-.13l.21,0c.38,0,.39-.12.39-.73v-.29a1,1,0,0,0-.21-.71l-.77-1.32c-.23-.37-.32-.41-.52-.43l-.19,0s0-.13,0-.15l.76,0,.7,0c.06,0,.06.11,0,.15h-.09c-.22,0-.27.06-.27.1a2.86,2.86,0,0,0,.2.44c.25.43.49.88.75,1.27.2-.3.42-.63.61-1a5.1,5.1,0,0,0,.42-.76S67.17,21,67,21H66.9c-.05,0-.05-.13,0-.15l.63,0,.61,0a.1.1,0,0,1,0,.15L68,21c-.34.05-.54.41-.87.9l-.42.62a1.2,1.2,0,0,0-.3.93Z" fill="#fff"/>
      <path d="M69.89,22.77a2.14,2.14,0,0,1,2.34-2,2,2,0,0,1,2.26,2,2.33,2.33,0,0,1-4.6.06Zm4,.13a1.75,1.75,0,0,0-1.73-2,1.51,1.51,0,0,0-1.56,1.66,1.77,1.77,0,0,0,1.76,1.94A1.49,1.49,0,0,0,73.84,22.9Z" fill="#fff"/>
      <path d="M76.18,22.46c0,.16,0,.16.22.16h.44a2,2,0,0,0,.55-.05c.08,0,.13-.05.18-.2l.05-.23a.17.17,0,0,1,.17,0c0,.14,0,.38,0,.59s0,.42,0,.55a.14.14,0,0,1-.17,0l-.07-.22a.28.28,0,0,0-.21-.22,2.68,2.68,0,0,0-.5,0H76.4c-.2,0-.22,0-.22.16v.79c0,.6,0,.69.4.72l.22,0s0,.12,0,.13H75.1a.09.09,0,0,1,0-.13l.17,0c.37,0,.39-.12.39-.72V21.7c0-.6,0-.68-.39-.72h-.11s0-.13,0-.15l.76,0h1.2a8.78,8.78,0,0,0,.89,0c0,.27,0,.54,0,.77,0,0-.11,0-.15,0-.06-.26-.13-.48-.46-.54a2.75,2.75,0,0,0-.64,0h-.4c-.19,0-.19,0-.19.23Z" fill="#fff"/>
      <path d="M81.08,21.24a3.09,3.09,0,0,1,1.77-.49,5.42,5.42,0,0,1,1.16.14.65.65,0,0,0,.19,0,6,6,0,0,0,.09.84.15.15,0,0,1-.18,0c-.1-.39-.39-.83-1.35-.83a1.68,1.68,0,0,0-1.85,1.74,1.8,1.8,0,0,0,2,1.86,1.36,1.36,0,0,0,1.36-.81.16.16,0,0,1,.18,0,2.11,2.11,0,0,1-.32.79.79.79,0,0,0-.22,0,4.27,4.27,0,0,1-1,.13,3.17,3.17,0,0,1-1.63-.38,1.79,1.79,0,0,1-.11-3.09Z" fill="#fff"/>
      <path d="M88.5,22.28a3.69,3.69,0,0,0-.13-1.19c-.05-.07-.16-.1-.32-.12h-.17a.09.09,0,0,1,0-.14l.74,0,.69,0s0,.11,0,.14h-.17a.44.44,0,0,0-.32.14,4.15,4.15,0,0,0-.1,1.17v.65a1.79,1.79,0,0,1-.45,1.36,1.84,1.84,0,0,1-1.25.42,2.11,2.11,0,0,1-1.24-.32,1.53,1.53,0,0,1-.51-1.34V21.7c0-.6,0-.7-.38-.73h-.17s0-.12,0-.14l.81,0,.81,0s0,.12,0,.14h-.15c-.39,0-.4.13-.4.73v1.23c0,.93.33,1.53,1.33,1.53s1.32-.65,1.32-1.52Z" fill="#fff"/>
      <path d="M90.26,21.7c0-.6,0-.7-.43-.72h-.16s0-.13,0-.15l.85,0,.81,0s0,.13,0,.15h-.17c-.38,0-.39.12-.39.72v2c0,.36,0,.5.13.61s.2.13.72.13a2,2,0,0,0,.8-.07,1.22,1.22,0,0,0,.43-.56s.16,0,.16,0a4,4,0,0,1-.27.8H89.68a.09.09,0,0,1,0-.13l.19,0c.39,0,.4-.12.4-.72Z" fill="#fff"/>
      <path d="M94.81,23.76c0,.6,0,.69.39.72l.21,0s0,.12,0,.13H93.62s-.05-.1,0-.13l.24,0c.37,0,.41-.12.41-.72V21.2c0-.18,0-.18-.2-.18h-.36a1.46,1.46,0,0,0-.81.15,1,1,0,0,0-.29.39.17.17,0,0,1-.18,0,4.68,4.68,0,0,0,.25-.85.15.15,0,0,1,.13,0c0,.17.26.17.56.17H96c.35,0,.42,0,.52-.16s.1,0,.11,0a3.06,3.06,0,0,0-.09.87c0,.05-.14.05-.18,0s-.06-.36-.17-.42a1.27,1.27,0,0,0-.75-.15H95c-.2,0-.18,0-.18.19Z" fill="#fff"/>
      <path d="M100.68,22.28a3.72,3.72,0,0,0-.12-1.19c0-.07-.16-.1-.33-.12h-.16a.1.1,0,0,1,0-.14l.75,0,.69,0a.1.1,0,0,1,0,.14h-.15a.44.44,0,0,0-.33.14,4.15,4.15,0,0,0-.1,1.17v.65a1.54,1.54,0,0,1-1.71,1.78A2.07,2.07,0,0,1,98,24.39a1.48,1.48,0,0,1-.51-1.34V21.7c0-.6,0-.7-.4-.73H97a.1.1,0,0,1,0-.14l.82,0,.81,0s.06.12,0,.14h-.15c-.38,0-.4.13-.4.73v1.23c0,.93.33,1.53,1.33,1.53s1.31-.65,1.31-1.52Z" fill="#fff"/>
      <path d="M102.45,21.71c0-.54,0-.65-.29-.67L102,21a.09.09,0,0,1,0-.14c.36,0,.81-.05,1.46-.05a2.48,2.48,0,0,1,1.09.18.85.85,0,0,1,.55.8,1.09,1.09,0,0,1-.82.95s0,.1,0,.15a6.32,6.32,0,0,0,1.32,1.51.82.82,0,0,0,.45.17s0,.05,0,.07a1.07,1.07,0,0,1-.29,0,1.55,1.55,0,0,1-1.37-.71c-.16-.22-.43-.62-.63-.87s-.2-.18-.47-.18-.3,0-.3.12v.72c0,.6,0,.67.39.72l.14,0s0,.12,0,.13h-1.59a.09.09,0,0,1,0-.13l.17,0c.38,0,.39-.12.39-.72Zm.54.81a.72.72,0,0,0,0,.19,1.33,1.33,0,0,0,.46,0,1.18,1.18,0,0,0,.67-.15.77.77,0,0,0,.33-.71c0-.45-.31-.88-1-.88-.41,0-.42,0-.42.18Z" fill="#fff"/>
      <path d="M106.68,21.7c0-.6,0-.68-.4-.72h-.11s0-.13,0-.15l.78,0h1.23a8.78,8.78,0,0,0,.89,0,6.44,6.44,0,0,1,.1.77s-.13,0-.16,0c-.11-.27-.16-.48-.5-.54a2.66,2.66,0,0,0-.64,0h-.47c-.2,0-.2,0-.2.23v1.14c0,.17,0,.17.22.17h.38a3,3,0,0,0,.56,0c.08,0,.12-.06.15-.2l.06-.24a.15.15,0,0,1,.17,0c0,.14,0,.36,0,.58s0,.42,0,.55a.15.15,0,0,1-.17,0l-.06-.23c0-.1-.07-.19-.21-.21a1.87,1.87,0,0,0-.5,0h-.38c-.19,0-.22,0-.22.16v.81c0,.3,0,.5.13.59s.22.13.79.13a2.27,2.27,0,0,0,.84-.08,1.52,1.52,0,0,0,.47-.55.11.11,0,0,1,.16,0,3.83,3.83,0,0,1-.3.78h-3.23a.09.09,0,0,1,0-.13l.22,0c.38,0,.41-.12.41-.72Z" fill="#fff"/>
    </g>
  </g>
</svg>
