<svg xmlns="http://www.w3.org/2000/svg" viewBox="0 0 176 254">
  
  <g>
    <g>
      <rect x="22.41" y="44.75" width="127.28" height="60.17" fill="#1b507b"/>
      <g>
        <rect x="69.94" y="67.12" width="9.02" height="21.53" fill="#6186b6"/>
        <line x1="69.94" y1="72.64" x2="78.96" y2="72.64" fill="none" stroke="#1b507b" stroke-miterlimit="10" stroke-width="1.05"/>
        <line x1="70.19" y1="82.02" x2="79.21" y2="82.02" fill="none" stroke="#1b507b" stroke-miterlimit="10" stroke-width="1.05"/>
        <line x1="74.45" y1="67.12" x2="74.45" y2="88.65" fill="none" stroke="#1b507b" stroke-miterlimit="10" stroke-width="1.05"/>
      </g>
      <g>
        <rect x="99.51" y="67.12" width="9.51" height="21.53" fill="#6186b6"/>
        <line x1="99.51" y1="72.64" x2="109.02" y2="72.64" fill="none" stroke="#1b507b" stroke-miterlimit="10" stroke-width="1.05"/>
        <line x1="99.77" y1="82.02" x2="109.28" y2="82.02" fill="none" stroke="#1b507b" stroke-miterlimit="10" stroke-width="1.05"/>
        <line x1="104.26" y1="67.12" x2="104.26" y2="88.65" fill="none" stroke="#1b507b" stroke-miterlimit="10" stroke-width="1.05"/>
      </g>
      <rect x="54.9" y="67.12" width="7.02" height="24.29" fill="#6186b6"/>
      <rect x="117.55" y="67.12" width="6.01" height="24.29" fill="#6186b6"/>
      <rect x="84.97" y="67.12" width="8.52" height="24.29" fill="#6186b6"/>
      <rect x="51.89" y="88.72" width="75.68" height="16.48" fill="#1b507b"/>
      <rect x="139.99" y="44.49" width="31.07" height="60.72" transform="translate(311.04 149.69) rotate(-180)" fill="#6186b6"/>
      <g>
        <rect x="4.78" y="44.49" width="31.07" height="60.72" fill="#6186b6"/>
        <g>
          <rect x="15.81" y="67.12" width="9.02" height="21.53" fill="#1b507b"/>
          <line x1="15.81" y1="72.64" x2="24.83" y2="72.64" fill="none" stroke="#89c5e2" stroke-miterlimit="10" stroke-width="0.52"/>
          <line x1="16.06" y1="82.02" x2="25.08" y2="82.02" fill="none" stroke="#89c5e2" stroke-miterlimit="10" stroke-width="0.52"/>
          <line x1="20.32" y1="67.12" x2="20.32" y2="88.65" fill="none" stroke="#89c5e2" stroke-miterlimit="10" stroke-width="0.52"/>
        </g>
        <rect x="4.78" y="32.9" width="28.07" height="11.59" fill="#1b507b"/>
        <line x1="5.03" y1="94.17" x2="33.1" y2="94.17" fill="none" stroke="#1f2b60" stroke-miterlimit="10" stroke-width="0.58"/>
      </g>
      <g>
        <rect x="153.9" y="67.12" width="9.02" height="21.53" transform="translate(316.83 155.77) rotate(-180)" fill="#1b507b"/>
        <line x1="162.93" y1="72.64" x2="153.9" y2="72.64" fill="none" stroke="#89c5e2" stroke-miterlimit="10" stroke-width="0.52"/>
        <line x1="162.68" y1="82.02" x2="153.65" y2="82.02" fill="none" stroke="#89c5e2" stroke-miterlimit="10" stroke-width="0.52"/>
        <line x1="158.41" y1="67.12" x2="158.41" y2="88.65" fill="none" stroke="#89c5e2" stroke-miterlimit="10" stroke-width="0.52"/>
      </g>
      <rect x="142.99" y="32.9" width="28.07" height="11.59" transform="translate(314.05 77.38) rotate(-180)" fill="#1b507b"/>
      <line x1="170.81" y1="94.17" x2="142.74" y2="94.17" fill="none" stroke="#1f2b60" stroke-miterlimit="10" stroke-width="0.58"/>
      <polygon points="87.98 8.88 27.59 29.86 27.59 44.76 87.98 44.76 148.37 44.76 148.37 29.86 87.98 8.88" fill="#b9c5d6"/>
      <polygon points="87.98 13.02 39.03 31.24 87.98 31.24 136.93 31.24 87.98 13.02" fill="#e8f4f5"/>
      <g>
        <rect x="32.85" y="44.49" width="6.01" height="49.68" fill="#b9c5d6"/>
        <line x1="32.85" y1="49.59" x2="39.03" y2="49.59" fill="none" stroke="#6186b6" stroke-miterlimit="10" stroke-width="1.05"/>
        <rect x="31.35" y="94.17" width="9.02" height="11.04" fill="#b9c5d6"/>
      </g>
      <g>
        <rect x="48.89" y="44.49" width="6.01" height="49.68" fill="#b9c5d6"/>
        <line x1="48.89" y1="49.59" x2="55.07" y2="49.59" fill="none" stroke="#6186b6" stroke-miterlimit="10" stroke-width="1.05"/>
        <rect x="47.38" y="94.17" width="9.02" height="11.04" fill="#b9c5d6"/>
      </g>
      <g>
        <rect x="123.56" y="44.49" width="6.01" height="49.68" fill="#b9c5d6"/>
        <line x1="123.56" y1="49.59" x2="129.75" y2="49.59" fill="none" stroke="#6186b6" stroke-miterlimit="10" stroke-width="1.05"/>
        <rect x="122.06" y="94.17" width="9.02" height="11.04" fill="#b9c5d6"/>
      </g>
      <g>
        <rect x="139.6" y="44.49" width="6.01" height="49.68" fill="#b9c5d6"/>
        <line x1="139.6" y1="49.59" x2="145.78" y2="49.59" fill="none" stroke="#6186b6" stroke-miterlimit="10" stroke-width="1.05"/>
        <rect x="138.1" y="94.17" width="9.02" height="11.04" fill="#b9c5d6"/>
      </g>
      <rect x="63.92" y="45.04" width="6.01" height="43.69" fill="#b9c5d6"/>
      <rect x="78.96" y="45.04" width="6.01" height="43.69" fill="#b9c5d6"/>
      <rect x="93.49" y="45.04" width="6.01" height="43.69" fill="#b9c5d6"/>
      <rect x="109.03" y="45.04" width="6.01" height="43.69" fill="#b9c5d6"/>
      <line x1="4.78" y1="38.69" x2="171.1" y2="38.69" fill="none" stroke="#6186b6" stroke-miterlimit="10" stroke-width="1.05"/>
    </g>
    <line x1="56.4" y1="96.97" x2="122.06" y2="96.97" fill="none" stroke="#6186b6" stroke-miterlimit="10" stroke-width="1.05"/>
    <polygon points="63.43 138.51 49.62 138.51 35.8 138.51 21.99 138.51 8.18 138.51 8.18 254 21.99 254 35.8 254 49.62 254 63.43 254 77.24 254 77.24 138.51 63.43 138.51" fill="#6186b6"/>
    <text transform="translate(13.91 156.26) scale(0.83 1)" font-size="12.39" fill="#ecf6fc"  font-weight="700" letter-spacing="0.03em">10%</text>
    <rect x="42.15" y="138.51" width="129.07" height="75.86" fill="#9ed7f5"/>
    <text transform="translate(49 161.21) scale(0.83 1)" font-size="20.58" fill="#1b507b"  font-weight="700" letter-spacing="0.02em">30%</text>
    <rect x="42.15" y="187.2" width="129.07" height="66.8" fill="#52bdbe"/>
    <text transform="translate(49 209.9) scale(0.83 1)" font-size="20.58" fill="#fff"  font-weight="700" letter-spacing="0.02em">60%</text>
  </g>
</svg>
