<svg xmlns="http://www.w3.org/2000/svg" xmlns:xlink="http://www.w3.org/1999/xlink" viewBox="0 0 322 271">
  <defs>
    <linearGradient id="a" data-name="未命名漸層 49" x1="33.12" y1="135.5" x2="275.17" y2="135.5" gradientUnits="userSpaceOnUse">
      <stop offset="0" stop-color="#96d3e9"/>
      <stop offset="0.99" stop-color="#c2e4ed"/>
    </linearGradient>
    <linearGradient id="b" x1="7912.86" y1="110.28" x2="7912.86" y2="98.3" gradientTransform="matrix(-1, -0.02, -0.02, 1, 8065.49, 72.3)" xlink:href="#a"/>
    <linearGradient id="c" x1="7934.13" y1="110.28" x2="7934.13" y2="98.3" gradientTransform="matrix(-1, -0.02, -0.02, 1, 8065.49, 72.3)" xlink:href="#a"/>
    <linearGradient id="d" x1="7899.86" y1="136.37" x2="7899.86" y2="127.41" gradientTransform="matrix(-1, -0.02, -0.02, 1, 8065.49, 72.3)" xlink:href="#a"/>
    <linearGradient id="e" x1="7915.78" y1="136.37" x2="7915.78" y2="127.41" gradientTransform="matrix(-1, -0.02, -0.02, 1, 8065.49, 72.3)" xlink:href="#a"/>
    <linearGradient id="f" x1="7849.08" y1="184.26" x2="7849.08" y2="175.3" gradientTransform="matrix(-1, -0.02, -0.02, 1, 8065.49, 72.3)" xlink:href="#a"/>
    <linearGradient id="g" x1="7864.99" y1="184.26" x2="7864.99" y2="175.3" gradientTransform="matrix(-1, -0.02, -0.02, 1, 8065.49, 72.3)" xlink:href="#a"/>
  </defs>
  
  <g>
    <path d="M196.17,270.74a6.13,6.13,0,0,1-3.77-1.3l-27.11-21.2-28-8.52a6.1,6.1,0,0,1-4.34-5.85v-3.15a6.86,6.86,0,0,1,.07-.92,6.14,6.14,0,0,1-4.75.73,6.13,6.13,0,0,1-3.84-3l-6.06-11.13h-1a6.12,6.12,0,0,1-6.11-6.12v-1.89a6.08,6.08,0,0,1,.62-2.69l-1.56-2.15a6.1,6.1,0,0,1-1.14-3,10.67,10.67,0,0,1-1-.91l-9.9-10.54a9.68,9.68,0,0,1-2.64-6.65V165a9.71,9.71,0,0,1,1.69-5.47l1.47-2.16V153.2a9.61,9.61,0,0,1,2.85-6.86l1.58-1.58V139.3a9.62,9.62,0,0,1,1.19-4.65l-3.21-4.21a9.76,9.76,0,0,1-2-6.28,9.7,9.7,0,0,1-3-7v-4.84a9.72,9.72,0,0,1,3.65-7.59,9.71,9.71,0,0,1-7.74-5l-4.1-7.53-10.86-7.1-1.21.71s0,.11,0,.16a9.78,9.78,0,0,1-5,7.14l-29.7,16A9.71,9.71,0,0,1,27,100.54V97.38A9.75,9.75,0,0,1,31.8,89l8.14-4.79c-.18-.25-.34-.51-.5-.78a9.61,9.61,0,0,1-1.22-3.9A9.67,9.67,0,0,1,35.64,73V68.32a9.7,9.7,0,0,1,.88-4c0-.21,0-.41,0-.61a9.75,9.75,0,0,1,2.84-7.08l4.85-4.85a9.36,9.36,0,0,1,1.23-1,9.75,9.75,0,0,1-1.34-4.93V43.25a9.7,9.7,0,0,1,1.79-5.61c0-.1,0-.21.08-.31a9.69,9.69,0,0,1,6.63-6.57l9-2.59V20.92a9.72,9.72,0,0,1,6.53-9.17L99.68.8a9.53,9.53,0,0,1,3.18-.54,9.78,9.78,0,0,1,6.9,2.88l19.38,19.59a9.61,9.61,0,0,1,2.7,5.41,9.42,9.42,0,0,1,2.79,2l14.75-4a9.71,9.71,0,0,1,12.27,9.37v3.17l11.45,4.69a9.68,9.68,0,0,1,5.17,5,9.69,9.69,0,0,1,3.61,1.63l4.17-.84a10.19,10.19,0,0,1,1.9-.18,9.72,9.72,0,0,1,7.49,3.51l.36.45a8.44,8.44,0,0,1,1.43-.3l.92-.12-.1-2.28a9.73,9.73,0,0,1,4-8.29l8.22-5.9A9.67,9.67,0,0,1,216,34.17h1.68a9.73,9.73,0,0,1,9.72,9.71V50l.31-.06a9.48,9.48,0,0,1,1.77-.16,9.69,9.69,0,0,1,6.1,2.16L241,56.34a9.68,9.68,0,0,1,3.61,7.55v4a9.73,9.73,0,0,1-2.84,6.88,9.78,9.78,0,0,1-4.54,6.88l-3.64,2.23h8a9.66,9.66,0,0,1,8.64,5.28l3.92,7.66a10.38,10.38,0,0,1,1.11-.09h.23a9.74,9.74,0,0,1,7.86,4l1.57,2.17a9.74,9.74,0,0,1,8.49,9.64v11a8.68,8.68,0,0,1,1.59.71,9.78,9.78,0,0,1,4.6,5.91l1.26,4.63a9.72,9.72,0,0,1-5.07,11.27l-14.54,7.16c-.25.12-.51.24-.78.34a9.67,9.67,0,0,1,2,5.9v2.32a9.73,9.73,0,0,1-9.71,9.71h-3.72l-1,.93a9.63,9.63,0,0,1-6.66,2.65c-.32,0-.63,0-.94,0a9.7,9.7,0,0,1-8.54,5.1h-3.59a9.69,9.69,0,0,1-2.73,4.87,9.74,9.74,0,0,1-2,5.3,9.67,9.67,0,0,1-3.58,5.89l-9.75,7.62V216a9.67,9.67,0,0,1-4.32,8.08l-3.16,2.11a9.72,9.72,0,0,1-9.06.91,10.23,10.23,0,0,1-1.76-.94,6.1,6.1,0,0,1-1.5,5.63L188.38,234v1.57c0,.14,0,.28,0,.42h1.69a6.1,6.1,0,0,1,6.11,6.11v6l3.12,3.84h6.57A6.11,6.11,0,0,1,212,258.1v2.31a6.11,6.11,0,0,1-6.11,6.12H202.1l-.57,1a6.15,6.15,0,0,1-4.13,3.05A6.41,6.41,0,0,1,196.17,270.74Zm-25.86-46.25,1.41-1.35a6.11,6.11,0,0,1,4.23-1.7h10.11a6,6,0,0,1,2.47.53,9.64,9.64,0,0,1-.6-1.91l-1.07-5.12h-7.12a9.66,9.66,0,0,1-6.1-2.14l-6.86,7.73a10.13,10.13,0,0,1-1.11,1.06Zm48.25-109.81.34.18v-6.31a9.72,9.72,0,0,1,.73-3.7,9.74,9.74,0,0,1-.1-9.73l3.26-5.76c-.25,0-.51,0-.77,0L219.86,92a9.72,9.72,0,0,1-3.51,2.67A9.72,9.72,0,0,1,210,98.18a9.57,9.57,0,0,1-3.37,1.5l-2,3.6,1.92,5.11Z" fill="#dff0fa"/>
    <path d="M275.05,136.46l-1.27-4.64a3.61,3.61,0,0,0-3.47-2.65,3.76,3.76,0,0,0-1,.14l-.4.12-1.54-2.37V112.55a3.6,3.6,0,0,0-3.6-3.6h-1.95l-3.35-4.62a3.61,3.61,0,0,0-2.91-1.49h-.09a3.61,3.61,0,0,0-2.92,1.63l-2.87,4.39v-6.63a3.61,3.61,0,0,0-.4-1.64L244.87,92a3.61,3.61,0,0,0-3.2-2H231.56a3.58,3.58,0,0,0-3.13,1.83l-3.58,6.32A3.59,3.59,0,0,0,226,102.9l1,.7,0,.64-1.49,2.4a3.57,3.57,0,0,0-.55,1.91v11.23l-7.34,3.6v-.09a3.6,3.6,0,0,0-1.94-3.19l-14.15-7.37-3.77-10,5.09-8.93h1.48a3.59,3.59,0,0,0,3.05-1.69h1.38a3.58,3.58,0,0,0,3.49-2.74h.09a3.6,3.6,0,0,0,2.77-1.31l4.57-5.51c.12.09.25.17.38.25a3.6,3.6,0,0,0,3.64-.07l10.32-6.32a3.62,3.62,0,0,0,1.72-3.07v-2a3.6,3.6,0,0,0,2.73-3.5v-4a3.63,3.63,0,0,0-1.33-2.8l-5.48-4.42a3.61,3.61,0,0,0-2.26-.8,3.68,3.68,0,0,0-.66.06,3.58,3.58,0,0,0-2.45,1.74l-2.14,3.69v-.42A3.61,3.61,0,0,0,222,57.62a3.19,3.19,0,0,0-.73-.21V43.88a3.6,3.6,0,0,0-3.6-3.59H216a3.59,3.59,0,0,0-2.1.67l-8.21,5.9a3.58,3.58,0,0,0-1.5,3.07l.21,5.06a3.62,3.62,0,0,0,1.12,2.46l1.85,1.75-.61,1-.44-.64a3.6,3.6,0,0,0-3-1.55,3.55,3.55,0,0,0-.46,0l-4.85.63a3.62,3.62,0,0,0-3,2.5h-.35l-4-4.81A3.64,3.64,0,0,0,188,55a3.33,3.33,0,0,0-.7.07l-6.32,1.26a3.57,3.57,0,0,0-1.24.51l-.24-.53a3.58,3.58,0,0,0-3.29-2.15H173V52.31A3.6,3.6,0,0,0,170.78,49l-15.25-6.25V35.46a3.6,3.6,0,0,0-1.41-2.86,3.55,3.55,0,0,0-2.18-.74A3.4,3.4,0,0,0,151,32L132.45,37a4.12,4.12,0,0,0-.69.27L131,35.57a3.6,3.6,0,0,0-3.33-2.24h-1.88V29.56a3.57,3.57,0,0,0-1-2.53L105.42,7.44a3.64,3.64,0,0,0-2.56-1.07,3.7,3.7,0,0,0-1.18.2l-31.59,11a3.61,3.61,0,0,0-2.42,3.4v12a3.63,3.63,0,0,0-1,.14L54.26,36.63a3.6,3.6,0,0,0-2.45,2.44,3.45,3.45,0,0,0-.14,1.27,3.58,3.58,0,0,0-1.49,2.91v2.53a3.62,3.62,0,0,0,.88,2.35l2.74,3.16a3.61,3.61,0,0,0,2.47,1.24l-.19,0a3.6,3.6,0,0,0-2.92,3.09l-.06,0a3.59,3.59,0,0,0-4.6.4l-4.85,4.85a3.59,3.59,0,0,0-.46,4.51,3.6,3.6,0,0,0-1.43,2.88V73A3.6,3.6,0,0,0,45,76.52l-.16.28a3.59,3.59,0,0,0,3.09,5.43h5l-1,2.06-17,10a3.61,3.61,0,0,0-1.78,3.1v3.16a3.6,3.6,0,0,0,1.76,3.09,3.55,3.55,0,0,0,1.84.51,3.59,3.59,0,0,0,1.71-.43l29.7-16a3.6,3.6,0,0,0,1.31-5.12l8-4.71,15.33,10,4.83,8.89a3.59,3.59,0,0,0,3.16,1.88h3.16a3.7,3.7,0,0,0,1.69-.41l.61.3v9.57l-1.94,1.07a3.61,3.61,0,0,0-1.85,3.15v4.84a3.6,3.6,0,0,0,3.6,3.6h.36l-.84,2.7a3.57,3.57,0,0,0,.57,3.26l6.83,9a3.6,3.6,0,0,0-3.57,3.6v8L106,150.66a3.6,3.6,0,0,0-1,2.54v6.05L102.41,163a3.65,3.65,0,0,0-.62,2v17.48a3.59,3.59,0,0,0,1,2.46l9.9,10.54a3.86,3.86,0,0,0,1.35.9l1.28.48V200l6.1,8.43h-4v1.89H122l7.79,14.33,2.32-1.48L121,200.38h3.62l1,.39,15.56,26.57v3.37h-2.1v3.16l29.06,8.85,28,21.91,2.32-4.22h7.37V258.1h-9.48l-6.32-7.8v-8.21H178.48v-6.53h3.79v-4l3.79-4H176l-4.85,4.63-11.79-7.37v-7.15h.21a3.6,3.6,0,0,0,2.69-1.21l9-10.16h5.06a3.62,3.62,0,0,0,3.44,2.53h11.58a4,4,0,0,0,.5,0l2.09,10a3.62,3.62,0,0,0,2.16,2.6,3.65,3.65,0,0,0,3.36-.34l3.16-2.11a3.59,3.59,0,0,0,1.6-3v-15.1l12.1-9.45a3.59,3.59,0,0,0,1.38-2.83v-1a3.6,3.6,0,0,0,1.9-3.17V181.6a3.61,3.61,0,0,0,2.94-3.54v-4H232a3.6,3.6,0,0,0,3.59-3.6v-5l.74-.57a3.56,3.56,0,0,0,1.09,1.73l1.69,1.48a3.59,3.59,0,0,0,4.84-.1l2.75-2.6h6.15a3.6,3.6,0,0,0,3.6-3.59v-2.32a3.6,3.6,0,0,0-2-3.22l-1.8-.9v-7.24H257a3.5,3.5,0,0,0,1.59-.37l14.54-7.16A3.6,3.6,0,0,0,275.05,136.46Z" fill="url(#a)"/>
    <g>
      <path d="M166.73,67l-9.41-9.38a9.07,9.07,0,0,0-13,.16l-8.26,8.66" fill="url(#b)"/>
      <path d="M140.56,66.55l-4.3-4.28a9.07,9.07,0,0,0-13,.16l-3.57,3.74" fill="url(#c)"/>
    </g>
    <g>
      <path d="M175.52,85.94l-7-7a6.79,6.79,0,0,0-9.71.12l-6.18,6.47" fill="url(#d)"/>
      <path d="M155.94,85.58l-3.21-3.2a6.8,6.8,0,0,0-9.71.12l-2.67,2.8" fill="url(#e)"/>
    </g>
    <g>
      <path d="M225.42,134.76l-7-7a6.79,6.79,0,0,0-9.71.12l-6.18,6.48" fill="url(#f)"/>
      <path d="M205.84,134.4l-3.21-3.21a6.81,6.81,0,0,0-9.72.12l-2.67,2.8" fill="url(#g)"/>
    </g>
    <g>
      <rect x="195.71" y="168.6" width="44.29" height="17.95" fill="#fff"/>
      <g>
        <rect x="52.01" y="210.5" width="211.86" height="4.79" rx="2.39" ry="2.39" fill="#7cbce8"/>
        <rect x="274.64" y="210.5" width="20.35" height="4.79" rx="2.39" ry="2.39" fill="#7cbce8"/>
        <rect x="168.26" y="95.59" width="3.45" height="92.16" fill="#6186b6"/>
        <g>
          <polygon points="65.17 187.3 79.06 171.94 79.06 150.1 93.61 150.1 93.61 139.59 120.3 139.59 129.19 153.34 119.49 165.47 119.49 171.13 138.09 171.13 152.78 187.3 65.17 187.3" fill="#1b507b"/>
          <polygon points="254.73 186.9 56.01 186.9 56.01 194.98 261.57 194.98 254.73 186.9" fill="#6186b6"/>
          <polygon points="56.01 211.16 249.07 211.16 261.91 199.03 56.01 199.03 56.01 211.16" fill="#6186b6"/>
          <polygon points="261.57 194.98 56.01 194.98 56.01 199.03 261.91 199.03 263.63 197.41 261.57 194.98" fill="#1b507b"/>
          <polygon points="72.86 186.9 86.74 171.53 86.74 149.7 101.29 149.7 101.29 139.19 127.98 139.19 136.87 152.94 127.17 165.06 127.17 170.72 145.77 170.72 160.46 186.9 72.86 186.9" fill="#fff"/>
          <polygon points="127.17 144.04 127.17 157.79 133.64 152.13 127.17 144.04" fill="#1b507b"/>
          <rect x="104.53" y="144.04" width="4.04" height="5.66" fill="#1b507b"/>
          <rect x="111.81" y="144.04" width="4.04" height="5.66" fill="#1b507b"/>
          <rect x="99.68" y="153.74" width="4.04" height="5.66" fill="#1b507b"/>
          <rect x="90.78" y="162.64" width="4.04" height="5.66" fill="#1b507b"/>
          <rect x="106.95" y="153.74" width="4.04" height="5.66" fill="#1b507b"/>
          <circle cx="69.76" cy="186.9" r="5.72" fill="#1b507b"/>
          <circle cx="227.24" cy="186.9" r="5.72" fill="#1b507b"/>
          <circle cx="238.56" cy="186.9" r="5.72" fill="#1b507b"/>
          <circle cx="249.88" cy="186.9" r="5.72" fill="#1b507b"/>
          <polyline points="79.86 152.33 79.86 140.4 95.63 140.4" fill="none" stroke="#1b507b" stroke-miterlimit="10" stroke-width="0.76"/>
          <line x1="79.86" y1="143.23" x2="97.25" y2="143.23" fill="none" stroke="#1b507b" stroke-miterlimit="10" stroke-width="0.76"/>
          <line x1="56.01" y1="181.24" x2="255.54" y2="181.24" fill="none" stroke="#1b507b" stroke-miterlimit="10" stroke-width="0.76"/>
        </g>
        <g>
          <rect x="171.38" y="95.59" width="78.6" height="48.55" fill="#fff"/>
          <rect x="171.38" y="95.59" width="36.86" height="26.06" fill="#1b507b"/>
          <polygon points="174.39 96.61 174.73 97.67 175.85 97.67 174.95 98.33 175.29 99.39 174.39 98.73 173.49 99.39 173.83 98.33 172.93 97.67 174.04 97.67 174.39 96.61" fill="#fff"/>
          <polygon points="180.66 96.61 181.01 97.67 182.12 97.67 181.22 98.33 181.56 99.39 180.66 98.73 179.76 99.39 180.11 98.33 179.2 97.67 180.32 97.67 180.66 96.61" fill="#fff"/>
          <polygon points="186.77 96.61 187.11 97.67 188.23 97.67 187.32 98.33 187.67 99.39 186.77 98.73 185.87 99.39 186.21 98.33 185.31 97.67 186.42 97.67 186.77 96.61" fill="#fff"/>
          <polygon points="192.87 96.61 193.22 97.67 194.33 97.67 193.43 98.33 193.77 99.39 192.87 98.73 191.97 99.39 192.31 98.33 191.41 97.67 192.53 97.67 192.87 96.61" fill="#fff"/>
          <polygon points="198.97 96.61 199.32 97.67 200.43 97.67 199.53 98.33 199.88 99.39 198.97 98.73 198.07 99.39 198.42 98.33 197.51 97.67 198.63 97.67 198.97 96.61" fill="#fff"/>
          <polygon points="202.18 99.39 202.52 100.45 203.63 100.45 202.73 101.1 203.08 102.16 202.18 101.51 201.27 102.16 201.62 101.1 200.72 100.45 201.83 100.45 202.18 99.39" fill="#fff"/>
          <polygon points="196.06 99.39 196.4 100.45 197.51 100.45 196.61 101.1 196.96 102.16 196.06 101.51 195.15 102.16 195.5 101.1 194.6 100.45 195.71 100.45 196.06 99.39" fill="#fff"/>
          <polygon points="189.94 99.39 190.28 100.45 191.4 100.45 190.49 101.1 190.84 102.16 189.94 101.51 189.03 102.16 189.38 101.1 188.48 100.45 189.59 100.45 189.94 99.39" fill="#fff"/>
          <polygon points="183.64 99.39 183.99 100.45 185.1 100.45 184.2 101.1 184.55 102.16 183.64 101.51 182.74 102.16 183.09 101.1 182.19 100.45 183.3 100.45 183.64 99.39" fill="#fff"/>
          <polygon points="177.52 99.39 177.87 100.45 178.98 100.45 178.08 101.1 178.43 102.16 177.52 101.51 176.62 102.16 176.97 101.1 176.06 100.45 177.18 100.45 177.52 99.39" fill="#fff"/>
          <polygon points="205.25 96.61 205.59 97.67 206.71 97.67 205.81 98.33 206.15 99.39 205.25 98.73 204.35 99.39 204.69 98.33 203.79 97.67 204.91 97.67 205.25 96.61" fill="#fff"/>
          <polygon points="174.39 101.76 174.73 102.82 175.85 102.82 174.95 103.47 175.29 104.53 174.39 103.88 173.49 104.53 173.83 103.47 172.93 102.82 174.04 102.82 174.39 101.76" fill="#fff"/>
          <polygon points="180.66 101.76 181.01 102.82 182.12 102.82 181.22 103.47 181.56 104.53 180.66 103.88 179.76 104.53 180.11 103.47 179.2 102.82 180.32 102.82 180.66 101.76" fill="#fff"/>
          <polygon points="186.77 101.76 187.11 102.82 188.23 102.82 187.32 103.47 187.67 104.53 186.77 103.88 185.87 104.53 186.21 103.47 185.31 102.82 186.42 102.82 186.77 101.76" fill="#fff"/>
          <polygon points="192.87 101.76 193.22 102.82 194.33 102.82 193.43 103.47 193.77 104.53 192.87 103.88 191.97 104.53 192.31 103.47 191.41 102.82 192.53 102.82 192.87 101.76" fill="#fff"/>
          <polygon points="198.97 101.76 199.32 102.82 200.43 102.82 199.53 103.47 199.88 104.53 198.97 103.88 198.07 104.53 198.42 103.47 197.51 102.82 198.63 102.82 198.97 101.76" fill="#fff"/>
          <polygon points="202.18 104.53 202.52 105.59 203.63 105.59 202.73 106.25 203.08 107.31 202.18 106.65 201.27 107.31 201.62 106.25 200.72 105.59 201.83 105.59 202.18 104.53" fill="#fff"/>
          <polygon points="196.06 104.53 196.4 105.59 197.51 105.59 196.61 106.25 196.96 107.31 196.06 106.65 195.15 107.31 195.5 106.25 194.6 105.59 195.71 105.59 196.06 104.53" fill="#fff"/>
          <polygon points="189.94 104.53 190.28 105.59 191.4 105.59 190.49 106.25 190.84 107.31 189.94 106.65 189.03 107.31 189.38 106.25 188.48 105.59 189.59 105.59 189.94 104.53" fill="#fff"/>
          <polygon points="183.64 104.53 183.99 105.59 185.1 105.59 184.2 106.25 184.55 107.31 183.64 106.65 182.74 107.31 183.09 106.25 182.19 105.59 183.3 105.59 183.64 104.53" fill="#fff"/>
          <polygon points="177.52 104.53 177.87 105.59 178.98 105.59 178.08 106.25 178.43 107.31 177.52 106.65 176.62 107.31 176.97 106.25 176.06 105.59 177.18 105.59 177.52 104.53" fill="#fff"/>
          <polygon points="205.25 101.76 205.59 102.82 206.71 102.82 205.81 103.47 206.15 104.53 205.25 103.88 204.35 104.53 204.69 103.47 203.79 102.82 204.91 102.82 205.25 101.76" fill="#fff"/>
          <polygon points="174.39 106.9 174.73 107.96 175.85 107.96 174.95 108.62 175.29 109.68 174.39 109.02 173.49 109.68 173.83 108.62 172.93 107.96 174.04 107.96 174.39 106.9" fill="#fff"/>
          <polygon points="180.66 106.9 181.01 107.96 182.12 107.96 181.22 108.62 181.56 109.68 180.66 109.02 179.76 109.68 180.11 108.62 179.2 107.96 180.32 107.96 180.66 106.9" fill="#fff"/>
          <polygon points="186.77 106.9 187.11 107.96 188.23 107.96 187.32 108.62 187.67 109.68 186.77 109.02 185.87 109.68 186.21 108.62 185.31 107.96 186.42 107.96 186.77 106.9" fill="#fff"/>
          <polygon points="192.87 106.9 193.22 107.96 194.33 107.96 193.43 108.62 193.77 109.68 192.87 109.02 191.97 109.68 192.31 108.62 191.41 107.96 192.53 107.96 192.87 106.9" fill="#fff"/>
          <polygon points="198.97 106.9 199.32 107.96 200.43 107.96 199.53 108.62 199.88 109.68 198.97 109.02 198.07 109.68 198.42 108.62 197.51 107.96 198.63 107.96 198.97 106.9" fill="#fff"/>
          <polygon points="202.18 109.68 202.52 110.74 203.63 110.74 202.73 111.39 203.08 112.45 202.18 111.8 201.27 112.45 201.62 111.39 200.72 110.74 201.83 110.74 202.18 109.68" fill="#fff"/>
          <polygon points="196.06 109.68 196.4 110.74 197.51 110.74 196.61 111.39 196.96 112.45 196.06 111.8 195.15 112.45 195.5 111.39 194.6 110.74 195.71 110.74 196.06 109.68" fill="#fff"/>
          <polygon points="189.94 109.68 190.28 110.74 191.4 110.74 190.49 111.39 190.84 112.45 189.94 111.8 189.03 112.45 189.38 111.39 188.48 110.74 189.59 110.74 189.94 109.68" fill="#fff"/>
          <polygon points="183.64 109.68 183.99 110.74 185.1 110.74 184.2 111.39 184.55 112.45 183.64 111.8 182.74 112.45 183.09 111.39 182.19 110.74 183.3 110.74 183.64 109.68" fill="#fff"/>
          <polygon points="177.52 109.68 177.87 110.74 178.98 110.74 178.08 111.39 178.43 112.45 177.52 111.8 176.62 112.45 176.97 111.39 176.06 110.74 177.18 110.74 177.52 109.68" fill="#fff"/>
          <polygon points="205.25 106.9 205.59 107.96 206.71 107.96 205.81 108.62 206.15 109.68 205.25 109.02 204.35 109.68 204.69 108.62 203.79 107.96 204.91 107.96 205.25 106.9" fill="#fff"/>
          <polygon points="174.39 112.05 174.73 113.11 175.85 113.11 174.95 113.77 175.29 114.83 174.39 114.17 173.49 114.83 173.83 113.77 172.93 113.11 174.04 113.11 174.39 112.05" fill="#fff"/>
          <polygon points="180.66 112.05 181.01 113.11 182.12 113.11 181.22 113.77 181.56 114.83 180.66 114.17 179.76 114.83 180.11 113.77 179.2 113.11 180.32 113.11 180.66 112.05" fill="#fff"/>
          <polygon points="186.77 112.05 187.11 113.11 188.23 113.11 187.32 113.77 187.67 114.83 186.77 114.17 185.87 114.83 186.21 113.77 185.31 113.11 186.42 113.11 186.77 112.05" fill="#fff"/>
          <polygon points="192.87 112.05 193.22 113.11 194.33 113.11 193.43 113.77 193.77 114.83 192.87 114.17 191.97 114.83 192.31 113.77 191.41 113.11 192.53 113.11 192.87 112.05" fill="#fff"/>
          <polygon points="198.97 112.05 199.32 113.11 200.43 113.11 199.53 113.77 199.88 114.83 198.97 114.17 198.07 114.83 198.42 113.77 197.51 113.11 198.63 113.11 198.97 112.05" fill="#fff"/>
          <polygon points="202.18 114.83 202.52 115.89 203.63 115.89 202.73 116.54 203.08 117.6 202.18 116.95 201.27 117.6 201.62 116.54 200.72 115.89 201.83 115.89 202.18 114.83" fill="#fff"/>
          <polygon points="196.06 114.83 196.4 115.89 197.51 115.89 196.61 116.54 196.96 117.6 196.06 116.95 195.15 117.6 195.5 116.54 194.6 115.89 195.71 115.89 196.06 114.83" fill="#fff"/>
          <polygon points="189.94 114.83 190.28 115.89 191.4 115.89 190.49 116.54 190.84 117.6 189.94 116.95 189.03 117.6 189.38 116.54 188.48 115.89 189.59 115.89 189.94 114.83" fill="#fff"/>
          <polygon points="183.64 114.83 183.99 115.89 185.1 115.89 184.2 116.54 184.55 117.6 183.64 116.95 182.74 117.6 183.09 116.54 182.19 115.89 183.3 115.89 183.64 114.83" fill="#fff"/>
          <polygon points="177.52 114.83 177.87 115.89 178.98 115.89 178.08 116.54 178.43 117.6 177.52 116.95 176.62 117.6 176.97 116.54 176.06 115.89 177.18 115.89 177.52 114.83" fill="#fff"/>
          <polygon points="205.25 112.05 205.59 113.11 206.71 113.11 205.81 113.77 206.15 114.83 205.25 114.17 204.35 114.83 204.69 113.77 203.79 113.11 204.91 113.11 205.25 112.05" fill="#fff"/>
          <polygon points="174.39 117.2 174.73 118.26 175.85 118.26 174.95 118.91 175.29 119.97 174.39 119.32 173.49 119.97 173.83 118.91 172.93 118.26 174.04 118.26 174.39 117.2" fill="#fff"/>
          <polygon points="180.66 117.2 181.01 118.26 182.12 118.26 181.22 118.91 181.56 119.97 180.66 119.32 179.76 119.97 180.11 118.91 179.2 118.26 180.32 118.26 180.66 117.2" fill="#fff"/>
          <polygon points="186.77 117.2 187.11 118.26 188.23 118.26 187.32 118.91 187.67 119.97 186.77 119.32 185.87 119.97 186.21 118.91 185.31 118.26 186.42 118.26 186.77 117.2" fill="#fff"/>
          <polygon points="192.87 117.2 193.22 118.26 194.33 118.26 193.43 118.91 193.77 119.97 192.87 119.32 191.97 119.97 192.31 118.91 191.41 118.26 192.53 118.26 192.87 117.2" fill="#fff"/>
          <polygon points="198.97 117.2 199.32 118.26 200.43 118.26 199.53 118.91 199.88 119.97 198.97 119.32 198.07 119.97 198.42 118.91 197.51 118.26 198.63 118.26 198.97 117.2" fill="#fff"/>
          <polygon points="205.25 117.2 205.59 118.26 206.71 118.26 205.81 118.91 206.15 119.97 205.25 119.32 204.35 119.97 204.69 118.91 203.79 118.26 204.91 118.26 205.25 117.2" fill="#fff"/>
          <rect x="208.24" y="95.59" width="41.74" height="3.8" fill="#ec7163"/>
          <rect x="208.24" y="103.15" width="41.74" height="3.8" fill="#ec7163"/>
          <rect x="208.24" y="110.56" width="41.74" height="3.8" fill="#ec7163"/>
          <rect x="208.24" y="117.95" width="41.74" height="3.8" fill="#ec7163"/>
          <rect x="171.36" y="125.35" width="78.62" height="3.8" fill="#ec7163"/>
          <rect x="171.36" y="132.85" width="78.62" height="3.8" fill="#ec7163"/>
          <rect x="171.36" y="140.34" width="78.62" height="3.8" fill="#ec7163"/>
        </g>
      </g>
    </g>
  </g>
</svg>
