<svg xmlns="http://www.w3.org/2000/svg" xmlns:xlink="http://www.w3.org/1999/xlink" viewBox="0 0 322 271">
  <defs>
    <linearGradient id="a" data-name="未命名漸層 49" x1="33.12" y1="135.5" x2="275.17" y2="135.5" gradientUnits="userSpaceOnUse">
      <stop offset="0" stop-color="#96d3e9"/>
      <stop offset="0.99" stop-color="#c2e4ed"/>
    </linearGradient>
    <linearGradient id="b" x1="7912.86" y1="110.28" x2="7912.86" y2="98.3" gradientTransform="matrix(-1, -0.02, -0.02, 1, 8065.49, 72.3)" xlink:href="#a"/>
    <linearGradient id="c" x1="7934.13" y1="110.28" x2="7934.13" y2="98.3" gradientTransform="matrix(-1, -0.02, -0.02, 1, 8065.49, 72.3)" xlink:href="#a"/>
    <linearGradient id="d" x1="7899.86" y1="136.37" x2="7899.86" y2="127.41" gradientTransform="matrix(-1, -0.02, -0.02, 1, 8065.49, 72.3)" xlink:href="#a"/>
    <linearGradient id="e" x1="7915.78" y1="136.37" x2="7915.78" y2="127.41" gradientTransform="matrix(-1, -0.02, -0.02, 1, 8065.49, 72.3)" xlink:href="#a"/>
    <linearGradient id="f" x1="7849.08" y1="184.26" x2="7849.08" y2="175.3" gradientTransform="matrix(-1, -0.02, -0.02, 1, 8065.49, 72.3)" xlink:href="#a"/>
    <linearGradient id="g" x1="7864.99" y1="184.26" x2="7864.99" y2="175.3" gradientTransform="matrix(-1, -0.02, -0.02, 1, 8065.49, 72.3)" xlink:href="#a"/>
  </defs>
  
  <g>
    <path d="M196.17,270.74a6.13,6.13,0,0,1-3.77-1.3l-27.11-21.2-28-8.52a6.1,6.1,0,0,1-4.34-5.85v-3.15a6.86,6.86,0,0,1,.07-.92,6.14,6.14,0,0,1-4.75.73,6.13,6.13,0,0,1-3.84-3l-6.06-11.13h-1a6.12,6.12,0,0,1-6.11-6.12v-1.89a6.08,6.08,0,0,1,.62-2.69l-1.56-2.15a6.1,6.1,0,0,1-1.14-3,10.67,10.67,0,0,1-1-.91l-9.9-10.54a9.68,9.68,0,0,1-2.64-6.65V165a9.71,9.71,0,0,1,1.69-5.47l1.47-2.16V153.2a9.61,9.61,0,0,1,2.85-6.86l1.58-1.58V139.3a9.62,9.62,0,0,1,1.19-4.65l-3.21-4.21a9.76,9.76,0,0,1-2-6.28,9.7,9.7,0,0,1-3-7v-4.84a9.72,9.72,0,0,1,3.65-7.59,9.71,9.71,0,0,1-7.74-5l-4.1-7.53-10.86-7.1-1.21.71s0,.11,0,.16a9.78,9.78,0,0,1-5,7.14l-29.7,16A9.71,9.71,0,0,1,27,100.54V97.38A9.75,9.75,0,0,1,31.8,89l8.14-4.79c-.18-.25-.34-.51-.5-.78a9.61,9.61,0,0,1-1.22-3.9A9.67,9.67,0,0,1,35.64,73V68.32a9.7,9.7,0,0,1,.88-4c0-.21,0-.41,0-.61a9.75,9.75,0,0,1,2.84-7.08l4.85-4.85a9.36,9.36,0,0,1,1.23-1,9.75,9.75,0,0,1-1.34-4.93V43.25a9.7,9.7,0,0,1,1.79-5.61c0-.1,0-.21.08-.31a9.69,9.69,0,0,1,6.63-6.57l9-2.59V20.92a9.72,9.72,0,0,1,6.53-9.17L99.68.8a9.53,9.53,0,0,1,3.18-.54,9.78,9.78,0,0,1,6.9,2.88l19.38,19.59a9.61,9.61,0,0,1,2.7,5.41,9.42,9.42,0,0,1,2.79,2l14.75-4a9.71,9.71,0,0,1,12.27,9.37v3.17l11.45,4.69a9.68,9.68,0,0,1,5.17,5,9.69,9.69,0,0,1,3.61,1.63l4.17-.84a10.19,10.19,0,0,1,1.9-.18,9.72,9.72,0,0,1,7.49,3.51l.36.45a8.44,8.44,0,0,1,1.43-.3l.92-.12-.1-2.28a9.73,9.73,0,0,1,4-8.29l8.22-5.9A9.67,9.67,0,0,1,216,34.17h1.68a9.73,9.73,0,0,1,9.72,9.71V50l.31-.06a9.48,9.48,0,0,1,1.77-.16,9.69,9.69,0,0,1,6.1,2.16L241,56.34a9.68,9.68,0,0,1,3.61,7.55v4a9.73,9.73,0,0,1-2.84,6.88,9.78,9.78,0,0,1-4.54,6.88l-3.64,2.23h8a9.66,9.66,0,0,1,8.64,5.28l3.92,7.66a10.38,10.38,0,0,1,1.11-.09h.23a9.74,9.74,0,0,1,7.86,4l1.57,2.17a9.74,9.74,0,0,1,8.49,9.64v11a8.68,8.68,0,0,1,1.59.71,9.78,9.78,0,0,1,4.6,5.91l1.26,4.63a9.72,9.72,0,0,1-5.07,11.27l-14.54,7.16c-.25.12-.51.24-.78.34a9.67,9.67,0,0,1,2,5.9v2.32a9.73,9.73,0,0,1-9.71,9.71h-3.72l-1,.93a9.63,9.63,0,0,1-6.66,2.65c-.32,0-.63,0-.94,0a9.7,9.7,0,0,1-8.54,5.1h-3.59a9.69,9.69,0,0,1-2.73,4.87,9.74,9.74,0,0,1-2,5.3,9.67,9.67,0,0,1-3.58,5.89l-9.75,7.62V216a9.67,9.67,0,0,1-4.32,8.08l-3.16,2.11a9.72,9.72,0,0,1-9.06.91,10.23,10.23,0,0,1-1.76-.94,6.1,6.1,0,0,1-1.5,5.63L188.38,234v1.57c0,.14,0,.28,0,.42h1.69a6.1,6.1,0,0,1,6.11,6.11v6l3.12,3.84h6.57A6.11,6.11,0,0,1,212,258.1v2.31a6.11,6.11,0,0,1-6.11,6.12H202.1l-.57,1a6.15,6.15,0,0,1-4.13,3.05A6.41,6.41,0,0,1,196.17,270.74Zm-25.86-46.25,1.41-1.35a6.11,6.11,0,0,1,4.23-1.7h10.11a6,6,0,0,1,2.47.53,9.64,9.64,0,0,1-.6-1.91l-1.07-5.12h-7.12a9.66,9.66,0,0,1-6.1-2.14l-6.86,7.73a10.13,10.13,0,0,1-1.11,1.06Zm48.25-109.81.34.18v-6.31a9.72,9.72,0,0,1,.73-3.7,9.74,9.74,0,0,1-.1-9.73l3.26-5.76c-.25,0-.51,0-.77,0L219.86,92a9.72,9.72,0,0,1-3.51,2.67A9.72,9.72,0,0,1,210,98.18a9.57,9.57,0,0,1-3.37,1.5l-2,3.6,1.92,5.11Z" fill="#dff0fa"/>
    <path d="M275.05,136.46l-1.27-4.64a3.61,3.61,0,0,0-3.47-2.65,3.76,3.76,0,0,0-1,.14l-.4.12-1.54-2.37V112.55a3.6,3.6,0,0,0-3.6-3.6h-1.95l-3.35-4.62a3.61,3.61,0,0,0-2.91-1.49h-.09a3.61,3.61,0,0,0-2.92,1.63l-2.87,4.39v-6.63a3.61,3.61,0,0,0-.4-1.64L244.87,92a3.61,3.61,0,0,0-3.2-2H231.56a3.58,3.58,0,0,0-3.13,1.83l-3.58,6.32A3.59,3.59,0,0,0,226,102.9l1,.7,0,.64-1.49,2.4a3.57,3.57,0,0,0-.55,1.91v11.23l-7.34,3.6v-.09a3.6,3.6,0,0,0-1.94-3.19l-14.15-7.37-3.77-10,5.09-8.93h1.48a3.59,3.59,0,0,0,3.05-1.69h1.38a3.58,3.58,0,0,0,3.49-2.74h.09a3.6,3.6,0,0,0,2.77-1.31l4.57-5.51c.12.09.25.17.38.25a3.6,3.6,0,0,0,3.64-.07l10.32-6.32a3.62,3.62,0,0,0,1.72-3.07v-2a3.6,3.6,0,0,0,2.73-3.5v-4a3.63,3.63,0,0,0-1.33-2.8l-5.48-4.42a3.61,3.61,0,0,0-2.26-.8,3.68,3.68,0,0,0-.66.06,3.58,3.58,0,0,0-2.45,1.74l-2.14,3.69v-.42A3.61,3.61,0,0,0,222,57.62a3.19,3.19,0,0,0-.73-.21V43.88a3.6,3.6,0,0,0-3.6-3.59H216a3.59,3.59,0,0,0-2.1.67l-8.21,5.9a3.58,3.58,0,0,0-1.5,3.07l.21,5.06a3.62,3.62,0,0,0,1.12,2.46l1.85,1.75-.61,1-.44-.64a3.6,3.6,0,0,0-3-1.55,3.55,3.55,0,0,0-.46,0l-4.85.63a3.62,3.62,0,0,0-3,2.5h-.35l-4-4.81A3.64,3.64,0,0,0,188,55a3.33,3.33,0,0,0-.7.07l-6.32,1.26a3.57,3.57,0,0,0-1.24.51l-.24-.53a3.58,3.58,0,0,0-3.29-2.15H173V52.31A3.6,3.6,0,0,0,170.78,49l-15.25-6.25V35.46a3.6,3.6,0,0,0-1.41-2.86,3.55,3.55,0,0,0-2.18-.74A3.4,3.4,0,0,0,151,32L132.45,37a4.12,4.12,0,0,0-.69.27L131,35.57a3.6,3.6,0,0,0-3.33-2.24h-1.88V29.56a3.57,3.57,0,0,0-1-2.53L105.42,7.44a3.64,3.64,0,0,0-2.56-1.07,3.7,3.7,0,0,0-1.18.2l-31.59,11a3.61,3.61,0,0,0-2.42,3.4v12a3.63,3.63,0,0,0-1,.14L54.26,36.63a3.6,3.6,0,0,0-2.45,2.44,3.45,3.45,0,0,0-.14,1.27,3.58,3.58,0,0,0-1.49,2.91v2.53a3.62,3.62,0,0,0,.88,2.35l2.74,3.16a3.61,3.61,0,0,0,2.47,1.24l-.19,0a3.6,3.6,0,0,0-2.92,3.09l-.06,0a3.59,3.59,0,0,0-4.6.4l-4.85,4.85a3.59,3.59,0,0,0-.46,4.51,3.6,3.6,0,0,0-1.43,2.88V73A3.6,3.6,0,0,0,45,76.52l-.16.28a3.59,3.59,0,0,0,3.09,5.43h5l-1,2.06-17,10a3.61,3.61,0,0,0-1.78,3.1v3.16a3.6,3.6,0,0,0,1.76,3.09,3.55,3.55,0,0,0,1.84.51,3.59,3.59,0,0,0,1.71-.43l29.7-16a3.6,3.6,0,0,0,1.31-5.12l8-4.71,15.33,10,4.83,8.89a3.59,3.59,0,0,0,3.16,1.88h3.16a3.7,3.7,0,0,0,1.69-.41l.61.3v9.57l-1.94,1.07a3.61,3.61,0,0,0-1.85,3.15v4.84a3.6,3.6,0,0,0,3.6,3.6h.36l-.84,2.7a3.57,3.57,0,0,0,.57,3.26l6.83,9a3.6,3.6,0,0,0-3.57,3.6v8L106,150.66a3.6,3.6,0,0,0-1,2.54v6.05L102.41,163a3.65,3.65,0,0,0-.62,2v17.48a3.59,3.59,0,0,0,1,2.46l9.9,10.54a3.86,3.86,0,0,0,1.35.9l1.28.48V200l6.1,8.43h-4v1.89H122l7.79,14.33,2.32-1.48L121,200.38h3.62l1,.39,15.56,26.57v3.37h-2.1v3.16l29.06,8.85,28,21.91,2.32-4.22h7.37V258.1h-9.48l-6.32-7.8v-8.21H178.48v-6.53h3.79v-4l3.79-4H176l-4.85,4.63-11.79-7.37v-7.15h.21a3.6,3.6,0,0,0,2.69-1.21l9-10.16h5.06a3.62,3.62,0,0,0,3.44,2.53h11.58a4,4,0,0,0,.5,0l2.09,10a3.62,3.62,0,0,0,2.16,2.6,3.65,3.65,0,0,0,3.36-.34l3.16-2.11a3.59,3.59,0,0,0,1.6-3v-15.1l12.1-9.45a3.59,3.59,0,0,0,1.38-2.83v-1a3.6,3.6,0,0,0,1.9-3.17V181.6a3.61,3.61,0,0,0,2.94-3.54v-4H232a3.6,3.6,0,0,0,3.59-3.6v-5l.74-.57a3.56,3.56,0,0,0,1.09,1.73l1.69,1.48a3.59,3.59,0,0,0,4.84-.1l2.75-2.6h6.15a3.6,3.6,0,0,0,3.6-3.59v-2.32a3.6,3.6,0,0,0-2-3.22l-1.8-.9v-7.24H257a3.5,3.5,0,0,0,1.59-.37l14.54-7.16A3.6,3.6,0,0,0,275.05,136.46Z" fill="url(#a)"/>
    <g>
      <path d="M166.73,67l-9.41-9.38a9.07,9.07,0,0,0-13,.16l-8.26,8.66" fill="url(#b)"/>
      <path d="M140.56,66.55l-4.3-4.28a9.07,9.07,0,0,0-13,.16l-3.57,3.74" fill="url(#c)"/>
    </g>
    <g>
      <path d="M175.52,85.94l-7-7a6.79,6.79,0,0,0-9.71.12l-6.18,6.47" fill="url(#d)"/>
      <path d="M155.94,85.58l-3.21-3.2a6.8,6.8,0,0,0-9.71.12l-2.67,2.8" fill="url(#e)"/>
    </g>
    <g>
      <path d="M225.42,134.76l-7-7a6.79,6.79,0,0,0-9.71.12l-6.18,6.48" fill="url(#f)"/>
      <path d="M205.84,134.4l-3.21-3.21a6.81,6.81,0,0,0-9.72.12l-2.67,2.8" fill="url(#g)"/>
    </g>
    <g>
      <rect x="195.71" y="179.6" width="44.29" height="17.95" fill="#fff"/>
      <g>
        <rect x="52.01" y="221.5" width="211.86" height="4.79" rx="2.39" ry="2.39" fill="#7cbce8"/>
        <rect x="274.64" y="221.5" width="20.35" height="4.79" rx="2.39" ry="2.39" fill="#7cbce8"/>
        <rect x="168.26" y="106.59" width="3.45" height="92.16" fill="#6186b6"/>
        <g>
          <polygon points="65.17 198.3 79.06 182.94 79.06 161.1 93.61 161.1 93.61 150.59 120.3 150.59 129.19 164.34 119.49 176.47 119.49 182.13 138.09 182.13 152.78 198.3 65.17 198.3" fill="#1b507b"/>
          <polygon points="254.73 197.9 56.01 197.9 56.01 205.98 261.57 205.98 254.73 197.9" fill="#6186b6"/>
          <polygon points="56.01 222.16 249.07 222.16 261.91 210.03 56.01 210.03 56.01 222.16" fill="#6186b6"/>
          <polygon points="261.57 205.98 56.01 205.98 56.01 210.03 261.91 210.03 263.63 208.41 261.57 205.98" fill="#1b507b"/>
          <polygon points="72.86 197.9 86.74 182.53 86.74 160.7 101.29 160.7 101.29 150.19 127.98 150.19 136.87 163.94 127.17 176.06 127.17 181.72 145.77 181.72 160.46 197.9 72.86 197.9" fill="#fff"/>
          <polygon points="127.17 155.04 127.17 168.79 133.64 163.13 127.17 155.04" fill="#1b507b"/>
          <rect x="104.53" y="155.04" width="4.04" height="5.66" fill="#1b507b"/>
          <rect x="111.81" y="155.04" width="4.04" height="5.66" fill="#1b507b"/>
          <rect x="99.68" y="164.74" width="4.04" height="5.66" fill="#1b507b"/>
          <rect x="90.78" y="173.64" width="4.04" height="5.66" fill="#1b507b"/>
          <rect x="106.95" y="164.74" width="4.04" height="5.66" fill="#1b507b"/>
          <circle cx="69.76" cy="197.9" r="5.72" fill="#1b507b"/>
          <circle cx="227.24" cy="197.9" r="5.72" fill="#1b507b"/>
          <circle cx="238.56" cy="197.9" r="5.72" fill="#1b507b"/>
          <circle cx="249.88" cy="197.9" r="5.72" fill="#1b507b"/>
          <polyline points="79.86 163.33 79.86 151.4 95.63 151.4" fill="none" stroke="#1b507b" stroke-miterlimit="10" stroke-width="0.76"/>
          <line x1="79.86" y1="154.23" x2="97.25" y2="154.23" fill="none" stroke="#1b507b" stroke-miterlimit="10" stroke-width="0.76"/>
          <line x1="56.01" y1="192.24" x2="255.54" y2="192.24" fill="none" stroke="#1b507b" stroke-miterlimit="10" stroke-width="0.76"/>
        </g>
        <g>
          <rect x="171.38" y="106.59" width="78.6" height="48.55" fill="#fff"/>
          <rect x="171.38" y="106.59" width="36.86" height="26.06" fill="#1b507b"/>
          <polygon points="174.39 107.61 174.73 108.67 175.85 108.67 174.95 109.33 175.29 110.39 174.39 109.73 173.49 110.39 173.83 109.33 172.93 108.67 174.04 108.67 174.39 107.61" fill="#fff"/>
          <polygon points="180.66 107.61 181.01 108.67 182.12 108.67 181.22 109.33 181.56 110.39 180.66 109.73 179.76 110.39 180.11 109.33 179.2 108.67 180.32 108.67 180.66 107.61" fill="#fff"/>
          <polygon points="186.77 107.61 187.11 108.67 188.23 108.67 187.32 109.33 187.67 110.39 186.77 109.73 185.87 110.39 186.21 109.33 185.31 108.67 186.42 108.67 186.77 107.61" fill="#fff"/>
          <polygon points="192.87 107.61 193.22 108.67 194.33 108.67 193.43 109.33 193.77 110.39 192.87 109.73 191.97 110.39 192.31 109.33 191.41 108.67 192.53 108.67 192.87 107.61" fill="#fff"/>
          <polygon points="198.97 107.61 199.32 108.67 200.43 108.67 199.53 109.33 199.88 110.39 198.97 109.73 198.07 110.39 198.42 109.33 197.51 108.67 198.63 108.67 198.97 107.61" fill="#fff"/>
          <polygon points="202.18 110.39 202.52 111.45 203.63 111.45 202.73 112.1 203.08 113.16 202.18 112.51 201.27 113.16 201.62 112.1 200.72 111.45 201.83 111.45 202.18 110.39" fill="#fff"/>
          <polygon points="196.06 110.39 196.4 111.45 197.51 111.45 196.61 112.1 196.96 113.16 196.06 112.51 195.15 113.16 195.5 112.1 194.6 111.45 195.71 111.45 196.06 110.39" fill="#fff"/>
          <polygon points="189.94 110.39 190.28 111.45 191.4 111.45 190.49 112.1 190.84 113.16 189.94 112.51 189.03 113.16 189.38 112.1 188.48 111.45 189.59 111.45 189.94 110.39" fill="#fff"/>
          <polygon points="183.64 110.39 183.99 111.45 185.1 111.45 184.2 112.1 184.55 113.16 183.64 112.51 182.74 113.16 183.09 112.1 182.19 111.45 183.3 111.45 183.64 110.39" fill="#fff"/>
          <polygon points="177.52 110.39 177.87 111.45 178.98 111.45 178.08 112.1 178.43 113.16 177.52 112.51 176.62 113.16 176.97 112.1 176.06 111.45 177.18 111.45 177.52 110.39" fill="#fff"/>
          <polygon points="205.25 107.61 205.59 108.67 206.71 108.67 205.81 109.33 206.15 110.39 205.25 109.73 204.35 110.39 204.69 109.33 203.79 108.67 204.91 108.67 205.25 107.61" fill="#fff"/>
          <polygon points="174.39 112.76 174.73 113.82 175.85 113.82 174.95 114.47 175.29 115.53 174.39 114.88 173.49 115.53 173.83 114.47 172.93 113.82 174.04 113.82 174.39 112.76" fill="#fff"/>
          <polygon points="180.66 112.76 181.01 113.82 182.12 113.82 181.22 114.47 181.56 115.53 180.66 114.88 179.76 115.53 180.11 114.47 179.2 113.82 180.32 113.82 180.66 112.76" fill="#fff"/>
          <polygon points="186.77 112.76 187.11 113.82 188.23 113.82 187.32 114.47 187.67 115.53 186.77 114.88 185.87 115.53 186.21 114.47 185.31 113.82 186.42 113.82 186.77 112.76" fill="#fff"/>
          <polygon points="192.87 112.76 193.22 113.82 194.33 113.82 193.43 114.47 193.77 115.53 192.87 114.88 191.97 115.53 192.31 114.47 191.41 113.82 192.53 113.82 192.87 112.76" fill="#fff"/>
          <polygon points="198.97 112.76 199.32 113.82 200.43 113.82 199.53 114.47 199.88 115.53 198.97 114.88 198.07 115.53 198.42 114.47 197.51 113.82 198.63 113.82 198.97 112.76" fill="#fff"/>
          <polygon points="202.18 115.53 202.52 116.59 203.63 116.59 202.73 117.25 203.08 118.31 202.18 117.65 201.27 118.31 201.62 117.25 200.72 116.59 201.83 116.59 202.18 115.53" fill="#fff"/>
          <polygon points="196.06 115.53 196.4 116.59 197.51 116.59 196.61 117.25 196.96 118.31 196.06 117.65 195.15 118.31 195.5 117.25 194.6 116.59 195.71 116.59 196.06 115.53" fill="#fff"/>
          <polygon points="189.94 115.53 190.28 116.59 191.4 116.59 190.49 117.25 190.84 118.31 189.94 117.65 189.03 118.31 189.38 117.25 188.48 116.59 189.59 116.59 189.94 115.53" fill="#fff"/>
          <polygon points="183.64 115.53 183.99 116.59 185.1 116.59 184.2 117.25 184.55 118.31 183.64 117.65 182.74 118.31 183.09 117.25 182.19 116.59 183.3 116.59 183.64 115.53" fill="#fff"/>
          <polygon points="177.52 115.53 177.87 116.59 178.98 116.59 178.08 117.25 178.43 118.31 177.52 117.65 176.62 118.31 176.97 117.25 176.06 116.59 177.18 116.59 177.52 115.53" fill="#fff"/>
          <polygon points="205.25 112.76 205.59 113.82 206.71 113.82 205.81 114.47 206.15 115.53 205.25 114.88 204.35 115.53 204.69 114.47 203.79 113.82 204.91 113.82 205.25 112.76" fill="#fff"/>
          <polygon points="174.39 117.9 174.73 118.96 175.85 118.96 174.95 119.62 175.29 120.68 174.39 120.02 173.49 120.68 173.83 119.62 172.93 118.96 174.04 118.96 174.39 117.9" fill="#fff"/>
          <polygon points="180.66 117.9 181.01 118.96 182.12 118.96 181.22 119.62 181.56 120.68 180.66 120.02 179.76 120.68 180.11 119.62 179.2 118.96 180.32 118.96 180.66 117.9" fill="#fff"/>
          <polygon points="186.77 117.9 187.11 118.96 188.23 118.96 187.32 119.62 187.67 120.68 186.77 120.02 185.87 120.68 186.21 119.62 185.31 118.96 186.42 118.96 186.77 117.9" fill="#fff"/>
          <polygon points="192.87 117.9 193.22 118.96 194.33 118.96 193.43 119.62 193.77 120.68 192.87 120.02 191.97 120.68 192.31 119.62 191.41 118.96 192.53 118.96 192.87 117.9" fill="#fff"/>
          <polygon points="198.97 117.9 199.32 118.96 200.43 118.96 199.53 119.62 199.88 120.68 198.97 120.02 198.07 120.68 198.42 119.62 197.51 118.96 198.63 118.96 198.97 117.9" fill="#fff"/>
          <polygon points="202.18 120.68 202.52 121.74 203.63 121.74 202.73 122.39 203.08 123.45 202.18 122.8 201.27 123.45 201.62 122.39 200.72 121.74 201.83 121.74 202.18 120.68" fill="#fff"/>
          <polygon points="196.06 120.68 196.4 121.74 197.51 121.74 196.61 122.39 196.96 123.45 196.06 122.8 195.15 123.45 195.5 122.39 194.6 121.74 195.71 121.74 196.06 120.68" fill="#fff"/>
          <polygon points="189.94 120.68 190.28 121.74 191.4 121.74 190.49 122.39 190.84 123.45 189.94 122.8 189.03 123.45 189.38 122.39 188.48 121.74 189.59 121.74 189.94 120.68" fill="#fff"/>
          <polygon points="183.64 120.68 183.99 121.74 185.1 121.74 184.2 122.39 184.55 123.45 183.64 122.8 182.74 123.45 183.09 122.39 182.19 121.74 183.3 121.74 183.64 120.68" fill="#fff"/>
          <polygon points="177.52 120.68 177.87 121.74 178.98 121.74 178.08 122.39 178.43 123.45 177.52 122.8 176.62 123.45 176.97 122.39 176.06 121.74 177.18 121.74 177.52 120.68" fill="#fff"/>
          <polygon points="205.25 117.9 205.59 118.96 206.71 118.96 205.81 119.62 206.15 120.68 205.25 120.02 204.35 120.68 204.69 119.62 203.79 118.96 204.91 118.96 205.25 117.9" fill="#fff"/>
          <polygon points="174.39 123.05 174.73 124.11 175.85 124.11 174.95 124.77 175.29 125.83 174.39 125.17 173.49 125.83 173.83 124.77 172.93 124.11 174.04 124.11 174.39 123.05" fill="#fff"/>
          <polygon points="180.66 123.05 181.01 124.11 182.12 124.11 181.22 124.77 181.56 125.83 180.66 125.17 179.76 125.83 180.11 124.77 179.2 124.11 180.32 124.11 180.66 123.05" fill="#fff"/>
          <polygon points="186.77 123.05 187.11 124.11 188.23 124.11 187.32 124.77 187.67 125.83 186.77 125.17 185.87 125.83 186.21 124.77 185.31 124.11 186.42 124.11 186.77 123.05" fill="#fff"/>
          <polygon points="192.87 123.05 193.22 124.11 194.33 124.11 193.43 124.77 193.77 125.83 192.87 125.17 191.97 125.83 192.31 124.77 191.41 124.11 192.53 124.11 192.87 123.05" fill="#fff"/>
          <polygon points="198.97 123.05 199.32 124.11 200.43 124.11 199.53 124.77 199.88 125.83 198.97 125.17 198.07 125.83 198.42 124.77 197.51 124.11 198.63 124.11 198.97 123.05" fill="#fff"/>
          <polygon points="202.18 125.83 202.52 126.89 203.63 126.89 202.73 127.54 203.08 128.6 202.18 127.95 201.27 128.6 201.62 127.54 200.72 126.89 201.83 126.89 202.18 125.83" fill="#fff"/>
          <polygon points="196.06 125.83 196.4 126.89 197.51 126.89 196.61 127.54 196.96 128.6 196.06 127.95 195.15 128.6 195.5 127.54 194.6 126.89 195.71 126.89 196.06 125.83" fill="#fff"/>
          <polygon points="189.94 125.83 190.28 126.89 191.4 126.89 190.49 127.54 190.84 128.6 189.94 127.95 189.03 128.6 189.38 127.54 188.48 126.89 189.59 126.89 189.94 125.83" fill="#fff"/>
          <polygon points="183.64 125.83 183.99 126.89 185.1 126.89 184.2 127.54 184.55 128.6 183.64 127.95 182.74 128.6 183.09 127.54 182.19 126.89 183.3 126.89 183.64 125.83" fill="#fff"/>
          <polygon points="177.52 125.83 177.87 126.89 178.98 126.89 178.08 127.54 178.43 128.6 177.52 127.95 176.62 128.6 176.97 127.54 176.06 126.89 177.18 126.89 177.52 125.83" fill="#fff"/>
          <polygon points="205.25 123.05 205.59 124.11 206.71 124.11 205.81 124.77 206.15 125.83 205.25 125.17 204.35 125.83 204.69 124.77 203.79 124.11 204.91 124.11 205.25 123.05" fill="#fff"/>
          <polygon points="174.39 128.2 174.73 129.26 175.85 129.26 174.95 129.91 175.29 130.97 174.39 130.32 173.49 130.97 173.83 129.91 172.93 129.26 174.04 129.26 174.39 128.2" fill="#fff"/>
          <polygon points="180.66 128.2 181.01 129.26 182.12 129.26 181.22 129.91 181.56 130.97 180.66 130.32 179.76 130.97 180.11 129.91 179.2 129.26 180.32 129.26 180.66 128.2" fill="#fff"/>
          <polygon points="186.77 128.2 187.11 129.26 188.23 129.26 187.32 129.91 187.67 130.97 186.77 130.32 185.87 130.97 186.21 129.91 185.31 129.26 186.42 129.26 186.77 128.2" fill="#fff"/>
          <polygon points="192.87 128.2 193.22 129.26 194.33 129.26 193.43 129.91 193.77 130.97 192.87 130.32 191.97 130.97 192.31 129.91 191.41 129.26 192.53 129.26 192.87 128.2" fill="#fff"/>
          <polygon points="198.97 128.2 199.32 129.26 200.43 129.26 199.53 129.91 199.88 130.97 198.97 130.32 198.07 130.97 198.42 129.91 197.51 129.26 198.63 129.26 198.97 128.2" fill="#fff"/>
          <polygon points="205.25 128.2 205.59 129.26 206.71 129.26 205.81 129.91 206.15 130.97 205.25 130.32 204.35 130.97 204.69 129.91 203.79 129.26 204.91 129.26 205.25 128.2" fill="#fff"/>
          <rect x="208.24" y="106.59" width="41.74" height="3.8" fill="#ec7163"/>
          <rect x="208.24" y="114.15" width="41.74" height="3.8" fill="#ec7163"/>
          <rect x="208.24" y="121.56" width="41.74" height="3.8" fill="#ec7163"/>
          <rect x="208.24" y="128.95" width="41.74" height="3.8" fill="#ec7163"/>
          <rect x="171.36" y="136.35" width="78.62" height="3.8" fill="#ec7163"/>
          <rect x="171.36" y="143.85" width="78.62" height="3.8" fill="#ec7163"/>
          <rect x="171.36" y="151.34" width="78.62" height="3.8" fill="#ec7163"/>
        </g>
      </g>
    </g>
  </g>
</svg>
