<svg xmlns="http://www.w3.org/2000/svg" viewBox="0 0 176 254">
  
  <g>
    <path d="M17,25.89H134.26a8.29,8.29,0,0,1,8.29,8.29v4.66a0,0,0,0,1,0,0H8.75a0,0,0,0,1,0,0V34.17A8.29,8.29,0,0,1,17,25.89Z" fill="#1b507b"/>
    <rect x="8.75" y="38.83" width="133.8" height="67.98" fill="#6186b6"/>
    <path d="M93,55h67.7a8.77,8.77,0,0,1,8.77,8.77v43a0,0,0,0,1,0,0H84.28a0,0,0,0,1,0,0v-43A8.77,8.77,0,0,1,93,55Z" fill="#7dc8c5"/>
    <path d="M92.66,55h68.48a8.38,8.38,0,0,1,8.38,8.38v1.33a0,0,0,0,1,0,0H84.28a0,0,0,0,1,0,0V63.4A8.38,8.38,0,0,1,92.66,55Z" fill="#1b507b"/>
    <rect x="22.77" y="49.62" width="46.4" height="33.45" fill="#b9c5d6"/>
    <line x1="22.77" y1="89.55" x2="68.09" y2="89.55" fill="none" stroke="#b9c5d6" stroke-miterlimit="10" stroke-width="1.08"/>
    <line x1="23.46" y1="96.06" x2="71.02" y2="96.06" fill="none" stroke="#b9c5d6" stroke-miterlimit="10" stroke-width="1.13"/>
    <rect x="92.91" y="73.36" width="22.66" height="23.2" fill="#6186b6"/>
    <line x1="120.96" y1="74.44" x2="159.81" y2="74.44" fill="none" stroke="#6186b6" stroke-miterlimit="10" stroke-width="1.08"/>
    <line x1="120.96" y1="81.1" x2="159.81" y2="81.1" fill="none" stroke="#6186b6" stroke-miterlimit="10" stroke-width="1.08"/>
    <line x1="120.96" y1="87.75" x2="159.81" y2="87.75" fill="none" stroke="#6186b6" stroke-miterlimit="10" stroke-width="1.08"/>
    <line x1="126.5" y1="93.79" x2="167.25" y2="93.79" fill="none" stroke="#6186b6" stroke-miterlimit="10" stroke-width="1.13"/>
    <circle cx="103.69" cy="80.77" r="3.1" fill="#b9c5d6"/>
    <path d="M103,85.43h2a7.2,7.2,0,0,1,7.2,7.2v.16a0,0,0,0,1,0,0H96.3a0,0,0,0,1,0,0v-.71A6.65,6.65,0,0,1,103,85.43Z" fill="#b9c5d6"/>
    <rect x="67.62" y="214.37" width="101.9" height="39.63" fill="#52bdbe"/>
    <rect x="67.62" y="138.51" width="101.9" height="75.86" fill="#9ed7f5"/>
    <text transform="translate(81.27 156.68) scale(0.83 1)" font-size="14.35" fill="#1b507b"  font-weight="700" letter-spacing="0.03em">32%</text>
    <text transform="translate(81.27 231.41) scale(0.83 1)" font-size="14.35" fill="#fff"  font-weight="700" letter-spacing="0.03em">26%</text>
    <polygon points="61.73 138.51 47.92 138.51 34.11 138.51 20.29 138.51 6.48 138.51 6.48 254 20.29 254 34.11 254 47.92 254 61.73 254 75.55 254 75.55 138.51 61.73 138.51" fill="#6186b6"/>
    <text transform="translate(14.47 162.34) scale(0.83 1)" font-size="20.58" fill="#ecf6fc"  font-weight="700" letter-spacing="0.02em">41%</text>
  </g>
</svg>
