<svg xmlns="http://www.w3.org/2000/svg" xmlns:xlink="http://www.w3.org/1999/xlink" viewBox="0 0 176 254">
  <defs>
    <linearGradient id="a" data-name="未命名漸層 33" x1="48.97" y1="39.24" x2="33.46" y2="55.3" gradientUnits="userSpaceOnUse">
      <stop offset="0" stop-color="#e7f0f2"/>
      <stop offset="0.99" stop-color="#fff"/>
    </linearGradient>
  </defs>
  
  <g style="isolation: isolate">
    <g>
      <polygon points="3.08 45.17 55.34 23.4 55.34 74.2 35.74 65.86 3.08 45.17" fill="url(#a)"/>
      <rect x="64.05" y="23.4" width="108.87" height="81.65" fill="#6186b6"/>
      <line x1="64.05" y1="42.27" x2="172.92" y2="42.27" fill="none" stroke="#1b507b" stroke-miterlimit="10" stroke-width="1.09"/>
      <line x1="64.05" y1="58.24" x2="172.92" y2="58.24" fill="none" stroke="#1b507b" stroke-miterlimit="10" stroke-width="1.09"/>
      <line x1="64.05" y1="74.2" x2="172.92" y2="74.2" fill="none" stroke="#1b507b" stroke-miterlimit="10" stroke-width="1.09"/>
      <g>
        <path d="M67.41,30l-1,3.66h1v2.5a1.5,1.5,0,0,0,1.5,1.5h0l.83,7h4L72.08,30Z" fill="#f3f8f1"/>
        <circle cx="68.41" cy="32.99" r="0.24" fill="#1f2b60"/>
        <path d="M72.08,29l-1.26-.32A5,5,0,0,0,66.08,30h-.34a1.33,1.33,0,0,0-1.33,1.33h5.67s-.13,2,2.43,2.51Z" fill="#1b507b"/>
        <circle cx="73.91" cy="29.82" r="3.06" fill="#1b507b"/>
        <path d="M63.58,66.15,57.53,91v10.78h5.33l1-8.45,7.38-14.84v23.29h4.67l6.35-18.12a22.91,22.91,0,0,0-4.27-16l-1.08-1.48Z" fill="#131d3c"/>
        <path d="M60.92,46.6l-13,12.72H29.08v3.33H50.24l11.84-9,1.5,12.5H76.91l4.67-14,4.66,12.67L71.91,69.15l.67,3,19.66-4.33L86.4,49.49A6.76,6.76,0,0,0,80,44.78l-14.32-.11A6.75,6.75,0,0,0,60.92,46.6Z" fill="#7cbce8"/>
      </g>
      <rect x="3.08" y="73.48" width="105.6" height="31.57" fill="#b9c5d6"/>
      <rect x="15.06" y="62.59" width="5.44" height="10.89" fill="#1b507b"/>
      <rect x="3.08" y="45.17" width="32.66" height="20.68" fill="#7dc8c5"/>
      <rect x="35.74" y="68.03" width="28.31" height="5.44" fill="#1b507b"/>
      <rect x="3.08" y="98.52" width="169.83" height="6.53" fill="#1b507b"/>
      <rect x="64.05" y="16.87" width="108.87" height="6.53" fill="#1b507b"/>
      <rect x="9.62" y="51.7" width="9.8" height="7.62" fill="#1b507b"/>
      <path d="M123.38,82.73v-3.4A5.31,5.31,0,0,1,128.69,74H142a5.31,5.31,0,0,1,5.31,5.31v3.4" fill="none" stroke="#1b507b" stroke-miterlimit="10" stroke-width="1.09"/>
      <polygon points="147.79 82.42 122.92 82.42 118.48 82.42 120.26 98.41 122.92 98.41 147.79 98.41 150.46 98.41 152.23 82.42 147.79 82.42" fill="#7cbce8"/>
      <line x1="119.06" y1="87.63" x2="151.65" y2="87.63" fill="none" stroke="#7cbce8" stroke-miterlimit="10" stroke-width="1.09" style="mix-blend-mode: multiply"/>
      <line x1="119.57" y1="92.94" x2="151.14" y2="92.94" fill="none" stroke="#7cbce8" stroke-miterlimit="10" stroke-width="0.76" style="mix-blend-mode: multiply"/>
      <line x1="124.29" y1="82.42" x2="125.74" y2="98.52" fill="none" stroke="#7cbce8" stroke-miterlimit="10" stroke-width="1.09" style="mix-blend-mode: multiply"/>
      <line x1="130.82" y1="82.42" x2="132.27" y2="98.52" fill="none" stroke="#7cbce8" stroke-miterlimit="10" stroke-width="1.09" style="mix-blend-mode: multiply"/>
      <line x1="3.08" y1="81.1" x2="108.68" y2="81.1" fill="none" stroke="#1b507b" stroke-miterlimit="10" stroke-width="0.68"/>
      <rect x="7.61" y="138.51" width="32.61" height="115.49" fill="#6186b6"/>
      <rect x="40.22" y="138.51" width="32.61" height="115.49" fill="#6186b6"/>
      <rect x="72.83" y="138.51" width="32.61" height="115.49" fill="#6186b6"/>
      <rect x="105.44" y="138.51" width="32.61" height="115.49" fill="#7dc8c5"/>
      <rect x="138.04" y="138.51" width="32.61" height="115.49" fill="#7dc8c5"/>
      <rect x="84.04" y="136.82" width="84.92" height="88.31" transform="translate(-54.48 307.47) rotate(-90)" fill="#9ed7f5"/>
      <text transform="translate(15.6 162.34) scale(0.83 1)" font-size="20.58" fill="#ecf6fc"  font-weight="700" letter-spacing="0.02em">45%</text>
      <text transform="translate(89.2 156.68) scale(0.83 1)" font-size="14.35" fill="#1b507b"  font-weight="700" letter-spacing="0.03em">35%</text>
      <rect x="109.51" y="192.86" width="33.97" height="88.31" transform="translate(-110.52 363.51) rotate(-90)" fill="#52bdbe"/>
      <text transform="translate(89.2 237.07) scale(0.83 1)" font-size="14.35" fill="#fff"  font-weight="700" letter-spacing="0.03em">20%</text>
    </g>
  </g>
</svg>
