<svg xmlns="http://www.w3.org/2000/svg" xmlns:xlink="http://www.w3.org/1999/xlink" viewBox="0 0 392 264">
  <defs>
    <style>
      .a {
        fill: #c2e4ed;
      }

      .b {
        clip-path: url(#a);
      }

      .c {
        fill: #ecf6fc;
      }

      .d {
        fill: #50bbb7;
      }

      .e {
        fill: #f7e197;
      }

      .f {
        fill: #ec7163;
      }

      .g {
        fill: none;
        stroke: #6186b6;
        stroke-miterlimit: 10;
        stroke-width: 1.48px;
      }

      .h {
        fill: #6186b6;
      }

      .i {
        fill: #1b507b;
      }

      .j {
        fill: #fff;
      }

      .k {
        fill: #1f2b60;
      }
    </style>
    <clipPath id="a">
      <rect class="a" x="-0.1" y="-8.66" width="391.73" height="291.77"/>
    </clipPath>
  </defs>
  
  <g>
    <rect class="a" x="-0.1" y="-8.66" width="391.73" height="291.77"/>
    <g class="b">
      <rect class="c" x="188.19" y="14.59" width="121.09" height="162.59"/>
      <rect class="c" x="330.98" y="14.59" width="60.1" height="60.5"/>
      <rect class="c" x="330.98" y="96.02" width="60.1" height="81.23"/>
      <rect class="d" x="-3.07" y="217.42" width="400.11" height="65.69"/>
      <g>
        <polygon class="e" points="235.6 257.78 211.74 257.78 211.74 234.03 227.32 234.03 235.6 242.93 235.6 257.78"/>
        <polygon class="f" points="227.65 234.03 227.65 242.93 235.6 242.93 227.65 234.03"/>
      </g>
      <g>
        <polygon class="e" points="268.3 257.78 244.44 257.78 244.44 234.03 260.02 234.03 268.3 242.93 268.3 257.78"/>
        <polygon class="f" points="260.35 234.03 260.35 242.93 268.3 242.93 260.35 234.03"/>
      </g>
      <g>
        <polygon class="e" points="301 257.78 277.14 257.78 277.14 234.03 292.71 234.03 301 242.93 301 257.78"/>
        <polygon class="f" points="293.05 234.03 293.05 242.93 301 242.93 293.05 234.03"/>
      </g>
      <line class="g" x1="204.72" y1="111.73" x2="267.9" y2="111.73"/>
      <line class="g" x1="204.72" y1="96.93" x2="267.9" y2="96.93"/>
      <line class="g" x1="204.72" y1="127.1" x2="267.9" y2="127.1"/>
      <line class="g" x1="204.72" y1="142.48" x2="267.9" y2="142.48"/>
      <line class="g" x1="204.72" y1="157.85" x2="267.9" y2="157.85"/>
      <rect class="h" x="275.07" y="30.67" width="20.82" height="37.01"/>
      <rect class="h" x="205.16" y="30.67" width="62.47" height="37.01"/>
      <rect class="h" x="340.51" y="23.26" width="20.82" height="37.01"/>
      <rect class="h" x="340.51" y="106.18" width="20.82" height="23.69"/>
      <line class="g" x1="341.26" y1="139.49" x2="360.59" y2="139.49"/>
      <line class="g" x1="342" y1="146.89" x2="361.34" y2="146.89"/>
      <line class="g" x1="342.74" y1="154.3" x2="362.08" y2="154.3"/>
      <g>
        <path class="i" d="M135,143.66l27,252.71H140.89L100.2,203.05H87.77l-9,193.32H57.61L48.92,220.7a85.94,85.94,0,0,1,14.91-54.87l15.24-22.17"/>
        <path class="j" d="M121.11,32.51,123.6,47h-3.73v6.35a3.9,3.9,0,0,1-3.92,3.9h-2.3L106.2,84.47H90l18.64-52Z"/>
        <path class="f" d="M108.9,73.13h71.9l65.87-26,6.22,6.18-60.07,31a44.27,44.27,0,0,1-20.28,4.91H135v54.45H79.07L63.54,95.4,44.9,148.6l42.87,16.09-1.24,7.42L39,160.29a13.55,13.55,0,0,1-10.23-17.65L46.89,89.2A23.77,23.77,0,0,1,69.4,73.13Z"/>
        <polygon class="j" points="246.67 47.15 256.62 40.96 265.32 38.49 267.81 44.67 252.89 53.33 246.67 47.15"/>
        <ellipse class="k" cx="98.12" cy="30.65" rx="8.79" ry="8.75"/>
        <path class="k" d="M106.82,29.41l8.29.4a9.81,9.81,0,0,1,7.53,4.08l.34.47h2.21a3.24,3.24,0,0,1,2.76,5h-18l-1.87,4.45a4.85,4.85,0,0,1-4.48,3h0l-5.46-8.66Z"/>
        <polygon class="e" points="98.96 168.4 122.58 109.01 162.35 109.01 137.77 168.4 98.96 168.4"/>
        <polygon class="j" points="87.77 164.69 106.42 164.69 106.42 172.11 86.53 172.11 87.77 164.69"/>
      </g>
    </g>
  </g>
</svg>
