<svg xmlns="http://www.w3.org/2000/svg" xmlns:xlink="http://www.w3.org/1999/xlink" viewBox="0 0 392 354">
  <defs>
    <style>
      .a, .f, .i, .k, .m, .o, .s {
        fill: none;
      }

      .b {
        isolation: isolate;
      }

      .c {
        clip-path: url(#a);
      }

      .d {
        fill: #c2e4ed;
      }

      .e {
        fill: #50bbb7;
      }

      .f {
        stroke: #1b507b;
        stroke-width: 1.5px;
      }

      .f, .i, .k, .m, .o, .s {
        stroke-miterlimit: 10;
      }

      .g {
        fill: #1b507b;
      }

      .h {
        fill: #9fcde4;
      }

      .i, .k, .o {
        stroke: #4276a1;
      }

      .i {
        stroke-width: 2.1px;
      }

      .j {
        fill: #d3e6f1;
      }

      .k {
        stroke-width: 0.56px;
      }

      .l {
        fill: #6186b6;
      }

      .m {
        stroke: #4990b3;
        stroke-width: 1.05px;
      }

      .n {
        fill: #90aed8;
      }

      .o {
        stroke-width: 2.08px;
      }

      .p {
        fill: #fff;
      }

      .q {
        fill: #1f2b60;
      }

      .r {
        fill: #ec7163;
      }

      .s {
        stroke: #ec7163;
        stroke-width: 1.24px;
        opacity: 0.47;
        mix-blend-mode: multiply;
      }
    </style>
    <clipPath id="a">
      <path class="a" d="M40-79.32H352.69A39.31,39.31,0,0,1,392-40V409a0,0,0,0,1,0,0H.69a0,0,0,0,1,0,0V-40A39.31,39.31,0,0,1,40-79.32Z"/>
    </clipPath>
  </defs>
  
  <g class="b">
    <g class="c">
      <path class="d" d="M40-79.32H352.69A39.31,39.31,0,0,1,392-40V409.15a0,0,0,0,1,0,0H.69a0,0,0,0,1,0,0V-40A39.31,39.31,0,0,1,40-79.32Z"/>
      <rect class="e" x="190.14" y="152.44" width="78.7" height="260.23"/>
      <rect class="e" x="315.14" y="152.44" width="78.7" height="260.23"/>
      <rect class="e" x="264.13" y="110.32" width="81.87" height="302.35"/>
      <rect class="e" x="278.96" y="83.48" width="53.39" height="29.65"/>
      <polygon class="e" points="299.06 64.24 283.37 71.33 283.37 83.48 299.06 83.48 314.76 83.48 314.76 71.33 299.06 64.24"/>
      <line class="f" x1="299.06" y1="64.24" x2="299.06" y2="41.31"/>
      <g>
        <rect class="g" x="282.86" y="90.57" width="2.53" height="4.05"/>
        <rect class="g" x="282.86" y="97.66" width="2.53" height="4.05"/>
        <rect class="g" x="288.94" y="90.57" width="2.53" height="4.05"/>
      </g>
      <g>
        <rect class="g" x="272.74" y="118.92" width="9.49" height="4.08"/>
        <rect class="g" x="289.85" y="118.92" width="17.96" height="4.08"/>
        <rect class="g" x="315.79" y="118.92" width="11.97" height="4.08"/>
      </g>
      <g>
        <rect class="g" x="272.74" y="132.89" width="9.49" height="4.08"/>
        <rect class="g" x="289.85" y="132.89" width="17.96" height="4.08"/>
        <rect class="g" x="315.79" y="132.89" width="11.97" height="4.08"/>
      </g>
      <g>
        <rect class="g" x="272.74" y="146.85" width="9.49" height="4.08"/>
        <rect class="g" x="289.85" y="146.85" width="17.96" height="4.08"/>
        <rect class="g" x="315.79" y="146.85" width="11.97" height="4.08"/>
      </g>
      <g>
        <rect class="g" x="272.74" y="160.82" width="9.49" height="4.08"/>
        <rect class="g" x="289.85" y="160.82" width="17.96" height="4.08"/>
        <rect class="g" x="315.79" y="160.82" width="11.97" height="4.08"/>
      </g>
      <g>
        <rect class="g" x="272.74" y="174.78" width="9.49" height="4.08"/>
        <rect class="g" x="289.85" y="174.78" width="17.96" height="4.08"/>
        <rect class="g" x="315.79" y="174.78" width="11.97" height="4.08"/>
      </g>
      <g>
        <rect class="g" x="272.74" y="188.75" width="9.49" height="4.08"/>
        <rect class="g" x="289.85" y="188.75" width="17.96" height="4.08"/>
        <rect class="g" x="315.79" y="188.75" width="11.97" height="4.08"/>
      </g>
      <g>
        <rect class="g" x="272.74" y="202.71" width="9.49" height="4.08"/>
        <rect class="g" x="289.85" y="202.71" width="17.96" height="4.08"/>
        <rect class="g" x="315.79" y="202.71" width="11.97" height="4.08"/>
      </g>
      <g>
        <rect class="g" x="272.74" y="216.68" width="9.49" height="4.08"/>
        <rect class="g" x="289.85" y="216.68" width="17.96" height="4.08"/>
        <rect class="g" x="315.79" y="216.68" width="11.97" height="4.08"/>
      </g>
      <g>
        <rect class="g" x="272.74" y="230.65" width="9.49" height="4.08"/>
        <rect class="g" x="289.85" y="230.65" width="17.96" height="4.08"/>
        <rect class="g" x="315.79" y="230.65" width="11.97" height="4.08"/>
      </g>
      <rect class="h" x="23.43" y="152.62" width="171.06" height="134.7" transform="translate(217.93 439.94) rotate(-180)"/>
      <rect class="h" x="23.43" y="287.32" width="171.06" height="125.35" transform="translate(217.93 699.99) rotate(-180)"/>
      <line class="i" x1="194.49" y1="168.05" x2="23.43" y2="168.05"/>
      <line class="i" x1="194.27" y1="273.29" x2="23.21" y2="273.29"/>
      <g>
        <rect class="j" x="153.3" y="187.01" width="18.36" height="65.44" transform="translate(324.95 439.46) rotate(-180)"/>
        <line class="k" x1="171.66" y1="206.36" x2="153.3" y2="206.36"/>
        <line class="k" x1="171.66" y1="229.23" x2="153.3" y2="229.23"/>
        <line class="k" x1="162.48" y1="187.01" x2="162.48" y2="252.45"/>
      </g>
      <g>
        <rect class="j" x="117.47" y="187.01" width="18.36" height="65.44" transform="translate(253.3 439.46) rotate(-180)"/>
        <line class="k" x1="135.83" y1="206.36" x2="117.47" y2="206.36"/>
        <line class="k" x1="135.83" y1="229.23" x2="117.47" y2="229.23"/>
        <line class="k" x1="126.65" y1="187.01" x2="126.65" y2="252.45"/>
      </g>
      <g>
        <rect class="j" x="81.65" y="187.01" width="18.36" height="65.44" transform="translate(181.65 439.46) rotate(-180)"/>
        <line class="k" x1="100.01" y1="206.36" x2="81.65" y2="206.36"/>
        <line class="k" x1="100.01" y1="229.23" x2="81.65" y2="229.23"/>
        <line class="k" x1="90.83" y1="187.01" x2="90.83" y2="252.45"/>
      </g>
      <g>
        <rect class="j" x="45.82" y="187.01" width="18.36" height="65.44" transform="translate(110.01 439.46) rotate(-180)"/>
        <line class="k" x1="64.18" y1="206.36" x2="45.82" y2="206.36"/>
        <line class="k" x1="64.18" y1="229.23" x2="45.82" y2="229.23"/>
        <line class="k" x1="55" y1="187.01" x2="55" y2="252.45"/>
      </g>
      <rect class="l" x="82.81" y="287.32" width="113.03" height="90.74" transform="translate(278.66 665.38) rotate(-180)"/>
      <rect class="g" x="43.32" y="287.32" width="26.42" height="125.35" transform="translate(113.06 699.99) rotate(-180)"/>
      <line class="m" x1="69.74" y1="312.11" x2="43.32" y2="312.11"/>
      <rect class="h" x="105.8" y="110.88" width="16.64" height="4.38"/>
      <rect class="l" x="29.52" y="107.35" width="152.41" height="30.46"/>
      <rect class="g" x="17.1" y="107.35" width="12.12" height="30.46"/>
      <polygon class="g" points="195.84 287.32 212.41 324.74 99.37 324.74 82.6 287.32 195.84 287.32"/>
      <rect class="n" x="148.55" y="137.54" width="8.77" height="15.62"/>
      <rect class="n" x="59.84" y="137.54" width="8.77" height="15.62"/>
      <line class="m" x1="56.53" y1="312.11" x2="56.53" y2="412.11"/>
      <g>
        <line class="o" x1="220.55" y1="223.77" x2="252.77" y2="414.56"/>
        <line class="o" x1="273.06" y1="223.77" x2="305.28" y2="414.56"/>
        <line class="o" x1="225.97" y1="255.9" x2="278.49" y2="255.9"/>
        <line class="o" x1="230.69" y1="280.53" x2="283.2" y2="280.53"/>
        <line class="o" x1="234.22" y1="305.17" x2="286.73" y2="305.17"/>
        <line class="o" x1="237.85" y1="329.41" x2="290.36" y2="329.41"/>
        <line class="o" x1="242.63" y1="354.64" x2="295.14" y2="354.64"/>
      </g>
      <path class="p" d="M231.52,24.19,227.4,37.6h4.12l.47,4.16a5.76,5.76,0,0,0,5.72,5.12h0l4.13,23.72h15.47L245.24,23.26A7,7,0,0,0,238.47,18h0a7,7,0,0,0-6.89,5.84Z"/>
      <path class="q" d="M231.52,24.19s4.47,8.09,15.65,6.63l-1.93-7.56A7,7,0,0,0,238.47,18h0a7,7,0,0,0-6.89,5.84Z"/>
      <path class="r" d="M250.77,61.51h-7.52c-18.11,0-24.86-.74-41.46,6.51L155.23,88H108.31V98.19h54.6l53.78-16.52,8.49,47.23H284l10.55-48.13a13.54,13.54,0,0,0-11.22-16.29l-28.19-2.67Z"/>
      <path class="q" d="M284,128.9h0c4.53,15.28,3,24.07,3,40l-10.8,160.26H264.88l-8.59-164.34a2.75,2.75,0,0,0-5.45-.34L240.11,225,251.6,329.16H237.8l-18.17-111,5.55-89.23Z"/>
      <path class="p" d="M175,134.36l9.59-8a5.2,5.2,0,0,1,6.16-.4l3.71,2.36a5.28,5.28,0,0,0,2.81.81h3a5.25,5.25,0,0,1,5.24,5.24h0C205.45,135.11,175,134.36,175,134.36Z"/>
      <path class="r" d="M278.93,75.16l-10.24,42.65L196.18,128.9V134h75a14.91,14.91,0,0,0,14.58-11.78l7.71-36.1"/>
      <polyline class="s" points="225.97 123.78 268.84 117.68 277.16 82.5"/>
      <rect class="q" x="164.17" y="133.55" width="39.84" height="5.25"/>
      <polygon class="q" points="113.25 85.5 95.41 74.22 104.42 104.66 121.9 91.13 113.25 85.5"/>
      <rect class="g" x="-1.82" y="152.58" width="27.31" height="277.97" transform="translate(23.67 583.13) rotate(-180)"/>
    </g>
  </g>
</svg>
