<svg xmlns="http://www.w3.org/2000/svg" xmlns:xlink="http://www.w3.org/1999/xlink" viewBox="0 0 390 259">
  <defs>
    <style>
      .a, .k, .m, .n {
        fill: none;
      }

      .b {
        clip-path: url(#a);
      }

      .c {
        fill: #c2e4ed;
      }

      .d {
        fill: #50bbb7;
      }

      .e {
        fill: #9fcde4;
      }

      .f {
        fill: #fff;
      }

      .g {
        fill: #1f2b60;
      }

      .h {
        fill: #ec7163;
      }

      .i {
        fill: #f7e197;
      }

      .j {
        fill: #1b507b;
      }

      .k {
        stroke: #1f2b60;
      }

      .k, .m, .n {
        stroke-miterlimit: 10;
      }

      .k, .m {
        stroke-width: 1.48px;
      }

      .l {
        fill: #6186b6;
      }

      .m {
        stroke: #6186b6;
      }

      .n {
        stroke: #1b507b;
        stroke-width: 1.13px;
      }
    </style>
    <clipPath id="a">
      <rect class="a" x="-0.11" y="-6.25" width="390.16" height="289.25"/>
    </clipPath>
  </defs>
  
  <g class="b">
    <path class="c" d="M31.44-98.55h327A31.55,31.55,0,0,1,390-67V283a0,0,0,0,1,0,0H-.11a0,0,0,0,1,0,0V-67A31.55,31.55,0,0,1,31.44-98.55Z"/>
    <rect class="d" x="140.79" y="115.4" width="259.25" height="167.6"/>
    <rect class="e" x="140.79" y="59.3" width="259.25" height="63.7"/>
    <path class="f" d="M243,137h21a0,0,0,0,1,0,0v0a11.19,11.19,0,0,1-11.19,11.19H243a0,0,0,0,1,0,0V137A0,0,0,0,1,243,137Z"/>
    <path class="f" d="M105.55,30.68,109.17,44h-3.62V53a5.44,5.44,0,0,1-5.44,5.44h0l-3,25.37H82.59l6-53.16Z"/>
    <path class="g" d="M88.63,27.06l4.56-1.14a18.1,18.1,0,0,1,17.19,4.76h1.21a4.83,4.83,0,0,1,4.83,4.83H95.88s.46,7.31-8.83,9.09Z"/>
    <circle class="g" cx="81.99" cy="30.08" r="11.11"/>
    <path class="g" d="M119.44,161.77l21.92,90.06V389.57H122l-3.62-129.28L91.65,206.47v183.1H74.74l-23-164.32a83,83,0,0,1,15.47-58.11l3.92-5.37Z"/>
    <path class="h" d="M129.07,90.9,176.23,137h68.26v12.08H167.77l-42.89-32.62-5.44,45.31H71.11L54.2,111,37.28,156.94l52,15.7-2.42,10.88L31.7,171.37A15.1,15.1,0,0,1,20.57,152l16.15-50.68a24.5,24.5,0,0,1,23.15-17l51.9-.39A24.47,24.47,0,0,1,129.07,90.9Z"/>
    <polygon class="i" points="228.19 283 163.01 283 179.31 174.86 244.49 174.86 228.19 283"/>
    <polygon class="j" points="244.49 174.86 257 283 228.19 283 244.49 174.86"/>
    <line class="k" x1="83.14" y1="162.26" x2="80.41" y2="84.49"/>
    <line class="k" x1="120.5" y1="163.5" x2="97.5" y2="83.75"/>
    <path class="l" d="M97.43,158.56h11.16a2.57,2.57,0,0,1,2.57,2.57V163a0,0,0,0,1,0,0H94.87a0,0,0,0,1,0,0v-1.88A2.57,2.57,0,0,1,97.43,158.56Z"/>
    <polygon class="l" points="189.78 51.5 181.32 108.93 200.47 108.93 200.47 49.72 189.78 51.5"/>
    <polygon class="l" points="211.15 51.5 219.61 108.93 200.47 108.93 200.47 49.72 211.15 51.5"/>
    <circle class="m" cx="180.87" cy="53.72" r="8.82"/>
    <polygon class="j" points="253 86.77 233.1 82.32 237.42 108.58 253 108.58 268.59 108.58 272.91 82.32 253 86.77"/>
    <path class="d" d="M253,99.35A20.15,20.15,0,0,0,273.15,79.2h-40.3A20.15,20.15,0,0,0,253,99.35Z"/>
    <path class="l" d="M253,59.05A20.15,20.15,0,0,0,232.85,79.2h40.3A20.15,20.15,0,0,0,253,59.05Z"/>
    <circle class="l" cx="306.33" cy="85.97" r="20.15"/>
    <circle class="e" cx="200.69" cy="51.72" r="11.02"/>
    <polygon class="e" points="211.36 48.98 215.6 52.39 211.05 55.47 209.37 51.5 211.36 48.98"/>
    <rect class="l" x="83" y="161.52" width="40" height="24.24"/>
    <circle class="j" cx="103.75" cy="173.5" r="8.5"/>
    <circle class="g" cx="103.75" cy="173.5" r="5.28"/>
    <polygon class="f" points="98.14 183 83.01 183.74 83.01 173.38 98 173.38 98.14 183"/>
    <circle class="n" cx="306.2" cy="85.94" r="11.62"/>
    <circle class="l" cx="355.22" cy="85.97" r="20.15"/>
    <circle class="n" cx="355.09" cy="85.94" r="11.62"/>
  </g>
</svg>
