<svg xmlns="http://www.w3.org/2000/svg" xmlns:xlink="http://www.w3.org/1999/xlink" viewBox="0 0 389 372">
  <defs>
    <style>
      .a, .p {
        fill: none;
      }

      .b {
        isolation: isolate;
      }

      .c {
        clip-path: url(#a);
      }

      .d {
        fill: #c2e4ed;
      }

      .e {
        fill: #9ed7f5;
      }

      .f {
        fill: #80b2e0;
      }

      .g {
        fill: #f7e197;
      }

      .h {
        fill: #fff;
      }

      .i {
        fill: #7cbce8;
      }

      .j {
        fill: #1f2b60;
      }

      .k {
        fill: #ec7163;
      }

      .l {
        fill: #1b507b;
      }

      .m {
        fill: #6186b6;
      }

      .n {
        fill: #50bbb7;
      }

      .o {
        fill: #d3e6f1;
      }

      .o, .p {
        mix-blend-mode: multiply;
      }

      .p {
        stroke: #ec7163;
        stroke-miterlimit: 10;
        opacity: 0.65;
      }
    </style>
    <clipPath id="a">
      <rect class="a" x="-0.31" y="-9" width="390.31" height="403.75"/>
    </clipPath>
  </defs>
  
  <g class="b">
    <g>
      <g class="c">
        <rect class="d" x="-0.31" y="-151.86" width="388.91" height="546.61"/>
        <rect class="e" x="-0.31" y="258.15" width="390.31" height="156.12"/>
        <g>
          <rect class="f" x="271.51" y="-91.74" width="124.06" height="230"/>
          <rect class="g" x="334.94" y="-63.16" width="61.33" height="200.73"/>
        </g>
        <path class="f" d="M311.94,117.36h43.21a0,0,0,0,1,0,0V244.79a13.36,13.36,0,0,1-13.36,13.36H311.94a0,0,0,0,1,0,0V117.36A0,0,0,0,1,311.94,117.36Z"/>
        <path class="h" d="M300.79,68.5l-7,11.81h5.9V85a7.09,7.09,0,0,0,7.09,7.09h0l2.36,24.79h14.17L318.59,68.5Z"/>
        <rect class="i" x="38.78" y="44.89" width="178.28" height="108.62" rx="9.41"/>
        <polygon class="j" points="108.93 137.57 132.54 137.57 140.81 182.44 100.67 182.44 108.93 137.57"/>
        <circle class="j" cx="120.57" cy="85.83" r="9.22"/>
        <path class="k" d="M308.56,117.5H292.22a34.82,34.82,0,0,0-23.05,8.73l-51.52,45.58H161.39l.57,10.63h73.3L276.68,147v35.42h61.2l26-43.12a14.39,14.39,0,0,0-12.33-21.82Z"/>
        <polyline class="k" points="343.98 137.57 322.73 171.81 261.33 171.81 261.33 182.44 338.08 182.44"/>
        <path class="j" d="M336.89,193.06l3.9,21a25.17,25.17,0,0,1-4.61,19.68h0a25.17,25.17,0,0,1-20.13,10.06H208.2V411.48H192.86l-9.45-145.22L143.27,411.48H124.38l40.09-179.86a25.16,25.16,0,0,1,19.81-19.24L285,193.06Z"/>
        <path class="f" d="M208.79,244.21H355.15a0,0,0,0,1,0,0v0a13.94,13.94,0,0,1-13.94,13.94H208.79a0,0,0,0,1,0,0V244.21A0,0,0,0,1,208.79,244.21Z"/>
        <rect class="l" x="275.7" y="258.15" width="18.12" height="156.12"/>
        <circle class="j" cx="326.57" cy="66.48" r="10.84"/>
        <path class="j" d="M319.28,61.67h-10.2A4.11,4.11,0,0,0,305,65.78h-2.86A4.11,4.11,0,0,0,298,69.89v1.47h20.91Z"/>
        <polyline class="j" points="311.94 69.96 320.2 84.98 325.88 72.75 313.33 69.96"/>
        <rect class="m" x="-0.31" y="182.44" width="343.11" height="17.16"/>
        <rect class="f" x="-0.31" y="199.6" width="121.27" height="214.67"/>
        <rect class="l" x="-0.31" y="199.6" width="96.18" height="214.67"/>
        <circle class="n" cx="6.66" cy="344.57" r="95.61"/>
        <circle class="n" cx="111.38" cy="376.46" r="73.94"/>
        <circle class="n" cx="204.78" cy="399.85" r="56.93"/>
        <path class="n" d="M377.46,330.5l-62.71-81.59V270c0,33.34,28.07,60.37,62.71,60.37h0"/>
        <path class="n" d="M383.82,330.16l-30.18-97.25-7.45,19.87c-11.77,31.35,5.1,66,37.67,77.29h0"/>
        <path class="n" d="M389.72,331.76,389,230.27,376.1,247.33c-20.42,26.93-14.3,64.69,13.68,84.35h0"/>
        <circle class="o" cx="31.75" cy="302.75" r="4.93"/>
        <circle class="o" cx="52.66" cy="322.27" r="4.93"/>
        <circle class="o" cx="111.21" cy="333.42" r="4.93"/>
        <circle class="o" cx="94.48" cy="343.18" r="4.93"/>
        <circle class="o" cx="114" cy="350.15" r="4.93"/>
        <circle class="o" cx="52.66" cy="301.36" r="4.93"/>
        <circle class="o" cx="31.75" cy="327.84" r="4.93"/>
        <path class="o" d="M383.82,330.16l-30.18-97.25-7.45,19.87c-11.77,31.35,5.1,66,37.67,77.29h0"/>
        <rect class="m" x="340.28" y="319.82" width="49.72" height="76.32"/>
        <rect class="l" x="367.16" y="319.82" width="22.84" height="76.32"/>
        <path class="h" d="M263.15,171.72H248.86a13.56,13.56,0,0,0-10.69,5.21l-4.64,5.94h29.2l.42-10.71"/>
        <path class="h" d="M172.54,171.72h-8.37a17.15,17.15,0,0,0-13.5,6.58l-3.57,4.57h25l.42-10.71"/>
      </g>
      <polyline class="p" points="276.68 171.81 323 171.81 339.04 145.53"/>
    </g>
  </g>
</svg>
