<svg xmlns="http://www.w3.org/2000/svg" xmlns:xlink="http://www.w3.org/1999/xlink" viewBox="0 0 389 260">
  <defs>
    <style>
      .a {
        fill: #ecf6fc;
      }

      .b, .i {
        fill: none;
      }

      .c {
        clip-path: url(#a);
      }

      .d {
        fill: #c2e4ed;
      }

      .e {
        fill: #fff;
      }

      .f {
        fill: #6186b6;
      }

      .g {
        fill: #1b507b;
      }

      .h {
        fill: #9fcde4;
      }

      .i {
        stroke: #1f2b60;
        stroke-miterlimit: 10;
        stroke-width: 1.47px;
      }

      .j {
        fill: #1f2b60;
      }

      .k {
        fill: #ec7163;
      }

      .l {
        fill: url(#b);
      }

      .m {
        fill: #7cbce8;
      }

      .n {
        clip-path: url(#c);
      }

      .o {
        fill: #50bbb7;
      }
    </style>
    <clipPath id="a">
      <rect class="a" x="-0.41" y="-16.46" width="389.14" height="300.29"/>
    </clipPath>
    <linearGradient id="b" data-name="未命名漸層 61" x1="71.12" y1="142.36" x2="164.18" y2="142.36" gradientUnits="userSpaceOnUse">
      <stop offset="0" stop-color="#d1dfeb"/>
      <stop offset="0.99" stop-color="#e7f0f2"/>
    </linearGradient>
    <clipPath id="c">
      <rect class="b" x="457.69" y="-11" width="390.31" height="403.75"/>
    </clipPath>
  </defs>
  
  <g>
    <g>
      <rect class="a" x="-0.41" y="-16.46" width="389.14" height="300.29"/>
      <g class="c">
        <path class="d" d="M30.72-88.5H357.6a31.13,31.13,0,0,1,31.13,31.13V283.83a0,0,0,0,1,0,0H-.41a0,0,0,0,1,0,0V-57.37A31.13,31.13,0,0,1,30.72-88.5Z"/>
        <path class="e" d="M357.33,212.06l-1.48,16.11,4.06-1.15a9.47,9.47,0,0,0,6.87-8.24l.89-9.65-10.34,2.93"/>
        <rect class="f" x="154.67" y="67.59" width="65.86" height="84.41"/>
        <rect class="g" x="142.21" y="67.59" width="15.65" height="84.41"/>
        <rect class="h" x="103.19" y="152" width="217.2" height="200.43"/>
        <line class="i" x1="142.01" y1="185.1" x2="247.9" y2="185.1"/>
        <line class="i" x1="142.01" y1="223.77" x2="247.9" y2="223.77"/>
        <g>
          <path class="e" d="M86.79,39.77l8,14.65H89.06v4.19a6,6,0,0,1-6,6h-.81L80,90.5H66.32l6.82-50.73Z"/>
          <path class="j" d="M72,48l14.44-8.26v-.64a7.27,7.27,0,0,0-7.31-7.25h0a7.28,7.28,0,0,0-7.31,7.4Z"/>
          <polygon class="j" points="76.24 44.28 72.83 54.42 71.17 54.42 72.45 45.5 76.24 44.28"/>
          <ellipse class="j" cx="67.14" cy="48.79" rx="9.65" ry="9.57"/>
          <path class="k" d="M91,86H37.51a15.84,15.84,0,0,0-15.69,13.3l-8.29,52.29A11.57,11.57,0,0,0,25,164.91H71.69V151.43H29.89l6-35.56L48.38,170h61.4l1.85-67.69A15.8,15.8,0,0,0,96.18,86.13Z"/>
          <path class="j" d="M48.38,170l-.11.24a182.34,182.34,0,0,0-13.51,93.26l10.67,88.93h97.79L109.78,170Z"/>
          <polygon class="l" points="101.82 100.08 71.12 184.63 132.53 184.63 164.18 100.08 101.82 100.08"/>
          <rect class="e" x="71.12" y="156.45" width="21.61" height="7.89"/>
        </g>
        <g>
          <path class="g" d="M171.23,130.86l-4.62-2.43,12.07-22.5A14.38,14.38,0,0,1,197,99.62l2.37,1-2.1,4.75-2.37-1a9.12,9.12,0,0,0-11.6,4Z"/>
          <path class="g" d="M230.63,119.24l-1.33-4.46,4.74-1.39a11.88,11.88,0,0,0,8.49-10.46l.84-11.55a16.62,16.62,0,0,1,15.37-15.21l4.89-.34.34,4.63-4.9.35a11.9,11.9,0,0,0-11,10.91l-.85,11.55a16.56,16.56,0,0,1-11.83,14.58Z"/>
          <polygon class="m" points="199.09 100.41 225.84 100.41 241.61 151.4 184.01 151.4 199.09 100.41"/>
          <polygon class="g" points="199.09 100.41 212.81 88.17 225.84 100.41 199.09 100.41"/>
          <rect class="g" x="210.75" y="83.41" width="4.11" height="8.84"/>
        </g>
        <path class="e" d="M181.5,138.77h-7.56a11.78,11.78,0,0,0-11.08,7.7L160.81,152H181.5Z"/>
        <g>
          <path class="e" d="M299.22,45.11l-8,14.75h5.72v4.22a6,6,0,0,0,6.05,6h.82l2.29,26.09h13.73l-6.86-51Z"/>
          <path class="k" d="M304.94,87.09H290.57a31.85,31.85,0,0,0-19.35,6.54L229.42,137H180.21v15.88H244.3l34.33-37.44,4.57,45.38h49.21l18.31-47.65,9.46,38.57-3.43,63.54h10.3l8-70.34L362,99.72a24,24,0,0,0-21.16-12.63Z"/>
          <path class="j" d="M283.2,160.83l-32,125.93V443.32h24V301.51l33.19-99.84,10.3,241.65h14.87l11.82-215.75a139.3,139.3,0,0,0-13-66.74H283.2Z"/>
          <path class="j" d="M301.51,48.52,315,60.59h3.64v-20h-19.2a2.81,2.81,0,0,0-1.74,5Z"/>
          <ellipse class="j" cx="315.82" cy="43.41" rx="8.9" ry="8.82"/>
        </g>
      </g>
    </g>
    <g class="n">
      <circle class="o" cx="464.66" cy="342.57" r="95.61"/>
    </g>
  </g>
</svg>
