<svg xmlns="http://www.w3.org/2000/svg" viewBox="0 0 119.36 26.88">
  
  <g>
    <g>
      <path d="M41.2,6.64a5.86,5.86,0,0,1,.8.47c.24.17.44.33.61.47a.35.35,0,0,1-.06.08c-.2.29-.31.43-.31.43a6.79,6.79,0,0,0-.83-.61,3.07,3.07,0,0,0-.59-.33,2.57,2.57,0,0,1,.31-.44s0-.07.07-.07m.23-2.34a4.8,4.8,0,0,1,.73.51c.22.18.42.36.58.51l-.05.09c-.21.28-.33.42-.33.42a5.45,5.45,0,0,0-.78-.66A3.36,3.36,0,0,0,41,4.81a2,2,0,0,1,.32-.44s0-.07.08-.07m1.09,5.11s.06,0,.08.09a5.08,5.08,0,0,1,.27.59.38.38,0,0,1,0,.16c-.2.79-.39,1.46-.58,2-.1.31-.22.65-.36,1a1.15,1.15,0,0,0,0,.36c0,.09,0,.12-.09.12a3.08,3.08,0,0,1-.66-.65A.22.22,0,0,1,41,13a.26.26,0,0,1,0-.14,4.56,4.56,0,0,0,.42-.75,15,15,0,0,0,.57-1.4c.17-.45.3-.86.42-1.24a.25.25,0,0,1,0-.09m.74-1.52.48.18c.07,0,.12.06.12.11s0,.06-.05.08-.07,0-.08.08a6.63,6.63,0,0,1-.33,1l0,.08a.28.28,0,0,1-.15,0l-.31-.13-.07,0V9.15a3.2,3.2,0,0,0,.22-.56A3,3,0,0,0,43.21,8s0-.08,0-.08m1-3.81.59.31,0,.08s0,.08-.11.08a.23.23,0,0,0-.22.1c-.19.34-.38.65-.56.93l.37.4,0,0c.25-.33.44-.62.6-.88a2.81,2.81,0,0,1,.55.51s0,0-.08,0-.14,0-.17,0c-.35.48-.68.92-1,1.33L45,7a2,2,0,0,0-.18-.36,1.34,1.34,0,0,1,.38-.24,4.31,4.31,0,0,1,.32.65,3.6,3.6,0,0,1,.2.58,4,4,0,0,1-.47.13,1.49,1.49,0,0,0-.12-.43l-.55.09V9.25c0,.05,0,.07-.14.07h-.33c-.08,0-.13,0-.13-.07V7.46l-.76.12a1.13,1.13,0,0,1-.26.21,3.42,3.42,0,0,1-.12-.72s.22,0,.69-.06l.56-.72a4.42,4.42,0,0,0-.54-.48,3.15,3.15,0,0,0-.64-.4s.11-.17.33-.38a.06.06,0,0,1,.07,0l.3.26.24-.45c.16-.3.27-.54.35-.71m-.31,5.71h6c.12,0,.17.05.17.13V11.2a.15.15,0,0,1-.17.17H44.69l-.11.48h5.89c.13,0,.2,0,.2.08a7.46,7.46,0,0,1-.36,1.1,1.46,1.46,0,0,1-.55.69,2.93,2.93,0,0,1-1.16.16c-.79,0-1.22-.07-1.3-.22a1.37,1.37,0,0,0-.36-.55q0-.12.09-.12a13,13,0,0,0,1.78.12c.37,0,.62-.06.74-.21a2.59,2.59,0,0,0,.26-.51H44.39c-.09.24-.21.48-.32.71q0,.06-.06.06a.41.41,0,0,1-.16,0l-.48-.08s-.08,0-.08-.07a5,5,0,0,0,.29-.58,4.11,4.11,0,0,0,.3-.77,4.24,4.24,0,0,0,.19-.94c0-.06,0-.09.11-.09l.45.21h4.69v-.47h-5.4c-.05,0-.07-.06-.07-.17V9.92c0-.08,0-.13.07-.13m1.36-2s0,0,0,0c.14.31.26.63.38,1,0,.08,0,.11-.05.12a.92.92,0,0,1-.43.18c-.09-.43-.2-.79-.28-1.07,0-.06.11-.15.33-.26m.47-2.6H48c.06,0,.09,0,.09.13v.26q0,.12-.09.12H45.75q-.09,0-.09-.12V5.32c0-.08,0-.13.09-.13M46,4.34h2s.08,0,.08.08v.27c0,.07,0,.12-.08.12H46c-.05,0-.08,0-.08-.12V4.42c0-.06,0-.08.08-.08m0,1.79h1.87s.07,0,.07.08v.27c0,.07,0,.11-.07.11H46a.1.1,0,0,1-.1-.11V6.21s0-.08.1-.08m0,.81h1.87S48,7,48,7v.26c0,.09,0,.13-.07.13H46c-.06,0-.1,0-.1-.13V7s0-.08.1-.08m0,.85h1.83c.08,0,.12,0,.12.1V9.28c0,.05,0,.09-.12.09H46.05c-.09,0-.14,0-.14-.09V7.89c0-.07.05-.1.14-.1M47.41,8.9V8.27h-.88V8.9h.88m2-4.77.61.3,0,.08s0,.08-.12.08-.18,0-.22.1c-.19.3-.38.56-.56.82a5.22,5.22,0,0,1,.36.42l0,0c.26-.34.48-.66.65-.93a4,4,0,0,1,.54.51s0,0-.07,0a.4.4,0,0,0-.2,0c-.36.5-.73,1-1.08,1.36l.78-.06A1.78,1.78,0,0,0,50,6.52s.13-.12.39-.26a5.36,5.36,0,0,1,.31.65,5.66,5.66,0,0,1,.2.58,4,4,0,0,1-.47.13,2.32,2.32,0,0,0-.11-.41l-.49.11V9.25c0,.05,0,.07-.12.07h-.34c-.09,0-.13,0-.13-.07V7.47l-.68.15a1.58,1.58,0,0,1-.25.22s-.06-.25-.13-.73A3.43,3.43,0,0,1,48.64,7l.64-.8-.47-.43a3.38,3.38,0,0,0-.6-.38s.12-.17.32-.38a.08.08,0,0,1,.07,0l.2.19a4.78,4.78,0,0,0,.26-.42c.16-.28.27-.48.34-.62m-.85,3.76.42.18c.06,0,.09.06.09.11a.1.1,0,0,1,0,.08s0,0,0,.07a6.16,6.16,0,0,1-.24.92.31.31,0,0,1,0,.07.33.33,0,0,1-.13,0l-.29-.13-.05,0V9.06c.07-.2.11-.37.15-.51s.09-.39.11-.58a.45.45,0,0,0,0-.08m1.84-.1s0,0,0,0a10.28,10.28,0,0,1,.47,1.06c0,.08,0,.12,0,.12a.93.93,0,0,1-.43.18c-.13-.46-.26-.84-.38-1.15C50,8,50.15,7.9,50.38,7.79Z" fill="#fff"/>
      <path d="M54,10.61a5,5,0,0,1-.15.92,3.83,3.83,0,0,1-.51,1.23,2.58,2.58,0,0,1-.56.7.19.19,0,0,1-.12,0,3,3,0,0,0-.39-.29.18.18,0,0,1-.05-.15,2.54,2.54,0,0,0,.58-.8,4.89,4.89,0,0,0,.36-1.14,8.09,8.09,0,0,0,.12-1.51v-2c0-.07.06-.12.17-.12H58.3c.11,0,.17,0,.17.12v2.86a.15.15,0,0,1-.17.17H54m2-6.74.79.38c.07.06.1.1.1.14s-.07.12-.22.12l-.14,0,.43.49a4.31,4.31,0,0,0,.76.57,5.59,5.59,0,0,0,1.25.54l.08,0a.18.18,0,0,1,0,.13c-.16.12-.28.24-.42.36a.09.09,0,0,1-.09.07,4.34,4.34,0,0,1-.91-.4,4.84,4.84,0,0,1-.94-.69A7.64,7.64,0,0,1,56,5c-.21.21-.41.4-.61.57a5.87,5.87,0,0,1-.81.61l-.13.08h2.89c.06,0,.09,0,.09.14v.34c0,.08,0,.13-.09.13h-3c-.06,0-.08-.05-.08-.13V6.37l-.61.34a5.94,5.94,0,0,1-.76.36.18.18,0,0,1-.16-.1,1.48,1.48,0,0,0-.33-.38c-.07,0-.11-.08-.11-.11a.17.17,0,0,1,.06-.05A6.14,6.14,0,0,0,53.42,6a6.58,6.58,0,0,0,1.22-.78,5.09,5.09,0,0,0,.67-.58A5.7,5.7,0,0,0,55.83,4,.21.21,0,0,1,56,3.87M54.14,11.2H58.3c.11,0,.17.05.17.14v2.43c0,.08-.06.12-.17.12h-.42c-.11,0-.17,0-.17-.12v-.31h-3v.31q0,.12-.18.12h-.42c-.12,0-.17,0-.17-.12V11.34c0-.09.05-.14.17-.14M54,8.1v.68h3.69V8.1H54m0,1.23V10h3.69V9.33H54m.72,3.5h3v-1h-3v1m4.75-7.67c.53,0,.81,0,.81.12s0,.15-.1.17-.11.08-.11.21v6.05c0,.09-.07.14-.17.14h-.43c-.11,0-.16,0-.16-.14V5.28c0-.08.05-.12.16-.12M61.4,3.91l.86.13c.08,0,.13.06.13.1s0,.09-.14.09-.21.22-.21.51v8.34c0,.51-.38.77-1.14.77h-.78s-.08-.07-.08-.19a1.63,1.63,0,0,0-.21-.5c0-.05,0-.08.09-.08a4.89,4.89,0,0,0,.89.08c.31,0,.46-.12.46-.38V4.69a2.09,2.09,0,0,0,0-.48,1,1,0,0,1,0-.21S61.26,3.91,61.4,3.91Z" fill="#fff"/>
      <path d="M65,11.37l.66.27c.1,0,.16.1.16.16s0,.1-.1.12a.18.18,0,0,0-.19.13,6.84,6.84,0,0,1-.76,1.43c-.06.08-.11.11-.14.11a.37.37,0,0,1-.19-.07l-.4-.18-.09,0a.14.14,0,0,1,.05-.1,4.25,4.25,0,0,0,.52-.8,3.94,3.94,0,0,0,.4-.9c0-.09.06-.14.08-.14m3.5-7.5c.53,0,.8,0,.8.13s0,.16-.11.16-.11.09-.11.23v.35h3.65c.07,0,.09,0,.09.11v.34c0,.09,0,.13-.09.13H71.26l.07,0c.09.05.14.1.14.15s0,.06-.07.09a.17.17,0,0,0-.16.08,5.11,5.11,0,0,1-.52,1h2.61c.07,0,.09,0,.09.12v.34c0,.12,0,.18-.09.18H64.08q-.09,0-.09-.18V6.77q0-.12.09-.12h2.84a10.8,10.8,0,0,0-.8-1.11c0-.06.07-.13.21-.22H64.72c-.06,0-.09,0-.09-.13V4.85c0-.07,0-.11.09-.11h3.56V4c0-.09.06-.13.18-.13M65.52,7.92h6.54c.11,0,.17,0,.17.14v2.76c0,.09-.06.13-.17.13H65.52c-.12,0-.17,0-.17-.13V8.06c0-.1.05-.14.17-.14m.6,1.29h5.35V8.47H66.12v.74m5.35,1.19V9.75H66.12v.65h5.35m-4.84.94.68.07c.09,0,.13,0,.13.05s0,.11-.06.12a.13.13,0,0,0-.08.13v.82c0,.3.19.46.56.46h2.08a2,2,0,0,0,.93-.12c.13-.06.29-.32.47-.77a1.11,1.11,0,0,0,.42.37c.08,0,.13.08.13.14-.26.54-.45.83-.58.88a1.35,1.35,0,0,1-.87.19H67.78c-.8,0-1.2-.25-1.2-.73V11.42c0-.06,0-.08,0-.08m.75-4.69h2.9L70,6.53l-.08,0,0-.07a4,4,0,0,0,.43-.56,3.1,3.1,0,0,0,.24-.53H66.77a9.66,9.66,0,0,1,.87,1c0,.1,0,.16-.07.18l-.19.12m1.24,4.64a6.84,6.84,0,0,1,.8.44l.6.46a.35.35,0,0,1-.06.08c-.21.28-.31.43-.31.43a5.86,5.86,0,0,0-.82-.59c-.24-.14-.44-.24-.58-.31a1.7,1.7,0,0,1,.3-.45s0-.06.07-.06m3.53.05a7.6,7.6,0,0,1,.9.73c.28.28.51.54.71.76a.24.24,0,0,1-.06.08c-.2.31-.31.46-.31.46a10,10,0,0,0-1-1,4.09,4.09,0,0,0-.69-.51,2,2,0,0,1,.34-.48C72.09,11.35,72.12,11.34,72.15,11.34Z" fill="#fff"/>
      <path d="M75.28,5.74h3.77c.08,0,.13.06.13.18v.33c0,.12-.05.18-.13.18H75.28c-.09,0-.13-.06-.13-.18V5.92c0-.12,0-.18.13-.18m.29,4.64h3.18c.12,0,.18,0,.18.14v3.15c0,.09-.06.13-.18.13h-.42c-.12,0-.17,0-.17-.13v-.38h-2v.42q0,.12-.18.12h-.42c-.12,0-.17,0-.17-.12V10.56c0-.11,0-.18.17-.18m.13-1.56h2.92c.09,0,.13,0,.13.16v.34c0,.11,0,.17-.13.17H75.7c-.08,0-.13-.06-.13-.17V9c0-.11.05-.16.13-.16m0-1.58h2.88c.09,0,.13.06.13.17v.33c0,.12,0,.17-.13.17H75.74c-.09,0-.12,0-.12-.17V7.41c0-.11,0-.17.12-.17m.05-3h2.83c.09,0,.13,0,.13.16v.34c0,.12,0,.17-.13.17H75.79c-.09,0-.14,0-.14-.17V4.42c0-.11,0-.16.14-.16m.38,8.35h2V11.08h-2v1.53m3.6-4h4.12a.22.22,0,0,1,.17.06,1.15,1.15,0,0,1,.22.36,14.3,14.3,0,0,1-.57,1.55,7.67,7.67,0,0,1-.66,1.14,4.28,4.28,0,0,1-.41.45,4.66,4.66,0,0,0,1,.57,7.36,7.36,0,0,0,1.43.45l.11,0a.22.22,0,0,1,0,.14,4.6,4.6,0,0,0-.39.38c0,.07-.09.1-.12.1a1,1,0,0,1-.18-.07c-.29-.08-.6-.2-.94-.32a7.56,7.56,0,0,1-1.1-.57l-.32-.23a5.8,5.8,0,0,1-1.17.71,5.46,5.46,0,0,1-1.22.44.21.21,0,0,1-.19-.1l-.24-.36c-.05,0-.07-.07-.07-.1s0-.06.07-.07c.3-.08.61-.17.91-.28a4.34,4.34,0,0,0,1.35-.74l0,0a3.37,3.37,0,0,1-.64-.93,5.62,5.62,0,0,1-.54-1.34V9.71A2,2,0,0,1,81,9.58a4.46,4.46,0,0,0,.33,1,3.34,3.34,0,0,0,.6.94l.15.16a5,5,0,0,0,.43-.49,4.84,4.84,0,0,0,.6-1.1,4.91,4.91,0,0,0,.29-.81H79.77q-.12,0-.12-.18V8.73c0-.11,0-.17.12-.17m.81-4.39h2.54c.12,0,.18,0,.18.13V6.78c0,.09,0,.15.09.18a.51.51,0,0,0,.28.06h.38a.31.31,0,0,0,.32-.17A3.28,3.28,0,0,0,84.56,6s0-.06.09-.06a.33.33,0,0,1,.14,0,2.38,2.38,0,0,0,.35.12c.1,0,.16.08.16.17A8.33,8.33,0,0,1,85,7.51a.57.57,0,0,1-.58.28H83.3a1.26,1.26,0,0,1-.63-.13.37.37,0,0,1-.14-.31V4.76H81.18V5.3A5.11,5.11,0,0,1,81,6.58a2,2,0,0,1-.54.89,3,3,0,0,1-.67.53.32.32,0,0,1-.2-.07,2.52,2.52,0,0,0-.3-.35.25.25,0,0,1-.06-.13,2.29,2.29,0,0,0,1.06-1.11,4.29,4.29,0,0,0,.12-1.06v-1C80.44,4.21,80.49,4.17,80.58,4.17Z" fill="#fff"/>
      <path d="M86.66,5.74h4.49c.09,0,.13.06.13.18v.33c0,.12,0,.18-.13.18H86.66c-.09,0-.14-.06-.14-.18V5.92c0-.12,0-.18.14-.18m.5,4.6h3.39c.13,0,.18,0,.18.13v3.24c0,.08,0,.12-.18.12h-.42c-.12,0-.17,0-.17-.12V13.2H87.75v.51c0,.08-.06.12-.16.12h-.43c-.11,0-.17,0-.17-.12V10.52c0-.12.06-.18.17-.18m.08-1.61h3.27c.09,0,.13,0,.13.15v.36c0,.11,0,.17-.13.17H87.24c-.08,0-.12-.06-.12-.17V8.88q0-.15.12-.15m.05-1.49h3.22c.09,0,.13,0,.13.17v.33c0,.12,0,.17-.13.17H87.29c-.09,0-.13,0-.13-.17V7.41c0-.12,0-.17.13-.17m0-3h3.09c.09,0,.13,0,.13.16v.34c0,.11,0,.17-.13.17H87.33c-.08,0-.12-.06-.12-.17V4.42c0-.11,0-.16.12-.16m.42,8.25H90V11H87.75v1.48M91.4,7.15h2v-3c0-.08.06-.12.17-.12.54,0,.82,0,.82.12s0,.16-.11.17-.11.08-.11.22v2.6h2.12c.09,0,.13,0,.13.17v.34c0,.12,0,.17-.13.17H94.21v5.88c0,.08-.07.12-.18.12h-.42c-.11,0-.17,0-.17-.12V7.83h-2c-.08,0-.12,0-.12-.17V7.32C91.28,7.2,91.32,7.15,91.4,7.15Z" fill="#fff"/>
      <path d="M98.72,6h3.91V4.12c0-.09.06-.13.17-.13.57,0,.85,0,.85.13s0,.16-.1.16-.11.08-.11.23V6h3.66c.14,0,.2,0,.2.13V11c0,.08-.06.12-.2.12h-.43c-.11,0-.17,0-.17-.12V10.2h-3.06v3.55q0,.12-.21.12h-.43c-.11,0-.17,0-.17-.12V10.2H99.37V11c0,.08-.08.12-.22.12h-.43q-.15,0-.15-.12V6.11A.14.14,0,0,1,98.72,6m.65,3.49h3.26V6.71H99.37V9.44m4.07-2.73V9.44h3.06V6.71Z" fill="#fff"/>
      <path d="M110.65,7.57l.73.3c.11,0,.17.1.17.17a.26.26,0,0,1-.13.26c-.12,0-.19.09-.22.28a20.76,20.76,0,0,1-1,3.09c-.08.18-.14.25-.18.25a.34.34,0,0,1-.19-.07l-.47-.21-.11-.05a.35.35,0,0,1,.06-.18,11.5,11.5,0,0,0,.7-1.68,10.75,10.75,0,0,0,.49-1.87c0-.2.08-.29.11-.29m1.83-1.1.79.08c.1,0,.14,0,.14.08s0,.12-.07.13a.13.13,0,0,0-.1.14v5.32c0,.34.2.52.6.52h2c.6,0,1-.11,1.07-.31a6,6,0,0,0,.54-1.91A1.37,1.37,0,0,0,118,11c.1,0,.16.09.16.15a5.64,5.64,0,0,1-.68,2,1.06,1.06,0,0,1-1,.4h-2.72c-.87,0-1.31-.28-1.31-.81V6.59c0-.08,0-.12,0-.12M113,4a.49.49,0,0,1,.19.06,16.69,16.69,0,0,1,2.52,1.43c.09,0,.13.1.13.17a.21.21,0,0,1,0,.11l-.23.3a.42.42,0,0,1-.2,0,.5.5,0,0,1-.23-.11,16.7,16.7,0,0,0-2.35-1.28c-.15,0-.22-.11-.22-.17a.28.28,0,0,1,0-.13l.27-.39A.24.24,0,0,1,113,4m3.64,3.41a16.39,16.39,0,0,1,1.54,1.13c.46.43.86.82,1.18,1.16a.4.4,0,0,1-.06.11,3,3,0,0,1-.41.53,14.24,14.24,0,0,0-1.6-1.51,7.49,7.49,0,0,0-1.16-.79,2.75,2.75,0,0,1,.41-.54C116.58,7.48,116.62,7.45,116.64,7.45Z" fill="#fff"/>
      <path d="M30.88,9.15h6.76c.12,0,.19,0,.19.13v4.37c0,.08-.07.12-.19.12h-.45c-.11,0-.18,0-.18-.12v-.38h-5.5v.34c0,.07-.06.12-.18.12h-.45c-.12,0-.17-.05-.17-.12V9.33c0-.13.05-.18.17-.18m.63,3.41H37V9.86h-5.5Z" fill="#fff"/>
      <path d="M30.13,8.55c-.09.07-.05.2-.22.2s-.28-.42-.56-1.08h8.84v.68H30.44A.6.6,0,0,0,30.13,8.55Z" fill="#fff"/>
      <path d="M37.63,7.68A12,12,0,0,0,36.41,6c0-.05.22-.18.66-.38a15.13,15.13,0,0,1,1.35,2,8.88,8.88,0,0,1,.85,1.72,2.52,2.52,0,0,1-.79.25A5.56,5.56,0,0,0,38,8.34Z" fill="#fff"/>
      <path d="M30.89,7.92a23.25,23.25,0,0,0,1.49-2.74,11.69,11.69,0,0,0,.48-1.36s0-.07.09-.07C33.66,4,34,4.1,34,4.17a.13.13,0,0,1-.15.13c-.11,0-.17,0-.17.09-.31.66-.71,1.42-1.21,2.28-.24.42-.62,1-.88,1.32Z" fill="#fff"/>
      <polygon points="31.44 18.66 29.88 18.66 29.88 18.21 33.52 18.21 33.52 18.66 31.95 18.66 31.95 23.48 31.44 23.48 31.44 18.66" fill="#fff"/>
      <path d="M35.75,18.21h.58l2.1,5.27h-.55l-.56-1.41H34.65l-.57,1.41h-.5l2.17-5.27m.25.5-1.16,2.9h2.3Z" fill="#fff"/>
      <polygon points="47.17 23.48 46.54 23.48 45.21 18.8 45.19 18.8 43.82 23.48 43.2 23.48 41.69 18.21 42.23 18.21 43.52 22.89 43.54 22.89 44.9 18.21 45.52 18.21 46.85 22.89 46.87 22.89 48.19 18.21 48.7 18.21 47.17 23.48" fill="#fff"/>
      <path d="M51.31,18.21h.58L54,23.48h-.55l-.56-1.41H50.22l-.57,1.41h-.51l2.17-5.27m.25.5-1.16,2.9h2.31Z" fill="#fff"/>
      <polygon points="55.28 18.21 55.94 18.21 58.63 22.84 58.64 22.84 58.64 18.21 59.16 18.21 59.16 23.48 58.45 23.48 55.81 18.94 55.8 18.94 55.8 23.48 55.28 23.48 55.28 18.21" fill="#fff"/>
      <path d="M62.47,18.21h1.31a2.36,2.36,0,0,1,2.64,2.63c0,1.91-1.28,2.64-3,2.64h-.92V18.21M63,23h.43c1.5,0,2.48-.61,2.48-2.22a1.92,1.92,0,0,0-2.14-2.15H63Z" fill="#fff"/>
      <polygon points="67.57 18.21 70.16 18.21 70.16 18.66 68.09 18.66 68.09 20.54 70.06 20.54 70.06 21 68.09 21 68.09 23.03 70.25 23.03 70.25 23.48 67.57 23.48 67.57 18.21" fill="#fff"/>
      <path d="M71.42,22.8a2,2,0,0,0,1.16.32A1.06,1.06,0,0,0,73.78,22c0-1-2.43-1.17-2.43-2.55,0-.84.74-1.36,1.68-1.36a3.24,3.24,0,0,1,1,.16l-.08.48a2.29,2.29,0,0,0-1-.19c-.54,0-1.14.22-1.14.9,0,1.06,2.43,1.06,2.43,2.6a1.55,1.55,0,0,1-1.74,1.48,3.13,3.13,0,0,1-1.2-.22Z" fill="#fff"/>
      <path d="M82.25,21.08H81v-.45h1.75v2.62a4.08,4.08,0,0,1-1.64.31,2.51,2.51,0,0,1-2.67-2.72,2.54,2.54,0,0,1,2.67-2.71,3.77,3.77,0,0,1,1.41.24l-.06.49a2.76,2.76,0,0,0-1.35-.28A2.07,2.07,0,0,0,79,20.84a2.06,2.06,0,0,0,2.15,2.28,2.65,2.65,0,0,0,1.11-.19Z" fill="#fff"/>
      <polygon points="84.64 18.21 85.3 18.21 87.98 22.84 88 22.84 88 18.21 88.52 18.21 88.52 23.48 87.82 23.48 85.17 18.94 85.16 18.94 85.16 23.48 84.64 23.48 84.64 18.21" fill="#fff"/>
      <path d="M95.5,18.8a2.79,2.79,0,0,0-1.18-.22,2.07,2.07,0,0,0-2.15,2.26,2.06,2.06,0,0,0,2.15,2.28,2.65,2.65,0,0,0,1.18-.23l0,.45a2.92,2.92,0,0,1-1.21.22,2.52,2.52,0,0,1-2.67-2.72,2.55,2.55,0,0,1,2.67-2.71,3.27,3.27,0,0,1,1.21.19Z" fill="#fff"/>
      <polygon points="96.93 18.21 99.52 18.21 99.52 18.66 97.45 18.66 97.45 20.54 99.41 20.54 99.41 21 97.45 21 97.45 23.03 99.61 23.03 99.61 23.48 96.93 23.48 96.93 18.21" fill="#fff"/>
      <polygon points="101.25 18.21 101.91 18.21 104.6 22.84 104.62 22.84 104.62 18.21 105.13 18.21 105.13 23.48 104.43 23.48 101.79 18.94 101.78 18.94 101.78 23.48 101.25 23.48 101.25 18.21" fill="#fff"/>
      <polygon points="107.95 18.66 106.4 18.66 106.4 18.21 110.04 18.21 110.04 18.66 108.48 18.66 108.48 23.48 107.95 23.48 107.95 18.66" fill="#fff"/>
      <polygon points="111.37 18.21 113.95 18.21 113.95 18.66 111.89 18.66 111.89 20.54 113.84 20.54 113.84 21 111.89 21 111.89 23.03 114.05 23.03 114.05 23.48 111.37 23.48 111.37 18.21" fill="#fff"/>
      <path d="M115.77,18.21h1.36c.94,0,1.55.41,1.55,1.37a1.24,1.24,0,0,1-1.17,1.22h0c.43.05.51.27.68.63l.9,2h-.58l-.75-1.78c-.31-.68-.54-.7-1-.7h-.43v2.48h-.52V18.21m.52,2.33h.55c.62,0,1.33-.23,1.33-1s-.62-.92-1.34-.92h-.54Z" fill="#fff"/>
      <path d="M40.64,22.08c-.35.7-.61.94-.71.94a.17.17,0,0,1-.15-.18,6.91,6.91,0,0,1,.15-.8l.76-3.89,0,0a12,12,0,0,1-1.4.29v.2c.48,0,.55.06.55.31s-.69,3.34-.69,3.91c0,.22,0,.75.42.75s.86-.66,1.2-1.37Z" fill="#fff"/>
      <path d="M40.58,16.83c.29,0,.42-.38.42-.61s-.14-.67-.43-.67-.42.23-.42.65S40.36,16.83,40.58,16.83Z" fill="#fff"/>
      <path d="M77,22.16c-.36.71-.61.95-.71.95s-.15-.1-.15-.18a6.2,6.2,0,0,1,.15-.8l.76-3.9,0,0c-.34.08-1.07.27-1.4.3v.2c.47,0,.55.05.55.31s-.69,3.34-.69,3.91c0,.21,0,.74.41.74s.87-.66,1.21-1.37Z" fill="#fff"/>
      <path d="M77,16.92c.28,0,.42-.38.42-.62s-.14-.67-.42-.67-.41.23-.41.65S76.75,16.92,77,16.92Z" fill="#fff"/>
    </g>
    <path d="M13.49,26.88a13.48,13.48,0,0,0,8.06-2.66A12.42,12.42,0,0,1,3.2,13.4,12.39,12.39,0,0,1,21.09,2.34a13.46,13.46,0,1,0-7.6,24.54" fill="#fff"/>
    <g>
      <path d="M15.69,4.18a9.4,9.4,0,0,0-2.2.26V9.08H19.8v4.35H16.48v5.88h-3v3.2a10,10,0,0,0,2.2.25,9.29,9.29,0,1,0,0-18.58Z" fill="#fff"/>
      <rect x="8.9" y="9.3" width="4.48" height="4.14" fill="#fff"/>
    </g>
  </g>
</svg>
