<svg xmlns="http://www.w3.org/2000/svg" xmlns:xlink="http://www.w3.org/1999/xlink" viewBox="0 0 562.85 667.2" width="562.85" height="667.2">
  <defs>
    <linearGradient id="a" data-name="未命名漸層 97" x1="356.06" y1="53.59" x2="-86.55" y2="65.64" gradientUnits="userSpaceOnUse">
      <stop offset="0" stop-color="#efd380"/>
      <stop offset="0.98" stop-color="#fff193"/>
    </linearGradient>
  </defs>

  <g style="isolation: isolate">
    <g>
      <text transform="translate(306.32 63.15)" font-size="25" fill="#1b507b"  letter-spacing="0.1em">制度化成熟的<tspan x="0" y="38">消費市場</tspan></text>
      <g>
        <polygon points="271.88 80.9 179.74 98.12 85.88 98.12 85.88 78.32 176.29 68.84 271.88 80.9" fill="#1b507b"/>
        <path d="M96.58,109.32H282.21L275,99.93a13.38,13.38,0,0,0-10.63-5.25H85.88v3.93A10.71,10.71,0,0,0,96.58,109.32Z" fill="#6186b6"/>
        <path d="M76.49,36.94q-5,3.66-10,7.26c3,1.71,4.52,2.55,7.53,4.22C71,50.68,69.43,51.81,66.35,54c3,1.71,4.52,2.55,7.54,4.23-3.09,2.26-4.63,3.38-7.72,5.61,3,1.7,4.52,2.55,7.54,4.22-3.09,2.26-4.63,3.38-7.72,5.61,3,1.7,4.52,2.55,7.54,4.22-3.09,2.26-4.63,3.38-7.72,5.61q4.86,2.75,9.74,5.44c98.58.21,97.29-9.94,195.91-8.49L272.12,44a15.39,15.39,0,0,0-15.45-15.67C163.38,28.77,169.83,37.14,76.49,36.94Z" fill="url(#a)"/>
        <text transform="translate(141.15 68.63)" font-size="26.24" fill="#1b507b"  letter-spacing="0.1em">北美</text>
      </g>
      <g>
        <g>
          <rect x="86.3" y="303.45" width="54.51" height="89.61" fill="#6186b6"/>
          <rect x="94.91" y="287.82" width="37.3" height="17.05" fill="#6186b6"/>
          <line x1="113.56" y1="287.82" x2="113.56" y2="268.41" fill="none" stroke="#1b507b" stroke-miterlimit="10" stroke-width="1.92"/>
        </g>
        <rect x="346.23" y="237.2" width="59.64" height="13.24" fill="#1b507b"/>
        <line x1="377.39" y1="268.98" x2="392.68" y2="268.98" fill="none" stroke="#1b507b" stroke-miterlimit="10" stroke-width="2.85"/>
        <rect x="140.74" y="317.07" width="56.8" height="141.64" fill="#1b507b"/>
        <rect x="76.32" y="388.22" width="78.93" height="127.03" fill="#a0d6e2"/>
        <rect x="45.31" y="429.09" width="106.71" height="66.25" fill="#a0d6e2"/>
        <g>
          <rect x="301.84" y="231.76" width="84.64" height="266.4" fill="#6186b6"/>
          <polygon points="387.82 496.75 349.29 231.76 310.63 496.68 349.16 496.68 349.16 496.75 387.82 496.75" fill="#1b507b"/>
        </g>
        <line x1="229.47" y1="265.78" x2="229.47" y2="255.72" fill="none" stroke="#1b507b" stroke-miterlimit="10" stroke-width="1.06"/>
        <rect x="125.66" y="387.48" width="39.47" height="110.68" fill="#67a5d9"/>
        <rect x="447.02" y="364.25" width="57.79" height="132.49" fill="#50bbb7"/>
        <rect x="197.54" y="342.56" width="56.62" height="116.16" fill="#1b507b"/>
        <g>
          <rect x="253.37" y="296.72" width="49.37" height="213.62" fill="#1b507b"/>
          <rect x="262.31" y="277.77" width="32.19" height="20.95" fill="#1b507b"/>
          <polygon points="278.05 264.17 266.96 269.18 266.96 277.77 278.05 277.77 289.14 277.77 289.14 269.18 278.05 264.17" fill="#1b507b"/>
          <line x1="278.05" y1="264.17" x2="278.05" y2="247.97" fill="none" stroke="#1b507b" stroke-miterlimit="10" stroke-width="1.06"/>
          <g>
            <rect x="266.6" y="282.77" width="1.79" height="2.86" fill="#7cbce8"/>
            <rect x="266.6" y="287.78" width="1.79" height="2.86" fill="#7cbce8"/>
            <g>
              <rect x="270.89" y="282.77" width="1.79" height="2.86" fill="#7cbce8"/>
              <rect x="270.89" y="287.78" width="1.79" height="2.86" fill="#7cbce8"/>
            </g>
            <g>
              <rect x="275.19" y="282.77" width="1.79" height="2.86" fill="#7cbce8"/>
              <rect x="275.19" y="287.78" width="1.79" height="2.86" fill="#7cbce8"/>
            </g>
          </g>
          <g>
            <rect x="259.45" y="302.81" width="6.7" height="2.88" fill="#7cbce8"/>
            <rect x="271.54" y="302.81" width="12.69" height="2.88" fill="#7cbce8"/>
            <rect x="289.86" y="302.81" width="8.46" height="2.88" fill="#7cbce8"/>
          </g>
          <g>
            <rect x="259.45" y="312.67" width="6.7" height="2.88" fill="#7cbce8"/>
            <rect x="271.54" y="312.67" width="12.69" height="2.88" fill="#7cbce8"/>
            <rect x="289.86" y="312.67" width="8.46" height="2.88" fill="#7cbce8"/>
          </g>
          <g>
            <rect x="259.45" y="322.54" width="6.7" height="2.88" fill="#7cbce8"/>
            <rect x="271.54" y="322.54" width="12.69" height="2.88" fill="#7cbce8"/>
            <rect x="289.86" y="322.54" width="8.46" height="2.88" fill="#7cbce8"/>
          </g>
          <g>
            <rect x="259.45" y="332.41" width="6.7" height="2.88" fill="#7cbce8"/>
            <rect x="271.54" y="332.41" width="12.69" height="2.88" fill="#7cbce8"/>
            <rect x="289.86" y="332.41" width="8.46" height="2.88" fill="#7cbce8"/>
          </g>
          <g>
            <rect x="259.45" y="342.27" width="6.7" height="2.88" fill="#7cbce8"/>
            <rect x="271.54" y="342.27" width="12.69" height="2.88" fill="#7cbce8"/>
            <rect x="289.86" y="342.27" width="8.46" height="2.88" fill="#7cbce8"/>
          </g>
          <g>
            <rect x="259.45" y="352.14" width="6.7" height="2.88" fill="#7cbce8"/>
            <rect x="271.54" y="352.14" width="12.69" height="2.88" fill="#7cbce8"/>
            <rect x="289.86" y="352.14" width="8.46" height="2.88" fill="#7cbce8"/>
          </g>
          <g>
            <rect x="259.45" y="362.01" width="6.7" height="2.88" fill="#7cbce8"/>
            <rect x="271.54" y="362.01" width="12.69" height="2.88" fill="#7cbce8"/>
            <rect x="289.86" y="362.01" width="8.46" height="2.88" fill="#7cbce8"/>
          </g>
          <g>
            <rect x="259.45" y="371.87" width="6.7" height="2.88" fill="#7cbce8"/>
            <rect x="271.54" y="371.87" width="12.69" height="2.88" fill="#7cbce8"/>
            <rect x="289.86" y="371.87" width="8.46" height="2.88" fill="#7cbce8"/>
          </g>
          <g>
            <rect x="259.45" y="381.74" width="6.7" height="2.88" fill="#7cbce8"/>
            <rect x="271.54" y="381.74" width="12.69" height="2.88" fill="#7cbce8"/>
            <rect x="289.86" y="381.74" width="8.46" height="2.88" fill="#7cbce8"/>
          </g>
        </g>
        <g>
          <rect x="227.2" y="265.78" width="4.54" height="23.27" fill="#1b507b"/>
          <path d="M229.75,285.65h0a6.26,6.26,0,0,1,6.26,6.26v15.87a0,0,0,0,1,0,0H223.49a0,0,0,0,1,0,0V291.91A6.26,6.26,0,0,1,229.75,285.65Z" fill="#55a0d5"/>
          <path d="M229.75,295.3h0a9,9,0,0,1,9,9v22.79a0,0,0,0,1,0,0h-18a0,0,0,0,1,0,0V304.29A9,9,0,0,1,229.75,295.3Z" fill="#67a5d9"/>
          <rect x="214.43" y="350.07" width="30.65" height="94.22" fill="#7cbce8"/>
          <path d="M229.75,307.22h0a12.2,12.2,0,0,1,12.2,12.2v30.93a0,0,0,0,1,0,0H217.55a0,0,0,0,1,0,0V319.42A12.2,12.2,0,0,1,229.75,307.22Z" fill="#7cbce8"/>
          <path d="M229.75,312.89h0a8.67,8.67,0,0,1,8.67,8.67v28.79a0,0,0,0,1,0,0H221.08a0,0,0,0,1,0,0V321.56a8.67,8.67,0,0,1,8.67-8.67Z" fill="#67a5d9"/>
          <line x1="214.43" y1="356.6" x2="245.08" y2="356.6" fill="none" stroke="#1b507b" stroke-miterlimit="10" stroke-width="0.7"/>
          <line x1="214.43" y1="361.71" x2="245.08" y2="361.71" fill="none" stroke="#1b507b" stroke-miterlimit="10" stroke-width="0.7"/>
          <line x1="214.43" y1="366.82" x2="245.08" y2="366.82" fill="none" stroke="#1b507b" stroke-miterlimit="10" stroke-width="0.7"/>
          <line x1="214.43" y1="371.92" x2="245.08" y2="371.92" fill="none" stroke="#1b507b" stroke-miterlimit="10" stroke-width="0.7"/>
          <line x1="214.43" y1="377.03" x2="245.08" y2="377.03" fill="none" stroke="#1b507b" stroke-miterlimit="10" stroke-width="0.7"/>
          <line x1="214.43" y1="382.14" x2="245.08" y2="382.14" fill="none" stroke="#1b507b" stroke-miterlimit="10" stroke-width="0.7"/>
          <line x1="214.43" y1="387.25" x2="245.08" y2="387.25" fill="none" stroke="#1b507b" stroke-miterlimit="10" stroke-width="0.7"/>
          <line x1="214.43" y1="392.36" x2="245.08" y2="392.36" fill="none" stroke="#1b507b" stroke-miterlimit="10" stroke-width="0.7"/>
          <line x1="214.43" y1="397.46" x2="245.08" y2="397.46" fill="none" stroke="#1b507b" stroke-miterlimit="10" stroke-width="0.7"/>
          <line x1="214.43" y1="402.57" x2="245.08" y2="402.57" fill="none" stroke="#1b507b" stroke-miterlimit="10" stroke-width="0.7"/>
          <line x1="214.43" y1="407.68" x2="245.08" y2="407.68" fill="none" stroke="#52a68f" stroke-miterlimit="10" stroke-width="0.45"/>
          <line x1="214.43" y1="412.79" x2="245.08" y2="412.79" fill="none" stroke="#52a68f" stroke-miterlimit="10" stroke-width="0.45"/>
          <line x1="214.43" y1="417.9" x2="245.08" y2="417.9" fill="none" stroke="#52a68f" stroke-miterlimit="10" stroke-width="0.45"/>
          <line x1="214.43" y1="423.01" x2="245.08" y2="423.01" fill="none" stroke="#52a68f" stroke-miterlimit="10" stroke-width="0.45"/>
          <line x1="214.43" y1="428.11" x2="245.08" y2="428.11" fill="none" stroke="#52a68f" stroke-miterlimit="10" stroke-width="0.45"/>
        </g>
        <line x1="229.25" y1="324.79" x2="229.25" y2="350.36" fill="none" stroke="#1b507b" stroke-miterlimit="10" stroke-width="0.7"/>
        <line x1="221.08" y1="324.79" x2="238.42" y2="324.79" fill="none" stroke="#1b507b" stroke-miterlimit="10" stroke-width="0.7"/>
        <rect x="165.12" y="424.86" width="130.82" height="70.79" fill="#a0d6e2"/>
        <g>
          <rect x="250.4" y="412.65" width="101.71" height="72.62" fill="#6186b6"/>
          <rect x="253.08" y="485.22" width="104.75" height="5.58" fill="#e3e3e3"/>
          <rect x="253.08" y="490.8" width="104.75" height="5.58" fill="#c1c2c3"/>
          <rect x="245.11" y="412.74" width="7.97" height="72.49" fill="#fff"/>
          <rect x="265.03" y="412.74" width="7.97" height="72.49" fill="#fff"/>
          <rect x="285.74" y="412.74" width="7.97" height="72.49" fill="#fff"/>
          <rect x="245.11" y="478.85" width="7.97" height="6.37" fill="#b9c5d6"/>
          <rect x="265.03" y="478.85" width="7.97" height="6.37" fill="#b9c5d6"/>
          <rect x="285.74" y="478.85" width="7.97" height="6.37" fill="#b9c5d6"/>
          <polygon points="301.27 381.27 244.72 400.39 301.27 400.39 301.27 381.27" fill="#fff"/>
          <rect x="244.72" y="400.39" width="56.55" height="6.37" fill="#b9c5d6"/>
          <rect x="244.72" y="406.76" width="56.55" height="6.37" fill="#fff"/>
          <rect x="349.46" y="412.74" width="7.97" height="72.49" transform="translate(706.89 897.96) rotate(-180)" fill="#fff"/>
          <rect x="329.55" y="412.74" width="7.97" height="72.49" transform="translate(667.06 897.96) rotate(-180)" fill="#fff"/>
          <rect x="308.84" y="412.74" width="7.97" height="72.49" transform="translate(625.64 897.96) rotate(-180)" fill="#fff"/>
          <rect x="349.46" y="478.85" width="7.97" height="6.37" transform="translate(706.89 964.07) rotate(-180)" fill="#b9c5d6"/>
          <rect x="329.55" y="478.85" width="7.97" height="6.37" transform="translate(667.06 964.07) rotate(-180)" fill="#b9c5d6"/>
          <rect x="308.84" y="478.85" width="7.97" height="6.37" transform="translate(625.64 964.07) rotate(-180)" fill="#b9c5d6"/>
          <polygon points="301.27 381.27 357.83 400.39 301.27 400.39 301.27 381.27" fill="#fff"/>
          <rect x="301.27" y="400.39" width="56.55" height="6.37" transform="translate(659.1 807.15) rotate(-180)" fill="#b9c5d6"/>
          <rect x="301.27" y="406.76" width="56.55" height="6.37" transform="translate(659.1 819.9) rotate(-180)" fill="#fff"/>
          <rect x="241.93" y="485.22" width="11.15" height="11.15" fill="#e3e3e3"/>
          <rect x="349.06" y="485.26" width="11.15" height="11.15" fill="#e3e3e3"/>
          <path d="M244.65,412.87h11.26a0,0,0,0,1,0,0v2.19a3.26,3.26,0,0,1-3.26,3.26h-8a0,0,0,0,1,0,0v-5.45A0,0,0,0,1,244.65,412.87Z" fill="#b9c5d6"/>
          <path d="M346.6,412.87h8a3.26,3.26,0,0,1,3.26,3.26v2.19a0,0,0,0,1,0,0H346.6a0,0,0,0,1,0,0v-5.45A0,0,0,0,1,346.6,412.87Z" transform="translate(704.47 831.19) rotate(-180)" fill="#b9c5d6"/>
          <path d="M263.54,412.87H274.8a0,0,0,0,1,0,0v2a3.48,3.48,0,0,1-3.48,3.48H267a3.48,3.48,0,0,1-3.48-3.48v-2A0,0,0,0,1,263.54,412.87Z" fill="#b9c5d6"/>
          <path d="M284.24,412.87H295.5a0,0,0,0,1,0,0v2a3.48,3.48,0,0,1-3.48,3.48h-4.3a3.48,3.48,0,0,1-3.48-3.48v-2A0,0,0,0,1,284.24,412.87Z" fill="#b9c5d6"/>
          <path d="M307.12,412.87h11.26a0,0,0,0,1,0,0v2a3.48,3.48,0,0,1-3.48,3.48h-4.3a3.48,3.48,0,0,1-3.48-3.48v-2A0,0,0,0,1,307.12,412.87Z" fill="#b9c5d6"/>
          <path d="M327.83,412.87h11.26a0,0,0,0,1,0,0v2a3.48,3.48,0,0,1-3.48,3.48h-4.3a3.48,3.48,0,0,1-3.48-3.48v-2A0,0,0,0,1,327.83,412.87Z" fill="#b9c5d6"/>
          <rect x="297.21" y="446.05" width="8.35" height="39.22" fill="#1b507b"/>
          <rect x="297.21" y="424.54" width="8.35" height="8.35" fill="#1b507b"/>
          <rect x="254.96" y="446.05" width="8.35" height="39.22" fill="#1b507b"/>
          <rect x="254.96" y="424.54" width="8.35" height="8.35" fill="#1b507b"/>
          <rect x="339.22" y="446.05" width="8.35" height="39.22" fill="#1b507b"/>
          <rect x="339.22" y="424.54" width="8.35" height="8.35" fill="#1b507b"/>
        </g>
        <rect x="45.6" y="496.41" width="459.21" height="27.33" fill="#f7e197"/>
        <path d="M45.6,517.67H504.81a0,0,0,0,1,0,0v0A22.78,22.78,0,0,1,482,540.44H68.38A22.78,22.78,0,0,1,45.6,517.67v0a0,0,0,0,1,0,0Z" fill="#67a5d9"/>
        <rect x="387.82" y="461.51" width="22.55" height="9.87" fill="#6186b6"/>
        <g>
          <polygon points="73.83 419.93 60.77 437.33 73.83 437.33 86.88 437.33 73.83 419.93" fill="#6186b6"/>
          <polygon points="73.83 432.98 60.77 450.39 73.83 450.39 86.88 450.39 73.83 432.98" fill="#6186b6"/>
          <rect x="72.24" y="448.41" width="3.16" height="13.45" fill="#1b507b"/>
        </g>
        <line x1="309.98" y1="262.06" x2="326.26" y2="262.06" fill="none" stroke="#1b507b" stroke-miterlimit="10" stroke-width="3.03"/>
        <line x1="309.98" y1="272.64" x2="326.26" y2="272.64" fill="none" stroke="#1b507b" stroke-miterlimit="10" stroke-width="3.03"/>
        <line x1="309.98" y1="283.21" x2="326.26" y2="283.21" fill="none" stroke="#1b507b" stroke-miterlimit="10" stroke-width="3.03"/>
        <g>
          <rect x="405.14" y="223.44" width="17.93" height="25.73" fill="#90cfd2"/>
          <g>
            <polygon points="407.48 206.22 399.69 200.83 403.05 208.86 407.48 206.22" fill="#90cfd2"/>
            <polygon points="401.88 209.85 391.89 208.63 398.62 213.96 401.88 209.85" fill="#90cfd2"/>
            <polygon points="397.58 216.96 388.77 216.96 398.36 219.95 397.58 216.96" fill="#90cfd2"/>
            <polygon points="420.74 206.22 428.53 200.83 425.17 208.86 420.74 206.22" fill="#90cfd2"/>
            <polygon points="426.34 209.85 436.33 208.63 429.6 213.96 426.34 209.85" fill="#90cfd2"/>
            <polygon points="430.64 216.96 439.45 216.96 429.86 219.95 430.64 216.96" fill="#90cfd2"/>
            <polygon points="411.77 205.51 414.5 196.16 416.97 205.51 411.77 205.51" fill="#90cfd2"/>
          </g>
          <path d="M430.09,214.87a17.53,17.53,0,0,0-6.85-7.32l-.8-.46c-3.26-2.36-8.72-2.33-8.72-2.33a17.26,17.26,0,0,0-7.94,2.33l-.8.46a17.53,17.53,0,0,0-6.85,7.32,5.22,5.22,0,0,0,2.34,7l13.64-11.37,13.64,11.37A5.21,5.21,0,0,0,430.09,214.87Z" fill="#1b507b"/>
          <rect x="400.47" y="221.88" width="7.02" height="28.85" fill="#6186b6"/>
          <rect x="420.74" y="221.88" width="7.02" height="28.85" transform="translate(848.49 472.62) rotate(-180)" fill="#6186b6"/>
          <polygon points="448.81 367.68 448.81 440.97 384.09 423.04 429.31 367.68 448.81 367.68" fill="#7dc8c5"/>
          <polygon points="376.3 157.95 380.19 157.95 384.09 163.41 384.09 176.66 391.11 217.21 379.5 230.16 372.4 179 376.3 157.95" fill="#a0d6e2"/>
          <path d="M391.11,217.21l-20.27,22.61,13.25,22.61-7,10.13,7,14,39.77-39.77-11.79-5.69a37.16,37.16,0,0,1-16.55-15.79Z" fill="#7dc8c5"/>
          <path d="M423.86,246.83l7.47,3.92A18.09,18.09,0,0,1,441,265.43l7.82,102.25-24.95,17.93v12.48l-39.77,25v-78l-5.45-23.39,6.23-7.8-6.23-22.61Z" fill="#50bbb7"/>
          <polygon points="384.87 313.88 426.98 258.53 384.87 345.07 378.64 321.68 384.87 313.88" fill="#50bbb7" opacity="0.44" style="mix-blend-mode: multiply"/>
          <polygon points="423.86 385.61 423.86 338.05 413.72 382.49 423.86 385.61" fill="#50bbb7" opacity="0.44" style="mix-blend-mode: multiply"/>
          <polygon points="384.09 423.04 384.09 440.97 448.81 440.97 384.09 423.04" fill="#50bbb7"/>
          <rect x="378.64" y="440.97" width="74.07" height="10.92" fill="#b9c5d6"/>
          <rect x="371.62" y="451.88" width="86.54" height="11.69" fill="#6186b6"/>
          <rect x="378.64" y="463.58" width="74.07" height="35.86" fill="#b9c5d6"/>
          <rect x="370.06" y="499.44" width="88.1" height="10.14" fill="#6186b6"/>
          <rect x="363.04" y="509.58" width="100.58" height="9.36" fill="#6186b6"/>
          <polygon points="458.94 271.78 435.55 309.21 455.82 320.12 479.21 282.7 458.94 271.78" fill="#7dc8c5"/>
          <path d="M474.2,294.1l-1.48-2.36a5,5,0,0,0-7.78-.82l-2,2a5,5,0,0,0-.49,6.34l1.24,1.76L462,304.08a5,5,0,0,0,.24,5.36h0a2.11,2.11,0,0,0,3.49-.07l8.48-13A2.1,2.1,0,0,0,474.2,294.1Z" fill="#a0d6e2"/>
          <polygon points="366.94 137.68 384.09 137.68 387.99 147.04 363.82 147.04 366.94 137.68" fill="#7dc8c5"/>
          <polygon points="363.82 147.04 371.5 152.49 380.19 152.49 387.99 147.04 363.82 147.04" fill="#50bbb7"/>
          <rect x="372.4" y="152.49" width="7.8" height="26.51" fill="#50bbb7"/>
          <path d="M372.4,137.68V127.54a3.49,3.49,0,0,1,1.15-2.59L388,112v12.69a9.25,9.25,0,0,1-4.49,7.94l-3.3,2v3.12Z" fill="#a0d6e2"/>
          <rect x="368.5" y="154.83" width="7.8" height="15.59" rx="3.2" fill="#a0d6e2"/>
          <path d="M420.09,217l-5.91-3V214l-.07,0-.07,0V214l-5.91,3a5.24,5.24,0,0,0-2.9,4.69v8.55a7.46,7.46,0,0,0,4.12,6.67l.11.06a10.66,10.66,0,0,0,9.41-.06h0a7.46,7.46,0,0,0,4.12-6.67v-8.55A5.24,5.24,0,0,0,420.09,217Z" fill="#a0d6e2"/>
          <path d="M427.75,221.88A9.34,9.34,0,0,0,424,214.4l-3.12-2.34a9.39,9.39,0,0,0-5.61-1.87h-2.34a9.39,9.39,0,0,0-5.61,1.87l-3.12,2.34a9.34,9.34,0,0,0-3.74,7.48l4.76,1.86,8.88-6.87,8.88,6.87Z" fill="#6186b6"/>
        </g>
        <g>
          <rect x="473.8" y="378.35" width="4.23" height="10.42" fill="#1b507b"/>
          <rect x="486.49" y="378.35" width="4.23" height="10.42" fill="#1b507b"/>
        </g>
        <g>
          <rect x="473.8" y="397.1" width="4.23" height="10.42" fill="#1b507b"/>
          <rect x="486.49" y="397.1" width="4.23" height="10.42" fill="#1b507b"/>
        </g>
        <g>
          <rect x="473.8" y="415.85" width="4.23" height="10.42" fill="#1b507b"/>
          <rect x="486.49" y="415.85" width="4.23" height="10.42" fill="#1b507b"/>
        </g>
        <g>
          <rect x="175.09" y="438.48" width="3.97" height="10.59" fill="#6186b6"/>
          <rect x="187" y="438.48" width="3.97" height="10.59" fill="#6186b6"/>
          <rect x="175.09" y="458.34" width="3.97" height="10.59" fill="#6186b6"/>
          <rect x="187" y="458.34" width="3.97" height="10.59" fill="#6186b6"/>
        </g>
        <g>
          <polygon points="187.05 397.78 181.93 433.65 219.34 433.65 212.68 397.78 187.05 397.78" fill="#6186b6"/>
          <polygon points="143.74 319.1 146.82 324.23 144.77 324.23 144.77 328.33 142.72 328.33 141.18 341.14 135.03 341.14 138.62 318.59 143.74 319.1" fill="#e7f0f2"/>
          <polygon points="118.89 342.06 95.31 368.56 95.31 409.05 98.38 409.05 102.48 371.64 121.96 348.57 118.89 342.06" fill="#e7f0f2"/>
          <polygon points="85.57 415.2 96.33 415.2 107.1 415.2 111.2 446.21 96.33 446.21 81.47 446.21 85.57 415.2" fill="#1b507b"/>
          <polygon points="150.46 431.6 158.4 455.18 158.4 503.34 166.09 503.34 166.09 454.67 161.48 430.58 150.46 431.6" fill="#e7f0f2"/>
          <polygon points="126.57 431.6 126.57 445.95 115.31 503.34 120.95 503.34 139.9 445.95 139.9 431.6 126.57 431.6" fill="#e7f0f2"/>
          <polygon points="193.2 388.55 160.91 374.2 149.13 353.7 154.25 346.01 167.58 369.59 195.25 386.5 193.2 388.55" fill="#e7f0f2"/>
          <polygon points="211.14 385.99 187.05 397.78 198.33 433.65 232.16 417.25 211.14 385.99" fill="#f7e197"/>
          <path d="M99.92,415.2v-3.33a4.36,4.36,0,0,0-4.35-4.36h0a4.36,4.36,0,0,0-4.36,4.36v3.33" fill="none" stroke="#1f2b60" stroke-miterlimit="10" stroke-width="1.4"/>
          <path d="M203.07,389.94l-2.44-3.74a5.43,5.43,0,0,0-7.27-1.73h0a5.43,5.43,0,0,0-1.63,7.95l1.67,2.25" fill="none" stroke="#1f2b60" stroke-miterlimit="10" stroke-width="1.4"/>
          <circle cx="135.54" cy="315.51" r="7.61" fill="#1f2b60"/>
          <path d="M136.31,316.28H146a0,0,0,0,1,0,0v4.1a0,0,0,0,1,0,0h-6.18a3.56,3.56,0,0,1-3.56-3.56v-.54A0,0,0,0,1,136.31,316.28Z" transform="translate(282.36 636.67) rotate(-180)" fill="#1f2b60"/>
          <path d="M140.92,340.88h9a4.49,4.49,0,0,1,4.41,5.28l-4.18,23.43H128.62l-10.73-22.27a4.49,4.49,0,0,1,4-6.44Z" fill="#ec7163"/>
          <path d="M128.62,369.59h0a36.6,36.6,0,0,0-8,30.47l4.58,47.44h41l-16-77.91Z" fill="#1f2b60"/>
        </g>
        <path d="M47.21,518.9H505.1a0,0,0,0,1,0,0v68.28a27.64,27.64,0,0,1-27.64,27.64H74.85a27.64,27.64,0,0,1-27.64-27.64V518.9A0,0,0,0,1,47.21,518.9Z" fill="#1b507b"/>
        <path d="M47.21,566.53H505.1a0,0,0,0,1,0,0V602.2a20.67,20.67,0,0,1-20.67,20.67H67.89A20.67,20.67,0,0,1,47.21,602.2V566.53A0,0,0,0,1,47.21,566.53Z" fill="#6186b6"/>
        <text transform="translate(205.69 601.91)" font-size="27.15" fill="#e7f0f4"  letter-spacing="0.1em">紐約禮品展</text>
        <g>
          <text transform="translate(64.94 551.73) scale(0.83 1)" font-size="29.03" fill="#fff"  font-weight="700">2016</text>
          <line x1="201.28" y1="519.36" x2="201.28" y2="562.87" fill="none" stroke="#e7f0f2" stroke-miterlimit="10" stroke-width="1.1"/>
          <line x1="361.84" y1="519.36" x2="361.84" y2="562.87" fill="none" stroke="#e7f0f2" stroke-miterlimit="10" stroke-width="1.1"/>
          <text transform="translate(373.81 551.73) scale(0.83 1)" font-size="29.03" fill="#fff"  font-weight="700">2018</text>
          <text transform="translate(217.12 551.73) scale(0.83 1)" font-size="29.03" fill="#fff"  font-weight="700">2017</text>
        </g>
      </g>
    </g>
  </g>
</svg>
